M48
;GenerationSoftware,Autodesk,EAGLE,9.6.1*%
;CreationDate,2022-11-18T02:08:33Z*%
FMAT,2
ICI,OFF
METRIC,TZ,000.000
T15C0.200
T14C0.250
T13C0.350
T12C0.550
T11C0.650
T10C0.700
T9C0.850
T8C0.914
T7C1.100
T6C1.700
T5C1.802
T4C2.100
T3C3.000
T2C3.050
T1C4.000
%
G90
M71
T1
X238125Y190500
X233362Y133350
X38100Y209550
X161925Y190500
X71438Y133350
X259556Y152400
X52387Y171450
X76200Y209550
X166688Y171450
X209550Y209550
X47625Y133350
X242887Y171450
X21431Y171450
X157163Y152400
X90487Y171450
X85725Y190500
X219075Y190500
X21431Y152400
X171450Y209550
X285750Y152400
X61912Y152400
X304800Y171450
X233362Y152400
X180975Y190500
X304800Y152400
X223837Y171450
X47625Y190500
X285744Y179690
X185737Y171450
X261944Y179690
X19050Y209550
X247650Y209550
X214312Y152400
X176212Y152400
X109537Y171450
X266700Y209550
X209550Y141590
X23812Y133350
X190500Y209550
X71438Y171450
X285750Y209550
X280988Y133350
X66675Y190500
X200025Y190500
X23812Y190500
X57150Y209550
X104775Y190500
X257175Y190500
X204787Y171450
X95250Y209550
X228600Y209550
X80963Y152400
X280988Y190500
X195262Y152400
X42863Y152400
X26194Y171450
X273844Y171450
X100012Y152400
X152400Y133350
X95250Y141590
X114300Y209550
X123825Y190500
X128587Y171450
X119062Y152400
X133350Y209550
X142875Y190500
X147638Y171450
X138113Y152400
X152400Y209550
X276225Y209550
X288125Y201310
X264325Y201310
X30956Y152400
X42856Y144160
X19056Y144160
X269081Y152400
X235744Y133350
X257181Y144160
X280981Y144160
X21431Y133350
X45244Y133350
X69056Y133350
X140494Y133350
X190494Y141590
X90494Y141590
X211931Y133350
X304800Y133350
X285750Y133350
X257175Y133350
X266700Y133350
X-4763Y209550
X-4763Y190500
X-4763Y171450
X-4763Y152400
X-4763Y133350
X304800Y209550
X304800Y190500
T2
X285744Y164450
X261944Y164450
X190494Y126350
X90494Y126350
X280981Y159400
X42856Y159400
X19056Y159400
X264325Y216550
X209550Y126350
X95250Y126350
X288125Y216550
X257181Y159400
T3
X226377Y176530
X18891Y147320
X210502Y154940
X216852Y157480
X64452Y157480
X277178Y135890
X283528Y138430
X27622Y130810
X21273Y128270
X224790Y212090
X231140Y214630
X234315Y193040
X240665Y195580
X62865Y193040
X41910Y207010
X239077Y173990
X245427Y176530
X35560Y204470
X229552Y154940
X235902Y157480
X69215Y195580
X243840Y212090
X250190Y214630
X43815Y193040
X50165Y195580
X253365Y193040
X259715Y195580
X270034Y173990
X276384Y176530
X48577Y173990
X54927Y176530
X270510Y207010
X264160Y204470
X67628Y173990
X277178Y193040
X283528Y195580
X172403Y154940
X73978Y176530
X46672Y149860
X72390Y212090
X78740Y214630
X81915Y193040
X88265Y195580
X86678Y173990
X93027Y176530
X77153Y154940
X83503Y157480
X91440Y212090
X97790Y214630
X100965Y193040
X107315Y195580
X105727Y173990
X112077Y176530
X289560Y207010
X96202Y154940
X102552Y157480
X148590Y212090
X156210Y130810
X149860Y128270
X154940Y214630
X283210Y204470
X158115Y193040
X164465Y195580
X110490Y212090
X116840Y214630
X40323Y147320
X120015Y193040
X126365Y195580
X162878Y173990
X131128Y176530
X169228Y176530
X115252Y154940
X121602Y157480
X255746Y154940
X129540Y212090
X135890Y214630
X262096Y157480
X139065Y193040
X145415Y195580
X153353Y154940
X143828Y173990
X150178Y176530
X159703Y157480
X134303Y154940
X140653Y157480
X167640Y212090
X17621Y173990
X23971Y176530
X173990Y214630
X272415Y212090
X278765Y214630
X75248Y130810
X281940Y154940
X177165Y193040
X183515Y195580
X288290Y157480
X27146Y154940
X33496Y157480
X181927Y173990
X188277Y176530
X51435Y130810
X45085Y128270
X178752Y157480
X272891Y149860
X266541Y147320
X22860Y207010
X16510Y204470
X186690Y212090
X193040Y214630
X196215Y193040
X17621Y135890
X23971Y138430
X202565Y195580
X41434Y135890
X47784Y138430
X68898Y128270
X65246Y135890
X71596Y138430
X20003Y193040
X136684Y135890
X143034Y138430
X200977Y173990
X207327Y176530
X26352Y195580
X191452Y154940
X197802Y157480
X208121Y135890
X214471Y138430
X58102Y154940
X239554Y130810
X233204Y128270
X53340Y212090
X289560Y130810
X283210Y128270
X229552Y135890
X253365Y135890
X259715Y138430
X235902Y138430
X270510Y130810
X264160Y128270
X30004Y168910
X-8573Y212090
X-2223Y214630
X23654Y166370
X-8573Y193040
X-2223Y195580
X205740Y212090
X-8573Y173990
X-2223Y176530
X212090Y214630
X-8573Y154940
X-2223Y157480
X59690Y214630
X-8573Y135890
X-2223Y138430
X215265Y193040
X300990Y212090
X307340Y214630
X221615Y195580
X300990Y193040
X307340Y195580
X124777Y173990
X300990Y173990
X307340Y176530
X25241Y149860
X300990Y154940
X307340Y157480
X220027Y173990
X300990Y135890
X307340Y138430
T4
X304800Y200025
X90487Y161925
X269081Y190500
X185737Y161925
X-4763Y142875
X247650Y142875
X19050Y200025
X-4763Y200025
X52387Y142875
X35719Y190500
X304800Y142875
T5
X219392Y152400
X275908Y133350
X118745Y190500
X128905Y190500
X286068Y133350
X223520Y209550
X233680Y209550
X123507Y171450
X133668Y171450
X81280Y209550
X233045Y190500
X243205Y190500
X113982Y152400
X124142Y152400
X237807Y171450
X247967Y171450
X228282Y152400
X128270Y209550
X138430Y209550
X238442Y152400
X242570Y209550
X252730Y209550
X137795Y190500
X147955Y190500
X252095Y190500
X262255Y190500
X16351Y171450
X142558Y171450
X152718Y171450
X268764Y171450
X278924Y171450
X271780Y209550
X133033Y152400
X143193Y152400
X261620Y209550
X275908Y190500
X286068Y190500
X147320Y209550
X157480Y209550
X26511Y171450
X290830Y209550
X280670Y209550
X254476Y152400
X271145Y209550
X281305Y209550
X264636Y152400
X280670Y152400
X290830Y152400
X24130Y209550
X13970Y209550
X18733Y190500
X28892Y190500
X25876Y152400
X36036Y152400
X31274Y171450
X21114Y171450
X26511Y152400
X28892Y133350
X18733Y133350
X43180Y209550
X33020Y209550
X274161Y152400
X264001Y152400
X42545Y190500
X52705Y190500
X47307Y171450
X57467Y171450
X47942Y152400
X37783Y152400
X52705Y133350
X16351Y133350
X26511Y133350
X42545Y133350
X52070Y209550
X62230Y209550
X40164Y133350
X50324Y133350
X61595Y190500
X71755Y190500
X66358Y171450
X63976Y133350
X74136Y133350
X76518Y171450
X56832Y152400
X66993Y152400
X135414Y133350
X145574Y133350
X76518Y133350
X66358Y133350
X16351Y152400
X71120Y209550
X156845Y190500
X167005Y190500
X80645Y190500
X206851Y133350
X217011Y133350
X90805Y190500
X161608Y171450
X171768Y171450
X240824Y133350
X230664Y133350
X152083Y152400
X85408Y171450
X95567Y171450
X290830Y133350
X280670Y133350
X162243Y152400
X166370Y209550
X176530Y209550
X252095Y133350
X262255Y133350
X75883Y152400
X86043Y152400
X175895Y190500
X271780Y133350
X261620Y133350
X186055Y190500
X180657Y171450
X90170Y209550
X-9843Y209550
X318Y209550
X100330Y209550
X190817Y171450
X171133Y152400
X-9843Y190500
X318Y190500
X181292Y152400
X99695Y190500
X109855Y190500
X-9843Y171450
X318Y171450
X185420Y209550
X195580Y209550
X194945Y190500
X-9843Y152400
X318Y152400
X104457Y171450
X114617Y171450
X205105Y190500
X-9843Y133350
X318Y133350
X199707Y171450
X209867Y171450
X94932Y152400
X299720Y209550
X309880Y209550
X105092Y152400
X190182Y152400
X200342Y152400
X299720Y190500
X309880Y190500
X228282Y133350
X238442Y133350
X204470Y209550
X299720Y171450
X309880Y171450
X214630Y209550
X213995Y190500
X224155Y190500
X299720Y152400
X309880Y152400
X218757Y171450
X228917Y171450
X109220Y209550
X299720Y133350
X309880Y133350
X119380Y209550
X209232Y152400
T6
X157480Y133350
X147320Y133350
T7
X24765Y200025
X27305Y200025
X29845Y200025
X32385Y200025
X119420Y125611
X121960Y125611
X124500Y125611
X127040Y125611
T8
X113300Y125611
X115300Y125611
T9
X41672Y170569
X41672Y167569
T10
X25225Y214234
X31005Y214234
T11
X23795Y213704
X32435Y213704
X23795Y217884
X32435Y217884
T12
X76795Y181861
X76795Y183661
X141089Y181861
X141089Y183661
T13
X87200Y215900
X14100Y166500
X14062Y150164
X168600Y146796
X130495Y138491
X130300Y129542
X204311Y147609
X59600Y148015
X73500Y147609
X92900Y144500
X93882Y159718
X90300Y144500
X132880Y135890
X146310Y128270
X133382Y131600
X149600Y146390
X129852Y137848
X129629Y128929
X187500Y147202
X225742Y148015
X252300Y148700
X252187Y174400
X90078Y206720
X92237Y145200
X62295Y186877
X51828Y206870
X38583Y187100
X37483Y192700
X-2000Y186358
X6477Y201277
X258383Y198017
X257800Y206800
X312932Y206500
X312600Y186500
X98455Y188243
X91578Y144478
X6100Y199000
X5100Y188900
X259554Y206500
X260300Y187992
X259900Y184830
X100447Y168942
X90922Y145200
X37217Y186928
X36909Y170410
X37274Y159974
X252594Y182336
X252600Y168942
X297838Y195600
X297838Y170400
X33153Y149883
X36136Y186522
X250847Y182847
X250872Y150550
X250872Y139611
X311944Y150000
X312059Y178311
X120485Y130085
X112965Y128565
X38986Y130264
X36780Y185880
X36862Y149234
X250802Y138702
X251279Y183700
X312932Y130300
X311100Y178558
X272710Y184000
X277472Y147900
X296929Y186200
X277472Y145703
X298100Y146900
X15535Y183500
X13154Y144400
X59200Y181700
X36600Y124622
X85300Y124622
X261600Y217100
X285750Y171450
X11906Y216694
X289500Y141200
X2381Y142875
X2381Y161925
X4763Y197644
X12806Y195262
X292100Y216000
X298300Y216000
X104300Y204400
X51000Y215800
X43600Y149300
X27900Y145900
X286200Y185500
X39657Y196857
X50200Y184305
X131409Y132300
X136242Y187334
X44002Y187334
X132640Y202258
X132067Y131600
X133549Y201349
X132725Y132300
X27379Y208791
X28715Y209315
X25900Y209000
X29023Y210224
X130373Y206384
X40100Y179700
X42200Y165900
X138090Y179766
X130495Y144400
X39700Y185100
X130552Y143400
X138090Y178800
X103800Y145000
X86100Y138700
X82500Y127200
X34900Y127200
X11300Y159000
X11709Y187700
X15000Y214500
X89542Y145200
X7537Y205100
X10729Y202800
X131700Y127200
X172800Y127100
X220500Y127200
X253700Y127800
X163500Y215100
X291985Y141015
X291700Y169600
X291491Y190800
X220700Y215100
X269700Y215600
X278626Y207474
X30021Y208000
X36800Y194000
X39900Y164900
X159760Y130810
X146838Y138430
X113000Y127600
X121785Y129036
X293000Y136300
X291600Y124800
X292000Y140100
X292900Y169700
X292400Y173400
X292400Y190837
X289900Y204100
X292000Y194900
X11600Y214900
X10800Y187700
X10322Y183600
X10322Y159400
X7537Y153200
T14
X17463Y127635
X17463Y128905
X45720Y206375
X45720Y207645
X31750Y203835
X31750Y205105
X40005Y193675
X40005Y192405
X53975Y196215
X53975Y194945
X44767Y174625
X44767Y173355
X58737Y177165
X58737Y175895
X50482Y149225
X50482Y150495
X36513Y146685
X36513Y147955
X55245Y130175
X55245Y131445
X41275Y127635
X41275Y128905
X49530Y212725
X49530Y211455
X63500Y215265
X63500Y213995
X59055Y193675
X59055Y192405
X73025Y196215
X73025Y194945
X63817Y174625
X63817Y173355
X77788Y177165
X77788Y175895
X54292Y155575
X54292Y154305
X68263Y158115
X68263Y156845
X79058Y130175
X79058Y131445
X65087Y127635
X65087Y128905
X68580Y212725
X68580Y211455
X82550Y215265
X82550Y213995
X78105Y193675
X78105Y192405
X92075Y196215
X92075Y194945
X82868Y174625
X82868Y173355
X96837Y177165
X96837Y175895
X73343Y155575
X73343Y154305
X87313Y158115
X87313Y156845
X87630Y212725
X87630Y211455
X101600Y215265
X101600Y213995
X97155Y193675
X97155Y192405
X111125Y196215
X111125Y194945
X101917Y174625
X101917Y173355
X115887Y177165
X115887Y175895
X92392Y155575
X92392Y154305
X106362Y158115
X106362Y156845
X106680Y212725
X106680Y211455
X120650Y215265
X120650Y213995
X116205Y193675
X116205Y192405
X130175Y196215
X130175Y194945
X120967Y174625
X120967Y173355
X134938Y177165
X134938Y175895
X111442Y155575
X111442Y154305
X125412Y158115
X125412Y156845
X125730Y212725
X125730Y211455
X139700Y215265
X139700Y213995
X135255Y193675
X135255Y192405
X149225Y196215
X149225Y194945
X140018Y174625
X140018Y173355
X153988Y177165
X153988Y175895
X130492Y155575
X130492Y154305
X144463Y158115
X144463Y156845
X144780Y212725
X144780Y211455
X158750Y215265
X158750Y213995
X154305Y193675
X154305Y192405
X168275Y196215
X168275Y194945
X159068Y174625
X159068Y173355
X173038Y177165
X173038Y175895
X149543Y155575
X149543Y154305
X163513Y158115
X163513Y156845
X163830Y212725
X163830Y211455
X177800Y215265
X177800Y213995
X173355Y193675
X173355Y192405
X187325Y196215
X187325Y194945
X178117Y174625
X178117Y173355
X192087Y177165
X192087Y175895
X168593Y155575
X168593Y154305
X182562Y158115
X182562Y156845
X182880Y212725
X182880Y211455
X196850Y215265
X196850Y213995
X192405Y193675
X192405Y192405
X206375Y196215
X206375Y194945
X197167Y174625
X197167Y173355
X211137Y177165
X211137Y175895
X187642Y155575
X187642Y154305
X201612Y158115
X201612Y156845
X225742Y136525
X225742Y135255
X239712Y139065
X239712Y137795
X201930Y212725
X201930Y211455
X215900Y215265
X215900Y213995
X211455Y193675
X211455Y192405
X225425Y196215
X225425Y194945
X216217Y174625
X216217Y173355
X230187Y177165
X230187Y175895
X206692Y155575
X206692Y154305
X220662Y158115
X220662Y156845
X273368Y136525
X273368Y135255
X287338Y139065
X287338Y137795
X220980Y212725
X220980Y211455
X234950Y215265
X234950Y213995
X230505Y193675
X230505Y192405
X244475Y196215
X244475Y194945
X235267Y174625
X235267Y173355
X249237Y177165
X249237Y175895
X225742Y155575
X225742Y154305
X239712Y158115
X239712Y156845
X240030Y212725
X240030Y211455
X254000Y215265
X254000Y213995
X249555Y193675
X249555Y192405
X263525Y196215
X263525Y194945
X274320Y206375
X274320Y207645
X260350Y203835
X260350Y205105
X273368Y193675
X273368Y192405
X287338Y196215
X287338Y194945
X293370Y206375
X293370Y207645
X279400Y203835
X279400Y205105
X251936Y155575
X251936Y154305
X265906Y158115
X265906Y156845
X278130Y155575
X278130Y154305
X292100Y158115
X292100Y156845
X13811Y174625
X13811Y173355
X27781Y177165
X27781Y175895
X13811Y136525
X13811Y135255
X27781Y139065
X27781Y137795
X37624Y136525
X37624Y135255
X51594Y139065
X51594Y137795
X61436Y136525
X61436Y135255
X75406Y139065
X75406Y137795
X204311Y136525
X204311Y135255
X218281Y139065
X218281Y137795
X243364Y130175
X243364Y131445
X229394Y127635
X229394Y128905
X293370Y130175
X293370Y131445
X279400Y127635
X279400Y128905
X249555Y136525
X249555Y135255
X263525Y139065
X263525Y137795
X26670Y206375
X26670Y207645
X12700Y203835
X12700Y205105
X16192Y193675
X16192Y192405
X30162Y196215
X30162Y194945
X33814Y168275
X33814Y169545
X19844Y165735
X19844Y167005
X29051Y149225
X29051Y150495
X15081Y146685
X15081Y147955
X31432Y130175
X31432Y131445
X274320Y130175
X274320Y131445
X260350Y127635
X260350Y128905
X-12382Y212725
X-12382Y211455
X1587Y215265
X1587Y213995
X-12382Y193675
X-12382Y192405
X1587Y196215
X1587Y194945
X-12382Y174625
X-12382Y173355
X1587Y177165
X1587Y175895
X-12382Y155575
X-12382Y154305
X1587Y158115
X1587Y156845
X-12382Y136525
X-12382Y135255
X1587Y139065
X1587Y137795
X297180Y212725
X297180Y211455
X311150Y215265
X311150Y213995
X297180Y193675
X297180Y192405
X311150Y196215
X311150Y194945
X297180Y174625
X297180Y173355
X311150Y177165
X311150Y175895
X297180Y155575
X297180Y154305
X311150Y158115
X311150Y156845
X297180Y136525
X297180Y135255
X311150Y139065
X311150Y137795
T15
X37306Y158115
X37306Y156845
X276701Y149225
X276701Y150495
X262731Y146685
X262731Y147955
X266224Y174625
X266224Y173355
X280194Y177165
X280194Y175895
X268605Y212725
X268605Y211455
X282575Y215265
X282575Y213995
X23336Y155575
X23336Y154305
M30