G04 EAGLE Gerber RS-274X export*
G75*
%MOMM*%
%FSLAX34Y34*%
%LPD*%
%IN*%
%IPPOS*%
%AMOC8*
5,1,8,0,0,1.08239X$1,22.5*%
G01*
%ADD10C,0.254000*%


D10*
X5953Y71438D02*
X6112Y67806D01*
X6586Y64201D01*
X7373Y60652D01*
X8466Y57185D01*
X9857Y53826D01*
X11536Y50602D01*
X13489Y47536D01*
X15703Y44651D01*
X18159Y41971D01*
X20839Y39515D01*
X23723Y37302D01*
X26789Y35349D01*
X30014Y33670D01*
X33372Y32279D01*
X36840Y31186D01*
X40389Y30399D01*
X43993Y29924D01*
X47625Y29766D01*
X428625Y29766D01*
X432257Y29924D01*
X435861Y30399D01*
X439410Y31186D01*
X442878Y32279D01*
X446236Y33670D01*
X449461Y35349D01*
X452527Y37302D01*
X455411Y39515D01*
X458091Y41971D01*
X460548Y44651D01*
X462761Y47536D01*
X464714Y50602D01*
X466393Y53826D01*
X467784Y57185D01*
X468877Y60652D01*
X469664Y64201D01*
X470138Y67806D01*
X470297Y71438D01*
X470297Y166688D01*
X470138Y170319D01*
X469664Y173924D01*
X468877Y177473D01*
X467784Y180940D01*
X466393Y184299D01*
X464714Y187523D01*
X462761Y190590D01*
X460548Y193474D01*
X458091Y196154D01*
X455411Y198610D01*
X452527Y200823D01*
X449461Y202776D01*
X446236Y204455D01*
X442878Y205846D01*
X439410Y206939D01*
X435861Y207726D01*
X432257Y208201D01*
X428625Y208359D01*
X291703Y208359D01*
X291184Y208382D01*
X290669Y208450D01*
X290162Y208562D01*
X289667Y208718D01*
X289187Y208917D01*
X288727Y209157D01*
X288289Y209436D01*
X287877Y209752D01*
X287494Y210103D01*
X287143Y210486D01*
X286827Y210898D01*
X286548Y211336D01*
X286308Y211797D01*
X286109Y212276D01*
X285953Y212772D01*
X285840Y213279D01*
X285773Y213794D01*
X285750Y214313D01*
X285727Y214831D01*
X285660Y215346D01*
X285547Y215853D01*
X285391Y216349D01*
X285192Y216828D01*
X284952Y217289D01*
X284673Y217727D01*
X284357Y218139D01*
X284006Y218522D01*
X283623Y218873D01*
X283211Y219189D01*
X282773Y219468D01*
X282313Y219708D01*
X281833Y219907D01*
X281338Y220063D01*
X280831Y220175D01*
X280316Y220243D01*
X279797Y220266D01*
X196453Y220266D01*
X195934Y220243D01*
X195419Y220175D01*
X194912Y220063D01*
X194417Y219907D01*
X193937Y219708D01*
X193477Y219468D01*
X193039Y219189D01*
X192627Y218873D01*
X192244Y218522D01*
X191893Y218139D01*
X191577Y217727D01*
X191298Y217289D01*
X191058Y216828D01*
X190859Y216349D01*
X190703Y215853D01*
X190590Y215346D01*
X190523Y214831D01*
X190500Y214313D01*
X190477Y213794D01*
X190410Y213279D01*
X190297Y212772D01*
X190141Y212276D01*
X189942Y211797D01*
X189702Y211336D01*
X189423Y210898D01*
X189107Y210486D01*
X188756Y210103D01*
X188373Y209752D01*
X187961Y209436D01*
X187523Y209157D01*
X187063Y208917D01*
X186583Y208718D01*
X186088Y208562D01*
X185581Y208450D01*
X185066Y208382D01*
X184547Y208359D01*
X47625Y208359D01*
X43993Y208201D01*
X40389Y207726D01*
X36840Y206939D01*
X33372Y205846D01*
X30014Y204455D01*
X26789Y202776D01*
X23723Y200823D01*
X20839Y198610D01*
X18159Y196154D01*
X15703Y193474D01*
X13489Y190590D01*
X11536Y187523D01*
X9857Y184299D01*
X8466Y180940D01*
X7373Y177473D01*
X6586Y173924D01*
X6112Y170319D01*
X5953Y166688D01*
X5953Y71438D01*
X191675Y205359D02*
X191687Y205076D01*
X191724Y204795D01*
X191786Y204518D01*
X191871Y204248D01*
X191980Y203986D01*
X192110Y203734D01*
X192263Y203495D01*
X192435Y203270D01*
X192627Y203061D01*
X192836Y202870D01*
X193061Y202697D01*
X193300Y202545D01*
X193552Y202414D01*
X193813Y202305D01*
X194084Y202220D01*
X194361Y202159D01*
X194642Y202122D01*
X194925Y202109D01*
X195208Y202122D01*
X195489Y202159D01*
X195766Y202220D01*
X196037Y202305D01*
X196299Y202414D01*
X196550Y202545D01*
X196789Y202697D01*
X197014Y202870D01*
X197223Y203061D01*
X197415Y203270D01*
X197587Y203495D01*
X197740Y203734D01*
X197871Y203986D01*
X197979Y204248D01*
X198064Y204518D01*
X198126Y204795D01*
X198163Y205076D01*
X198175Y205359D01*
X198175Y211359D01*
X198163Y211643D01*
X198126Y211924D01*
X198064Y212201D01*
X197979Y212471D01*
X197871Y212733D01*
X197740Y212984D01*
X197587Y213224D01*
X197415Y213448D01*
X197223Y213657D01*
X197014Y213849D01*
X196789Y214022D01*
X196550Y214174D01*
X196299Y214305D01*
X196037Y214413D01*
X195766Y214499D01*
X195489Y214560D01*
X195208Y214597D01*
X194925Y214609D01*
X194642Y214597D01*
X194361Y214560D01*
X194084Y214499D01*
X193813Y214413D01*
X193552Y214305D01*
X193300Y214174D01*
X193061Y214022D01*
X192836Y213849D01*
X192627Y213657D01*
X192435Y213448D01*
X192263Y213224D01*
X192110Y212984D01*
X191980Y212733D01*
X191871Y212471D01*
X191786Y212201D01*
X191724Y211924D01*
X191687Y211643D01*
X191675Y211359D01*
X191675Y205359D01*
X278075Y205359D02*
X278087Y205076D01*
X278124Y204795D01*
X278186Y204518D01*
X278271Y204248D01*
X278380Y203986D01*
X278510Y203734D01*
X278663Y203495D01*
X278835Y203270D01*
X279027Y203061D01*
X279236Y202870D01*
X279461Y202697D01*
X279700Y202545D01*
X279952Y202414D01*
X280213Y202305D01*
X280484Y202220D01*
X280761Y202159D01*
X281042Y202122D01*
X281325Y202109D01*
X281608Y202122D01*
X281889Y202159D01*
X282166Y202220D01*
X282437Y202305D01*
X282699Y202414D01*
X282950Y202545D01*
X283189Y202697D01*
X283414Y202870D01*
X283623Y203061D01*
X283815Y203270D01*
X283987Y203495D01*
X284140Y203734D01*
X284271Y203986D01*
X284379Y204248D01*
X284464Y204518D01*
X284526Y204795D01*
X284563Y205076D01*
X284575Y205359D01*
X284575Y211359D01*
X284563Y211643D01*
X284526Y211924D01*
X284464Y212201D01*
X284379Y212471D01*
X284271Y212733D01*
X284140Y212984D01*
X283987Y213224D01*
X283815Y213448D01*
X283623Y213657D01*
X283414Y213849D01*
X283189Y214022D01*
X282950Y214174D01*
X282699Y214305D01*
X282437Y214413D01*
X282166Y214499D01*
X281889Y214560D01*
X281608Y214597D01*
X281325Y214609D01*
X281042Y214597D01*
X280761Y214560D01*
X280484Y214499D01*
X280213Y214413D01*
X279952Y214305D01*
X279700Y214174D01*
X279461Y214022D01*
X279236Y213849D01*
X279027Y213657D01*
X278835Y213448D01*
X278663Y213224D01*
X278510Y212984D01*
X278380Y212733D01*
X278271Y212471D01*
X278186Y212201D01*
X278124Y211924D01*
X278087Y211643D01*
X278075Y211359D01*
X278075Y205359D01*
X191675Y161059D02*
X191687Y160776D01*
X191724Y160495D01*
X191786Y160218D01*
X191871Y159948D01*
X191980Y159686D01*
X192110Y159434D01*
X192263Y159195D01*
X192435Y158970D01*
X192627Y158761D01*
X192836Y158570D01*
X193061Y158397D01*
X193300Y158245D01*
X193552Y158114D01*
X193813Y158005D01*
X194084Y157920D01*
X194361Y157859D01*
X194642Y157822D01*
X194925Y157809D01*
X195208Y157822D01*
X195489Y157859D01*
X195766Y157920D01*
X196037Y158005D01*
X196299Y158114D01*
X196550Y158245D01*
X196789Y158397D01*
X197014Y158570D01*
X197223Y158761D01*
X197415Y158970D01*
X197587Y159195D01*
X197740Y159434D01*
X197871Y159686D01*
X197979Y159948D01*
X198064Y160218D01*
X198126Y160495D01*
X198163Y160776D01*
X198175Y161059D01*
X198175Y172059D01*
X198163Y172343D01*
X198126Y172624D01*
X198064Y172901D01*
X197979Y173171D01*
X197871Y173433D01*
X197740Y173684D01*
X197587Y173924D01*
X197415Y174148D01*
X197223Y174357D01*
X197014Y174549D01*
X196789Y174722D01*
X196550Y174874D01*
X196299Y175005D01*
X196037Y175113D01*
X195766Y175199D01*
X195489Y175260D01*
X195208Y175297D01*
X194925Y175309D01*
X194642Y175297D01*
X194361Y175260D01*
X194084Y175199D01*
X193813Y175113D01*
X193552Y175005D01*
X193300Y174874D01*
X193061Y174722D01*
X192836Y174549D01*
X192627Y174357D01*
X192435Y174148D01*
X192263Y173924D01*
X192110Y173684D01*
X191980Y173433D01*
X191871Y173171D01*
X191786Y172901D01*
X191724Y172624D01*
X191687Y172343D01*
X191675Y172059D01*
X191675Y161059D01*
X278075Y161059D02*
X278087Y160776D01*
X278124Y160495D01*
X278186Y160218D01*
X278271Y159948D01*
X278380Y159686D01*
X278510Y159434D01*
X278663Y159195D01*
X278835Y158970D01*
X279027Y158761D01*
X279236Y158570D01*
X279461Y158397D01*
X279700Y158245D01*
X279952Y158114D01*
X280213Y158005D01*
X280484Y157920D01*
X280761Y157859D01*
X281042Y157822D01*
X281325Y157809D01*
X281608Y157822D01*
X281889Y157859D01*
X282166Y157920D01*
X282437Y158005D01*
X282699Y158114D01*
X282950Y158245D01*
X283189Y158397D01*
X283414Y158570D01*
X283623Y158761D01*
X283815Y158970D01*
X283987Y159195D01*
X284140Y159434D01*
X284271Y159686D01*
X284379Y159948D01*
X284464Y160218D01*
X284526Y160495D01*
X284563Y160776D01*
X284575Y161059D01*
X284575Y172059D01*
X284563Y172343D01*
X284526Y172624D01*
X284464Y172901D01*
X284379Y173171D01*
X284271Y173433D01*
X284140Y173684D01*
X283987Y173924D01*
X283815Y174148D01*
X283623Y174357D01*
X283414Y174549D01*
X283189Y174722D01*
X282950Y174874D01*
X282699Y175005D01*
X282437Y175113D01*
X282166Y175199D01*
X281889Y175260D01*
X281608Y175297D01*
X281325Y175309D01*
X281042Y175297D01*
X280761Y175260D01*
X280484Y175199D01*
X280213Y175113D01*
X279952Y175005D01*
X279700Y174874D01*
X279461Y174722D01*
X279236Y174549D01*
X279027Y174357D01*
X278835Y174148D01*
X278663Y173924D01*
X278510Y173684D01*
X278380Y173433D01*
X278271Y173171D01*
X278186Y172901D01*
X278124Y172624D01*
X278087Y172343D01*
X278075Y172059D01*
X278075Y161059D01*
X263525Y172089D02*
X263585Y172544D01*
X263704Y172987D01*
X263879Y173411D01*
X264109Y173808D01*
X264388Y174172D01*
X264712Y174496D01*
X265076Y174776D01*
X265474Y175005D01*
X265898Y175181D01*
X266341Y175300D01*
X266796Y175359D01*
X267254Y175359D01*
X267709Y175300D01*
X268152Y175181D01*
X268576Y175005D01*
X268974Y174776D01*
X269338Y174496D01*
X269662Y174172D01*
X269941Y173808D01*
X270171Y173411D01*
X270346Y172987D01*
X270465Y172544D01*
X270525Y172089D01*
X270525Y171630D01*
X270465Y171175D01*
X270346Y170732D01*
X270171Y170308D01*
X269941Y169911D01*
X269662Y169547D01*
X269338Y169222D01*
X268974Y168943D01*
X268576Y168714D01*
X268152Y168538D01*
X267709Y168419D01*
X267254Y168359D01*
X266796Y168359D01*
X266341Y168419D01*
X265898Y168538D01*
X265474Y168714D01*
X265076Y168943D01*
X264712Y169222D01*
X264388Y169547D01*
X264109Y169911D01*
X263879Y170308D01*
X263704Y170732D01*
X263585Y171175D01*
X263525Y171630D01*
X263525Y172089D01*
X205725Y172089D02*
X205785Y172544D01*
X205904Y172987D01*
X206079Y173411D01*
X206309Y173808D01*
X206588Y174172D01*
X206912Y174496D01*
X207276Y174776D01*
X207674Y175005D01*
X208098Y175181D01*
X208541Y175300D01*
X208996Y175359D01*
X209454Y175359D01*
X209909Y175300D01*
X210352Y175181D01*
X210776Y175005D01*
X211174Y174776D01*
X211538Y174496D01*
X211862Y174172D01*
X212141Y173808D01*
X212371Y173411D01*
X212546Y172987D01*
X212665Y172544D01*
X212725Y172089D01*
X212725Y171630D01*
X212665Y171175D01*
X212546Y170732D01*
X212371Y170308D01*
X212141Y169911D01*
X211862Y169547D01*
X211538Y169222D01*
X211174Y168943D01*
X210776Y168714D01*
X210352Y168538D01*
X209909Y168419D01*
X209454Y168359D01*
X208996Y168359D01*
X208541Y168419D01*
X208098Y168538D01*
X207674Y168714D01*
X207276Y168943D01*
X206912Y169222D01*
X206588Y169547D01*
X206309Y169911D01*
X206079Y170308D01*
X205904Y170732D01*
X205785Y171175D01*
X205725Y171630D01*
X205725Y172089D01*
X374141Y190762D02*
X374209Y191282D01*
X374345Y191789D01*
X374545Y192273D01*
X374808Y192727D01*
X375127Y193143D01*
X375498Y193514D01*
X375914Y193833D01*
X376368Y194095D01*
X376852Y194296D01*
X377359Y194432D01*
X377878Y194500D01*
X378403Y194500D01*
X378923Y194432D01*
X379429Y194296D01*
X379914Y194095D01*
X380368Y193833D01*
X380784Y193514D01*
X381154Y193143D01*
X381474Y192727D01*
X381736Y192273D01*
X381936Y191789D01*
X382072Y191282D01*
X382141Y190762D01*
X382141Y190238D01*
X382072Y189718D01*
X381936Y189211D01*
X381736Y188727D01*
X381474Y188273D01*
X381154Y187857D01*
X380784Y187486D01*
X380368Y187167D01*
X379914Y186905D01*
X379429Y186704D01*
X378923Y186568D01*
X378403Y186500D01*
X377878Y186500D01*
X377359Y186568D01*
X376852Y186704D01*
X376368Y186905D01*
X375914Y187167D01*
X375498Y187486D01*
X375127Y187857D01*
X374808Y188273D01*
X374545Y188727D01*
X374345Y189211D01*
X374209Y189718D01*
X374141Y190238D01*
X374141Y190762D01*
X344141Y190762D02*
X344209Y191282D01*
X344345Y191789D01*
X344545Y192273D01*
X344808Y192727D01*
X345127Y193143D01*
X345498Y193514D01*
X345914Y193833D01*
X346368Y194095D01*
X346852Y194296D01*
X347359Y194432D01*
X347878Y194500D01*
X348403Y194500D01*
X348923Y194432D01*
X349429Y194296D01*
X349914Y194095D01*
X350368Y193833D01*
X350784Y193514D01*
X351154Y193143D01*
X351474Y192727D01*
X351736Y192273D01*
X351936Y191789D01*
X352072Y191282D01*
X352141Y190762D01*
X352141Y190238D01*
X352072Y189718D01*
X351936Y189211D01*
X351736Y188727D01*
X351474Y188273D01*
X351154Y187857D01*
X350784Y187486D01*
X350368Y187167D01*
X349914Y186905D01*
X349429Y186704D01*
X348923Y186568D01*
X348403Y186500D01*
X347878Y186500D01*
X347359Y186568D01*
X346852Y186704D01*
X346368Y186905D01*
X345914Y187167D01*
X345498Y187486D01*
X345127Y187857D01*
X344808Y188273D01*
X344545Y188727D01*
X344345Y189211D01*
X344209Y189718D01*
X344141Y190238D01*
X344141Y190762D01*
M02*
