<?xml version="1.0"?>
<!-- Generated by SVGo -->
<svg width="258.602mm" height="106.202mm"
     viewBox="0.000 0.000 258.602 106.202"
     xmlns="http://www.w3.org/2000/svg" 
     xmlns:xlink="http://www.w3.org/1999/xlink">
<polygon points="248.602,5.001 248.994,5.016 249.384,5.062 249.769,5.139 250.147,5.245 250.515,5.381 250.871,5.545 251.214,5.737 251.540,5.955 251.849,6.198 252.137,6.465 252.404,6.753 252.647,7.062 252.865,7.388 253.057,7.731 253.221,8.087 253.357,8.455 253.463,8.833 253.540,9.218 253.586,9.608 253.602,10.001 253.602,96.202 253.586,96.594 253.540,96.984 253.463,97.369 253.357,97.747 253.221,98.115 253.057,98.471 252.865,98.814 252.647,99.140 252.404,99.449 252.137,99.737 251.849,100.004 251.540,100.247 251.214,100.465 250.871,100.657 250.515,100.821 250.147,100.957 249.769,101.063 249.384,101.140 248.994,101.186 248.602,101.202 10.001,101.202 9.608,101.186 9.218,101.140 8.833,101.063 8.455,100.957 8.087,100.821 7.731,100.657 7.388,100.465 7.062,100.247 6.753,100.004 6.465,99.737 6.198,99.449 5.955,99.140 5.737,98.814 5.545,98.471 5.381,98.115 5.245,97.747 5.139,97.369 5.062,96.984 5.016,96.594 5.000,96.201 5.001,10.001 5.016,9.608 5.062,9.218 5.139,8.833 5.245,8.455 5.381,8.087 5.545,7.731 5.737,7.388 5.955,7.062 6.198,6.753 6.465,6.465 6.753,6.198 7.062,5.955 7.388,5.737 7.731,5.545 8.087,5.381 8.455,5.245 8.833,5.139 9.218,5.062 9.608,5.016 10.001,5.000" style="fill:none;stroke-width:0.050000mm;stroke:black"/>
<polygon points="250.792,97.750 250.514,97.892 250.292,98.114 250.150,98.392 250.102,98.702 250.150,99.011 250.292,99.289 250.514,99.511 250.792,99.653 251.102,99.702 251.411,99.653 251.689,99.511 251.911,99.289 252.053,99.011 252.102,98.702 252.053,98.392 251.911,98.114 251.689,97.892 251.411,97.750 251.102,97.702" style="fill:none;stroke-width:0.050000mm;stroke:black"/>
<polygon points="169.592,97.750 169.313,97.892 169.092,98.114 168.950,98.392 168.901,98.702 168.950,99.011 169.092,99.289 169.313,99.511 169.592,99.653 169.901,99.702 170.210,99.653 170.489,99.511 170.710,99.289 170.852,99.011 170.901,98.702 170.852,98.392 170.710,98.114 170.489,97.892 170.210,97.750 169.901,97.702" style="fill:none;stroke-width:0.050000mm;stroke:black"/>
<polygon points="88.392,97.750 88.113,97.892 87.892,98.114 87.750,98.392 87.701,98.702 87.750,99.011 87.892,99.289 88.113,99.511 88.392,99.653 88.701,99.702 89.010,99.653 89.289,99.511 89.510,99.289 89.652,99.011 89.701,98.702 89.652,98.392 89.510,98.114 89.289,97.892 89.010,97.750 88.701,97.702" style="fill:none;stroke-width:0.050000mm;stroke:black"/>
<polygon points="7.191,97.750 6.913,97.892 6.691,98.114 6.549,98.392 6.501,98.702 6.549,99.011 6.691,99.289 6.913,99.511 7.191,99.653 7.501,99.702 7.810,99.653 8.088,99.511 8.310,99.289 8.452,99.011 8.501,98.702 8.452,98.392 8.310,98.114 8.088,97.892 7.810,97.750 7.501,97.702" style="fill:none;stroke-width:0.050000mm;stroke:black"/>
<polygon points="96.107,74.676 96.107,79.376 94.582,79.376 94.582,76.146 92.857,76.146 92.857,75.226 89.557,75.226 89.557,76.146 87.832,76.146 87.832,79.376 87.007,79.376 87.007,82.176 87.832,82.176 87.832,88.446 89.557,88.446 89.557,89.426 92.857,89.426 92.857,88.446 94.582,88.446 94.582,83.976 96.107,83.976 96.107,88.676 110.107,88.676 110.107,83.976 111.632,83.976 111.632,88.446 113.357,88.446 113.357,89.426 116.657,89.426 116.657,88.446 118.382,88.446 118.382,82.176 119.207,82.176 119.207,79.376 118.382,79.376 118.382,76.146 116.657,76.146 116.657,75.226 113.357,75.226 113.357,76.146 111.632,76.146 111.632,79.376 110.107,79.376 110.107,74.676" style="fill:none;stroke-width:0.050000mm;stroke:black"/>
<polygon points="143.732,74.676 143.732,79.376 142.207,79.376 142.207,76.146 140.482,76.146 140.482,75.226 137.182,75.226 137.182,76.146 135.457,76.146 135.457,79.376 134.632,79.376 134.632,82.176 135.457,82.176 135.457,88.446 137.182,88.446 137.182,89.426 140.482,89.426 140.482,88.446 142.207,88.446 142.207,83.976 143.732,83.976 143.732,88.676 157.732,88.676 157.732,83.976 159.257,83.976 159.257,88.446 160.982,88.446 160.982,89.426 164.282,89.426 164.282,88.446 166.007,88.446 166.007,82.176 166.832,82.176 166.832,79.376 166.007,79.376 166.007,76.146 164.282,76.146 164.282,75.226 160.982,75.226 160.982,76.146 159.257,76.146 159.257,79.376 157.732,79.376 157.732,74.676" style="fill:none;stroke-width:0.050000mm;stroke:black"/>
<polygon points="36.575,74.676 36.575,88.676 50.575,88.676 50.575,74.676" style="fill:none;stroke-width:0.050000mm;stroke:black"/>
<polygon points="60.388,74.676 60.388,88.676 74.388,88.676 74.388,74.676" style="fill:none;stroke-width:0.050000mm;stroke:black"/>
<polygon points="184.213,74.676 184.213,88.676 198.213,88.676 198.213,74.676" style="fill:none;stroke-width:0.050000mm;stroke:black"/>
<polygon points="208.025,74.676 208.025,88.676 222.025,88.676 222.025,74.676" style="fill:none;stroke-width:0.050000mm;stroke:black"/>
<polygon points="24.669,55.626 24.669,69.626 38.669,69.626 38.669,55.626" style="fill:none;stroke-width:0.050000mm;stroke:black"/>
<polygon points="50.863,55.626 50.863,69.626 64.862,69.626 64.862,55.626" style="fill:none;stroke-width:0.050000mm;stroke:black"/>
<polygon points="69.913,55.626 69.913,69.626 83.913,69.626 83.913,55.626" style="fill:none;stroke-width:0.050000mm;stroke:black"/>
<polygon points="88.963,55.626 88.963,69.626 102.963,69.626 102.963,55.626" style="fill:none;stroke-width:0.050000mm;stroke:black"/>
<polygon points="108.013,55.626 108.013,69.626 122.013,69.626 122.013,55.626" style="fill:none;stroke-width:0.050000mm;stroke:black"/>
<polygon points="127.063,55.626 127.063,69.626 141.063,69.626 141.063,55.626" style="fill:none;stroke-width:0.050000mm;stroke:black"/>
<polygon points="146.113,55.626 146.113,69.626 160.113,69.626 160.113,55.626" style="fill:none;stroke-width:0.050000mm;stroke:black"/>
<polygon points="165.163,55.626 165.163,69.626 179.163,69.626 179.163,55.626" style="fill:none;stroke-width:0.050000mm;stroke:black"/>
<polygon points="184.213,55.626 184.213,69.626 198.213,69.626 198.213,55.626" style="fill:none;stroke-width:0.050000mm;stroke:black"/>
<polygon points="203.263,55.626 203.263,69.626 217.263,69.626 217.263,55.626" style="fill:none;stroke-width:0.050000mm;stroke:black"/>
<polygon points="224.694,55.626 224.694,69.626 238.694,69.626 238.694,55.626" style="fill:none;stroke-width:0.050000mm;stroke:black"/>
<polygon points="19.907,36.576 19.907,50.576 33.907,50.576 33.907,36.576" style="fill:none;stroke-width:0.050000mm;stroke:black"/>
<polygon points="41.338,36.576 41.338,50.576 55.338,50.576 55.338,36.576" style="fill:none;stroke-width:0.050000mm;stroke:black"/>
<polygon points="60.388,36.576 60.388,50.576 74.388,50.576 74.388,36.576" style="fill:none;stroke-width:0.050000mm;stroke:black"/>
<polygon points="79.438,36.576 79.438,50.576 93.438,50.576 93.438,36.576" style="fill:none;stroke-width:0.050000mm;stroke:black"/>
<polygon points="98.488,36.576 98.488,50.576 112.488,50.576 112.488,36.576" style="fill:none;stroke-width:0.050000mm;stroke:black"/>
<polygon points="117.538,36.576 117.538,50.576 131.538,50.576 131.538,36.576" style="fill:none;stroke-width:0.050000mm;stroke:black"/>
<polygon points="136.588,36.576 136.588,50.576 150.588,50.576 150.588,36.576" style="fill:none;stroke-width:0.050000mm;stroke:black"/>
<polygon points="155.638,36.576 155.638,50.576 169.638,50.576 169.638,36.576" style="fill:none;stroke-width:0.050000mm;stroke:black"/>
<polygon points="174.688,36.576 174.688,50.576 188.688,50.576 188.688,36.576" style="fill:none;stroke-width:0.050000mm;stroke:black"/>
<polygon points="193.738,36.576 193.738,50.576 207.738,50.576 207.738,36.576" style="fill:none;stroke-width:0.050000mm;stroke:black"/>
<polygon points="219.932,36.576 219.932,50.576 233.932,50.576 233.932,36.576" style="fill:none;stroke-width:0.050000mm;stroke:black"/>
<polygon points="17.526,17.526 17.526,31.526 31.526,31.526 31.526,17.526" style="fill:none;stroke-width:0.050000mm;stroke:black"/>
<polygon points="36.576,17.526 36.576,31.526 50.576,31.526 50.576,17.526" style="fill:none;stroke-width:0.050000mm;stroke:black"/>
<polygon points="55.626,17.526 55.626,31.526 69.626,31.526 69.626,17.526" style="fill:none;stroke-width:0.050000mm;stroke:black"/>
<polygon points="74.676,17.526 74.676,31.526 88.676,31.526 88.676,17.526" style="fill:none;stroke-width:0.050000mm;stroke:black"/>
<polygon points="93.726,17.526 93.726,31.526 107.726,31.526 107.726,17.526" style="fill:none;stroke-width:0.050000mm;stroke:black"/>
<polygon points="112.775,17.526 112.775,31.526 126.775,31.526 126.775,17.526" style="fill:none;stroke-width:0.050000mm;stroke:black"/>
<polygon points="131.826,17.526 131.826,31.526 145.826,31.526 145.826,17.526" style="fill:none;stroke-width:0.050000mm;stroke:black"/>
<polygon points="150.876,17.526 150.876,31.526 164.876,31.526 164.876,17.526" style="fill:none;stroke-width:0.050000mm;stroke:black"/>
<polygon points="169.926,17.526 169.926,31.526 183.926,31.526 183.926,17.526" style="fill:none;stroke-width:0.050000mm;stroke:black"/>
<polygon points="188.976,17.526 188.976,31.526 202.976,31.526 202.976,17.526" style="fill:none;stroke-width:0.050000mm;stroke:black"/>
<polygon points="208.026,17.526 208.026,31.526 222.026,31.526 222.026,17.526" style="fill:none;stroke-width:0.050000mm;stroke:black"/>
<polygon points="227.076,17.526 227.076,31.526 241.076,31.526 241.076,17.526" style="fill:none;stroke-width:0.050000mm;stroke:black"/>
<polygon points="88.392,6.549 88.113,6.691 87.892,6.913 87.750,7.191 87.701,7.500 87.750,7.810 87.892,8.088 88.113,8.310 88.392,8.452 88.701,8.501 89.010,8.452 89.289,8.310 89.510,8.088 89.652,7.810 89.701,7.501 89.652,7.191 89.510,6.913 89.289,6.691 89.010,6.549 88.701,6.501" style="fill:none;stroke-width:0.050000mm;stroke:black"/>
<polygon points="169.592,6.549 169.313,6.691 169.092,6.913 168.950,7.191 168.901,7.500 168.950,7.810 169.092,8.088 169.313,8.310 169.592,8.452 169.901,8.501 170.210,8.452 170.489,8.310 170.710,8.088 170.852,7.810 170.901,7.501 170.852,7.191 170.710,6.913 170.489,6.691 170.210,6.549 169.901,6.501" style="fill:none;stroke-width:0.050000mm;stroke:black"/>
<polygon points="250.792,6.549 250.514,6.691 250.292,6.913 250.150,7.191 250.102,7.500 250.150,7.810 250.292,8.088 250.514,8.310 250.792,8.452 251.102,8.501 251.411,8.452 251.689,8.310 251.911,8.088 252.053,7.810 252.102,7.501 252.053,7.191 251.911,6.913 251.689,6.691 251.411,6.549 251.102,6.501" style="fill:none;stroke-width:0.050000mm;stroke:black"/>
<polygon points="7.191,6.549 6.913,6.691 6.691,6.913 6.549,7.191 6.501,7.500 6.549,7.810 6.691,8.088 6.913,8.310 7.191,8.452 7.501,8.501 7.810,8.452 8.088,8.310 8.310,8.088 8.452,7.810 8.501,7.501 8.452,7.191 8.310,6.913 8.088,6.691 7.810,6.549 7.501,6.501" style="fill:none;stroke-width:0.050000mm;stroke:black"/>
</svg>
