G04 EAGLE Gerber RS-274X export*
G75*
%MOMM*%
%FSLAX34Y34*%
%LPD*%
%INSoldermask Top*%
%IPPOS*%
%AMOC8*
5,1,8,0,0,1.08239X$1,22.5*%
G01*
%ADD10R,0.803200X1.653200*%
%ADD11R,0.503200X1.653200*%
%ADD12C,1.361200*%
%ADD13C,0.903200*%
%ADD14C,0.505150*%
%ADD15R,1.803200X1.503200*%
%ADD16R,1.423200X0.823200*%
%ADD17R,1.503200X1.803200*%
%ADD18R,1.703200X1.703200*%
%ADD19C,1.261200*%
%ADD20R,2.703200X1.203200*%
%ADD21R,1.003200X2.203200*%
%ADD22R,1.103200X1.003200*%
%ADD23R,1.203200X1.003200*%
%ADD24C,1.003200*%
%ADD25R,1.353200X0.803200*%
%ADD26R,1.203200X2.703200*%
%ADD27R,0.803200X1.753200*%
%ADD28R,1.403200X2.003200*%
%ADD29R,0.753200X1.403200*%
%ADD30C,0.499716*%
%ADD31C,5.203200*%


D10*
X270625Y157409D03*
X262625Y157409D03*
D11*
X240625Y157409D03*
X245625Y157409D03*
X250625Y157409D03*
X255625Y157409D03*
X235625Y157409D03*
X230625Y157409D03*
X225625Y157409D03*
X220625Y157409D03*
D10*
X213625Y157409D03*
X205625Y157409D03*
D12*
X281325Y160769D02*
X281325Y172349D01*
X194925Y172349D02*
X194925Y160769D01*
X281325Y202569D02*
X281325Y214149D01*
X194925Y214149D02*
X194925Y202569D01*
D13*
X267025Y171859D03*
X209225Y171859D03*
D14*
X182910Y132649D02*
X182910Y123669D01*
X182910Y132649D02*
X198090Y132649D01*
X198090Y123669D01*
X182910Y123669D01*
X182910Y128468D02*
X198090Y128468D01*
X182910Y102549D02*
X182910Y93569D01*
X182910Y102549D02*
X198090Y102549D01*
X198090Y93569D01*
X182910Y93569D01*
X182910Y98368D02*
X198090Y98368D01*
D15*
X170000Y162641D03*
X170000Y182641D03*
X303609Y162641D03*
X303609Y182641D03*
D16*
X149922Y157188D03*
X149922Y166688D03*
X149922Y176188D03*
X123922Y176188D03*
X123922Y157188D03*
D17*
X146922Y136922D03*
X126922Y136922D03*
D15*
X101203Y115016D03*
X101203Y135016D03*
D18*
X136563Y196453D03*
X101563Y196453D03*
D15*
X101203Y176688D03*
X101203Y156688D03*
D19*
X71438Y111563D03*
X71438Y126563D03*
D20*
X46038Y103063D03*
X46038Y135063D03*
D21*
X354911Y169500D03*
D22*
X401141Y179250D03*
D23*
X400641Y201750D03*
D22*
X325141Y179250D03*
D23*
X325641Y201750D03*
D21*
X384911Y169500D03*
X339911Y169500D03*
D24*
X378141Y190500D03*
X348141Y190500D03*
D25*
X250625Y97656D03*
X250625Y107156D03*
X250625Y116656D03*
X225625Y116656D03*
X225625Y107156D03*
X225625Y97656D03*
D19*
X148516Y93266D03*
X133516Y93266D03*
D26*
X157016Y67866D03*
X125016Y67866D03*
D27*
X263125Y71438D03*
X253125Y71438D03*
X243125Y71438D03*
X233125Y71438D03*
X223125Y71438D03*
X213125Y71438D03*
D28*
X276125Y46188D03*
X200125Y46188D03*
D19*
X404813Y126563D03*
X404813Y111563D03*
D20*
X430213Y135063D03*
X430213Y103063D03*
D29*
X335781Y117969D03*
X345281Y117969D03*
X354781Y117969D03*
X354781Y143969D03*
X335781Y143969D03*
X345281Y143969D03*
D30*
X337249Y75362D02*
X337249Y66226D01*
X334313Y66226D01*
X334313Y75362D01*
X337249Y75362D01*
X337249Y70973D02*
X334313Y70973D01*
X346749Y75362D02*
X346749Y66226D01*
X343813Y66226D01*
X343813Y75362D01*
X346749Y75362D01*
X346749Y70973D02*
X343813Y70973D01*
X356249Y75362D02*
X356249Y66226D01*
X353313Y66226D01*
X353313Y75362D01*
X356249Y75362D01*
X356249Y70973D02*
X353313Y70973D01*
X337249Y91326D02*
X337249Y100462D01*
X337249Y91326D02*
X334313Y91326D01*
X334313Y100462D01*
X337249Y100462D01*
X337249Y96073D02*
X334313Y96073D01*
X346749Y100462D02*
X346749Y91326D01*
X343813Y91326D01*
X343813Y100462D01*
X346749Y100462D01*
X346749Y96073D02*
X343813Y96073D01*
X356249Y100462D02*
X356249Y91326D01*
X353313Y91326D01*
X353313Y100462D01*
X356249Y100462D01*
X356249Y96073D02*
X353313Y96073D01*
D15*
X315516Y140969D03*
X315516Y120969D03*
X315516Y79297D03*
X315516Y99297D03*
X375047Y99297D03*
X375047Y79297D03*
D31*
X35719Y178594D03*
X35719Y59531D03*
X440531Y59531D03*
X440531Y178594D03*
M02*
