G04 EAGLE Gerber RS-274X export*
G75*
%MOMM*%
%FSLAX34Y34*%
%LPD*%
%INSilkscreen Bottom*%
%IPPOS*%
%AMOC8*
5,1,8,0,0,1.08239X$1,22.5*%
G01*
%ADD10C,0.150000*%
%ADD11C,0.127000*%
%ADD12C,0.200000*%
%ADD13C,0.180000*%
%ADD14C,0.152400*%
%ADD15C,0.050800*%


D10*
X135500Y579500D02*
X135500Y617500D01*
X135506Y618032D01*
X135526Y618563D01*
X135558Y619094D01*
X135603Y619623D01*
X135660Y620152D01*
X135731Y620679D01*
X135814Y621204D01*
X135910Y621727D01*
X136018Y622247D01*
X136139Y622765D01*
X136273Y623280D01*
X136419Y623791D01*
X136577Y624298D01*
X136747Y624802D01*
X136930Y625301D01*
X137124Y625796D01*
X137331Y626286D01*
X137549Y626771D01*
X137779Y627250D01*
X138020Y627724D01*
X138273Y628192D01*
X138537Y628653D01*
X138812Y629108D01*
X139098Y629556D01*
X139394Y629997D01*
X139702Y630431D01*
X140019Y630858D01*
X140347Y631276D01*
X140685Y631687D01*
X141033Y632089D01*
X141390Y632482D01*
X141757Y632867D01*
X142133Y633243D01*
X142518Y633610D01*
X142911Y633967D01*
X143313Y634315D01*
X143724Y634653D01*
X144142Y634981D01*
X144569Y635298D01*
X145003Y635606D01*
X145444Y635902D01*
X145892Y636188D01*
X146347Y636463D01*
X146808Y636727D01*
X147276Y636980D01*
X147750Y637221D01*
X148229Y637451D01*
X148714Y637669D01*
X149204Y637876D01*
X149699Y638070D01*
X150198Y638253D01*
X150702Y638423D01*
X151209Y638581D01*
X151720Y638727D01*
X152235Y638861D01*
X152753Y638982D01*
X153273Y639090D01*
X153796Y639186D01*
X154321Y639269D01*
X154848Y639340D01*
X155377Y639397D01*
X155906Y639442D01*
X156437Y639474D01*
X156968Y639494D01*
X157500Y639500D01*
X233500Y639500D01*
X233500Y610000D01*
X233491Y609850D01*
X233479Y609699D01*
X233462Y609550D01*
X233442Y609400D01*
X233418Y609252D01*
X233390Y609104D01*
X233358Y608956D01*
X233322Y608810D01*
X233282Y608665D01*
X233239Y608520D01*
X233192Y608377D01*
X233141Y608236D01*
X233086Y608095D01*
X233028Y607956D01*
X232966Y607819D01*
X232901Y607683D01*
X232832Y607549D01*
X232759Y607417D01*
X232684Y607287D01*
X232604Y607159D01*
X232522Y607033D01*
X232436Y606909D01*
X232347Y606787D01*
X232255Y606668D01*
X232159Y606552D01*
X232061Y606437D01*
X231960Y606326D01*
X231855Y606217D01*
X231749Y606111D01*
X231639Y606008D01*
X231526Y605907D01*
X231411Y605810D01*
X231294Y605716D01*
X231174Y605624D01*
X231052Y605536D01*
X230927Y605452D01*
X230801Y605370D01*
X230672Y605292D01*
X230541Y605217D01*
X230408Y605146D01*
X230274Y605078D01*
X230138Y605014D01*
X230000Y604953D01*
X229860Y604896D01*
X229719Y604842D01*
X229577Y604793D01*
X229434Y604747D01*
X229289Y604705D01*
X229143Y604666D01*
X228997Y604632D01*
X228849Y604601D01*
X228701Y604574D01*
X228552Y604551D01*
X228403Y604532D01*
X228253Y604517D01*
X228102Y604506D01*
X227952Y604499D01*
X227801Y604495D01*
X227651Y604496D01*
X227500Y604500D01*
X187500Y604500D01*
X187041Y604518D01*
X186581Y604526D01*
X186121Y604522D01*
X185662Y604508D01*
X185203Y604482D01*
X184744Y604445D01*
X184287Y604397D01*
X183831Y604338D01*
X183377Y604268D01*
X182924Y604187D01*
X182473Y604095D01*
X182025Y603992D01*
X181580Y603879D01*
X181137Y603755D01*
X180698Y603620D01*
X180261Y603474D01*
X179829Y603318D01*
X179400Y603152D01*
X178976Y602975D01*
X178556Y602788D01*
X178140Y602591D01*
X177730Y602384D01*
X177324Y602167D01*
X176924Y601941D01*
X176530Y601705D01*
X176141Y601459D01*
X175759Y601204D01*
X175382Y600940D01*
X175012Y600667D01*
X174649Y600385D01*
X174293Y600094D01*
X173944Y599795D01*
X173602Y599487D01*
X173268Y599171D01*
X172942Y598848D01*
X172623Y598516D01*
X172313Y598177D01*
X172010Y597830D01*
X171717Y597477D01*
X171432Y597116D01*
X171155Y596749D01*
X170888Y596374D01*
X170630Y595994D01*
X170381Y595607D01*
X170141Y595215D01*
X169911Y594817D01*
X169691Y594413D01*
X169481Y594005D01*
X169280Y593591D01*
X169090Y593172D01*
X168909Y592749D01*
X168739Y592322D01*
X168580Y591891D01*
X168430Y591456D01*
X168292Y591018D01*
X168164Y590576D01*
X168046Y590132D01*
X167940Y589684D01*
X167844Y589235D01*
X167759Y588783D01*
X167686Y588329D01*
X167623Y587874D01*
X167571Y587417D01*
X167530Y586959D01*
X167500Y586500D01*
X167500Y585000D01*
X167527Y584869D01*
X167551Y584737D01*
X167570Y584604D01*
X167586Y584471D01*
X167598Y584337D01*
X167606Y584203D01*
X167609Y584069D01*
X167610Y583935D01*
X167606Y583801D01*
X167598Y583667D01*
X167586Y583534D01*
X167571Y583401D01*
X167551Y583268D01*
X167528Y583136D01*
X167501Y583004D01*
X167470Y582874D01*
X167436Y582744D01*
X167397Y582616D01*
X167355Y582489D01*
X167309Y582363D01*
X167260Y582238D01*
X167207Y582115D01*
X167150Y581993D01*
X167090Y581873D01*
X167027Y581755D01*
X166960Y581639D01*
X166889Y581525D01*
X166816Y581413D01*
X166739Y581303D01*
X166659Y581195D01*
X166576Y581090D01*
X166490Y580987D01*
X166400Y580887D01*
X166308Y580790D01*
X166214Y580695D01*
X166116Y580603D01*
X166016Y580514D01*
X165913Y580427D01*
X165808Y580344D01*
X165701Y580264D01*
X165591Y580187D01*
X165479Y580113D01*
X165365Y580043D01*
X165249Y579976D01*
X165131Y579912D01*
X165011Y579852D01*
X164889Y579795D01*
X164766Y579742D01*
X164642Y579692D01*
X164516Y579646D01*
X164388Y579604D01*
X164260Y579566D01*
X164131Y579531D01*
X164000Y579500D01*
X135500Y579500D01*
X326000Y579500D02*
X326000Y617500D01*
X326006Y618032D01*
X326026Y618563D01*
X326058Y619094D01*
X326103Y619623D01*
X326160Y620152D01*
X326231Y620679D01*
X326314Y621204D01*
X326410Y621727D01*
X326518Y622247D01*
X326639Y622765D01*
X326773Y623280D01*
X326919Y623791D01*
X327077Y624298D01*
X327247Y624802D01*
X327430Y625301D01*
X327624Y625796D01*
X327831Y626286D01*
X328049Y626771D01*
X328279Y627250D01*
X328520Y627724D01*
X328773Y628192D01*
X329037Y628653D01*
X329312Y629108D01*
X329598Y629556D01*
X329894Y629997D01*
X330202Y630431D01*
X330519Y630858D01*
X330847Y631276D01*
X331185Y631687D01*
X331533Y632089D01*
X331890Y632482D01*
X332257Y632867D01*
X332633Y633243D01*
X333018Y633610D01*
X333411Y633967D01*
X333813Y634315D01*
X334224Y634653D01*
X334642Y634981D01*
X335069Y635298D01*
X335503Y635606D01*
X335944Y635902D01*
X336392Y636188D01*
X336847Y636463D01*
X337308Y636727D01*
X337776Y636980D01*
X338250Y637221D01*
X338729Y637451D01*
X339214Y637669D01*
X339704Y637876D01*
X340199Y638070D01*
X340698Y638253D01*
X341202Y638423D01*
X341709Y638581D01*
X342220Y638727D01*
X342735Y638861D01*
X343253Y638982D01*
X343773Y639090D01*
X344296Y639186D01*
X344821Y639269D01*
X345348Y639340D01*
X345877Y639397D01*
X346406Y639442D01*
X346937Y639474D01*
X347468Y639494D01*
X348000Y639500D01*
X424000Y639500D01*
X424000Y610000D01*
X423991Y609850D01*
X423979Y609699D01*
X423962Y609550D01*
X423942Y609400D01*
X423918Y609252D01*
X423890Y609104D01*
X423858Y608956D01*
X423822Y608810D01*
X423782Y608665D01*
X423739Y608520D01*
X423692Y608377D01*
X423641Y608236D01*
X423586Y608095D01*
X423528Y607956D01*
X423466Y607819D01*
X423401Y607683D01*
X423332Y607549D01*
X423259Y607417D01*
X423184Y607287D01*
X423104Y607159D01*
X423022Y607033D01*
X422936Y606909D01*
X422847Y606787D01*
X422755Y606668D01*
X422659Y606552D01*
X422561Y606437D01*
X422460Y606326D01*
X422355Y606217D01*
X422249Y606111D01*
X422139Y606008D01*
X422026Y605907D01*
X421911Y605810D01*
X421794Y605716D01*
X421674Y605624D01*
X421552Y605536D01*
X421427Y605452D01*
X421301Y605370D01*
X421172Y605292D01*
X421041Y605217D01*
X420908Y605146D01*
X420774Y605078D01*
X420638Y605014D01*
X420500Y604953D01*
X420360Y604896D01*
X420219Y604842D01*
X420077Y604793D01*
X419934Y604747D01*
X419789Y604705D01*
X419643Y604666D01*
X419497Y604632D01*
X419349Y604601D01*
X419201Y604574D01*
X419052Y604551D01*
X418903Y604532D01*
X418753Y604517D01*
X418602Y604506D01*
X418452Y604499D01*
X418301Y604495D01*
X418151Y604496D01*
X418000Y604500D01*
X378000Y604500D01*
X377541Y604518D01*
X377081Y604526D01*
X376621Y604522D01*
X376162Y604508D01*
X375703Y604482D01*
X375244Y604445D01*
X374787Y604397D01*
X374331Y604338D01*
X373877Y604268D01*
X373424Y604187D01*
X372973Y604095D01*
X372525Y603992D01*
X372080Y603879D01*
X371637Y603755D01*
X371198Y603620D01*
X370761Y603474D01*
X370329Y603318D01*
X369900Y603152D01*
X369476Y602975D01*
X369056Y602788D01*
X368640Y602591D01*
X368230Y602384D01*
X367824Y602167D01*
X367424Y601941D01*
X367030Y601705D01*
X366641Y601459D01*
X366259Y601204D01*
X365882Y600940D01*
X365512Y600667D01*
X365149Y600385D01*
X364793Y600094D01*
X364444Y599795D01*
X364102Y599487D01*
X363768Y599171D01*
X363442Y598848D01*
X363123Y598516D01*
X362813Y598177D01*
X362510Y597830D01*
X362217Y597477D01*
X361932Y597116D01*
X361655Y596749D01*
X361388Y596374D01*
X361130Y595994D01*
X360881Y595607D01*
X360641Y595215D01*
X360411Y594817D01*
X360191Y594413D01*
X359981Y594005D01*
X359780Y593591D01*
X359590Y593172D01*
X359409Y592749D01*
X359239Y592322D01*
X359080Y591891D01*
X358930Y591456D01*
X358792Y591018D01*
X358664Y590576D01*
X358546Y590132D01*
X358440Y589684D01*
X358344Y589235D01*
X358259Y588783D01*
X358186Y588329D01*
X358123Y587874D01*
X358071Y587417D01*
X358030Y586959D01*
X358000Y586500D01*
X358000Y585000D01*
X358027Y584869D01*
X358051Y584737D01*
X358070Y584604D01*
X358086Y584471D01*
X358098Y584337D01*
X358106Y584203D01*
X358109Y584069D01*
X358110Y583935D01*
X358106Y583801D01*
X358098Y583667D01*
X358086Y583534D01*
X358071Y583401D01*
X358051Y583268D01*
X358028Y583136D01*
X358001Y583004D01*
X357970Y582874D01*
X357936Y582744D01*
X357897Y582616D01*
X357855Y582489D01*
X357809Y582363D01*
X357760Y582238D01*
X357707Y582115D01*
X357650Y581993D01*
X357590Y581873D01*
X357527Y581755D01*
X357460Y581639D01*
X357389Y581525D01*
X357316Y581413D01*
X357239Y581303D01*
X357159Y581195D01*
X357076Y581090D01*
X356990Y580987D01*
X356900Y580887D01*
X356808Y580790D01*
X356714Y580695D01*
X356616Y580603D01*
X356516Y580514D01*
X356413Y580427D01*
X356308Y580344D01*
X356201Y580264D01*
X356091Y580187D01*
X355979Y580113D01*
X355865Y580043D01*
X355749Y579976D01*
X355631Y579912D01*
X355511Y579852D01*
X355389Y579795D01*
X355266Y579742D01*
X355142Y579692D01*
X355016Y579646D01*
X354888Y579604D01*
X354760Y579566D01*
X354631Y579531D01*
X354500Y579500D01*
X326000Y579500D01*
X516500Y579500D02*
X516500Y617500D01*
X516506Y618032D01*
X516526Y618563D01*
X516558Y619094D01*
X516603Y619623D01*
X516660Y620152D01*
X516731Y620679D01*
X516814Y621204D01*
X516910Y621727D01*
X517018Y622247D01*
X517139Y622765D01*
X517273Y623280D01*
X517419Y623791D01*
X517577Y624298D01*
X517747Y624802D01*
X517930Y625301D01*
X518124Y625796D01*
X518331Y626286D01*
X518549Y626771D01*
X518779Y627250D01*
X519020Y627724D01*
X519273Y628192D01*
X519537Y628653D01*
X519812Y629108D01*
X520098Y629556D01*
X520394Y629997D01*
X520702Y630431D01*
X521019Y630858D01*
X521347Y631276D01*
X521685Y631687D01*
X522033Y632089D01*
X522390Y632482D01*
X522757Y632867D01*
X523133Y633243D01*
X523518Y633610D01*
X523911Y633967D01*
X524313Y634315D01*
X524724Y634653D01*
X525142Y634981D01*
X525569Y635298D01*
X526003Y635606D01*
X526444Y635902D01*
X526892Y636188D01*
X527347Y636463D01*
X527808Y636727D01*
X528276Y636980D01*
X528750Y637221D01*
X529229Y637451D01*
X529714Y637669D01*
X530204Y637876D01*
X530699Y638070D01*
X531198Y638253D01*
X531702Y638423D01*
X532209Y638581D01*
X532720Y638727D01*
X533235Y638861D01*
X533753Y638982D01*
X534273Y639090D01*
X534796Y639186D01*
X535321Y639269D01*
X535848Y639340D01*
X536377Y639397D01*
X536906Y639442D01*
X537437Y639474D01*
X537968Y639494D01*
X538500Y639500D01*
X614500Y639500D01*
X614500Y610000D01*
X614491Y609850D01*
X614479Y609699D01*
X614462Y609550D01*
X614442Y609400D01*
X614418Y609252D01*
X614390Y609104D01*
X614358Y608956D01*
X614322Y608810D01*
X614282Y608665D01*
X614239Y608520D01*
X614192Y608377D01*
X614141Y608236D01*
X614086Y608095D01*
X614028Y607956D01*
X613966Y607819D01*
X613901Y607683D01*
X613832Y607549D01*
X613759Y607417D01*
X613684Y607287D01*
X613604Y607159D01*
X613522Y607033D01*
X613436Y606909D01*
X613347Y606787D01*
X613255Y606668D01*
X613159Y606552D01*
X613061Y606437D01*
X612960Y606326D01*
X612855Y606217D01*
X612749Y606111D01*
X612639Y606008D01*
X612526Y605907D01*
X612411Y605810D01*
X612294Y605716D01*
X612174Y605624D01*
X612052Y605536D01*
X611927Y605452D01*
X611801Y605370D01*
X611672Y605292D01*
X611541Y605217D01*
X611408Y605146D01*
X611274Y605078D01*
X611138Y605014D01*
X611000Y604953D01*
X610860Y604896D01*
X610719Y604842D01*
X610577Y604793D01*
X610434Y604747D01*
X610289Y604705D01*
X610143Y604666D01*
X609997Y604632D01*
X609849Y604601D01*
X609701Y604574D01*
X609552Y604551D01*
X609403Y604532D01*
X609253Y604517D01*
X609102Y604506D01*
X608952Y604499D01*
X608801Y604495D01*
X608651Y604496D01*
X608500Y604500D01*
X568500Y604500D01*
X568041Y604518D01*
X567581Y604526D01*
X567121Y604522D01*
X566662Y604508D01*
X566203Y604482D01*
X565744Y604445D01*
X565287Y604397D01*
X564831Y604338D01*
X564377Y604268D01*
X563924Y604187D01*
X563473Y604095D01*
X563025Y603992D01*
X562580Y603879D01*
X562137Y603755D01*
X561698Y603620D01*
X561261Y603474D01*
X560829Y603318D01*
X560400Y603152D01*
X559976Y602975D01*
X559556Y602788D01*
X559140Y602591D01*
X558730Y602384D01*
X558324Y602167D01*
X557924Y601941D01*
X557530Y601705D01*
X557141Y601459D01*
X556759Y601204D01*
X556382Y600940D01*
X556012Y600667D01*
X555649Y600385D01*
X555293Y600094D01*
X554944Y599795D01*
X554602Y599487D01*
X554268Y599171D01*
X553942Y598848D01*
X553623Y598516D01*
X553313Y598177D01*
X553010Y597830D01*
X552717Y597477D01*
X552432Y597116D01*
X552155Y596749D01*
X551888Y596374D01*
X551630Y595994D01*
X551381Y595607D01*
X551141Y595215D01*
X550911Y594817D01*
X550691Y594413D01*
X550481Y594005D01*
X550280Y593591D01*
X550090Y593172D01*
X549909Y592749D01*
X549739Y592322D01*
X549580Y591891D01*
X549430Y591456D01*
X549292Y591018D01*
X549164Y590576D01*
X549046Y590132D01*
X548940Y589684D01*
X548844Y589235D01*
X548759Y588783D01*
X548686Y588329D01*
X548623Y587874D01*
X548571Y587417D01*
X548530Y586959D01*
X548500Y586500D01*
X548500Y585000D01*
X548527Y584869D01*
X548551Y584737D01*
X548570Y584604D01*
X548586Y584471D01*
X548598Y584337D01*
X548606Y584203D01*
X548609Y584069D01*
X548610Y583935D01*
X548606Y583801D01*
X548598Y583667D01*
X548586Y583534D01*
X548571Y583401D01*
X548551Y583268D01*
X548528Y583136D01*
X548501Y583004D01*
X548470Y582874D01*
X548436Y582744D01*
X548397Y582616D01*
X548355Y582489D01*
X548309Y582363D01*
X548260Y582238D01*
X548207Y582115D01*
X548150Y581993D01*
X548090Y581873D01*
X548027Y581755D01*
X547960Y581639D01*
X547889Y581525D01*
X547816Y581413D01*
X547739Y581303D01*
X547659Y581195D01*
X547576Y581090D01*
X547490Y580987D01*
X547400Y580887D01*
X547308Y580790D01*
X547214Y580695D01*
X547116Y580603D01*
X547016Y580514D01*
X546913Y580427D01*
X546808Y580344D01*
X546701Y580264D01*
X546591Y580187D01*
X546479Y580113D01*
X546365Y580043D01*
X546249Y579976D01*
X546131Y579912D01*
X546011Y579852D01*
X545889Y579795D01*
X545766Y579742D01*
X545642Y579692D01*
X545516Y579646D01*
X545388Y579604D01*
X545260Y579566D01*
X545131Y579531D01*
X545000Y579500D01*
X516500Y579500D01*
X707000Y579500D02*
X707000Y617500D01*
X707006Y618032D01*
X707026Y618563D01*
X707058Y619094D01*
X707103Y619623D01*
X707160Y620152D01*
X707231Y620679D01*
X707314Y621204D01*
X707410Y621727D01*
X707518Y622247D01*
X707639Y622765D01*
X707773Y623280D01*
X707919Y623791D01*
X708077Y624298D01*
X708247Y624802D01*
X708430Y625301D01*
X708624Y625796D01*
X708831Y626286D01*
X709049Y626771D01*
X709279Y627250D01*
X709520Y627724D01*
X709773Y628192D01*
X710037Y628653D01*
X710312Y629108D01*
X710598Y629556D01*
X710894Y629997D01*
X711202Y630431D01*
X711519Y630858D01*
X711847Y631276D01*
X712185Y631687D01*
X712533Y632089D01*
X712890Y632482D01*
X713257Y632867D01*
X713633Y633243D01*
X714018Y633610D01*
X714411Y633967D01*
X714813Y634315D01*
X715224Y634653D01*
X715642Y634981D01*
X716069Y635298D01*
X716503Y635606D01*
X716944Y635902D01*
X717392Y636188D01*
X717847Y636463D01*
X718308Y636727D01*
X718776Y636980D01*
X719250Y637221D01*
X719729Y637451D01*
X720214Y637669D01*
X720704Y637876D01*
X721199Y638070D01*
X721698Y638253D01*
X722202Y638423D01*
X722709Y638581D01*
X723220Y638727D01*
X723735Y638861D01*
X724253Y638982D01*
X724773Y639090D01*
X725296Y639186D01*
X725821Y639269D01*
X726348Y639340D01*
X726877Y639397D01*
X727406Y639442D01*
X727937Y639474D01*
X728468Y639494D01*
X729000Y639500D01*
X805000Y639500D01*
X805000Y610000D01*
X804991Y609850D01*
X804979Y609699D01*
X804962Y609550D01*
X804942Y609400D01*
X804918Y609252D01*
X804890Y609104D01*
X804858Y608956D01*
X804822Y608810D01*
X804782Y608665D01*
X804739Y608520D01*
X804692Y608377D01*
X804641Y608236D01*
X804586Y608095D01*
X804528Y607956D01*
X804466Y607819D01*
X804401Y607683D01*
X804332Y607549D01*
X804259Y607417D01*
X804184Y607287D01*
X804104Y607159D01*
X804022Y607033D01*
X803936Y606909D01*
X803847Y606787D01*
X803755Y606668D01*
X803659Y606552D01*
X803561Y606437D01*
X803460Y606326D01*
X803355Y606217D01*
X803249Y606111D01*
X803139Y606008D01*
X803026Y605907D01*
X802911Y605810D01*
X802794Y605716D01*
X802674Y605624D01*
X802552Y605536D01*
X802427Y605452D01*
X802301Y605370D01*
X802172Y605292D01*
X802041Y605217D01*
X801908Y605146D01*
X801774Y605078D01*
X801638Y605014D01*
X801500Y604953D01*
X801360Y604896D01*
X801219Y604842D01*
X801077Y604793D01*
X800934Y604747D01*
X800789Y604705D01*
X800643Y604666D01*
X800497Y604632D01*
X800349Y604601D01*
X800201Y604574D01*
X800052Y604551D01*
X799903Y604532D01*
X799753Y604517D01*
X799602Y604506D01*
X799452Y604499D01*
X799301Y604495D01*
X799151Y604496D01*
X799000Y604500D01*
X759000Y604500D01*
X758541Y604518D01*
X758081Y604526D01*
X757621Y604522D01*
X757162Y604508D01*
X756703Y604482D01*
X756244Y604445D01*
X755787Y604397D01*
X755331Y604338D01*
X754877Y604268D01*
X754424Y604187D01*
X753973Y604095D01*
X753525Y603992D01*
X753080Y603879D01*
X752637Y603755D01*
X752198Y603620D01*
X751761Y603474D01*
X751329Y603318D01*
X750900Y603152D01*
X750476Y602975D01*
X750056Y602788D01*
X749640Y602591D01*
X749230Y602384D01*
X748824Y602167D01*
X748424Y601941D01*
X748030Y601705D01*
X747641Y601459D01*
X747259Y601204D01*
X746882Y600940D01*
X746512Y600667D01*
X746149Y600385D01*
X745793Y600094D01*
X745444Y599795D01*
X745102Y599487D01*
X744768Y599171D01*
X744442Y598848D01*
X744123Y598516D01*
X743813Y598177D01*
X743510Y597830D01*
X743217Y597477D01*
X742932Y597116D01*
X742655Y596749D01*
X742388Y596374D01*
X742130Y595994D01*
X741881Y595607D01*
X741641Y595215D01*
X741411Y594817D01*
X741191Y594413D01*
X740981Y594005D01*
X740780Y593591D01*
X740590Y593172D01*
X740409Y592749D01*
X740239Y592322D01*
X740080Y591891D01*
X739930Y591456D01*
X739792Y591018D01*
X739664Y590576D01*
X739546Y590132D01*
X739440Y589684D01*
X739344Y589235D01*
X739259Y588783D01*
X739186Y588329D01*
X739123Y587874D01*
X739071Y587417D01*
X739030Y586959D01*
X739000Y586500D01*
X739000Y585000D01*
X739027Y584869D01*
X739051Y584737D01*
X739070Y584604D01*
X739086Y584471D01*
X739098Y584337D01*
X739106Y584203D01*
X739109Y584069D01*
X739110Y583935D01*
X739106Y583801D01*
X739098Y583667D01*
X739086Y583534D01*
X739071Y583401D01*
X739051Y583268D01*
X739028Y583136D01*
X739001Y583004D01*
X738970Y582874D01*
X738936Y582744D01*
X738897Y582616D01*
X738855Y582489D01*
X738809Y582363D01*
X738760Y582238D01*
X738707Y582115D01*
X738650Y581993D01*
X738590Y581873D01*
X738527Y581755D01*
X738460Y581639D01*
X738389Y581525D01*
X738316Y581413D01*
X738239Y581303D01*
X738159Y581195D01*
X738076Y581090D01*
X737990Y580987D01*
X737900Y580887D01*
X737808Y580790D01*
X737714Y580695D01*
X737616Y580603D01*
X737516Y580514D01*
X737413Y580427D01*
X737308Y580344D01*
X737201Y580264D01*
X737091Y580187D01*
X736979Y580113D01*
X736865Y580043D01*
X736749Y579976D01*
X736631Y579912D01*
X736511Y579852D01*
X736389Y579795D01*
X736266Y579742D01*
X736142Y579692D01*
X736016Y579646D01*
X735888Y579604D01*
X735760Y579566D01*
X735631Y579531D01*
X735500Y579500D01*
X707000Y579500D01*
X135500Y427000D02*
X135500Y389000D01*
X135500Y427000D02*
X135506Y427532D01*
X135526Y428063D01*
X135558Y428594D01*
X135603Y429123D01*
X135660Y429652D01*
X135731Y430179D01*
X135814Y430704D01*
X135910Y431227D01*
X136018Y431747D01*
X136139Y432265D01*
X136273Y432780D01*
X136419Y433291D01*
X136577Y433798D01*
X136747Y434302D01*
X136930Y434801D01*
X137124Y435296D01*
X137331Y435786D01*
X137549Y436271D01*
X137779Y436750D01*
X138020Y437224D01*
X138273Y437692D01*
X138537Y438153D01*
X138812Y438608D01*
X139098Y439056D01*
X139394Y439497D01*
X139702Y439931D01*
X140019Y440358D01*
X140347Y440776D01*
X140685Y441187D01*
X141033Y441589D01*
X141390Y441982D01*
X141757Y442367D01*
X142133Y442743D01*
X142518Y443110D01*
X142911Y443467D01*
X143313Y443815D01*
X143724Y444153D01*
X144142Y444481D01*
X144569Y444798D01*
X145003Y445106D01*
X145444Y445402D01*
X145892Y445688D01*
X146347Y445963D01*
X146808Y446227D01*
X147276Y446480D01*
X147750Y446721D01*
X148229Y446951D01*
X148714Y447169D01*
X149204Y447376D01*
X149699Y447570D01*
X150198Y447753D01*
X150702Y447923D01*
X151209Y448081D01*
X151720Y448227D01*
X152235Y448361D01*
X152753Y448482D01*
X153273Y448590D01*
X153796Y448686D01*
X154321Y448769D01*
X154848Y448840D01*
X155377Y448897D01*
X155906Y448942D01*
X156437Y448974D01*
X156968Y448994D01*
X157500Y449000D01*
X233500Y449000D01*
X233500Y419500D01*
X233491Y419350D01*
X233479Y419199D01*
X233462Y419050D01*
X233442Y418900D01*
X233418Y418752D01*
X233390Y418604D01*
X233358Y418456D01*
X233322Y418310D01*
X233282Y418165D01*
X233239Y418020D01*
X233192Y417877D01*
X233141Y417736D01*
X233086Y417595D01*
X233028Y417456D01*
X232966Y417319D01*
X232901Y417183D01*
X232832Y417049D01*
X232759Y416917D01*
X232684Y416787D01*
X232604Y416659D01*
X232522Y416533D01*
X232436Y416409D01*
X232347Y416287D01*
X232255Y416168D01*
X232159Y416052D01*
X232061Y415937D01*
X231960Y415826D01*
X231855Y415717D01*
X231749Y415611D01*
X231639Y415508D01*
X231526Y415407D01*
X231411Y415310D01*
X231294Y415216D01*
X231174Y415124D01*
X231052Y415036D01*
X230927Y414952D01*
X230801Y414870D01*
X230672Y414792D01*
X230541Y414717D01*
X230408Y414646D01*
X230274Y414578D01*
X230138Y414514D01*
X230000Y414453D01*
X229860Y414396D01*
X229719Y414342D01*
X229577Y414293D01*
X229434Y414247D01*
X229289Y414205D01*
X229143Y414166D01*
X228997Y414132D01*
X228849Y414101D01*
X228701Y414074D01*
X228552Y414051D01*
X228403Y414032D01*
X228253Y414017D01*
X228102Y414006D01*
X227952Y413999D01*
X227801Y413995D01*
X227651Y413996D01*
X227500Y414000D01*
X187500Y414000D01*
X187041Y414018D01*
X186581Y414026D01*
X186121Y414022D01*
X185662Y414008D01*
X185203Y413982D01*
X184744Y413945D01*
X184287Y413897D01*
X183831Y413838D01*
X183377Y413768D01*
X182924Y413687D01*
X182473Y413595D01*
X182025Y413492D01*
X181580Y413379D01*
X181137Y413255D01*
X180698Y413120D01*
X180261Y412974D01*
X179829Y412818D01*
X179400Y412652D01*
X178976Y412475D01*
X178556Y412288D01*
X178140Y412091D01*
X177730Y411884D01*
X177324Y411667D01*
X176924Y411441D01*
X176530Y411205D01*
X176141Y410959D01*
X175759Y410704D01*
X175382Y410440D01*
X175012Y410167D01*
X174649Y409885D01*
X174293Y409594D01*
X173944Y409295D01*
X173602Y408987D01*
X173268Y408671D01*
X172942Y408348D01*
X172623Y408016D01*
X172313Y407677D01*
X172010Y407330D01*
X171717Y406977D01*
X171432Y406616D01*
X171155Y406249D01*
X170888Y405874D01*
X170630Y405494D01*
X170381Y405107D01*
X170141Y404715D01*
X169911Y404317D01*
X169691Y403913D01*
X169481Y403505D01*
X169280Y403091D01*
X169090Y402672D01*
X168909Y402249D01*
X168739Y401822D01*
X168580Y401391D01*
X168430Y400956D01*
X168292Y400518D01*
X168164Y400076D01*
X168046Y399632D01*
X167940Y399184D01*
X167844Y398735D01*
X167759Y398283D01*
X167686Y397829D01*
X167623Y397374D01*
X167571Y396917D01*
X167530Y396459D01*
X167500Y396000D01*
X167500Y394500D01*
X167527Y394369D01*
X167551Y394237D01*
X167570Y394104D01*
X167586Y393971D01*
X167598Y393837D01*
X167606Y393703D01*
X167609Y393569D01*
X167610Y393435D01*
X167606Y393301D01*
X167598Y393167D01*
X167586Y393034D01*
X167571Y392901D01*
X167551Y392768D01*
X167528Y392636D01*
X167501Y392504D01*
X167470Y392374D01*
X167436Y392244D01*
X167397Y392116D01*
X167355Y391989D01*
X167309Y391863D01*
X167260Y391738D01*
X167207Y391615D01*
X167150Y391493D01*
X167090Y391373D01*
X167027Y391255D01*
X166960Y391139D01*
X166889Y391025D01*
X166816Y390913D01*
X166739Y390803D01*
X166659Y390695D01*
X166576Y390590D01*
X166490Y390487D01*
X166400Y390387D01*
X166308Y390290D01*
X166214Y390195D01*
X166116Y390103D01*
X166016Y390014D01*
X165913Y389927D01*
X165808Y389844D01*
X165701Y389764D01*
X165591Y389687D01*
X165479Y389613D01*
X165365Y389543D01*
X165249Y389476D01*
X165131Y389412D01*
X165011Y389352D01*
X164889Y389295D01*
X164766Y389242D01*
X164642Y389192D01*
X164516Y389146D01*
X164388Y389104D01*
X164260Y389066D01*
X164131Y389031D01*
X164000Y389000D01*
X135500Y389000D01*
X326000Y389000D02*
X326000Y427000D01*
X326006Y427532D01*
X326026Y428063D01*
X326058Y428594D01*
X326103Y429123D01*
X326160Y429652D01*
X326231Y430179D01*
X326314Y430704D01*
X326410Y431227D01*
X326518Y431747D01*
X326639Y432265D01*
X326773Y432780D01*
X326919Y433291D01*
X327077Y433798D01*
X327247Y434302D01*
X327430Y434801D01*
X327624Y435296D01*
X327831Y435786D01*
X328049Y436271D01*
X328279Y436750D01*
X328520Y437224D01*
X328773Y437692D01*
X329037Y438153D01*
X329312Y438608D01*
X329598Y439056D01*
X329894Y439497D01*
X330202Y439931D01*
X330519Y440358D01*
X330847Y440776D01*
X331185Y441187D01*
X331533Y441589D01*
X331890Y441982D01*
X332257Y442367D01*
X332633Y442743D01*
X333018Y443110D01*
X333411Y443467D01*
X333813Y443815D01*
X334224Y444153D01*
X334642Y444481D01*
X335069Y444798D01*
X335503Y445106D01*
X335944Y445402D01*
X336392Y445688D01*
X336847Y445963D01*
X337308Y446227D01*
X337776Y446480D01*
X338250Y446721D01*
X338729Y446951D01*
X339214Y447169D01*
X339704Y447376D01*
X340199Y447570D01*
X340698Y447753D01*
X341202Y447923D01*
X341709Y448081D01*
X342220Y448227D01*
X342735Y448361D01*
X343253Y448482D01*
X343773Y448590D01*
X344296Y448686D01*
X344821Y448769D01*
X345348Y448840D01*
X345877Y448897D01*
X346406Y448942D01*
X346937Y448974D01*
X347468Y448994D01*
X348000Y449000D01*
X424000Y449000D01*
X424000Y419500D01*
X423991Y419350D01*
X423979Y419199D01*
X423962Y419050D01*
X423942Y418900D01*
X423918Y418752D01*
X423890Y418604D01*
X423858Y418456D01*
X423822Y418310D01*
X423782Y418165D01*
X423739Y418020D01*
X423692Y417877D01*
X423641Y417736D01*
X423586Y417595D01*
X423528Y417456D01*
X423466Y417319D01*
X423401Y417183D01*
X423332Y417049D01*
X423259Y416917D01*
X423184Y416787D01*
X423104Y416659D01*
X423022Y416533D01*
X422936Y416409D01*
X422847Y416287D01*
X422755Y416168D01*
X422659Y416052D01*
X422561Y415937D01*
X422460Y415826D01*
X422355Y415717D01*
X422249Y415611D01*
X422139Y415508D01*
X422026Y415407D01*
X421911Y415310D01*
X421794Y415216D01*
X421674Y415124D01*
X421552Y415036D01*
X421427Y414952D01*
X421301Y414870D01*
X421172Y414792D01*
X421041Y414717D01*
X420908Y414646D01*
X420774Y414578D01*
X420638Y414514D01*
X420500Y414453D01*
X420360Y414396D01*
X420219Y414342D01*
X420077Y414293D01*
X419934Y414247D01*
X419789Y414205D01*
X419643Y414166D01*
X419497Y414132D01*
X419349Y414101D01*
X419201Y414074D01*
X419052Y414051D01*
X418903Y414032D01*
X418753Y414017D01*
X418602Y414006D01*
X418452Y413999D01*
X418301Y413995D01*
X418151Y413996D01*
X418000Y414000D01*
X378000Y414000D01*
X377541Y414018D01*
X377081Y414026D01*
X376621Y414022D01*
X376162Y414008D01*
X375703Y413982D01*
X375244Y413945D01*
X374787Y413897D01*
X374331Y413838D01*
X373877Y413768D01*
X373424Y413687D01*
X372973Y413595D01*
X372525Y413492D01*
X372080Y413379D01*
X371637Y413255D01*
X371198Y413120D01*
X370761Y412974D01*
X370329Y412818D01*
X369900Y412652D01*
X369476Y412475D01*
X369056Y412288D01*
X368640Y412091D01*
X368230Y411884D01*
X367824Y411667D01*
X367424Y411441D01*
X367030Y411205D01*
X366641Y410959D01*
X366259Y410704D01*
X365882Y410440D01*
X365512Y410167D01*
X365149Y409885D01*
X364793Y409594D01*
X364444Y409295D01*
X364102Y408987D01*
X363768Y408671D01*
X363442Y408348D01*
X363123Y408016D01*
X362813Y407677D01*
X362510Y407330D01*
X362217Y406977D01*
X361932Y406616D01*
X361655Y406249D01*
X361388Y405874D01*
X361130Y405494D01*
X360881Y405107D01*
X360641Y404715D01*
X360411Y404317D01*
X360191Y403913D01*
X359981Y403505D01*
X359780Y403091D01*
X359590Y402672D01*
X359409Y402249D01*
X359239Y401822D01*
X359080Y401391D01*
X358930Y400956D01*
X358792Y400518D01*
X358664Y400076D01*
X358546Y399632D01*
X358440Y399184D01*
X358344Y398735D01*
X358259Y398283D01*
X358186Y397829D01*
X358123Y397374D01*
X358071Y396917D01*
X358030Y396459D01*
X358000Y396000D01*
X358000Y394500D01*
X358027Y394369D01*
X358051Y394237D01*
X358070Y394104D01*
X358086Y393971D01*
X358098Y393837D01*
X358106Y393703D01*
X358109Y393569D01*
X358110Y393435D01*
X358106Y393301D01*
X358098Y393167D01*
X358086Y393034D01*
X358071Y392901D01*
X358051Y392768D01*
X358028Y392636D01*
X358001Y392504D01*
X357970Y392374D01*
X357936Y392244D01*
X357897Y392116D01*
X357855Y391989D01*
X357809Y391863D01*
X357760Y391738D01*
X357707Y391615D01*
X357650Y391493D01*
X357590Y391373D01*
X357527Y391255D01*
X357460Y391139D01*
X357389Y391025D01*
X357316Y390913D01*
X357239Y390803D01*
X357159Y390695D01*
X357076Y390590D01*
X356990Y390487D01*
X356900Y390387D01*
X356808Y390290D01*
X356714Y390195D01*
X356616Y390103D01*
X356516Y390014D01*
X356413Y389927D01*
X356308Y389844D01*
X356201Y389764D01*
X356091Y389687D01*
X355979Y389613D01*
X355865Y389543D01*
X355749Y389476D01*
X355631Y389412D01*
X355511Y389352D01*
X355389Y389295D01*
X355266Y389242D01*
X355142Y389192D01*
X355016Y389146D01*
X354888Y389104D01*
X354760Y389066D01*
X354631Y389031D01*
X354500Y389000D01*
X326000Y389000D01*
X516500Y389000D02*
X516500Y427000D01*
X516506Y427532D01*
X516526Y428063D01*
X516558Y428594D01*
X516603Y429123D01*
X516660Y429652D01*
X516731Y430179D01*
X516814Y430704D01*
X516910Y431227D01*
X517018Y431747D01*
X517139Y432265D01*
X517273Y432780D01*
X517419Y433291D01*
X517577Y433798D01*
X517747Y434302D01*
X517930Y434801D01*
X518124Y435296D01*
X518331Y435786D01*
X518549Y436271D01*
X518779Y436750D01*
X519020Y437224D01*
X519273Y437692D01*
X519537Y438153D01*
X519812Y438608D01*
X520098Y439056D01*
X520394Y439497D01*
X520702Y439931D01*
X521019Y440358D01*
X521347Y440776D01*
X521685Y441187D01*
X522033Y441589D01*
X522390Y441982D01*
X522757Y442367D01*
X523133Y442743D01*
X523518Y443110D01*
X523911Y443467D01*
X524313Y443815D01*
X524724Y444153D01*
X525142Y444481D01*
X525569Y444798D01*
X526003Y445106D01*
X526444Y445402D01*
X526892Y445688D01*
X527347Y445963D01*
X527808Y446227D01*
X528276Y446480D01*
X528750Y446721D01*
X529229Y446951D01*
X529714Y447169D01*
X530204Y447376D01*
X530699Y447570D01*
X531198Y447753D01*
X531702Y447923D01*
X532209Y448081D01*
X532720Y448227D01*
X533235Y448361D01*
X533753Y448482D01*
X534273Y448590D01*
X534796Y448686D01*
X535321Y448769D01*
X535848Y448840D01*
X536377Y448897D01*
X536906Y448942D01*
X537437Y448974D01*
X537968Y448994D01*
X538500Y449000D01*
X614500Y449000D01*
X614500Y419500D01*
X614491Y419350D01*
X614479Y419199D01*
X614462Y419050D01*
X614442Y418900D01*
X614418Y418752D01*
X614390Y418604D01*
X614358Y418456D01*
X614322Y418310D01*
X614282Y418165D01*
X614239Y418020D01*
X614192Y417877D01*
X614141Y417736D01*
X614086Y417595D01*
X614028Y417456D01*
X613966Y417319D01*
X613901Y417183D01*
X613832Y417049D01*
X613759Y416917D01*
X613684Y416787D01*
X613604Y416659D01*
X613522Y416533D01*
X613436Y416409D01*
X613347Y416287D01*
X613255Y416168D01*
X613159Y416052D01*
X613061Y415937D01*
X612960Y415826D01*
X612855Y415717D01*
X612749Y415611D01*
X612639Y415508D01*
X612526Y415407D01*
X612411Y415310D01*
X612294Y415216D01*
X612174Y415124D01*
X612052Y415036D01*
X611927Y414952D01*
X611801Y414870D01*
X611672Y414792D01*
X611541Y414717D01*
X611408Y414646D01*
X611274Y414578D01*
X611138Y414514D01*
X611000Y414453D01*
X610860Y414396D01*
X610719Y414342D01*
X610577Y414293D01*
X610434Y414247D01*
X610289Y414205D01*
X610143Y414166D01*
X609997Y414132D01*
X609849Y414101D01*
X609701Y414074D01*
X609552Y414051D01*
X609403Y414032D01*
X609253Y414017D01*
X609102Y414006D01*
X608952Y413999D01*
X608801Y413995D01*
X608651Y413996D01*
X608500Y414000D01*
X568500Y414000D01*
X568041Y414018D01*
X567581Y414026D01*
X567121Y414022D01*
X566662Y414008D01*
X566203Y413982D01*
X565744Y413945D01*
X565287Y413897D01*
X564831Y413838D01*
X564377Y413768D01*
X563924Y413687D01*
X563473Y413595D01*
X563025Y413492D01*
X562580Y413379D01*
X562137Y413255D01*
X561698Y413120D01*
X561261Y412974D01*
X560829Y412818D01*
X560400Y412652D01*
X559976Y412475D01*
X559556Y412288D01*
X559140Y412091D01*
X558730Y411884D01*
X558324Y411667D01*
X557924Y411441D01*
X557530Y411205D01*
X557141Y410959D01*
X556759Y410704D01*
X556382Y410440D01*
X556012Y410167D01*
X555649Y409885D01*
X555293Y409594D01*
X554944Y409295D01*
X554602Y408987D01*
X554268Y408671D01*
X553942Y408348D01*
X553623Y408016D01*
X553313Y407677D01*
X553010Y407330D01*
X552717Y406977D01*
X552432Y406616D01*
X552155Y406249D01*
X551888Y405874D01*
X551630Y405494D01*
X551381Y405107D01*
X551141Y404715D01*
X550911Y404317D01*
X550691Y403913D01*
X550481Y403505D01*
X550280Y403091D01*
X550090Y402672D01*
X549909Y402249D01*
X549739Y401822D01*
X549580Y401391D01*
X549430Y400956D01*
X549292Y400518D01*
X549164Y400076D01*
X549046Y399632D01*
X548940Y399184D01*
X548844Y398735D01*
X548759Y398283D01*
X548686Y397829D01*
X548623Y397374D01*
X548571Y396917D01*
X548530Y396459D01*
X548500Y396000D01*
X548500Y394500D01*
X548527Y394369D01*
X548551Y394237D01*
X548570Y394104D01*
X548586Y393971D01*
X548598Y393837D01*
X548606Y393703D01*
X548609Y393569D01*
X548610Y393435D01*
X548606Y393301D01*
X548598Y393167D01*
X548586Y393034D01*
X548571Y392901D01*
X548551Y392768D01*
X548528Y392636D01*
X548501Y392504D01*
X548470Y392374D01*
X548436Y392244D01*
X548397Y392116D01*
X548355Y391989D01*
X548309Y391863D01*
X548260Y391738D01*
X548207Y391615D01*
X548150Y391493D01*
X548090Y391373D01*
X548027Y391255D01*
X547960Y391139D01*
X547889Y391025D01*
X547816Y390913D01*
X547739Y390803D01*
X547659Y390695D01*
X547576Y390590D01*
X547490Y390487D01*
X547400Y390387D01*
X547308Y390290D01*
X547214Y390195D01*
X547116Y390103D01*
X547016Y390014D01*
X546913Y389927D01*
X546808Y389844D01*
X546701Y389764D01*
X546591Y389687D01*
X546479Y389613D01*
X546365Y389543D01*
X546249Y389476D01*
X546131Y389412D01*
X546011Y389352D01*
X545889Y389295D01*
X545766Y389242D01*
X545642Y389192D01*
X545516Y389146D01*
X545388Y389104D01*
X545260Y389066D01*
X545131Y389031D01*
X545000Y389000D01*
X516500Y389000D01*
X707000Y389000D02*
X707000Y427000D01*
X707006Y427532D01*
X707026Y428063D01*
X707058Y428594D01*
X707103Y429123D01*
X707160Y429652D01*
X707231Y430179D01*
X707314Y430704D01*
X707410Y431227D01*
X707518Y431747D01*
X707639Y432265D01*
X707773Y432780D01*
X707919Y433291D01*
X708077Y433798D01*
X708247Y434302D01*
X708430Y434801D01*
X708624Y435296D01*
X708831Y435786D01*
X709049Y436271D01*
X709279Y436750D01*
X709520Y437224D01*
X709773Y437692D01*
X710037Y438153D01*
X710312Y438608D01*
X710598Y439056D01*
X710894Y439497D01*
X711202Y439931D01*
X711519Y440358D01*
X711847Y440776D01*
X712185Y441187D01*
X712533Y441589D01*
X712890Y441982D01*
X713257Y442367D01*
X713633Y442743D01*
X714018Y443110D01*
X714411Y443467D01*
X714813Y443815D01*
X715224Y444153D01*
X715642Y444481D01*
X716069Y444798D01*
X716503Y445106D01*
X716944Y445402D01*
X717392Y445688D01*
X717847Y445963D01*
X718308Y446227D01*
X718776Y446480D01*
X719250Y446721D01*
X719729Y446951D01*
X720214Y447169D01*
X720704Y447376D01*
X721199Y447570D01*
X721698Y447753D01*
X722202Y447923D01*
X722709Y448081D01*
X723220Y448227D01*
X723735Y448361D01*
X724253Y448482D01*
X724773Y448590D01*
X725296Y448686D01*
X725821Y448769D01*
X726348Y448840D01*
X726877Y448897D01*
X727406Y448942D01*
X727937Y448974D01*
X728468Y448994D01*
X729000Y449000D01*
X805000Y449000D01*
X805000Y419500D01*
X804991Y419350D01*
X804979Y419199D01*
X804962Y419050D01*
X804942Y418900D01*
X804918Y418752D01*
X804890Y418604D01*
X804858Y418456D01*
X804822Y418310D01*
X804782Y418165D01*
X804739Y418020D01*
X804692Y417877D01*
X804641Y417736D01*
X804586Y417595D01*
X804528Y417456D01*
X804466Y417319D01*
X804401Y417183D01*
X804332Y417049D01*
X804259Y416917D01*
X804184Y416787D01*
X804104Y416659D01*
X804022Y416533D01*
X803936Y416409D01*
X803847Y416287D01*
X803755Y416168D01*
X803659Y416052D01*
X803561Y415937D01*
X803460Y415826D01*
X803355Y415717D01*
X803249Y415611D01*
X803139Y415508D01*
X803026Y415407D01*
X802911Y415310D01*
X802794Y415216D01*
X802674Y415124D01*
X802552Y415036D01*
X802427Y414952D01*
X802301Y414870D01*
X802172Y414792D01*
X802041Y414717D01*
X801908Y414646D01*
X801774Y414578D01*
X801638Y414514D01*
X801500Y414453D01*
X801360Y414396D01*
X801219Y414342D01*
X801077Y414293D01*
X800934Y414247D01*
X800789Y414205D01*
X800643Y414166D01*
X800497Y414132D01*
X800349Y414101D01*
X800201Y414074D01*
X800052Y414051D01*
X799903Y414032D01*
X799753Y414017D01*
X799602Y414006D01*
X799452Y413999D01*
X799301Y413995D01*
X799151Y413996D01*
X799000Y414000D01*
X759000Y414000D01*
X758541Y414018D01*
X758081Y414026D01*
X757621Y414022D01*
X757162Y414008D01*
X756703Y413982D01*
X756244Y413945D01*
X755787Y413897D01*
X755331Y413838D01*
X754877Y413768D01*
X754424Y413687D01*
X753973Y413595D01*
X753525Y413492D01*
X753080Y413379D01*
X752637Y413255D01*
X752198Y413120D01*
X751761Y412974D01*
X751329Y412818D01*
X750900Y412652D01*
X750476Y412475D01*
X750056Y412288D01*
X749640Y412091D01*
X749230Y411884D01*
X748824Y411667D01*
X748424Y411441D01*
X748030Y411205D01*
X747641Y410959D01*
X747259Y410704D01*
X746882Y410440D01*
X746512Y410167D01*
X746149Y409885D01*
X745793Y409594D01*
X745444Y409295D01*
X745102Y408987D01*
X744768Y408671D01*
X744442Y408348D01*
X744123Y408016D01*
X743813Y407677D01*
X743510Y407330D01*
X743217Y406977D01*
X742932Y406616D01*
X742655Y406249D01*
X742388Y405874D01*
X742130Y405494D01*
X741881Y405107D01*
X741641Y404715D01*
X741411Y404317D01*
X741191Y403913D01*
X740981Y403505D01*
X740780Y403091D01*
X740590Y402672D01*
X740409Y402249D01*
X740239Y401822D01*
X740080Y401391D01*
X739930Y400956D01*
X739792Y400518D01*
X739664Y400076D01*
X739546Y399632D01*
X739440Y399184D01*
X739344Y398735D01*
X739259Y398283D01*
X739186Y397829D01*
X739123Y397374D01*
X739071Y396917D01*
X739030Y396459D01*
X739000Y396000D01*
X739000Y394500D01*
X739027Y394369D01*
X739051Y394237D01*
X739070Y394104D01*
X739086Y393971D01*
X739098Y393837D01*
X739106Y393703D01*
X739109Y393569D01*
X739110Y393435D01*
X739106Y393301D01*
X739098Y393167D01*
X739086Y393034D01*
X739071Y392901D01*
X739051Y392768D01*
X739028Y392636D01*
X739001Y392504D01*
X738970Y392374D01*
X738936Y392244D01*
X738897Y392116D01*
X738855Y391989D01*
X738809Y391863D01*
X738760Y391738D01*
X738707Y391615D01*
X738650Y391493D01*
X738590Y391373D01*
X738527Y391255D01*
X738460Y391139D01*
X738389Y391025D01*
X738316Y390913D01*
X738239Y390803D01*
X738159Y390695D01*
X738076Y390590D01*
X737990Y390487D01*
X737900Y390387D01*
X737808Y390290D01*
X737714Y390195D01*
X737616Y390103D01*
X737516Y390014D01*
X737413Y389927D01*
X737308Y389844D01*
X737201Y389764D01*
X737091Y389687D01*
X736979Y389613D01*
X736865Y389543D01*
X736749Y389476D01*
X736631Y389412D01*
X736511Y389352D01*
X736389Y389295D01*
X736266Y389242D01*
X736142Y389192D01*
X736016Y389146D01*
X735888Y389104D01*
X735760Y389066D01*
X735631Y389031D01*
X735500Y389000D01*
X707000Y389000D01*
X135500Y236500D02*
X135500Y198500D01*
X135500Y236500D02*
X135506Y237032D01*
X135526Y237563D01*
X135558Y238094D01*
X135603Y238623D01*
X135660Y239152D01*
X135731Y239679D01*
X135814Y240204D01*
X135910Y240727D01*
X136018Y241247D01*
X136139Y241765D01*
X136273Y242280D01*
X136419Y242791D01*
X136577Y243298D01*
X136747Y243802D01*
X136930Y244301D01*
X137124Y244796D01*
X137331Y245286D01*
X137549Y245771D01*
X137779Y246250D01*
X138020Y246724D01*
X138273Y247192D01*
X138537Y247653D01*
X138812Y248108D01*
X139098Y248556D01*
X139394Y248997D01*
X139702Y249431D01*
X140019Y249858D01*
X140347Y250276D01*
X140685Y250687D01*
X141033Y251089D01*
X141390Y251482D01*
X141757Y251867D01*
X142133Y252243D01*
X142518Y252610D01*
X142911Y252967D01*
X143313Y253315D01*
X143724Y253653D01*
X144142Y253981D01*
X144569Y254298D01*
X145003Y254606D01*
X145444Y254902D01*
X145892Y255188D01*
X146347Y255463D01*
X146808Y255727D01*
X147276Y255980D01*
X147750Y256221D01*
X148229Y256451D01*
X148714Y256669D01*
X149204Y256876D01*
X149699Y257070D01*
X150198Y257253D01*
X150702Y257423D01*
X151209Y257581D01*
X151720Y257727D01*
X152235Y257861D01*
X152753Y257982D01*
X153273Y258090D01*
X153796Y258186D01*
X154321Y258269D01*
X154848Y258340D01*
X155377Y258397D01*
X155906Y258442D01*
X156437Y258474D01*
X156968Y258494D01*
X157500Y258500D01*
X233500Y258500D01*
X233500Y229000D01*
X233491Y228850D01*
X233479Y228699D01*
X233462Y228550D01*
X233442Y228400D01*
X233418Y228252D01*
X233390Y228104D01*
X233358Y227956D01*
X233322Y227810D01*
X233282Y227665D01*
X233239Y227520D01*
X233192Y227377D01*
X233141Y227236D01*
X233086Y227095D01*
X233028Y226956D01*
X232966Y226819D01*
X232901Y226683D01*
X232832Y226549D01*
X232759Y226417D01*
X232684Y226287D01*
X232604Y226159D01*
X232522Y226033D01*
X232436Y225909D01*
X232347Y225787D01*
X232255Y225668D01*
X232159Y225552D01*
X232061Y225437D01*
X231960Y225326D01*
X231855Y225217D01*
X231749Y225111D01*
X231639Y225008D01*
X231526Y224907D01*
X231411Y224810D01*
X231294Y224716D01*
X231174Y224624D01*
X231052Y224536D01*
X230927Y224452D01*
X230801Y224370D01*
X230672Y224292D01*
X230541Y224217D01*
X230408Y224146D01*
X230274Y224078D01*
X230138Y224014D01*
X230000Y223953D01*
X229860Y223896D01*
X229719Y223842D01*
X229577Y223793D01*
X229434Y223747D01*
X229289Y223705D01*
X229143Y223666D01*
X228997Y223632D01*
X228849Y223601D01*
X228701Y223574D01*
X228552Y223551D01*
X228403Y223532D01*
X228253Y223517D01*
X228102Y223506D01*
X227952Y223499D01*
X227801Y223495D01*
X227651Y223496D01*
X227500Y223500D01*
X187500Y223500D01*
X187041Y223518D01*
X186581Y223526D01*
X186121Y223522D01*
X185662Y223508D01*
X185203Y223482D01*
X184744Y223445D01*
X184287Y223397D01*
X183831Y223338D01*
X183377Y223268D01*
X182924Y223187D01*
X182473Y223095D01*
X182025Y222992D01*
X181580Y222879D01*
X181137Y222755D01*
X180698Y222620D01*
X180261Y222474D01*
X179829Y222318D01*
X179400Y222152D01*
X178976Y221975D01*
X178556Y221788D01*
X178140Y221591D01*
X177730Y221384D01*
X177324Y221167D01*
X176924Y220941D01*
X176530Y220705D01*
X176141Y220459D01*
X175759Y220204D01*
X175382Y219940D01*
X175012Y219667D01*
X174649Y219385D01*
X174293Y219094D01*
X173944Y218795D01*
X173602Y218487D01*
X173268Y218171D01*
X172942Y217848D01*
X172623Y217516D01*
X172313Y217177D01*
X172010Y216830D01*
X171717Y216477D01*
X171432Y216116D01*
X171155Y215749D01*
X170888Y215374D01*
X170630Y214994D01*
X170381Y214607D01*
X170141Y214215D01*
X169911Y213817D01*
X169691Y213413D01*
X169481Y213005D01*
X169280Y212591D01*
X169090Y212172D01*
X168909Y211749D01*
X168739Y211322D01*
X168580Y210891D01*
X168430Y210456D01*
X168292Y210018D01*
X168164Y209576D01*
X168046Y209132D01*
X167940Y208684D01*
X167844Y208235D01*
X167759Y207783D01*
X167686Y207329D01*
X167623Y206874D01*
X167571Y206417D01*
X167530Y205959D01*
X167500Y205500D01*
X167500Y204000D01*
X167527Y203869D01*
X167551Y203737D01*
X167570Y203604D01*
X167586Y203471D01*
X167598Y203337D01*
X167606Y203203D01*
X167609Y203069D01*
X167610Y202935D01*
X167606Y202801D01*
X167598Y202667D01*
X167586Y202534D01*
X167571Y202401D01*
X167551Y202268D01*
X167528Y202136D01*
X167501Y202004D01*
X167470Y201874D01*
X167436Y201744D01*
X167397Y201616D01*
X167355Y201489D01*
X167309Y201363D01*
X167260Y201238D01*
X167207Y201115D01*
X167150Y200993D01*
X167090Y200873D01*
X167027Y200755D01*
X166960Y200639D01*
X166889Y200525D01*
X166816Y200413D01*
X166739Y200303D01*
X166659Y200195D01*
X166576Y200090D01*
X166490Y199987D01*
X166400Y199887D01*
X166308Y199790D01*
X166214Y199695D01*
X166116Y199603D01*
X166016Y199514D01*
X165913Y199427D01*
X165808Y199344D01*
X165701Y199264D01*
X165591Y199187D01*
X165479Y199113D01*
X165365Y199043D01*
X165249Y198976D01*
X165131Y198912D01*
X165011Y198852D01*
X164889Y198795D01*
X164766Y198742D01*
X164642Y198692D01*
X164516Y198646D01*
X164388Y198604D01*
X164260Y198566D01*
X164131Y198531D01*
X164000Y198500D01*
X135500Y198500D01*
X326000Y198500D02*
X326000Y236500D01*
X326006Y237032D01*
X326026Y237563D01*
X326058Y238094D01*
X326103Y238623D01*
X326160Y239152D01*
X326231Y239679D01*
X326314Y240204D01*
X326410Y240727D01*
X326518Y241247D01*
X326639Y241765D01*
X326773Y242280D01*
X326919Y242791D01*
X327077Y243298D01*
X327247Y243802D01*
X327430Y244301D01*
X327624Y244796D01*
X327831Y245286D01*
X328049Y245771D01*
X328279Y246250D01*
X328520Y246724D01*
X328773Y247192D01*
X329037Y247653D01*
X329312Y248108D01*
X329598Y248556D01*
X329894Y248997D01*
X330202Y249431D01*
X330519Y249858D01*
X330847Y250276D01*
X331185Y250687D01*
X331533Y251089D01*
X331890Y251482D01*
X332257Y251867D01*
X332633Y252243D01*
X333018Y252610D01*
X333411Y252967D01*
X333813Y253315D01*
X334224Y253653D01*
X334642Y253981D01*
X335069Y254298D01*
X335503Y254606D01*
X335944Y254902D01*
X336392Y255188D01*
X336847Y255463D01*
X337308Y255727D01*
X337776Y255980D01*
X338250Y256221D01*
X338729Y256451D01*
X339214Y256669D01*
X339704Y256876D01*
X340199Y257070D01*
X340698Y257253D01*
X341202Y257423D01*
X341709Y257581D01*
X342220Y257727D01*
X342735Y257861D01*
X343253Y257982D01*
X343773Y258090D01*
X344296Y258186D01*
X344821Y258269D01*
X345348Y258340D01*
X345877Y258397D01*
X346406Y258442D01*
X346937Y258474D01*
X347468Y258494D01*
X348000Y258500D01*
X424000Y258500D01*
X424000Y229000D01*
X423991Y228850D01*
X423979Y228699D01*
X423962Y228550D01*
X423942Y228400D01*
X423918Y228252D01*
X423890Y228104D01*
X423858Y227956D01*
X423822Y227810D01*
X423782Y227665D01*
X423739Y227520D01*
X423692Y227377D01*
X423641Y227236D01*
X423586Y227095D01*
X423528Y226956D01*
X423466Y226819D01*
X423401Y226683D01*
X423332Y226549D01*
X423259Y226417D01*
X423184Y226287D01*
X423104Y226159D01*
X423022Y226033D01*
X422936Y225909D01*
X422847Y225787D01*
X422755Y225668D01*
X422659Y225552D01*
X422561Y225437D01*
X422460Y225326D01*
X422355Y225217D01*
X422249Y225111D01*
X422139Y225008D01*
X422026Y224907D01*
X421911Y224810D01*
X421794Y224716D01*
X421674Y224624D01*
X421552Y224536D01*
X421427Y224452D01*
X421301Y224370D01*
X421172Y224292D01*
X421041Y224217D01*
X420908Y224146D01*
X420774Y224078D01*
X420638Y224014D01*
X420500Y223953D01*
X420360Y223896D01*
X420219Y223842D01*
X420077Y223793D01*
X419934Y223747D01*
X419789Y223705D01*
X419643Y223666D01*
X419497Y223632D01*
X419349Y223601D01*
X419201Y223574D01*
X419052Y223551D01*
X418903Y223532D01*
X418753Y223517D01*
X418602Y223506D01*
X418452Y223499D01*
X418301Y223495D01*
X418151Y223496D01*
X418000Y223500D01*
X378000Y223500D01*
X377541Y223518D01*
X377081Y223526D01*
X376621Y223522D01*
X376162Y223508D01*
X375703Y223482D01*
X375244Y223445D01*
X374787Y223397D01*
X374331Y223338D01*
X373877Y223268D01*
X373424Y223187D01*
X372973Y223095D01*
X372525Y222992D01*
X372080Y222879D01*
X371637Y222755D01*
X371198Y222620D01*
X370761Y222474D01*
X370329Y222318D01*
X369900Y222152D01*
X369476Y221975D01*
X369056Y221788D01*
X368640Y221591D01*
X368230Y221384D01*
X367824Y221167D01*
X367424Y220941D01*
X367030Y220705D01*
X366641Y220459D01*
X366259Y220204D01*
X365882Y219940D01*
X365512Y219667D01*
X365149Y219385D01*
X364793Y219094D01*
X364444Y218795D01*
X364102Y218487D01*
X363768Y218171D01*
X363442Y217848D01*
X363123Y217516D01*
X362813Y217177D01*
X362510Y216830D01*
X362217Y216477D01*
X361932Y216116D01*
X361655Y215749D01*
X361388Y215374D01*
X361130Y214994D01*
X360881Y214607D01*
X360641Y214215D01*
X360411Y213817D01*
X360191Y213413D01*
X359981Y213005D01*
X359780Y212591D01*
X359590Y212172D01*
X359409Y211749D01*
X359239Y211322D01*
X359080Y210891D01*
X358930Y210456D01*
X358792Y210018D01*
X358664Y209576D01*
X358546Y209132D01*
X358440Y208684D01*
X358344Y208235D01*
X358259Y207783D01*
X358186Y207329D01*
X358123Y206874D01*
X358071Y206417D01*
X358030Y205959D01*
X358000Y205500D01*
X358000Y204000D01*
X358027Y203869D01*
X358051Y203737D01*
X358070Y203604D01*
X358086Y203471D01*
X358098Y203337D01*
X358106Y203203D01*
X358109Y203069D01*
X358110Y202935D01*
X358106Y202801D01*
X358098Y202667D01*
X358086Y202534D01*
X358071Y202401D01*
X358051Y202268D01*
X358028Y202136D01*
X358001Y202004D01*
X357970Y201874D01*
X357936Y201744D01*
X357897Y201616D01*
X357855Y201489D01*
X357809Y201363D01*
X357760Y201238D01*
X357707Y201115D01*
X357650Y200993D01*
X357590Y200873D01*
X357527Y200755D01*
X357460Y200639D01*
X357389Y200525D01*
X357316Y200413D01*
X357239Y200303D01*
X357159Y200195D01*
X357076Y200090D01*
X356990Y199987D01*
X356900Y199887D01*
X356808Y199790D01*
X356714Y199695D01*
X356616Y199603D01*
X356516Y199514D01*
X356413Y199427D01*
X356308Y199344D01*
X356201Y199264D01*
X356091Y199187D01*
X355979Y199113D01*
X355865Y199043D01*
X355749Y198976D01*
X355631Y198912D01*
X355511Y198852D01*
X355389Y198795D01*
X355266Y198742D01*
X355142Y198692D01*
X355016Y198646D01*
X354888Y198604D01*
X354760Y198566D01*
X354631Y198531D01*
X354500Y198500D01*
X326000Y198500D01*
X516500Y198500D02*
X516500Y236500D01*
X516506Y237032D01*
X516526Y237563D01*
X516558Y238094D01*
X516603Y238623D01*
X516660Y239152D01*
X516731Y239679D01*
X516814Y240204D01*
X516910Y240727D01*
X517018Y241247D01*
X517139Y241765D01*
X517273Y242280D01*
X517419Y242791D01*
X517577Y243298D01*
X517747Y243802D01*
X517930Y244301D01*
X518124Y244796D01*
X518331Y245286D01*
X518549Y245771D01*
X518779Y246250D01*
X519020Y246724D01*
X519273Y247192D01*
X519537Y247653D01*
X519812Y248108D01*
X520098Y248556D01*
X520394Y248997D01*
X520702Y249431D01*
X521019Y249858D01*
X521347Y250276D01*
X521685Y250687D01*
X522033Y251089D01*
X522390Y251482D01*
X522757Y251867D01*
X523133Y252243D01*
X523518Y252610D01*
X523911Y252967D01*
X524313Y253315D01*
X524724Y253653D01*
X525142Y253981D01*
X525569Y254298D01*
X526003Y254606D01*
X526444Y254902D01*
X526892Y255188D01*
X527347Y255463D01*
X527808Y255727D01*
X528276Y255980D01*
X528750Y256221D01*
X529229Y256451D01*
X529714Y256669D01*
X530204Y256876D01*
X530699Y257070D01*
X531198Y257253D01*
X531702Y257423D01*
X532209Y257581D01*
X532720Y257727D01*
X533235Y257861D01*
X533753Y257982D01*
X534273Y258090D01*
X534796Y258186D01*
X535321Y258269D01*
X535848Y258340D01*
X536377Y258397D01*
X536906Y258442D01*
X537437Y258474D01*
X537968Y258494D01*
X538500Y258500D01*
X614500Y258500D01*
X614500Y229000D01*
X614491Y228850D01*
X614479Y228699D01*
X614462Y228550D01*
X614442Y228400D01*
X614418Y228252D01*
X614390Y228104D01*
X614358Y227956D01*
X614322Y227810D01*
X614282Y227665D01*
X614239Y227520D01*
X614192Y227377D01*
X614141Y227236D01*
X614086Y227095D01*
X614028Y226956D01*
X613966Y226819D01*
X613901Y226683D01*
X613832Y226549D01*
X613759Y226417D01*
X613684Y226287D01*
X613604Y226159D01*
X613522Y226033D01*
X613436Y225909D01*
X613347Y225787D01*
X613255Y225668D01*
X613159Y225552D01*
X613061Y225437D01*
X612960Y225326D01*
X612855Y225217D01*
X612749Y225111D01*
X612639Y225008D01*
X612526Y224907D01*
X612411Y224810D01*
X612294Y224716D01*
X612174Y224624D01*
X612052Y224536D01*
X611927Y224452D01*
X611801Y224370D01*
X611672Y224292D01*
X611541Y224217D01*
X611408Y224146D01*
X611274Y224078D01*
X611138Y224014D01*
X611000Y223953D01*
X610860Y223896D01*
X610719Y223842D01*
X610577Y223793D01*
X610434Y223747D01*
X610289Y223705D01*
X610143Y223666D01*
X609997Y223632D01*
X609849Y223601D01*
X609701Y223574D01*
X609552Y223551D01*
X609403Y223532D01*
X609253Y223517D01*
X609102Y223506D01*
X608952Y223499D01*
X608801Y223495D01*
X608651Y223496D01*
X608500Y223500D01*
X568500Y223500D01*
X568041Y223518D01*
X567581Y223526D01*
X567121Y223522D01*
X566662Y223508D01*
X566203Y223482D01*
X565744Y223445D01*
X565287Y223397D01*
X564831Y223338D01*
X564377Y223268D01*
X563924Y223187D01*
X563473Y223095D01*
X563025Y222992D01*
X562580Y222879D01*
X562137Y222755D01*
X561698Y222620D01*
X561261Y222474D01*
X560829Y222318D01*
X560400Y222152D01*
X559976Y221975D01*
X559556Y221788D01*
X559140Y221591D01*
X558730Y221384D01*
X558324Y221167D01*
X557924Y220941D01*
X557530Y220705D01*
X557141Y220459D01*
X556759Y220204D01*
X556382Y219940D01*
X556012Y219667D01*
X555649Y219385D01*
X555293Y219094D01*
X554944Y218795D01*
X554602Y218487D01*
X554268Y218171D01*
X553942Y217848D01*
X553623Y217516D01*
X553313Y217177D01*
X553010Y216830D01*
X552717Y216477D01*
X552432Y216116D01*
X552155Y215749D01*
X551888Y215374D01*
X551630Y214994D01*
X551381Y214607D01*
X551141Y214215D01*
X550911Y213817D01*
X550691Y213413D01*
X550481Y213005D01*
X550280Y212591D01*
X550090Y212172D01*
X549909Y211749D01*
X549739Y211322D01*
X549580Y210891D01*
X549430Y210456D01*
X549292Y210018D01*
X549164Y209576D01*
X549046Y209132D01*
X548940Y208684D01*
X548844Y208235D01*
X548759Y207783D01*
X548686Y207329D01*
X548623Y206874D01*
X548571Y206417D01*
X548530Y205959D01*
X548500Y205500D01*
X548500Y204000D01*
X548527Y203869D01*
X548551Y203737D01*
X548570Y203604D01*
X548586Y203471D01*
X548598Y203337D01*
X548606Y203203D01*
X548609Y203069D01*
X548610Y202935D01*
X548606Y202801D01*
X548598Y202667D01*
X548586Y202534D01*
X548571Y202401D01*
X548551Y202268D01*
X548528Y202136D01*
X548501Y202004D01*
X548470Y201874D01*
X548436Y201744D01*
X548397Y201616D01*
X548355Y201489D01*
X548309Y201363D01*
X548260Y201238D01*
X548207Y201115D01*
X548150Y200993D01*
X548090Y200873D01*
X548027Y200755D01*
X547960Y200639D01*
X547889Y200525D01*
X547816Y200413D01*
X547739Y200303D01*
X547659Y200195D01*
X547576Y200090D01*
X547490Y199987D01*
X547400Y199887D01*
X547308Y199790D01*
X547214Y199695D01*
X547116Y199603D01*
X547016Y199514D01*
X546913Y199427D01*
X546808Y199344D01*
X546701Y199264D01*
X546591Y199187D01*
X546479Y199113D01*
X546365Y199043D01*
X546249Y198976D01*
X546131Y198912D01*
X546011Y198852D01*
X545889Y198795D01*
X545766Y198742D01*
X545642Y198692D01*
X545516Y198646D01*
X545388Y198604D01*
X545260Y198566D01*
X545131Y198531D01*
X545000Y198500D01*
X516500Y198500D01*
X707000Y198500D02*
X707000Y236500D01*
X707006Y237032D01*
X707026Y237563D01*
X707058Y238094D01*
X707103Y238623D01*
X707160Y239152D01*
X707231Y239679D01*
X707314Y240204D01*
X707410Y240727D01*
X707518Y241247D01*
X707639Y241765D01*
X707773Y242280D01*
X707919Y242791D01*
X708077Y243298D01*
X708247Y243802D01*
X708430Y244301D01*
X708624Y244796D01*
X708831Y245286D01*
X709049Y245771D01*
X709279Y246250D01*
X709520Y246724D01*
X709773Y247192D01*
X710037Y247653D01*
X710312Y248108D01*
X710598Y248556D01*
X710894Y248997D01*
X711202Y249431D01*
X711519Y249858D01*
X711847Y250276D01*
X712185Y250687D01*
X712533Y251089D01*
X712890Y251482D01*
X713257Y251867D01*
X713633Y252243D01*
X714018Y252610D01*
X714411Y252967D01*
X714813Y253315D01*
X715224Y253653D01*
X715642Y253981D01*
X716069Y254298D01*
X716503Y254606D01*
X716944Y254902D01*
X717392Y255188D01*
X717847Y255463D01*
X718308Y255727D01*
X718776Y255980D01*
X719250Y256221D01*
X719729Y256451D01*
X720214Y256669D01*
X720704Y256876D01*
X721199Y257070D01*
X721698Y257253D01*
X722202Y257423D01*
X722709Y257581D01*
X723220Y257727D01*
X723735Y257861D01*
X724253Y257982D01*
X724773Y258090D01*
X725296Y258186D01*
X725821Y258269D01*
X726348Y258340D01*
X726877Y258397D01*
X727406Y258442D01*
X727937Y258474D01*
X728468Y258494D01*
X729000Y258500D01*
X805000Y258500D01*
X805000Y229000D01*
X804991Y228850D01*
X804979Y228699D01*
X804962Y228550D01*
X804942Y228400D01*
X804918Y228252D01*
X804890Y228104D01*
X804858Y227956D01*
X804822Y227810D01*
X804782Y227665D01*
X804739Y227520D01*
X804692Y227377D01*
X804641Y227236D01*
X804586Y227095D01*
X804528Y226956D01*
X804466Y226819D01*
X804401Y226683D01*
X804332Y226549D01*
X804259Y226417D01*
X804184Y226287D01*
X804104Y226159D01*
X804022Y226033D01*
X803936Y225909D01*
X803847Y225787D01*
X803755Y225668D01*
X803659Y225552D01*
X803561Y225437D01*
X803460Y225326D01*
X803355Y225217D01*
X803249Y225111D01*
X803139Y225008D01*
X803026Y224907D01*
X802911Y224810D01*
X802794Y224716D01*
X802674Y224624D01*
X802552Y224536D01*
X802427Y224452D01*
X802301Y224370D01*
X802172Y224292D01*
X802041Y224217D01*
X801908Y224146D01*
X801774Y224078D01*
X801638Y224014D01*
X801500Y223953D01*
X801360Y223896D01*
X801219Y223842D01*
X801077Y223793D01*
X800934Y223747D01*
X800789Y223705D01*
X800643Y223666D01*
X800497Y223632D01*
X800349Y223601D01*
X800201Y223574D01*
X800052Y223551D01*
X799903Y223532D01*
X799753Y223517D01*
X799602Y223506D01*
X799452Y223499D01*
X799301Y223495D01*
X799151Y223496D01*
X799000Y223500D01*
X759000Y223500D01*
X758541Y223518D01*
X758081Y223526D01*
X757621Y223522D01*
X757162Y223508D01*
X756703Y223482D01*
X756244Y223445D01*
X755787Y223397D01*
X755331Y223338D01*
X754877Y223268D01*
X754424Y223187D01*
X753973Y223095D01*
X753525Y222992D01*
X753080Y222879D01*
X752637Y222755D01*
X752198Y222620D01*
X751761Y222474D01*
X751329Y222318D01*
X750900Y222152D01*
X750476Y221975D01*
X750056Y221788D01*
X749640Y221591D01*
X749230Y221384D01*
X748824Y221167D01*
X748424Y220941D01*
X748030Y220705D01*
X747641Y220459D01*
X747259Y220204D01*
X746882Y219940D01*
X746512Y219667D01*
X746149Y219385D01*
X745793Y219094D01*
X745444Y218795D01*
X745102Y218487D01*
X744768Y218171D01*
X744442Y217848D01*
X744123Y217516D01*
X743813Y217177D01*
X743510Y216830D01*
X743217Y216477D01*
X742932Y216116D01*
X742655Y215749D01*
X742388Y215374D01*
X742130Y214994D01*
X741881Y214607D01*
X741641Y214215D01*
X741411Y213817D01*
X741191Y213413D01*
X740981Y213005D01*
X740780Y212591D01*
X740590Y212172D01*
X740409Y211749D01*
X740239Y211322D01*
X740080Y210891D01*
X739930Y210456D01*
X739792Y210018D01*
X739664Y209576D01*
X739546Y209132D01*
X739440Y208684D01*
X739344Y208235D01*
X739259Y207783D01*
X739186Y207329D01*
X739123Y206874D01*
X739071Y206417D01*
X739030Y205959D01*
X739000Y205500D01*
X739000Y204000D01*
X739027Y203869D01*
X739051Y203737D01*
X739070Y203604D01*
X739086Y203471D01*
X739098Y203337D01*
X739106Y203203D01*
X739109Y203069D01*
X739110Y202935D01*
X739106Y202801D01*
X739098Y202667D01*
X739086Y202534D01*
X739071Y202401D01*
X739051Y202268D01*
X739028Y202136D01*
X739001Y202004D01*
X738970Y201874D01*
X738936Y201744D01*
X738897Y201616D01*
X738855Y201489D01*
X738809Y201363D01*
X738760Y201238D01*
X738707Y201115D01*
X738650Y200993D01*
X738590Y200873D01*
X738527Y200755D01*
X738460Y200639D01*
X738389Y200525D01*
X738316Y200413D01*
X738239Y200303D01*
X738159Y200195D01*
X738076Y200090D01*
X737990Y199987D01*
X737900Y199887D01*
X737808Y199790D01*
X737714Y199695D01*
X737616Y199603D01*
X737516Y199514D01*
X737413Y199427D01*
X737308Y199344D01*
X737201Y199264D01*
X737091Y199187D01*
X736979Y199113D01*
X736865Y199043D01*
X736749Y198976D01*
X736631Y198912D01*
X736511Y198852D01*
X736389Y198795D01*
X736266Y198742D01*
X736142Y198692D01*
X736016Y198646D01*
X735888Y198604D01*
X735760Y198566D01*
X735631Y198531D01*
X735500Y198500D01*
X707000Y198500D01*
D11*
X197359Y975695D02*
X189359Y975695D01*
X189359Y987195D01*
X189359Y995195D02*
X189359Y1006695D01*
X197359Y1006695D01*
X219359Y1006695D02*
X227359Y1006695D01*
X227359Y999195D01*
X227359Y975695D02*
X219359Y975695D01*
X227359Y975695D02*
X227359Y983195D01*
X527129Y900969D02*
X527129Y890429D01*
X527129Y900969D02*
X534749Y900969D01*
X548719Y900969D02*
X556339Y900969D01*
X556339Y890429D01*
X680492Y1011414D02*
X688492Y1011414D01*
X680492Y1011414D02*
X680492Y1022914D01*
X680492Y1030914D02*
X680492Y1042414D01*
X688492Y1042414D01*
X710492Y1042414D02*
X718492Y1042414D01*
X718492Y1034914D01*
X718492Y1011414D02*
X710492Y1011414D01*
X718492Y1011414D02*
X718492Y1018914D01*
D12*
X556484Y937891D02*
X556484Y931391D01*
X556484Y937891D02*
X526984Y937891D01*
X526984Y931391D01*
X556484Y931391D01*
X557734Y927891D02*
X557734Y916391D01*
D11*
X564541Y977872D02*
X564541Y1010472D01*
X542741Y1010472D02*
X542741Y977872D01*
X208000Y500422D02*
X173000Y500422D01*
X208000Y500422D02*
X208000Y535422D01*
X173000Y535422D01*
X173000Y500422D01*
X176358Y517922D02*
X176362Y518269D01*
X176375Y518616D01*
X176396Y518962D01*
X176426Y519308D01*
X176464Y519653D01*
X176511Y519997D01*
X176566Y520340D01*
X176630Y520681D01*
X176702Y521021D01*
X176782Y521358D01*
X176870Y521694D01*
X176967Y522027D01*
X177072Y522358D01*
X177185Y522686D01*
X177306Y523012D01*
X177434Y523334D01*
X177571Y523653D01*
X177716Y523968D01*
X177868Y524280D01*
X178028Y524588D01*
X178195Y524893D01*
X178370Y525192D01*
X178552Y525488D01*
X178741Y525779D01*
X178938Y526065D01*
X179141Y526346D01*
X179351Y526623D01*
X179568Y526894D01*
X179792Y527159D01*
X180021Y527419D01*
X180258Y527673D01*
X180500Y527922D01*
X180749Y528164D01*
X181003Y528401D01*
X181263Y528630D01*
X181528Y528854D01*
X181799Y529071D01*
X182076Y529281D01*
X182357Y529484D01*
X182643Y529681D01*
X182934Y529870D01*
X183230Y530052D01*
X183529Y530227D01*
X183834Y530394D01*
X184142Y530554D01*
X184454Y530706D01*
X184769Y530851D01*
X185088Y530988D01*
X185410Y531116D01*
X185736Y531237D01*
X186064Y531350D01*
X186395Y531455D01*
X186728Y531552D01*
X187064Y531640D01*
X187401Y531720D01*
X187741Y531792D01*
X188082Y531856D01*
X188425Y531911D01*
X188769Y531958D01*
X189114Y531996D01*
X189460Y532026D01*
X189806Y532047D01*
X190153Y532060D01*
X190500Y532064D01*
X190847Y532060D01*
X191194Y532047D01*
X191540Y532026D01*
X191886Y531996D01*
X192231Y531958D01*
X192575Y531911D01*
X192918Y531856D01*
X193259Y531792D01*
X193599Y531720D01*
X193936Y531640D01*
X194272Y531552D01*
X194605Y531455D01*
X194936Y531350D01*
X195264Y531237D01*
X195590Y531116D01*
X195912Y530988D01*
X196231Y530851D01*
X196546Y530706D01*
X196858Y530554D01*
X197166Y530394D01*
X197471Y530227D01*
X197770Y530052D01*
X198066Y529870D01*
X198357Y529681D01*
X198643Y529484D01*
X198924Y529281D01*
X199201Y529071D01*
X199472Y528854D01*
X199737Y528630D01*
X199997Y528401D01*
X200251Y528164D01*
X200500Y527922D01*
X200742Y527673D01*
X200979Y527419D01*
X201208Y527159D01*
X201432Y526894D01*
X201649Y526623D01*
X201859Y526346D01*
X202062Y526065D01*
X202259Y525779D01*
X202448Y525488D01*
X202630Y525192D01*
X202805Y524893D01*
X202972Y524588D01*
X203132Y524280D01*
X203284Y523968D01*
X203429Y523653D01*
X203566Y523334D01*
X203694Y523012D01*
X203815Y522686D01*
X203928Y522358D01*
X204033Y522027D01*
X204130Y521694D01*
X204218Y521358D01*
X204298Y521021D01*
X204370Y520681D01*
X204434Y520340D01*
X204489Y519997D01*
X204536Y519653D01*
X204574Y519308D01*
X204604Y518962D01*
X204625Y518616D01*
X204638Y518269D01*
X204642Y517922D01*
X204638Y517575D01*
X204625Y517228D01*
X204604Y516882D01*
X204574Y516536D01*
X204536Y516191D01*
X204489Y515847D01*
X204434Y515504D01*
X204370Y515163D01*
X204298Y514823D01*
X204218Y514486D01*
X204130Y514150D01*
X204033Y513817D01*
X203928Y513486D01*
X203815Y513158D01*
X203694Y512832D01*
X203566Y512510D01*
X203429Y512191D01*
X203284Y511876D01*
X203132Y511564D01*
X202972Y511256D01*
X202805Y510951D01*
X202630Y510652D01*
X202448Y510356D01*
X202259Y510065D01*
X202062Y509779D01*
X201859Y509498D01*
X201649Y509221D01*
X201432Y508950D01*
X201208Y508685D01*
X200979Y508425D01*
X200742Y508171D01*
X200500Y507922D01*
X200251Y507680D01*
X199997Y507443D01*
X199737Y507214D01*
X199472Y506990D01*
X199201Y506773D01*
X198924Y506563D01*
X198643Y506360D01*
X198357Y506163D01*
X198066Y505974D01*
X197770Y505792D01*
X197471Y505617D01*
X197166Y505450D01*
X196858Y505290D01*
X196546Y505138D01*
X196231Y504993D01*
X195912Y504856D01*
X195590Y504728D01*
X195264Y504607D01*
X194936Y504494D01*
X194605Y504389D01*
X194272Y504292D01*
X193936Y504204D01*
X193599Y504124D01*
X193259Y504052D01*
X192918Y503988D01*
X192575Y503933D01*
X192231Y503886D01*
X191886Y503848D01*
X191540Y503818D01*
X191194Y503797D01*
X190847Y503784D01*
X190500Y503780D01*
X190153Y503784D01*
X189806Y503797D01*
X189460Y503818D01*
X189114Y503848D01*
X188769Y503886D01*
X188425Y503933D01*
X188082Y503988D01*
X187741Y504052D01*
X187401Y504124D01*
X187064Y504204D01*
X186728Y504292D01*
X186395Y504389D01*
X186064Y504494D01*
X185736Y504607D01*
X185410Y504728D01*
X185088Y504856D01*
X184769Y504993D01*
X184454Y505138D01*
X184142Y505290D01*
X183834Y505450D01*
X183529Y505617D01*
X183230Y505792D01*
X182934Y505974D01*
X182643Y506163D01*
X182357Y506360D01*
X182076Y506563D01*
X181799Y506773D01*
X181528Y506990D01*
X181263Y507214D01*
X181003Y507443D01*
X180749Y507680D01*
X180500Y507922D01*
X180258Y508171D01*
X180021Y508425D01*
X179792Y508685D01*
X179568Y508950D01*
X179351Y509221D01*
X179141Y509498D01*
X178938Y509779D01*
X178741Y510065D01*
X178552Y510356D01*
X178370Y510652D01*
X178195Y510951D01*
X178028Y511256D01*
X177868Y511564D01*
X177716Y511876D01*
X177571Y512191D01*
X177434Y512510D01*
X177306Y512832D01*
X177185Y513158D01*
X177072Y513486D01*
X176967Y513817D01*
X176870Y514150D01*
X176782Y514486D01*
X176702Y514823D01*
X176630Y515163D01*
X176566Y515504D01*
X176511Y515847D01*
X176464Y516191D01*
X176426Y516536D01*
X176396Y516882D01*
X176375Y517228D01*
X176362Y517575D01*
X176358Y517922D01*
D13*
X157000Y536022D02*
X157002Y536078D01*
X157008Y536135D01*
X157018Y536190D01*
X157032Y536245D01*
X157049Y536299D01*
X157071Y536351D01*
X157096Y536401D01*
X157124Y536450D01*
X157156Y536497D01*
X157191Y536541D01*
X157229Y536583D01*
X157270Y536622D01*
X157314Y536657D01*
X157360Y536690D01*
X157408Y536719D01*
X157458Y536745D01*
X157510Y536768D01*
X157564Y536786D01*
X157618Y536801D01*
X157673Y536812D01*
X157729Y536819D01*
X157786Y536822D01*
X157842Y536821D01*
X157899Y536816D01*
X157954Y536807D01*
X158009Y536794D01*
X158063Y536777D01*
X158116Y536757D01*
X158167Y536733D01*
X158216Y536705D01*
X158263Y536674D01*
X158308Y536640D01*
X158351Y536602D01*
X158390Y536562D01*
X158427Y536519D01*
X158460Y536474D01*
X158490Y536426D01*
X158517Y536376D01*
X158540Y536325D01*
X158560Y536272D01*
X158576Y536218D01*
X158588Y536162D01*
X158596Y536107D01*
X158600Y536050D01*
X158600Y535994D01*
X158596Y535937D01*
X158588Y535882D01*
X158576Y535826D01*
X158560Y535772D01*
X158540Y535719D01*
X158517Y535668D01*
X158490Y535618D01*
X158460Y535570D01*
X158427Y535525D01*
X158390Y535482D01*
X158351Y535442D01*
X158308Y535404D01*
X158263Y535370D01*
X158216Y535339D01*
X158167Y535311D01*
X158116Y535287D01*
X158063Y535267D01*
X158009Y535250D01*
X157954Y535237D01*
X157899Y535228D01*
X157842Y535223D01*
X157786Y535222D01*
X157729Y535225D01*
X157673Y535232D01*
X157618Y535243D01*
X157564Y535258D01*
X157510Y535276D01*
X157458Y535299D01*
X157408Y535325D01*
X157360Y535354D01*
X157314Y535387D01*
X157270Y535422D01*
X157229Y535461D01*
X157191Y535503D01*
X157156Y535547D01*
X157124Y535594D01*
X157096Y535643D01*
X157071Y535693D01*
X157049Y535745D01*
X157032Y535799D01*
X157018Y535854D01*
X157008Y535909D01*
X157002Y535966D01*
X157000Y536022D01*
D11*
X173228Y530876D02*
X177800Y535448D01*
X363500Y500422D02*
X398500Y500422D01*
X398500Y535422D01*
X363500Y535422D01*
X363500Y500422D01*
X366858Y517922D02*
X366862Y518269D01*
X366875Y518616D01*
X366896Y518962D01*
X366926Y519308D01*
X366964Y519653D01*
X367011Y519997D01*
X367066Y520340D01*
X367130Y520681D01*
X367202Y521021D01*
X367282Y521358D01*
X367370Y521694D01*
X367467Y522027D01*
X367572Y522358D01*
X367685Y522686D01*
X367806Y523012D01*
X367934Y523334D01*
X368071Y523653D01*
X368216Y523968D01*
X368368Y524280D01*
X368528Y524588D01*
X368695Y524893D01*
X368870Y525192D01*
X369052Y525488D01*
X369241Y525779D01*
X369438Y526065D01*
X369641Y526346D01*
X369851Y526623D01*
X370068Y526894D01*
X370292Y527159D01*
X370521Y527419D01*
X370758Y527673D01*
X371000Y527922D01*
X371249Y528164D01*
X371503Y528401D01*
X371763Y528630D01*
X372028Y528854D01*
X372299Y529071D01*
X372576Y529281D01*
X372857Y529484D01*
X373143Y529681D01*
X373434Y529870D01*
X373730Y530052D01*
X374029Y530227D01*
X374334Y530394D01*
X374642Y530554D01*
X374954Y530706D01*
X375269Y530851D01*
X375588Y530988D01*
X375910Y531116D01*
X376236Y531237D01*
X376564Y531350D01*
X376895Y531455D01*
X377228Y531552D01*
X377564Y531640D01*
X377901Y531720D01*
X378241Y531792D01*
X378582Y531856D01*
X378925Y531911D01*
X379269Y531958D01*
X379614Y531996D01*
X379960Y532026D01*
X380306Y532047D01*
X380653Y532060D01*
X381000Y532064D01*
X381347Y532060D01*
X381694Y532047D01*
X382040Y532026D01*
X382386Y531996D01*
X382731Y531958D01*
X383075Y531911D01*
X383418Y531856D01*
X383759Y531792D01*
X384099Y531720D01*
X384436Y531640D01*
X384772Y531552D01*
X385105Y531455D01*
X385436Y531350D01*
X385764Y531237D01*
X386090Y531116D01*
X386412Y530988D01*
X386731Y530851D01*
X387046Y530706D01*
X387358Y530554D01*
X387666Y530394D01*
X387971Y530227D01*
X388270Y530052D01*
X388566Y529870D01*
X388857Y529681D01*
X389143Y529484D01*
X389424Y529281D01*
X389701Y529071D01*
X389972Y528854D01*
X390237Y528630D01*
X390497Y528401D01*
X390751Y528164D01*
X391000Y527922D01*
X391242Y527673D01*
X391479Y527419D01*
X391708Y527159D01*
X391932Y526894D01*
X392149Y526623D01*
X392359Y526346D01*
X392562Y526065D01*
X392759Y525779D01*
X392948Y525488D01*
X393130Y525192D01*
X393305Y524893D01*
X393472Y524588D01*
X393632Y524280D01*
X393784Y523968D01*
X393929Y523653D01*
X394066Y523334D01*
X394194Y523012D01*
X394315Y522686D01*
X394428Y522358D01*
X394533Y522027D01*
X394630Y521694D01*
X394718Y521358D01*
X394798Y521021D01*
X394870Y520681D01*
X394934Y520340D01*
X394989Y519997D01*
X395036Y519653D01*
X395074Y519308D01*
X395104Y518962D01*
X395125Y518616D01*
X395138Y518269D01*
X395142Y517922D01*
X395138Y517575D01*
X395125Y517228D01*
X395104Y516882D01*
X395074Y516536D01*
X395036Y516191D01*
X394989Y515847D01*
X394934Y515504D01*
X394870Y515163D01*
X394798Y514823D01*
X394718Y514486D01*
X394630Y514150D01*
X394533Y513817D01*
X394428Y513486D01*
X394315Y513158D01*
X394194Y512832D01*
X394066Y512510D01*
X393929Y512191D01*
X393784Y511876D01*
X393632Y511564D01*
X393472Y511256D01*
X393305Y510951D01*
X393130Y510652D01*
X392948Y510356D01*
X392759Y510065D01*
X392562Y509779D01*
X392359Y509498D01*
X392149Y509221D01*
X391932Y508950D01*
X391708Y508685D01*
X391479Y508425D01*
X391242Y508171D01*
X391000Y507922D01*
X390751Y507680D01*
X390497Y507443D01*
X390237Y507214D01*
X389972Y506990D01*
X389701Y506773D01*
X389424Y506563D01*
X389143Y506360D01*
X388857Y506163D01*
X388566Y505974D01*
X388270Y505792D01*
X387971Y505617D01*
X387666Y505450D01*
X387358Y505290D01*
X387046Y505138D01*
X386731Y504993D01*
X386412Y504856D01*
X386090Y504728D01*
X385764Y504607D01*
X385436Y504494D01*
X385105Y504389D01*
X384772Y504292D01*
X384436Y504204D01*
X384099Y504124D01*
X383759Y504052D01*
X383418Y503988D01*
X383075Y503933D01*
X382731Y503886D01*
X382386Y503848D01*
X382040Y503818D01*
X381694Y503797D01*
X381347Y503784D01*
X381000Y503780D01*
X380653Y503784D01*
X380306Y503797D01*
X379960Y503818D01*
X379614Y503848D01*
X379269Y503886D01*
X378925Y503933D01*
X378582Y503988D01*
X378241Y504052D01*
X377901Y504124D01*
X377564Y504204D01*
X377228Y504292D01*
X376895Y504389D01*
X376564Y504494D01*
X376236Y504607D01*
X375910Y504728D01*
X375588Y504856D01*
X375269Y504993D01*
X374954Y505138D01*
X374642Y505290D01*
X374334Y505450D01*
X374029Y505617D01*
X373730Y505792D01*
X373434Y505974D01*
X373143Y506163D01*
X372857Y506360D01*
X372576Y506563D01*
X372299Y506773D01*
X372028Y506990D01*
X371763Y507214D01*
X371503Y507443D01*
X371249Y507680D01*
X371000Y507922D01*
X370758Y508171D01*
X370521Y508425D01*
X370292Y508685D01*
X370068Y508950D01*
X369851Y509221D01*
X369641Y509498D01*
X369438Y509779D01*
X369241Y510065D01*
X369052Y510356D01*
X368870Y510652D01*
X368695Y510951D01*
X368528Y511256D01*
X368368Y511564D01*
X368216Y511876D01*
X368071Y512191D01*
X367934Y512510D01*
X367806Y512832D01*
X367685Y513158D01*
X367572Y513486D01*
X367467Y513817D01*
X367370Y514150D01*
X367282Y514486D01*
X367202Y514823D01*
X367130Y515163D01*
X367066Y515504D01*
X367011Y515847D01*
X366964Y516191D01*
X366926Y516536D01*
X366896Y516882D01*
X366875Y517228D01*
X366862Y517575D01*
X366858Y517922D01*
D13*
X347500Y536022D02*
X347502Y536078D01*
X347508Y536135D01*
X347518Y536190D01*
X347532Y536245D01*
X347549Y536299D01*
X347571Y536351D01*
X347596Y536401D01*
X347624Y536450D01*
X347656Y536497D01*
X347691Y536541D01*
X347729Y536583D01*
X347770Y536622D01*
X347814Y536657D01*
X347860Y536690D01*
X347908Y536719D01*
X347958Y536745D01*
X348010Y536768D01*
X348064Y536786D01*
X348118Y536801D01*
X348173Y536812D01*
X348229Y536819D01*
X348286Y536822D01*
X348342Y536821D01*
X348399Y536816D01*
X348454Y536807D01*
X348509Y536794D01*
X348563Y536777D01*
X348616Y536757D01*
X348667Y536733D01*
X348716Y536705D01*
X348763Y536674D01*
X348808Y536640D01*
X348851Y536602D01*
X348890Y536562D01*
X348927Y536519D01*
X348960Y536474D01*
X348990Y536426D01*
X349017Y536376D01*
X349040Y536325D01*
X349060Y536272D01*
X349076Y536218D01*
X349088Y536162D01*
X349096Y536107D01*
X349100Y536050D01*
X349100Y535994D01*
X349096Y535937D01*
X349088Y535882D01*
X349076Y535826D01*
X349060Y535772D01*
X349040Y535719D01*
X349017Y535668D01*
X348990Y535618D01*
X348960Y535570D01*
X348927Y535525D01*
X348890Y535482D01*
X348851Y535442D01*
X348808Y535404D01*
X348763Y535370D01*
X348716Y535339D01*
X348667Y535311D01*
X348616Y535287D01*
X348563Y535267D01*
X348509Y535250D01*
X348454Y535237D01*
X348399Y535228D01*
X348342Y535223D01*
X348286Y535222D01*
X348229Y535225D01*
X348173Y535232D01*
X348118Y535243D01*
X348064Y535258D01*
X348010Y535276D01*
X347958Y535299D01*
X347908Y535325D01*
X347860Y535354D01*
X347814Y535387D01*
X347770Y535422D01*
X347729Y535461D01*
X347691Y535503D01*
X347656Y535547D01*
X347624Y535594D01*
X347596Y535643D01*
X347571Y535693D01*
X347549Y535745D01*
X347532Y535799D01*
X347518Y535854D01*
X347508Y535909D01*
X347502Y535966D01*
X347500Y536022D01*
D11*
X363728Y530876D02*
X368300Y535448D01*
X554000Y500422D02*
X589000Y500422D01*
X589000Y535422D01*
X554000Y535422D01*
X554000Y500422D01*
X557358Y517922D02*
X557362Y518269D01*
X557375Y518616D01*
X557396Y518962D01*
X557426Y519308D01*
X557464Y519653D01*
X557511Y519997D01*
X557566Y520340D01*
X557630Y520681D01*
X557702Y521021D01*
X557782Y521358D01*
X557870Y521694D01*
X557967Y522027D01*
X558072Y522358D01*
X558185Y522686D01*
X558306Y523012D01*
X558434Y523334D01*
X558571Y523653D01*
X558716Y523968D01*
X558868Y524280D01*
X559028Y524588D01*
X559195Y524893D01*
X559370Y525192D01*
X559552Y525488D01*
X559741Y525779D01*
X559938Y526065D01*
X560141Y526346D01*
X560351Y526623D01*
X560568Y526894D01*
X560792Y527159D01*
X561021Y527419D01*
X561258Y527673D01*
X561500Y527922D01*
X561749Y528164D01*
X562003Y528401D01*
X562263Y528630D01*
X562528Y528854D01*
X562799Y529071D01*
X563076Y529281D01*
X563357Y529484D01*
X563643Y529681D01*
X563934Y529870D01*
X564230Y530052D01*
X564529Y530227D01*
X564834Y530394D01*
X565142Y530554D01*
X565454Y530706D01*
X565769Y530851D01*
X566088Y530988D01*
X566410Y531116D01*
X566736Y531237D01*
X567064Y531350D01*
X567395Y531455D01*
X567728Y531552D01*
X568064Y531640D01*
X568401Y531720D01*
X568741Y531792D01*
X569082Y531856D01*
X569425Y531911D01*
X569769Y531958D01*
X570114Y531996D01*
X570460Y532026D01*
X570806Y532047D01*
X571153Y532060D01*
X571500Y532064D01*
X571847Y532060D01*
X572194Y532047D01*
X572540Y532026D01*
X572886Y531996D01*
X573231Y531958D01*
X573575Y531911D01*
X573918Y531856D01*
X574259Y531792D01*
X574599Y531720D01*
X574936Y531640D01*
X575272Y531552D01*
X575605Y531455D01*
X575936Y531350D01*
X576264Y531237D01*
X576590Y531116D01*
X576912Y530988D01*
X577231Y530851D01*
X577546Y530706D01*
X577858Y530554D01*
X578166Y530394D01*
X578471Y530227D01*
X578770Y530052D01*
X579066Y529870D01*
X579357Y529681D01*
X579643Y529484D01*
X579924Y529281D01*
X580201Y529071D01*
X580472Y528854D01*
X580737Y528630D01*
X580997Y528401D01*
X581251Y528164D01*
X581500Y527922D01*
X581742Y527673D01*
X581979Y527419D01*
X582208Y527159D01*
X582432Y526894D01*
X582649Y526623D01*
X582859Y526346D01*
X583062Y526065D01*
X583259Y525779D01*
X583448Y525488D01*
X583630Y525192D01*
X583805Y524893D01*
X583972Y524588D01*
X584132Y524280D01*
X584284Y523968D01*
X584429Y523653D01*
X584566Y523334D01*
X584694Y523012D01*
X584815Y522686D01*
X584928Y522358D01*
X585033Y522027D01*
X585130Y521694D01*
X585218Y521358D01*
X585298Y521021D01*
X585370Y520681D01*
X585434Y520340D01*
X585489Y519997D01*
X585536Y519653D01*
X585574Y519308D01*
X585604Y518962D01*
X585625Y518616D01*
X585638Y518269D01*
X585642Y517922D01*
X585638Y517575D01*
X585625Y517228D01*
X585604Y516882D01*
X585574Y516536D01*
X585536Y516191D01*
X585489Y515847D01*
X585434Y515504D01*
X585370Y515163D01*
X585298Y514823D01*
X585218Y514486D01*
X585130Y514150D01*
X585033Y513817D01*
X584928Y513486D01*
X584815Y513158D01*
X584694Y512832D01*
X584566Y512510D01*
X584429Y512191D01*
X584284Y511876D01*
X584132Y511564D01*
X583972Y511256D01*
X583805Y510951D01*
X583630Y510652D01*
X583448Y510356D01*
X583259Y510065D01*
X583062Y509779D01*
X582859Y509498D01*
X582649Y509221D01*
X582432Y508950D01*
X582208Y508685D01*
X581979Y508425D01*
X581742Y508171D01*
X581500Y507922D01*
X581251Y507680D01*
X580997Y507443D01*
X580737Y507214D01*
X580472Y506990D01*
X580201Y506773D01*
X579924Y506563D01*
X579643Y506360D01*
X579357Y506163D01*
X579066Y505974D01*
X578770Y505792D01*
X578471Y505617D01*
X578166Y505450D01*
X577858Y505290D01*
X577546Y505138D01*
X577231Y504993D01*
X576912Y504856D01*
X576590Y504728D01*
X576264Y504607D01*
X575936Y504494D01*
X575605Y504389D01*
X575272Y504292D01*
X574936Y504204D01*
X574599Y504124D01*
X574259Y504052D01*
X573918Y503988D01*
X573575Y503933D01*
X573231Y503886D01*
X572886Y503848D01*
X572540Y503818D01*
X572194Y503797D01*
X571847Y503784D01*
X571500Y503780D01*
X571153Y503784D01*
X570806Y503797D01*
X570460Y503818D01*
X570114Y503848D01*
X569769Y503886D01*
X569425Y503933D01*
X569082Y503988D01*
X568741Y504052D01*
X568401Y504124D01*
X568064Y504204D01*
X567728Y504292D01*
X567395Y504389D01*
X567064Y504494D01*
X566736Y504607D01*
X566410Y504728D01*
X566088Y504856D01*
X565769Y504993D01*
X565454Y505138D01*
X565142Y505290D01*
X564834Y505450D01*
X564529Y505617D01*
X564230Y505792D01*
X563934Y505974D01*
X563643Y506163D01*
X563357Y506360D01*
X563076Y506563D01*
X562799Y506773D01*
X562528Y506990D01*
X562263Y507214D01*
X562003Y507443D01*
X561749Y507680D01*
X561500Y507922D01*
X561258Y508171D01*
X561021Y508425D01*
X560792Y508685D01*
X560568Y508950D01*
X560351Y509221D01*
X560141Y509498D01*
X559938Y509779D01*
X559741Y510065D01*
X559552Y510356D01*
X559370Y510652D01*
X559195Y510951D01*
X559028Y511256D01*
X558868Y511564D01*
X558716Y511876D01*
X558571Y512191D01*
X558434Y512510D01*
X558306Y512832D01*
X558185Y513158D01*
X558072Y513486D01*
X557967Y513817D01*
X557870Y514150D01*
X557782Y514486D01*
X557702Y514823D01*
X557630Y515163D01*
X557566Y515504D01*
X557511Y515847D01*
X557464Y516191D01*
X557426Y516536D01*
X557396Y516882D01*
X557375Y517228D01*
X557362Y517575D01*
X557358Y517922D01*
D13*
X538000Y536022D02*
X538002Y536078D01*
X538008Y536135D01*
X538018Y536190D01*
X538032Y536245D01*
X538049Y536299D01*
X538071Y536351D01*
X538096Y536401D01*
X538124Y536450D01*
X538156Y536497D01*
X538191Y536541D01*
X538229Y536583D01*
X538270Y536622D01*
X538314Y536657D01*
X538360Y536690D01*
X538408Y536719D01*
X538458Y536745D01*
X538510Y536768D01*
X538564Y536786D01*
X538618Y536801D01*
X538673Y536812D01*
X538729Y536819D01*
X538786Y536822D01*
X538842Y536821D01*
X538899Y536816D01*
X538954Y536807D01*
X539009Y536794D01*
X539063Y536777D01*
X539116Y536757D01*
X539167Y536733D01*
X539216Y536705D01*
X539263Y536674D01*
X539308Y536640D01*
X539351Y536602D01*
X539390Y536562D01*
X539427Y536519D01*
X539460Y536474D01*
X539490Y536426D01*
X539517Y536376D01*
X539540Y536325D01*
X539560Y536272D01*
X539576Y536218D01*
X539588Y536162D01*
X539596Y536107D01*
X539600Y536050D01*
X539600Y535994D01*
X539596Y535937D01*
X539588Y535882D01*
X539576Y535826D01*
X539560Y535772D01*
X539540Y535719D01*
X539517Y535668D01*
X539490Y535618D01*
X539460Y535570D01*
X539427Y535525D01*
X539390Y535482D01*
X539351Y535442D01*
X539308Y535404D01*
X539263Y535370D01*
X539216Y535339D01*
X539167Y535311D01*
X539116Y535287D01*
X539063Y535267D01*
X539009Y535250D01*
X538954Y535237D01*
X538899Y535228D01*
X538842Y535223D01*
X538786Y535222D01*
X538729Y535225D01*
X538673Y535232D01*
X538618Y535243D01*
X538564Y535258D01*
X538510Y535276D01*
X538458Y535299D01*
X538408Y535325D01*
X538360Y535354D01*
X538314Y535387D01*
X538270Y535422D01*
X538229Y535461D01*
X538191Y535503D01*
X538156Y535547D01*
X538124Y535594D01*
X538096Y535643D01*
X538071Y535693D01*
X538049Y535745D01*
X538032Y535799D01*
X538018Y535854D01*
X538008Y535909D01*
X538002Y535966D01*
X538000Y536022D01*
D11*
X554228Y530876D02*
X558800Y535448D01*
X744500Y500422D02*
X779500Y500422D01*
X779500Y535422D01*
X744500Y535422D01*
X744500Y500422D01*
X747858Y517922D02*
X747862Y518269D01*
X747875Y518616D01*
X747896Y518962D01*
X747926Y519308D01*
X747964Y519653D01*
X748011Y519997D01*
X748066Y520340D01*
X748130Y520681D01*
X748202Y521021D01*
X748282Y521358D01*
X748370Y521694D01*
X748467Y522027D01*
X748572Y522358D01*
X748685Y522686D01*
X748806Y523012D01*
X748934Y523334D01*
X749071Y523653D01*
X749216Y523968D01*
X749368Y524280D01*
X749528Y524588D01*
X749695Y524893D01*
X749870Y525192D01*
X750052Y525488D01*
X750241Y525779D01*
X750438Y526065D01*
X750641Y526346D01*
X750851Y526623D01*
X751068Y526894D01*
X751292Y527159D01*
X751521Y527419D01*
X751758Y527673D01*
X752000Y527922D01*
X752249Y528164D01*
X752503Y528401D01*
X752763Y528630D01*
X753028Y528854D01*
X753299Y529071D01*
X753576Y529281D01*
X753857Y529484D01*
X754143Y529681D01*
X754434Y529870D01*
X754730Y530052D01*
X755029Y530227D01*
X755334Y530394D01*
X755642Y530554D01*
X755954Y530706D01*
X756269Y530851D01*
X756588Y530988D01*
X756910Y531116D01*
X757236Y531237D01*
X757564Y531350D01*
X757895Y531455D01*
X758228Y531552D01*
X758564Y531640D01*
X758901Y531720D01*
X759241Y531792D01*
X759582Y531856D01*
X759925Y531911D01*
X760269Y531958D01*
X760614Y531996D01*
X760960Y532026D01*
X761306Y532047D01*
X761653Y532060D01*
X762000Y532064D01*
X762347Y532060D01*
X762694Y532047D01*
X763040Y532026D01*
X763386Y531996D01*
X763731Y531958D01*
X764075Y531911D01*
X764418Y531856D01*
X764759Y531792D01*
X765099Y531720D01*
X765436Y531640D01*
X765772Y531552D01*
X766105Y531455D01*
X766436Y531350D01*
X766764Y531237D01*
X767090Y531116D01*
X767412Y530988D01*
X767731Y530851D01*
X768046Y530706D01*
X768358Y530554D01*
X768666Y530394D01*
X768971Y530227D01*
X769270Y530052D01*
X769566Y529870D01*
X769857Y529681D01*
X770143Y529484D01*
X770424Y529281D01*
X770701Y529071D01*
X770972Y528854D01*
X771237Y528630D01*
X771497Y528401D01*
X771751Y528164D01*
X772000Y527922D01*
X772242Y527673D01*
X772479Y527419D01*
X772708Y527159D01*
X772932Y526894D01*
X773149Y526623D01*
X773359Y526346D01*
X773562Y526065D01*
X773759Y525779D01*
X773948Y525488D01*
X774130Y525192D01*
X774305Y524893D01*
X774472Y524588D01*
X774632Y524280D01*
X774784Y523968D01*
X774929Y523653D01*
X775066Y523334D01*
X775194Y523012D01*
X775315Y522686D01*
X775428Y522358D01*
X775533Y522027D01*
X775630Y521694D01*
X775718Y521358D01*
X775798Y521021D01*
X775870Y520681D01*
X775934Y520340D01*
X775989Y519997D01*
X776036Y519653D01*
X776074Y519308D01*
X776104Y518962D01*
X776125Y518616D01*
X776138Y518269D01*
X776142Y517922D01*
X776138Y517575D01*
X776125Y517228D01*
X776104Y516882D01*
X776074Y516536D01*
X776036Y516191D01*
X775989Y515847D01*
X775934Y515504D01*
X775870Y515163D01*
X775798Y514823D01*
X775718Y514486D01*
X775630Y514150D01*
X775533Y513817D01*
X775428Y513486D01*
X775315Y513158D01*
X775194Y512832D01*
X775066Y512510D01*
X774929Y512191D01*
X774784Y511876D01*
X774632Y511564D01*
X774472Y511256D01*
X774305Y510951D01*
X774130Y510652D01*
X773948Y510356D01*
X773759Y510065D01*
X773562Y509779D01*
X773359Y509498D01*
X773149Y509221D01*
X772932Y508950D01*
X772708Y508685D01*
X772479Y508425D01*
X772242Y508171D01*
X772000Y507922D01*
X771751Y507680D01*
X771497Y507443D01*
X771237Y507214D01*
X770972Y506990D01*
X770701Y506773D01*
X770424Y506563D01*
X770143Y506360D01*
X769857Y506163D01*
X769566Y505974D01*
X769270Y505792D01*
X768971Y505617D01*
X768666Y505450D01*
X768358Y505290D01*
X768046Y505138D01*
X767731Y504993D01*
X767412Y504856D01*
X767090Y504728D01*
X766764Y504607D01*
X766436Y504494D01*
X766105Y504389D01*
X765772Y504292D01*
X765436Y504204D01*
X765099Y504124D01*
X764759Y504052D01*
X764418Y503988D01*
X764075Y503933D01*
X763731Y503886D01*
X763386Y503848D01*
X763040Y503818D01*
X762694Y503797D01*
X762347Y503784D01*
X762000Y503780D01*
X761653Y503784D01*
X761306Y503797D01*
X760960Y503818D01*
X760614Y503848D01*
X760269Y503886D01*
X759925Y503933D01*
X759582Y503988D01*
X759241Y504052D01*
X758901Y504124D01*
X758564Y504204D01*
X758228Y504292D01*
X757895Y504389D01*
X757564Y504494D01*
X757236Y504607D01*
X756910Y504728D01*
X756588Y504856D01*
X756269Y504993D01*
X755954Y505138D01*
X755642Y505290D01*
X755334Y505450D01*
X755029Y505617D01*
X754730Y505792D01*
X754434Y505974D01*
X754143Y506163D01*
X753857Y506360D01*
X753576Y506563D01*
X753299Y506773D01*
X753028Y506990D01*
X752763Y507214D01*
X752503Y507443D01*
X752249Y507680D01*
X752000Y507922D01*
X751758Y508171D01*
X751521Y508425D01*
X751292Y508685D01*
X751068Y508950D01*
X750851Y509221D01*
X750641Y509498D01*
X750438Y509779D01*
X750241Y510065D01*
X750052Y510356D01*
X749870Y510652D01*
X749695Y510951D01*
X749528Y511256D01*
X749368Y511564D01*
X749216Y511876D01*
X749071Y512191D01*
X748934Y512510D01*
X748806Y512832D01*
X748685Y513158D01*
X748572Y513486D01*
X748467Y513817D01*
X748370Y514150D01*
X748282Y514486D01*
X748202Y514823D01*
X748130Y515163D01*
X748066Y515504D01*
X748011Y515847D01*
X747964Y516191D01*
X747926Y516536D01*
X747896Y516882D01*
X747875Y517228D01*
X747862Y517575D01*
X747858Y517922D01*
D13*
X728500Y536022D02*
X728502Y536078D01*
X728508Y536135D01*
X728518Y536190D01*
X728532Y536245D01*
X728549Y536299D01*
X728571Y536351D01*
X728596Y536401D01*
X728624Y536450D01*
X728656Y536497D01*
X728691Y536541D01*
X728729Y536583D01*
X728770Y536622D01*
X728814Y536657D01*
X728860Y536690D01*
X728908Y536719D01*
X728958Y536745D01*
X729010Y536768D01*
X729064Y536786D01*
X729118Y536801D01*
X729173Y536812D01*
X729229Y536819D01*
X729286Y536822D01*
X729342Y536821D01*
X729399Y536816D01*
X729454Y536807D01*
X729509Y536794D01*
X729563Y536777D01*
X729616Y536757D01*
X729667Y536733D01*
X729716Y536705D01*
X729763Y536674D01*
X729808Y536640D01*
X729851Y536602D01*
X729890Y536562D01*
X729927Y536519D01*
X729960Y536474D01*
X729990Y536426D01*
X730017Y536376D01*
X730040Y536325D01*
X730060Y536272D01*
X730076Y536218D01*
X730088Y536162D01*
X730096Y536107D01*
X730100Y536050D01*
X730100Y535994D01*
X730096Y535937D01*
X730088Y535882D01*
X730076Y535826D01*
X730060Y535772D01*
X730040Y535719D01*
X730017Y535668D01*
X729990Y535618D01*
X729960Y535570D01*
X729927Y535525D01*
X729890Y535482D01*
X729851Y535442D01*
X729808Y535404D01*
X729763Y535370D01*
X729716Y535339D01*
X729667Y535311D01*
X729616Y535287D01*
X729563Y535267D01*
X729509Y535250D01*
X729454Y535237D01*
X729399Y535228D01*
X729342Y535223D01*
X729286Y535222D01*
X729229Y535225D01*
X729173Y535232D01*
X729118Y535243D01*
X729064Y535258D01*
X729010Y535276D01*
X728958Y535299D01*
X728908Y535325D01*
X728860Y535354D01*
X728814Y535387D01*
X728770Y535422D01*
X728729Y535461D01*
X728691Y535503D01*
X728656Y535547D01*
X728624Y535594D01*
X728596Y535643D01*
X728571Y535693D01*
X728549Y535745D01*
X728532Y535799D01*
X728518Y535854D01*
X728508Y535909D01*
X728502Y535966D01*
X728500Y536022D01*
D11*
X744728Y530876D02*
X749300Y535448D01*
X744500Y344922D02*
X779500Y344922D01*
X744500Y344922D02*
X744500Y309922D01*
X779500Y309922D01*
X779500Y344922D01*
X747858Y327422D02*
X747862Y327769D01*
X747875Y328116D01*
X747896Y328462D01*
X747926Y328808D01*
X747964Y329153D01*
X748011Y329497D01*
X748066Y329840D01*
X748130Y330181D01*
X748202Y330521D01*
X748282Y330858D01*
X748370Y331194D01*
X748467Y331527D01*
X748572Y331858D01*
X748685Y332186D01*
X748806Y332512D01*
X748934Y332834D01*
X749071Y333153D01*
X749216Y333468D01*
X749368Y333780D01*
X749528Y334088D01*
X749695Y334393D01*
X749870Y334692D01*
X750052Y334988D01*
X750241Y335279D01*
X750438Y335565D01*
X750641Y335846D01*
X750851Y336123D01*
X751068Y336394D01*
X751292Y336659D01*
X751521Y336919D01*
X751758Y337173D01*
X752000Y337422D01*
X752249Y337664D01*
X752503Y337901D01*
X752763Y338130D01*
X753028Y338354D01*
X753299Y338571D01*
X753576Y338781D01*
X753857Y338984D01*
X754143Y339181D01*
X754434Y339370D01*
X754730Y339552D01*
X755029Y339727D01*
X755334Y339894D01*
X755642Y340054D01*
X755954Y340206D01*
X756269Y340351D01*
X756588Y340488D01*
X756910Y340616D01*
X757236Y340737D01*
X757564Y340850D01*
X757895Y340955D01*
X758228Y341052D01*
X758564Y341140D01*
X758901Y341220D01*
X759241Y341292D01*
X759582Y341356D01*
X759925Y341411D01*
X760269Y341458D01*
X760614Y341496D01*
X760960Y341526D01*
X761306Y341547D01*
X761653Y341560D01*
X762000Y341564D01*
X762347Y341560D01*
X762694Y341547D01*
X763040Y341526D01*
X763386Y341496D01*
X763731Y341458D01*
X764075Y341411D01*
X764418Y341356D01*
X764759Y341292D01*
X765099Y341220D01*
X765436Y341140D01*
X765772Y341052D01*
X766105Y340955D01*
X766436Y340850D01*
X766764Y340737D01*
X767090Y340616D01*
X767412Y340488D01*
X767731Y340351D01*
X768046Y340206D01*
X768358Y340054D01*
X768666Y339894D01*
X768971Y339727D01*
X769270Y339552D01*
X769566Y339370D01*
X769857Y339181D01*
X770143Y338984D01*
X770424Y338781D01*
X770701Y338571D01*
X770972Y338354D01*
X771237Y338130D01*
X771497Y337901D01*
X771751Y337664D01*
X772000Y337422D01*
X772242Y337173D01*
X772479Y336919D01*
X772708Y336659D01*
X772932Y336394D01*
X773149Y336123D01*
X773359Y335846D01*
X773562Y335565D01*
X773759Y335279D01*
X773948Y334988D01*
X774130Y334692D01*
X774305Y334393D01*
X774472Y334088D01*
X774632Y333780D01*
X774784Y333468D01*
X774929Y333153D01*
X775066Y332834D01*
X775194Y332512D01*
X775315Y332186D01*
X775428Y331858D01*
X775533Y331527D01*
X775630Y331194D01*
X775718Y330858D01*
X775798Y330521D01*
X775870Y330181D01*
X775934Y329840D01*
X775989Y329497D01*
X776036Y329153D01*
X776074Y328808D01*
X776104Y328462D01*
X776125Y328116D01*
X776138Y327769D01*
X776142Y327422D01*
X776138Y327075D01*
X776125Y326728D01*
X776104Y326382D01*
X776074Y326036D01*
X776036Y325691D01*
X775989Y325347D01*
X775934Y325004D01*
X775870Y324663D01*
X775798Y324323D01*
X775718Y323986D01*
X775630Y323650D01*
X775533Y323317D01*
X775428Y322986D01*
X775315Y322658D01*
X775194Y322332D01*
X775066Y322010D01*
X774929Y321691D01*
X774784Y321376D01*
X774632Y321064D01*
X774472Y320756D01*
X774305Y320451D01*
X774130Y320152D01*
X773948Y319856D01*
X773759Y319565D01*
X773562Y319279D01*
X773359Y318998D01*
X773149Y318721D01*
X772932Y318450D01*
X772708Y318185D01*
X772479Y317925D01*
X772242Y317671D01*
X772000Y317422D01*
X771751Y317180D01*
X771497Y316943D01*
X771237Y316714D01*
X770972Y316490D01*
X770701Y316273D01*
X770424Y316063D01*
X770143Y315860D01*
X769857Y315663D01*
X769566Y315474D01*
X769270Y315292D01*
X768971Y315117D01*
X768666Y314950D01*
X768358Y314790D01*
X768046Y314638D01*
X767731Y314493D01*
X767412Y314356D01*
X767090Y314228D01*
X766764Y314107D01*
X766436Y313994D01*
X766105Y313889D01*
X765772Y313792D01*
X765436Y313704D01*
X765099Y313624D01*
X764759Y313552D01*
X764418Y313488D01*
X764075Y313433D01*
X763731Y313386D01*
X763386Y313348D01*
X763040Y313318D01*
X762694Y313297D01*
X762347Y313284D01*
X762000Y313280D01*
X761653Y313284D01*
X761306Y313297D01*
X760960Y313318D01*
X760614Y313348D01*
X760269Y313386D01*
X759925Y313433D01*
X759582Y313488D01*
X759241Y313552D01*
X758901Y313624D01*
X758564Y313704D01*
X758228Y313792D01*
X757895Y313889D01*
X757564Y313994D01*
X757236Y314107D01*
X756910Y314228D01*
X756588Y314356D01*
X756269Y314493D01*
X755954Y314638D01*
X755642Y314790D01*
X755334Y314950D01*
X755029Y315117D01*
X754730Y315292D01*
X754434Y315474D01*
X754143Y315663D01*
X753857Y315860D01*
X753576Y316063D01*
X753299Y316273D01*
X753028Y316490D01*
X752763Y316714D01*
X752503Y316943D01*
X752249Y317180D01*
X752000Y317422D01*
X751758Y317671D01*
X751521Y317925D01*
X751292Y318185D01*
X751068Y318450D01*
X750851Y318721D01*
X750641Y318998D01*
X750438Y319279D01*
X750241Y319565D01*
X750052Y319856D01*
X749870Y320152D01*
X749695Y320451D01*
X749528Y320756D01*
X749368Y321064D01*
X749216Y321376D01*
X749071Y321691D01*
X748934Y322010D01*
X748806Y322332D01*
X748685Y322658D01*
X748572Y322986D01*
X748467Y323317D01*
X748370Y323650D01*
X748282Y323986D01*
X748202Y324323D01*
X748130Y324663D01*
X748066Y325004D01*
X748011Y325347D01*
X747964Y325691D01*
X747926Y326036D01*
X747896Y326382D01*
X747875Y326728D01*
X747862Y327075D01*
X747858Y327422D01*
D13*
X793900Y309322D02*
X793902Y309378D01*
X793908Y309435D01*
X793918Y309490D01*
X793932Y309545D01*
X793949Y309599D01*
X793971Y309651D01*
X793996Y309701D01*
X794024Y309750D01*
X794056Y309797D01*
X794091Y309841D01*
X794129Y309883D01*
X794170Y309922D01*
X794214Y309957D01*
X794260Y309990D01*
X794308Y310019D01*
X794358Y310045D01*
X794410Y310068D01*
X794464Y310086D01*
X794518Y310101D01*
X794573Y310112D01*
X794629Y310119D01*
X794686Y310122D01*
X794742Y310121D01*
X794799Y310116D01*
X794854Y310107D01*
X794909Y310094D01*
X794963Y310077D01*
X795016Y310057D01*
X795067Y310033D01*
X795116Y310005D01*
X795163Y309974D01*
X795208Y309940D01*
X795251Y309902D01*
X795290Y309862D01*
X795327Y309819D01*
X795360Y309774D01*
X795390Y309726D01*
X795417Y309676D01*
X795440Y309625D01*
X795460Y309572D01*
X795476Y309518D01*
X795488Y309462D01*
X795496Y309407D01*
X795500Y309350D01*
X795500Y309294D01*
X795496Y309237D01*
X795488Y309182D01*
X795476Y309126D01*
X795460Y309072D01*
X795440Y309019D01*
X795417Y308968D01*
X795390Y308918D01*
X795360Y308870D01*
X795327Y308825D01*
X795290Y308782D01*
X795251Y308742D01*
X795208Y308704D01*
X795163Y308670D01*
X795116Y308639D01*
X795067Y308611D01*
X795016Y308587D01*
X794963Y308567D01*
X794909Y308550D01*
X794854Y308537D01*
X794799Y308528D01*
X794742Y308523D01*
X794686Y308522D01*
X794629Y308525D01*
X794573Y308532D01*
X794518Y308543D01*
X794464Y308558D01*
X794410Y308576D01*
X794358Y308599D01*
X794308Y308625D01*
X794260Y308654D01*
X794214Y308687D01*
X794170Y308722D01*
X794129Y308761D01*
X794091Y308803D01*
X794056Y308847D01*
X794024Y308894D01*
X793996Y308943D01*
X793971Y308993D01*
X793949Y309045D01*
X793932Y309099D01*
X793918Y309154D01*
X793908Y309209D01*
X793902Y309266D01*
X793900Y309322D01*
D11*
X779272Y314468D02*
X774700Y309896D01*
X589000Y344922D02*
X554000Y344922D01*
X554000Y309922D01*
X589000Y309922D01*
X589000Y344922D01*
X557358Y327422D02*
X557362Y327769D01*
X557375Y328116D01*
X557396Y328462D01*
X557426Y328808D01*
X557464Y329153D01*
X557511Y329497D01*
X557566Y329840D01*
X557630Y330181D01*
X557702Y330521D01*
X557782Y330858D01*
X557870Y331194D01*
X557967Y331527D01*
X558072Y331858D01*
X558185Y332186D01*
X558306Y332512D01*
X558434Y332834D01*
X558571Y333153D01*
X558716Y333468D01*
X558868Y333780D01*
X559028Y334088D01*
X559195Y334393D01*
X559370Y334692D01*
X559552Y334988D01*
X559741Y335279D01*
X559938Y335565D01*
X560141Y335846D01*
X560351Y336123D01*
X560568Y336394D01*
X560792Y336659D01*
X561021Y336919D01*
X561258Y337173D01*
X561500Y337422D01*
X561749Y337664D01*
X562003Y337901D01*
X562263Y338130D01*
X562528Y338354D01*
X562799Y338571D01*
X563076Y338781D01*
X563357Y338984D01*
X563643Y339181D01*
X563934Y339370D01*
X564230Y339552D01*
X564529Y339727D01*
X564834Y339894D01*
X565142Y340054D01*
X565454Y340206D01*
X565769Y340351D01*
X566088Y340488D01*
X566410Y340616D01*
X566736Y340737D01*
X567064Y340850D01*
X567395Y340955D01*
X567728Y341052D01*
X568064Y341140D01*
X568401Y341220D01*
X568741Y341292D01*
X569082Y341356D01*
X569425Y341411D01*
X569769Y341458D01*
X570114Y341496D01*
X570460Y341526D01*
X570806Y341547D01*
X571153Y341560D01*
X571500Y341564D01*
X571847Y341560D01*
X572194Y341547D01*
X572540Y341526D01*
X572886Y341496D01*
X573231Y341458D01*
X573575Y341411D01*
X573918Y341356D01*
X574259Y341292D01*
X574599Y341220D01*
X574936Y341140D01*
X575272Y341052D01*
X575605Y340955D01*
X575936Y340850D01*
X576264Y340737D01*
X576590Y340616D01*
X576912Y340488D01*
X577231Y340351D01*
X577546Y340206D01*
X577858Y340054D01*
X578166Y339894D01*
X578471Y339727D01*
X578770Y339552D01*
X579066Y339370D01*
X579357Y339181D01*
X579643Y338984D01*
X579924Y338781D01*
X580201Y338571D01*
X580472Y338354D01*
X580737Y338130D01*
X580997Y337901D01*
X581251Y337664D01*
X581500Y337422D01*
X581742Y337173D01*
X581979Y336919D01*
X582208Y336659D01*
X582432Y336394D01*
X582649Y336123D01*
X582859Y335846D01*
X583062Y335565D01*
X583259Y335279D01*
X583448Y334988D01*
X583630Y334692D01*
X583805Y334393D01*
X583972Y334088D01*
X584132Y333780D01*
X584284Y333468D01*
X584429Y333153D01*
X584566Y332834D01*
X584694Y332512D01*
X584815Y332186D01*
X584928Y331858D01*
X585033Y331527D01*
X585130Y331194D01*
X585218Y330858D01*
X585298Y330521D01*
X585370Y330181D01*
X585434Y329840D01*
X585489Y329497D01*
X585536Y329153D01*
X585574Y328808D01*
X585604Y328462D01*
X585625Y328116D01*
X585638Y327769D01*
X585642Y327422D01*
X585638Y327075D01*
X585625Y326728D01*
X585604Y326382D01*
X585574Y326036D01*
X585536Y325691D01*
X585489Y325347D01*
X585434Y325004D01*
X585370Y324663D01*
X585298Y324323D01*
X585218Y323986D01*
X585130Y323650D01*
X585033Y323317D01*
X584928Y322986D01*
X584815Y322658D01*
X584694Y322332D01*
X584566Y322010D01*
X584429Y321691D01*
X584284Y321376D01*
X584132Y321064D01*
X583972Y320756D01*
X583805Y320451D01*
X583630Y320152D01*
X583448Y319856D01*
X583259Y319565D01*
X583062Y319279D01*
X582859Y318998D01*
X582649Y318721D01*
X582432Y318450D01*
X582208Y318185D01*
X581979Y317925D01*
X581742Y317671D01*
X581500Y317422D01*
X581251Y317180D01*
X580997Y316943D01*
X580737Y316714D01*
X580472Y316490D01*
X580201Y316273D01*
X579924Y316063D01*
X579643Y315860D01*
X579357Y315663D01*
X579066Y315474D01*
X578770Y315292D01*
X578471Y315117D01*
X578166Y314950D01*
X577858Y314790D01*
X577546Y314638D01*
X577231Y314493D01*
X576912Y314356D01*
X576590Y314228D01*
X576264Y314107D01*
X575936Y313994D01*
X575605Y313889D01*
X575272Y313792D01*
X574936Y313704D01*
X574599Y313624D01*
X574259Y313552D01*
X573918Y313488D01*
X573575Y313433D01*
X573231Y313386D01*
X572886Y313348D01*
X572540Y313318D01*
X572194Y313297D01*
X571847Y313284D01*
X571500Y313280D01*
X571153Y313284D01*
X570806Y313297D01*
X570460Y313318D01*
X570114Y313348D01*
X569769Y313386D01*
X569425Y313433D01*
X569082Y313488D01*
X568741Y313552D01*
X568401Y313624D01*
X568064Y313704D01*
X567728Y313792D01*
X567395Y313889D01*
X567064Y313994D01*
X566736Y314107D01*
X566410Y314228D01*
X566088Y314356D01*
X565769Y314493D01*
X565454Y314638D01*
X565142Y314790D01*
X564834Y314950D01*
X564529Y315117D01*
X564230Y315292D01*
X563934Y315474D01*
X563643Y315663D01*
X563357Y315860D01*
X563076Y316063D01*
X562799Y316273D01*
X562528Y316490D01*
X562263Y316714D01*
X562003Y316943D01*
X561749Y317180D01*
X561500Y317422D01*
X561258Y317671D01*
X561021Y317925D01*
X560792Y318185D01*
X560568Y318450D01*
X560351Y318721D01*
X560141Y318998D01*
X559938Y319279D01*
X559741Y319565D01*
X559552Y319856D01*
X559370Y320152D01*
X559195Y320451D01*
X559028Y320756D01*
X558868Y321064D01*
X558716Y321376D01*
X558571Y321691D01*
X558434Y322010D01*
X558306Y322332D01*
X558185Y322658D01*
X558072Y322986D01*
X557967Y323317D01*
X557870Y323650D01*
X557782Y323986D01*
X557702Y324323D01*
X557630Y324663D01*
X557566Y325004D01*
X557511Y325347D01*
X557464Y325691D01*
X557426Y326036D01*
X557396Y326382D01*
X557375Y326728D01*
X557362Y327075D01*
X557358Y327422D01*
D13*
X603400Y309322D02*
X603402Y309378D01*
X603408Y309435D01*
X603418Y309490D01*
X603432Y309545D01*
X603449Y309599D01*
X603471Y309651D01*
X603496Y309701D01*
X603524Y309750D01*
X603556Y309797D01*
X603591Y309841D01*
X603629Y309883D01*
X603670Y309922D01*
X603714Y309957D01*
X603760Y309990D01*
X603808Y310019D01*
X603858Y310045D01*
X603910Y310068D01*
X603964Y310086D01*
X604018Y310101D01*
X604073Y310112D01*
X604129Y310119D01*
X604186Y310122D01*
X604242Y310121D01*
X604299Y310116D01*
X604354Y310107D01*
X604409Y310094D01*
X604463Y310077D01*
X604516Y310057D01*
X604567Y310033D01*
X604616Y310005D01*
X604663Y309974D01*
X604708Y309940D01*
X604751Y309902D01*
X604790Y309862D01*
X604827Y309819D01*
X604860Y309774D01*
X604890Y309726D01*
X604917Y309676D01*
X604940Y309625D01*
X604960Y309572D01*
X604976Y309518D01*
X604988Y309462D01*
X604996Y309407D01*
X605000Y309350D01*
X605000Y309294D01*
X604996Y309237D01*
X604988Y309182D01*
X604976Y309126D01*
X604960Y309072D01*
X604940Y309019D01*
X604917Y308968D01*
X604890Y308918D01*
X604860Y308870D01*
X604827Y308825D01*
X604790Y308782D01*
X604751Y308742D01*
X604708Y308704D01*
X604663Y308670D01*
X604616Y308639D01*
X604567Y308611D01*
X604516Y308587D01*
X604463Y308567D01*
X604409Y308550D01*
X604354Y308537D01*
X604299Y308528D01*
X604242Y308523D01*
X604186Y308522D01*
X604129Y308525D01*
X604073Y308532D01*
X604018Y308543D01*
X603964Y308558D01*
X603910Y308576D01*
X603858Y308599D01*
X603808Y308625D01*
X603760Y308654D01*
X603714Y308687D01*
X603670Y308722D01*
X603629Y308761D01*
X603591Y308803D01*
X603556Y308847D01*
X603524Y308894D01*
X603496Y308943D01*
X603471Y308993D01*
X603449Y309045D01*
X603432Y309099D01*
X603418Y309154D01*
X603408Y309209D01*
X603402Y309266D01*
X603400Y309322D01*
D11*
X588772Y314468D02*
X584200Y309896D01*
X398500Y344922D02*
X363500Y344922D01*
X363500Y309922D01*
X398500Y309922D01*
X398500Y344922D01*
X366858Y327422D02*
X366862Y327769D01*
X366875Y328116D01*
X366896Y328462D01*
X366926Y328808D01*
X366964Y329153D01*
X367011Y329497D01*
X367066Y329840D01*
X367130Y330181D01*
X367202Y330521D01*
X367282Y330858D01*
X367370Y331194D01*
X367467Y331527D01*
X367572Y331858D01*
X367685Y332186D01*
X367806Y332512D01*
X367934Y332834D01*
X368071Y333153D01*
X368216Y333468D01*
X368368Y333780D01*
X368528Y334088D01*
X368695Y334393D01*
X368870Y334692D01*
X369052Y334988D01*
X369241Y335279D01*
X369438Y335565D01*
X369641Y335846D01*
X369851Y336123D01*
X370068Y336394D01*
X370292Y336659D01*
X370521Y336919D01*
X370758Y337173D01*
X371000Y337422D01*
X371249Y337664D01*
X371503Y337901D01*
X371763Y338130D01*
X372028Y338354D01*
X372299Y338571D01*
X372576Y338781D01*
X372857Y338984D01*
X373143Y339181D01*
X373434Y339370D01*
X373730Y339552D01*
X374029Y339727D01*
X374334Y339894D01*
X374642Y340054D01*
X374954Y340206D01*
X375269Y340351D01*
X375588Y340488D01*
X375910Y340616D01*
X376236Y340737D01*
X376564Y340850D01*
X376895Y340955D01*
X377228Y341052D01*
X377564Y341140D01*
X377901Y341220D01*
X378241Y341292D01*
X378582Y341356D01*
X378925Y341411D01*
X379269Y341458D01*
X379614Y341496D01*
X379960Y341526D01*
X380306Y341547D01*
X380653Y341560D01*
X381000Y341564D01*
X381347Y341560D01*
X381694Y341547D01*
X382040Y341526D01*
X382386Y341496D01*
X382731Y341458D01*
X383075Y341411D01*
X383418Y341356D01*
X383759Y341292D01*
X384099Y341220D01*
X384436Y341140D01*
X384772Y341052D01*
X385105Y340955D01*
X385436Y340850D01*
X385764Y340737D01*
X386090Y340616D01*
X386412Y340488D01*
X386731Y340351D01*
X387046Y340206D01*
X387358Y340054D01*
X387666Y339894D01*
X387971Y339727D01*
X388270Y339552D01*
X388566Y339370D01*
X388857Y339181D01*
X389143Y338984D01*
X389424Y338781D01*
X389701Y338571D01*
X389972Y338354D01*
X390237Y338130D01*
X390497Y337901D01*
X390751Y337664D01*
X391000Y337422D01*
X391242Y337173D01*
X391479Y336919D01*
X391708Y336659D01*
X391932Y336394D01*
X392149Y336123D01*
X392359Y335846D01*
X392562Y335565D01*
X392759Y335279D01*
X392948Y334988D01*
X393130Y334692D01*
X393305Y334393D01*
X393472Y334088D01*
X393632Y333780D01*
X393784Y333468D01*
X393929Y333153D01*
X394066Y332834D01*
X394194Y332512D01*
X394315Y332186D01*
X394428Y331858D01*
X394533Y331527D01*
X394630Y331194D01*
X394718Y330858D01*
X394798Y330521D01*
X394870Y330181D01*
X394934Y329840D01*
X394989Y329497D01*
X395036Y329153D01*
X395074Y328808D01*
X395104Y328462D01*
X395125Y328116D01*
X395138Y327769D01*
X395142Y327422D01*
X395138Y327075D01*
X395125Y326728D01*
X395104Y326382D01*
X395074Y326036D01*
X395036Y325691D01*
X394989Y325347D01*
X394934Y325004D01*
X394870Y324663D01*
X394798Y324323D01*
X394718Y323986D01*
X394630Y323650D01*
X394533Y323317D01*
X394428Y322986D01*
X394315Y322658D01*
X394194Y322332D01*
X394066Y322010D01*
X393929Y321691D01*
X393784Y321376D01*
X393632Y321064D01*
X393472Y320756D01*
X393305Y320451D01*
X393130Y320152D01*
X392948Y319856D01*
X392759Y319565D01*
X392562Y319279D01*
X392359Y318998D01*
X392149Y318721D01*
X391932Y318450D01*
X391708Y318185D01*
X391479Y317925D01*
X391242Y317671D01*
X391000Y317422D01*
X390751Y317180D01*
X390497Y316943D01*
X390237Y316714D01*
X389972Y316490D01*
X389701Y316273D01*
X389424Y316063D01*
X389143Y315860D01*
X388857Y315663D01*
X388566Y315474D01*
X388270Y315292D01*
X387971Y315117D01*
X387666Y314950D01*
X387358Y314790D01*
X387046Y314638D01*
X386731Y314493D01*
X386412Y314356D01*
X386090Y314228D01*
X385764Y314107D01*
X385436Y313994D01*
X385105Y313889D01*
X384772Y313792D01*
X384436Y313704D01*
X384099Y313624D01*
X383759Y313552D01*
X383418Y313488D01*
X383075Y313433D01*
X382731Y313386D01*
X382386Y313348D01*
X382040Y313318D01*
X381694Y313297D01*
X381347Y313284D01*
X381000Y313280D01*
X380653Y313284D01*
X380306Y313297D01*
X379960Y313318D01*
X379614Y313348D01*
X379269Y313386D01*
X378925Y313433D01*
X378582Y313488D01*
X378241Y313552D01*
X377901Y313624D01*
X377564Y313704D01*
X377228Y313792D01*
X376895Y313889D01*
X376564Y313994D01*
X376236Y314107D01*
X375910Y314228D01*
X375588Y314356D01*
X375269Y314493D01*
X374954Y314638D01*
X374642Y314790D01*
X374334Y314950D01*
X374029Y315117D01*
X373730Y315292D01*
X373434Y315474D01*
X373143Y315663D01*
X372857Y315860D01*
X372576Y316063D01*
X372299Y316273D01*
X372028Y316490D01*
X371763Y316714D01*
X371503Y316943D01*
X371249Y317180D01*
X371000Y317422D01*
X370758Y317671D01*
X370521Y317925D01*
X370292Y318185D01*
X370068Y318450D01*
X369851Y318721D01*
X369641Y318998D01*
X369438Y319279D01*
X369241Y319565D01*
X369052Y319856D01*
X368870Y320152D01*
X368695Y320451D01*
X368528Y320756D01*
X368368Y321064D01*
X368216Y321376D01*
X368071Y321691D01*
X367934Y322010D01*
X367806Y322332D01*
X367685Y322658D01*
X367572Y322986D01*
X367467Y323317D01*
X367370Y323650D01*
X367282Y323986D01*
X367202Y324323D01*
X367130Y324663D01*
X367066Y325004D01*
X367011Y325347D01*
X366964Y325691D01*
X366926Y326036D01*
X366896Y326382D01*
X366875Y326728D01*
X366862Y327075D01*
X366858Y327422D01*
D13*
X412900Y309322D02*
X412902Y309378D01*
X412908Y309435D01*
X412918Y309490D01*
X412932Y309545D01*
X412949Y309599D01*
X412971Y309651D01*
X412996Y309701D01*
X413024Y309750D01*
X413056Y309797D01*
X413091Y309841D01*
X413129Y309883D01*
X413170Y309922D01*
X413214Y309957D01*
X413260Y309990D01*
X413308Y310019D01*
X413358Y310045D01*
X413410Y310068D01*
X413464Y310086D01*
X413518Y310101D01*
X413573Y310112D01*
X413629Y310119D01*
X413686Y310122D01*
X413742Y310121D01*
X413799Y310116D01*
X413854Y310107D01*
X413909Y310094D01*
X413963Y310077D01*
X414016Y310057D01*
X414067Y310033D01*
X414116Y310005D01*
X414163Y309974D01*
X414208Y309940D01*
X414251Y309902D01*
X414290Y309862D01*
X414327Y309819D01*
X414360Y309774D01*
X414390Y309726D01*
X414417Y309676D01*
X414440Y309625D01*
X414460Y309572D01*
X414476Y309518D01*
X414488Y309462D01*
X414496Y309407D01*
X414500Y309350D01*
X414500Y309294D01*
X414496Y309237D01*
X414488Y309182D01*
X414476Y309126D01*
X414460Y309072D01*
X414440Y309019D01*
X414417Y308968D01*
X414390Y308918D01*
X414360Y308870D01*
X414327Y308825D01*
X414290Y308782D01*
X414251Y308742D01*
X414208Y308704D01*
X414163Y308670D01*
X414116Y308639D01*
X414067Y308611D01*
X414016Y308587D01*
X413963Y308567D01*
X413909Y308550D01*
X413854Y308537D01*
X413799Y308528D01*
X413742Y308523D01*
X413686Y308522D01*
X413629Y308525D01*
X413573Y308532D01*
X413518Y308543D01*
X413464Y308558D01*
X413410Y308576D01*
X413358Y308599D01*
X413308Y308625D01*
X413260Y308654D01*
X413214Y308687D01*
X413170Y308722D01*
X413129Y308761D01*
X413091Y308803D01*
X413056Y308847D01*
X413024Y308894D01*
X412996Y308943D01*
X412971Y308993D01*
X412949Y309045D01*
X412932Y309099D01*
X412918Y309154D01*
X412908Y309209D01*
X412902Y309266D01*
X412900Y309322D01*
D11*
X398272Y314468D02*
X393700Y309896D01*
X208000Y344922D02*
X173000Y344922D01*
X173000Y309922D01*
X208000Y309922D01*
X208000Y344922D01*
X176358Y327422D02*
X176362Y327769D01*
X176375Y328116D01*
X176396Y328462D01*
X176426Y328808D01*
X176464Y329153D01*
X176511Y329497D01*
X176566Y329840D01*
X176630Y330181D01*
X176702Y330521D01*
X176782Y330858D01*
X176870Y331194D01*
X176967Y331527D01*
X177072Y331858D01*
X177185Y332186D01*
X177306Y332512D01*
X177434Y332834D01*
X177571Y333153D01*
X177716Y333468D01*
X177868Y333780D01*
X178028Y334088D01*
X178195Y334393D01*
X178370Y334692D01*
X178552Y334988D01*
X178741Y335279D01*
X178938Y335565D01*
X179141Y335846D01*
X179351Y336123D01*
X179568Y336394D01*
X179792Y336659D01*
X180021Y336919D01*
X180258Y337173D01*
X180500Y337422D01*
X180749Y337664D01*
X181003Y337901D01*
X181263Y338130D01*
X181528Y338354D01*
X181799Y338571D01*
X182076Y338781D01*
X182357Y338984D01*
X182643Y339181D01*
X182934Y339370D01*
X183230Y339552D01*
X183529Y339727D01*
X183834Y339894D01*
X184142Y340054D01*
X184454Y340206D01*
X184769Y340351D01*
X185088Y340488D01*
X185410Y340616D01*
X185736Y340737D01*
X186064Y340850D01*
X186395Y340955D01*
X186728Y341052D01*
X187064Y341140D01*
X187401Y341220D01*
X187741Y341292D01*
X188082Y341356D01*
X188425Y341411D01*
X188769Y341458D01*
X189114Y341496D01*
X189460Y341526D01*
X189806Y341547D01*
X190153Y341560D01*
X190500Y341564D01*
X190847Y341560D01*
X191194Y341547D01*
X191540Y341526D01*
X191886Y341496D01*
X192231Y341458D01*
X192575Y341411D01*
X192918Y341356D01*
X193259Y341292D01*
X193599Y341220D01*
X193936Y341140D01*
X194272Y341052D01*
X194605Y340955D01*
X194936Y340850D01*
X195264Y340737D01*
X195590Y340616D01*
X195912Y340488D01*
X196231Y340351D01*
X196546Y340206D01*
X196858Y340054D01*
X197166Y339894D01*
X197471Y339727D01*
X197770Y339552D01*
X198066Y339370D01*
X198357Y339181D01*
X198643Y338984D01*
X198924Y338781D01*
X199201Y338571D01*
X199472Y338354D01*
X199737Y338130D01*
X199997Y337901D01*
X200251Y337664D01*
X200500Y337422D01*
X200742Y337173D01*
X200979Y336919D01*
X201208Y336659D01*
X201432Y336394D01*
X201649Y336123D01*
X201859Y335846D01*
X202062Y335565D01*
X202259Y335279D01*
X202448Y334988D01*
X202630Y334692D01*
X202805Y334393D01*
X202972Y334088D01*
X203132Y333780D01*
X203284Y333468D01*
X203429Y333153D01*
X203566Y332834D01*
X203694Y332512D01*
X203815Y332186D01*
X203928Y331858D01*
X204033Y331527D01*
X204130Y331194D01*
X204218Y330858D01*
X204298Y330521D01*
X204370Y330181D01*
X204434Y329840D01*
X204489Y329497D01*
X204536Y329153D01*
X204574Y328808D01*
X204604Y328462D01*
X204625Y328116D01*
X204638Y327769D01*
X204642Y327422D01*
X204638Y327075D01*
X204625Y326728D01*
X204604Y326382D01*
X204574Y326036D01*
X204536Y325691D01*
X204489Y325347D01*
X204434Y325004D01*
X204370Y324663D01*
X204298Y324323D01*
X204218Y323986D01*
X204130Y323650D01*
X204033Y323317D01*
X203928Y322986D01*
X203815Y322658D01*
X203694Y322332D01*
X203566Y322010D01*
X203429Y321691D01*
X203284Y321376D01*
X203132Y321064D01*
X202972Y320756D01*
X202805Y320451D01*
X202630Y320152D01*
X202448Y319856D01*
X202259Y319565D01*
X202062Y319279D01*
X201859Y318998D01*
X201649Y318721D01*
X201432Y318450D01*
X201208Y318185D01*
X200979Y317925D01*
X200742Y317671D01*
X200500Y317422D01*
X200251Y317180D01*
X199997Y316943D01*
X199737Y316714D01*
X199472Y316490D01*
X199201Y316273D01*
X198924Y316063D01*
X198643Y315860D01*
X198357Y315663D01*
X198066Y315474D01*
X197770Y315292D01*
X197471Y315117D01*
X197166Y314950D01*
X196858Y314790D01*
X196546Y314638D01*
X196231Y314493D01*
X195912Y314356D01*
X195590Y314228D01*
X195264Y314107D01*
X194936Y313994D01*
X194605Y313889D01*
X194272Y313792D01*
X193936Y313704D01*
X193599Y313624D01*
X193259Y313552D01*
X192918Y313488D01*
X192575Y313433D01*
X192231Y313386D01*
X191886Y313348D01*
X191540Y313318D01*
X191194Y313297D01*
X190847Y313284D01*
X190500Y313280D01*
X190153Y313284D01*
X189806Y313297D01*
X189460Y313318D01*
X189114Y313348D01*
X188769Y313386D01*
X188425Y313433D01*
X188082Y313488D01*
X187741Y313552D01*
X187401Y313624D01*
X187064Y313704D01*
X186728Y313792D01*
X186395Y313889D01*
X186064Y313994D01*
X185736Y314107D01*
X185410Y314228D01*
X185088Y314356D01*
X184769Y314493D01*
X184454Y314638D01*
X184142Y314790D01*
X183834Y314950D01*
X183529Y315117D01*
X183230Y315292D01*
X182934Y315474D01*
X182643Y315663D01*
X182357Y315860D01*
X182076Y316063D01*
X181799Y316273D01*
X181528Y316490D01*
X181263Y316714D01*
X181003Y316943D01*
X180749Y317180D01*
X180500Y317422D01*
X180258Y317671D01*
X180021Y317925D01*
X179792Y318185D01*
X179568Y318450D01*
X179351Y318721D01*
X179141Y318998D01*
X178938Y319279D01*
X178741Y319565D01*
X178552Y319856D01*
X178370Y320152D01*
X178195Y320451D01*
X178028Y320756D01*
X177868Y321064D01*
X177716Y321376D01*
X177571Y321691D01*
X177434Y322010D01*
X177306Y322332D01*
X177185Y322658D01*
X177072Y322986D01*
X176967Y323317D01*
X176870Y323650D01*
X176782Y323986D01*
X176702Y324323D01*
X176630Y324663D01*
X176566Y325004D01*
X176511Y325347D01*
X176464Y325691D01*
X176426Y326036D01*
X176396Y326382D01*
X176375Y326728D01*
X176362Y327075D01*
X176358Y327422D01*
D13*
X222400Y309322D02*
X222402Y309378D01*
X222408Y309435D01*
X222418Y309490D01*
X222432Y309545D01*
X222449Y309599D01*
X222471Y309651D01*
X222496Y309701D01*
X222524Y309750D01*
X222556Y309797D01*
X222591Y309841D01*
X222629Y309883D01*
X222670Y309922D01*
X222714Y309957D01*
X222760Y309990D01*
X222808Y310019D01*
X222858Y310045D01*
X222910Y310068D01*
X222964Y310086D01*
X223018Y310101D01*
X223073Y310112D01*
X223129Y310119D01*
X223186Y310122D01*
X223242Y310121D01*
X223299Y310116D01*
X223354Y310107D01*
X223409Y310094D01*
X223463Y310077D01*
X223516Y310057D01*
X223567Y310033D01*
X223616Y310005D01*
X223663Y309974D01*
X223708Y309940D01*
X223751Y309902D01*
X223790Y309862D01*
X223827Y309819D01*
X223860Y309774D01*
X223890Y309726D01*
X223917Y309676D01*
X223940Y309625D01*
X223960Y309572D01*
X223976Y309518D01*
X223988Y309462D01*
X223996Y309407D01*
X224000Y309350D01*
X224000Y309294D01*
X223996Y309237D01*
X223988Y309182D01*
X223976Y309126D01*
X223960Y309072D01*
X223940Y309019D01*
X223917Y308968D01*
X223890Y308918D01*
X223860Y308870D01*
X223827Y308825D01*
X223790Y308782D01*
X223751Y308742D01*
X223708Y308704D01*
X223663Y308670D01*
X223616Y308639D01*
X223567Y308611D01*
X223516Y308587D01*
X223463Y308567D01*
X223409Y308550D01*
X223354Y308537D01*
X223299Y308528D01*
X223242Y308523D01*
X223186Y308522D01*
X223129Y308525D01*
X223073Y308532D01*
X223018Y308543D01*
X222964Y308558D01*
X222910Y308576D01*
X222858Y308599D01*
X222808Y308625D01*
X222760Y308654D01*
X222714Y308687D01*
X222670Y308722D01*
X222629Y308761D01*
X222591Y308803D01*
X222556Y308847D01*
X222524Y308894D01*
X222496Y308943D01*
X222471Y308993D01*
X222449Y309045D01*
X222432Y309099D01*
X222418Y309154D01*
X222408Y309209D01*
X222402Y309266D01*
X222400Y309322D01*
D11*
X207772Y314468D02*
X203200Y309896D01*
X208000Y119422D02*
X173000Y119422D01*
X208000Y119422D02*
X208000Y154422D01*
X173000Y154422D01*
X173000Y119422D01*
X176358Y136922D02*
X176362Y137269D01*
X176375Y137616D01*
X176396Y137962D01*
X176426Y138308D01*
X176464Y138653D01*
X176511Y138997D01*
X176566Y139340D01*
X176630Y139681D01*
X176702Y140021D01*
X176782Y140358D01*
X176870Y140694D01*
X176967Y141027D01*
X177072Y141358D01*
X177185Y141686D01*
X177306Y142012D01*
X177434Y142334D01*
X177571Y142653D01*
X177716Y142968D01*
X177868Y143280D01*
X178028Y143588D01*
X178195Y143893D01*
X178370Y144192D01*
X178552Y144488D01*
X178741Y144779D01*
X178938Y145065D01*
X179141Y145346D01*
X179351Y145623D01*
X179568Y145894D01*
X179792Y146159D01*
X180021Y146419D01*
X180258Y146673D01*
X180500Y146922D01*
X180749Y147164D01*
X181003Y147401D01*
X181263Y147630D01*
X181528Y147854D01*
X181799Y148071D01*
X182076Y148281D01*
X182357Y148484D01*
X182643Y148681D01*
X182934Y148870D01*
X183230Y149052D01*
X183529Y149227D01*
X183834Y149394D01*
X184142Y149554D01*
X184454Y149706D01*
X184769Y149851D01*
X185088Y149988D01*
X185410Y150116D01*
X185736Y150237D01*
X186064Y150350D01*
X186395Y150455D01*
X186728Y150552D01*
X187064Y150640D01*
X187401Y150720D01*
X187741Y150792D01*
X188082Y150856D01*
X188425Y150911D01*
X188769Y150958D01*
X189114Y150996D01*
X189460Y151026D01*
X189806Y151047D01*
X190153Y151060D01*
X190500Y151064D01*
X190847Y151060D01*
X191194Y151047D01*
X191540Y151026D01*
X191886Y150996D01*
X192231Y150958D01*
X192575Y150911D01*
X192918Y150856D01*
X193259Y150792D01*
X193599Y150720D01*
X193936Y150640D01*
X194272Y150552D01*
X194605Y150455D01*
X194936Y150350D01*
X195264Y150237D01*
X195590Y150116D01*
X195912Y149988D01*
X196231Y149851D01*
X196546Y149706D01*
X196858Y149554D01*
X197166Y149394D01*
X197471Y149227D01*
X197770Y149052D01*
X198066Y148870D01*
X198357Y148681D01*
X198643Y148484D01*
X198924Y148281D01*
X199201Y148071D01*
X199472Y147854D01*
X199737Y147630D01*
X199997Y147401D01*
X200251Y147164D01*
X200500Y146922D01*
X200742Y146673D01*
X200979Y146419D01*
X201208Y146159D01*
X201432Y145894D01*
X201649Y145623D01*
X201859Y145346D01*
X202062Y145065D01*
X202259Y144779D01*
X202448Y144488D01*
X202630Y144192D01*
X202805Y143893D01*
X202972Y143588D01*
X203132Y143280D01*
X203284Y142968D01*
X203429Y142653D01*
X203566Y142334D01*
X203694Y142012D01*
X203815Y141686D01*
X203928Y141358D01*
X204033Y141027D01*
X204130Y140694D01*
X204218Y140358D01*
X204298Y140021D01*
X204370Y139681D01*
X204434Y139340D01*
X204489Y138997D01*
X204536Y138653D01*
X204574Y138308D01*
X204604Y137962D01*
X204625Y137616D01*
X204638Y137269D01*
X204642Y136922D01*
X204638Y136575D01*
X204625Y136228D01*
X204604Y135882D01*
X204574Y135536D01*
X204536Y135191D01*
X204489Y134847D01*
X204434Y134504D01*
X204370Y134163D01*
X204298Y133823D01*
X204218Y133486D01*
X204130Y133150D01*
X204033Y132817D01*
X203928Y132486D01*
X203815Y132158D01*
X203694Y131832D01*
X203566Y131510D01*
X203429Y131191D01*
X203284Y130876D01*
X203132Y130564D01*
X202972Y130256D01*
X202805Y129951D01*
X202630Y129652D01*
X202448Y129356D01*
X202259Y129065D01*
X202062Y128779D01*
X201859Y128498D01*
X201649Y128221D01*
X201432Y127950D01*
X201208Y127685D01*
X200979Y127425D01*
X200742Y127171D01*
X200500Y126922D01*
X200251Y126680D01*
X199997Y126443D01*
X199737Y126214D01*
X199472Y125990D01*
X199201Y125773D01*
X198924Y125563D01*
X198643Y125360D01*
X198357Y125163D01*
X198066Y124974D01*
X197770Y124792D01*
X197471Y124617D01*
X197166Y124450D01*
X196858Y124290D01*
X196546Y124138D01*
X196231Y123993D01*
X195912Y123856D01*
X195590Y123728D01*
X195264Y123607D01*
X194936Y123494D01*
X194605Y123389D01*
X194272Y123292D01*
X193936Y123204D01*
X193599Y123124D01*
X193259Y123052D01*
X192918Y122988D01*
X192575Y122933D01*
X192231Y122886D01*
X191886Y122848D01*
X191540Y122818D01*
X191194Y122797D01*
X190847Y122784D01*
X190500Y122780D01*
X190153Y122784D01*
X189806Y122797D01*
X189460Y122818D01*
X189114Y122848D01*
X188769Y122886D01*
X188425Y122933D01*
X188082Y122988D01*
X187741Y123052D01*
X187401Y123124D01*
X187064Y123204D01*
X186728Y123292D01*
X186395Y123389D01*
X186064Y123494D01*
X185736Y123607D01*
X185410Y123728D01*
X185088Y123856D01*
X184769Y123993D01*
X184454Y124138D01*
X184142Y124290D01*
X183834Y124450D01*
X183529Y124617D01*
X183230Y124792D01*
X182934Y124974D01*
X182643Y125163D01*
X182357Y125360D01*
X182076Y125563D01*
X181799Y125773D01*
X181528Y125990D01*
X181263Y126214D01*
X181003Y126443D01*
X180749Y126680D01*
X180500Y126922D01*
X180258Y127171D01*
X180021Y127425D01*
X179792Y127685D01*
X179568Y127950D01*
X179351Y128221D01*
X179141Y128498D01*
X178938Y128779D01*
X178741Y129065D01*
X178552Y129356D01*
X178370Y129652D01*
X178195Y129951D01*
X178028Y130256D01*
X177868Y130564D01*
X177716Y130876D01*
X177571Y131191D01*
X177434Y131510D01*
X177306Y131832D01*
X177185Y132158D01*
X177072Y132486D01*
X176967Y132817D01*
X176870Y133150D01*
X176782Y133486D01*
X176702Y133823D01*
X176630Y134163D01*
X176566Y134504D01*
X176511Y134847D01*
X176464Y135191D01*
X176426Y135536D01*
X176396Y135882D01*
X176375Y136228D01*
X176362Y136575D01*
X176358Y136922D01*
D13*
X157000Y155022D02*
X157002Y155078D01*
X157008Y155135D01*
X157018Y155190D01*
X157032Y155245D01*
X157049Y155299D01*
X157071Y155351D01*
X157096Y155401D01*
X157124Y155450D01*
X157156Y155497D01*
X157191Y155541D01*
X157229Y155583D01*
X157270Y155622D01*
X157314Y155657D01*
X157360Y155690D01*
X157408Y155719D01*
X157458Y155745D01*
X157510Y155768D01*
X157564Y155786D01*
X157618Y155801D01*
X157673Y155812D01*
X157729Y155819D01*
X157786Y155822D01*
X157842Y155821D01*
X157899Y155816D01*
X157954Y155807D01*
X158009Y155794D01*
X158063Y155777D01*
X158116Y155757D01*
X158167Y155733D01*
X158216Y155705D01*
X158263Y155674D01*
X158308Y155640D01*
X158351Y155602D01*
X158390Y155562D01*
X158427Y155519D01*
X158460Y155474D01*
X158490Y155426D01*
X158517Y155376D01*
X158540Y155325D01*
X158560Y155272D01*
X158576Y155218D01*
X158588Y155162D01*
X158596Y155107D01*
X158600Y155050D01*
X158600Y154994D01*
X158596Y154937D01*
X158588Y154882D01*
X158576Y154826D01*
X158560Y154772D01*
X158540Y154719D01*
X158517Y154668D01*
X158490Y154618D01*
X158460Y154570D01*
X158427Y154525D01*
X158390Y154482D01*
X158351Y154442D01*
X158308Y154404D01*
X158263Y154370D01*
X158216Y154339D01*
X158167Y154311D01*
X158116Y154287D01*
X158063Y154267D01*
X158009Y154250D01*
X157954Y154237D01*
X157899Y154228D01*
X157842Y154223D01*
X157786Y154222D01*
X157729Y154225D01*
X157673Y154232D01*
X157618Y154243D01*
X157564Y154258D01*
X157510Y154276D01*
X157458Y154299D01*
X157408Y154325D01*
X157360Y154354D01*
X157314Y154387D01*
X157270Y154422D01*
X157229Y154461D01*
X157191Y154503D01*
X157156Y154547D01*
X157124Y154594D01*
X157096Y154643D01*
X157071Y154693D01*
X157049Y154745D01*
X157032Y154799D01*
X157018Y154854D01*
X157008Y154909D01*
X157002Y154966D01*
X157000Y155022D01*
D11*
X173228Y149876D02*
X177800Y154448D01*
X363500Y119422D02*
X398500Y119422D01*
X398500Y154422D01*
X363500Y154422D01*
X363500Y119422D01*
X366858Y136922D02*
X366862Y137269D01*
X366875Y137616D01*
X366896Y137962D01*
X366926Y138308D01*
X366964Y138653D01*
X367011Y138997D01*
X367066Y139340D01*
X367130Y139681D01*
X367202Y140021D01*
X367282Y140358D01*
X367370Y140694D01*
X367467Y141027D01*
X367572Y141358D01*
X367685Y141686D01*
X367806Y142012D01*
X367934Y142334D01*
X368071Y142653D01*
X368216Y142968D01*
X368368Y143280D01*
X368528Y143588D01*
X368695Y143893D01*
X368870Y144192D01*
X369052Y144488D01*
X369241Y144779D01*
X369438Y145065D01*
X369641Y145346D01*
X369851Y145623D01*
X370068Y145894D01*
X370292Y146159D01*
X370521Y146419D01*
X370758Y146673D01*
X371000Y146922D01*
X371249Y147164D01*
X371503Y147401D01*
X371763Y147630D01*
X372028Y147854D01*
X372299Y148071D01*
X372576Y148281D01*
X372857Y148484D01*
X373143Y148681D01*
X373434Y148870D01*
X373730Y149052D01*
X374029Y149227D01*
X374334Y149394D01*
X374642Y149554D01*
X374954Y149706D01*
X375269Y149851D01*
X375588Y149988D01*
X375910Y150116D01*
X376236Y150237D01*
X376564Y150350D01*
X376895Y150455D01*
X377228Y150552D01*
X377564Y150640D01*
X377901Y150720D01*
X378241Y150792D01*
X378582Y150856D01*
X378925Y150911D01*
X379269Y150958D01*
X379614Y150996D01*
X379960Y151026D01*
X380306Y151047D01*
X380653Y151060D01*
X381000Y151064D01*
X381347Y151060D01*
X381694Y151047D01*
X382040Y151026D01*
X382386Y150996D01*
X382731Y150958D01*
X383075Y150911D01*
X383418Y150856D01*
X383759Y150792D01*
X384099Y150720D01*
X384436Y150640D01*
X384772Y150552D01*
X385105Y150455D01*
X385436Y150350D01*
X385764Y150237D01*
X386090Y150116D01*
X386412Y149988D01*
X386731Y149851D01*
X387046Y149706D01*
X387358Y149554D01*
X387666Y149394D01*
X387971Y149227D01*
X388270Y149052D01*
X388566Y148870D01*
X388857Y148681D01*
X389143Y148484D01*
X389424Y148281D01*
X389701Y148071D01*
X389972Y147854D01*
X390237Y147630D01*
X390497Y147401D01*
X390751Y147164D01*
X391000Y146922D01*
X391242Y146673D01*
X391479Y146419D01*
X391708Y146159D01*
X391932Y145894D01*
X392149Y145623D01*
X392359Y145346D01*
X392562Y145065D01*
X392759Y144779D01*
X392948Y144488D01*
X393130Y144192D01*
X393305Y143893D01*
X393472Y143588D01*
X393632Y143280D01*
X393784Y142968D01*
X393929Y142653D01*
X394066Y142334D01*
X394194Y142012D01*
X394315Y141686D01*
X394428Y141358D01*
X394533Y141027D01*
X394630Y140694D01*
X394718Y140358D01*
X394798Y140021D01*
X394870Y139681D01*
X394934Y139340D01*
X394989Y138997D01*
X395036Y138653D01*
X395074Y138308D01*
X395104Y137962D01*
X395125Y137616D01*
X395138Y137269D01*
X395142Y136922D01*
X395138Y136575D01*
X395125Y136228D01*
X395104Y135882D01*
X395074Y135536D01*
X395036Y135191D01*
X394989Y134847D01*
X394934Y134504D01*
X394870Y134163D01*
X394798Y133823D01*
X394718Y133486D01*
X394630Y133150D01*
X394533Y132817D01*
X394428Y132486D01*
X394315Y132158D01*
X394194Y131832D01*
X394066Y131510D01*
X393929Y131191D01*
X393784Y130876D01*
X393632Y130564D01*
X393472Y130256D01*
X393305Y129951D01*
X393130Y129652D01*
X392948Y129356D01*
X392759Y129065D01*
X392562Y128779D01*
X392359Y128498D01*
X392149Y128221D01*
X391932Y127950D01*
X391708Y127685D01*
X391479Y127425D01*
X391242Y127171D01*
X391000Y126922D01*
X390751Y126680D01*
X390497Y126443D01*
X390237Y126214D01*
X389972Y125990D01*
X389701Y125773D01*
X389424Y125563D01*
X389143Y125360D01*
X388857Y125163D01*
X388566Y124974D01*
X388270Y124792D01*
X387971Y124617D01*
X387666Y124450D01*
X387358Y124290D01*
X387046Y124138D01*
X386731Y123993D01*
X386412Y123856D01*
X386090Y123728D01*
X385764Y123607D01*
X385436Y123494D01*
X385105Y123389D01*
X384772Y123292D01*
X384436Y123204D01*
X384099Y123124D01*
X383759Y123052D01*
X383418Y122988D01*
X383075Y122933D01*
X382731Y122886D01*
X382386Y122848D01*
X382040Y122818D01*
X381694Y122797D01*
X381347Y122784D01*
X381000Y122780D01*
X380653Y122784D01*
X380306Y122797D01*
X379960Y122818D01*
X379614Y122848D01*
X379269Y122886D01*
X378925Y122933D01*
X378582Y122988D01*
X378241Y123052D01*
X377901Y123124D01*
X377564Y123204D01*
X377228Y123292D01*
X376895Y123389D01*
X376564Y123494D01*
X376236Y123607D01*
X375910Y123728D01*
X375588Y123856D01*
X375269Y123993D01*
X374954Y124138D01*
X374642Y124290D01*
X374334Y124450D01*
X374029Y124617D01*
X373730Y124792D01*
X373434Y124974D01*
X373143Y125163D01*
X372857Y125360D01*
X372576Y125563D01*
X372299Y125773D01*
X372028Y125990D01*
X371763Y126214D01*
X371503Y126443D01*
X371249Y126680D01*
X371000Y126922D01*
X370758Y127171D01*
X370521Y127425D01*
X370292Y127685D01*
X370068Y127950D01*
X369851Y128221D01*
X369641Y128498D01*
X369438Y128779D01*
X369241Y129065D01*
X369052Y129356D01*
X368870Y129652D01*
X368695Y129951D01*
X368528Y130256D01*
X368368Y130564D01*
X368216Y130876D01*
X368071Y131191D01*
X367934Y131510D01*
X367806Y131832D01*
X367685Y132158D01*
X367572Y132486D01*
X367467Y132817D01*
X367370Y133150D01*
X367282Y133486D01*
X367202Y133823D01*
X367130Y134163D01*
X367066Y134504D01*
X367011Y134847D01*
X366964Y135191D01*
X366926Y135536D01*
X366896Y135882D01*
X366875Y136228D01*
X366862Y136575D01*
X366858Y136922D01*
D13*
X347500Y155022D02*
X347502Y155078D01*
X347508Y155135D01*
X347518Y155190D01*
X347532Y155245D01*
X347549Y155299D01*
X347571Y155351D01*
X347596Y155401D01*
X347624Y155450D01*
X347656Y155497D01*
X347691Y155541D01*
X347729Y155583D01*
X347770Y155622D01*
X347814Y155657D01*
X347860Y155690D01*
X347908Y155719D01*
X347958Y155745D01*
X348010Y155768D01*
X348064Y155786D01*
X348118Y155801D01*
X348173Y155812D01*
X348229Y155819D01*
X348286Y155822D01*
X348342Y155821D01*
X348399Y155816D01*
X348454Y155807D01*
X348509Y155794D01*
X348563Y155777D01*
X348616Y155757D01*
X348667Y155733D01*
X348716Y155705D01*
X348763Y155674D01*
X348808Y155640D01*
X348851Y155602D01*
X348890Y155562D01*
X348927Y155519D01*
X348960Y155474D01*
X348990Y155426D01*
X349017Y155376D01*
X349040Y155325D01*
X349060Y155272D01*
X349076Y155218D01*
X349088Y155162D01*
X349096Y155107D01*
X349100Y155050D01*
X349100Y154994D01*
X349096Y154937D01*
X349088Y154882D01*
X349076Y154826D01*
X349060Y154772D01*
X349040Y154719D01*
X349017Y154668D01*
X348990Y154618D01*
X348960Y154570D01*
X348927Y154525D01*
X348890Y154482D01*
X348851Y154442D01*
X348808Y154404D01*
X348763Y154370D01*
X348716Y154339D01*
X348667Y154311D01*
X348616Y154287D01*
X348563Y154267D01*
X348509Y154250D01*
X348454Y154237D01*
X348399Y154228D01*
X348342Y154223D01*
X348286Y154222D01*
X348229Y154225D01*
X348173Y154232D01*
X348118Y154243D01*
X348064Y154258D01*
X348010Y154276D01*
X347958Y154299D01*
X347908Y154325D01*
X347860Y154354D01*
X347814Y154387D01*
X347770Y154422D01*
X347729Y154461D01*
X347691Y154503D01*
X347656Y154547D01*
X347624Y154594D01*
X347596Y154643D01*
X347571Y154693D01*
X347549Y154745D01*
X347532Y154799D01*
X347518Y154854D01*
X347508Y154909D01*
X347502Y154966D01*
X347500Y155022D01*
D11*
X363728Y149876D02*
X368300Y154448D01*
X554000Y119422D02*
X589000Y119422D01*
X589000Y154422D01*
X554000Y154422D01*
X554000Y119422D01*
X557358Y136922D02*
X557362Y137269D01*
X557375Y137616D01*
X557396Y137962D01*
X557426Y138308D01*
X557464Y138653D01*
X557511Y138997D01*
X557566Y139340D01*
X557630Y139681D01*
X557702Y140021D01*
X557782Y140358D01*
X557870Y140694D01*
X557967Y141027D01*
X558072Y141358D01*
X558185Y141686D01*
X558306Y142012D01*
X558434Y142334D01*
X558571Y142653D01*
X558716Y142968D01*
X558868Y143280D01*
X559028Y143588D01*
X559195Y143893D01*
X559370Y144192D01*
X559552Y144488D01*
X559741Y144779D01*
X559938Y145065D01*
X560141Y145346D01*
X560351Y145623D01*
X560568Y145894D01*
X560792Y146159D01*
X561021Y146419D01*
X561258Y146673D01*
X561500Y146922D01*
X561749Y147164D01*
X562003Y147401D01*
X562263Y147630D01*
X562528Y147854D01*
X562799Y148071D01*
X563076Y148281D01*
X563357Y148484D01*
X563643Y148681D01*
X563934Y148870D01*
X564230Y149052D01*
X564529Y149227D01*
X564834Y149394D01*
X565142Y149554D01*
X565454Y149706D01*
X565769Y149851D01*
X566088Y149988D01*
X566410Y150116D01*
X566736Y150237D01*
X567064Y150350D01*
X567395Y150455D01*
X567728Y150552D01*
X568064Y150640D01*
X568401Y150720D01*
X568741Y150792D01*
X569082Y150856D01*
X569425Y150911D01*
X569769Y150958D01*
X570114Y150996D01*
X570460Y151026D01*
X570806Y151047D01*
X571153Y151060D01*
X571500Y151064D01*
X571847Y151060D01*
X572194Y151047D01*
X572540Y151026D01*
X572886Y150996D01*
X573231Y150958D01*
X573575Y150911D01*
X573918Y150856D01*
X574259Y150792D01*
X574599Y150720D01*
X574936Y150640D01*
X575272Y150552D01*
X575605Y150455D01*
X575936Y150350D01*
X576264Y150237D01*
X576590Y150116D01*
X576912Y149988D01*
X577231Y149851D01*
X577546Y149706D01*
X577858Y149554D01*
X578166Y149394D01*
X578471Y149227D01*
X578770Y149052D01*
X579066Y148870D01*
X579357Y148681D01*
X579643Y148484D01*
X579924Y148281D01*
X580201Y148071D01*
X580472Y147854D01*
X580737Y147630D01*
X580997Y147401D01*
X581251Y147164D01*
X581500Y146922D01*
X581742Y146673D01*
X581979Y146419D01*
X582208Y146159D01*
X582432Y145894D01*
X582649Y145623D01*
X582859Y145346D01*
X583062Y145065D01*
X583259Y144779D01*
X583448Y144488D01*
X583630Y144192D01*
X583805Y143893D01*
X583972Y143588D01*
X584132Y143280D01*
X584284Y142968D01*
X584429Y142653D01*
X584566Y142334D01*
X584694Y142012D01*
X584815Y141686D01*
X584928Y141358D01*
X585033Y141027D01*
X585130Y140694D01*
X585218Y140358D01*
X585298Y140021D01*
X585370Y139681D01*
X585434Y139340D01*
X585489Y138997D01*
X585536Y138653D01*
X585574Y138308D01*
X585604Y137962D01*
X585625Y137616D01*
X585638Y137269D01*
X585642Y136922D01*
X585638Y136575D01*
X585625Y136228D01*
X585604Y135882D01*
X585574Y135536D01*
X585536Y135191D01*
X585489Y134847D01*
X585434Y134504D01*
X585370Y134163D01*
X585298Y133823D01*
X585218Y133486D01*
X585130Y133150D01*
X585033Y132817D01*
X584928Y132486D01*
X584815Y132158D01*
X584694Y131832D01*
X584566Y131510D01*
X584429Y131191D01*
X584284Y130876D01*
X584132Y130564D01*
X583972Y130256D01*
X583805Y129951D01*
X583630Y129652D01*
X583448Y129356D01*
X583259Y129065D01*
X583062Y128779D01*
X582859Y128498D01*
X582649Y128221D01*
X582432Y127950D01*
X582208Y127685D01*
X581979Y127425D01*
X581742Y127171D01*
X581500Y126922D01*
X581251Y126680D01*
X580997Y126443D01*
X580737Y126214D01*
X580472Y125990D01*
X580201Y125773D01*
X579924Y125563D01*
X579643Y125360D01*
X579357Y125163D01*
X579066Y124974D01*
X578770Y124792D01*
X578471Y124617D01*
X578166Y124450D01*
X577858Y124290D01*
X577546Y124138D01*
X577231Y123993D01*
X576912Y123856D01*
X576590Y123728D01*
X576264Y123607D01*
X575936Y123494D01*
X575605Y123389D01*
X575272Y123292D01*
X574936Y123204D01*
X574599Y123124D01*
X574259Y123052D01*
X573918Y122988D01*
X573575Y122933D01*
X573231Y122886D01*
X572886Y122848D01*
X572540Y122818D01*
X572194Y122797D01*
X571847Y122784D01*
X571500Y122780D01*
X571153Y122784D01*
X570806Y122797D01*
X570460Y122818D01*
X570114Y122848D01*
X569769Y122886D01*
X569425Y122933D01*
X569082Y122988D01*
X568741Y123052D01*
X568401Y123124D01*
X568064Y123204D01*
X567728Y123292D01*
X567395Y123389D01*
X567064Y123494D01*
X566736Y123607D01*
X566410Y123728D01*
X566088Y123856D01*
X565769Y123993D01*
X565454Y124138D01*
X565142Y124290D01*
X564834Y124450D01*
X564529Y124617D01*
X564230Y124792D01*
X563934Y124974D01*
X563643Y125163D01*
X563357Y125360D01*
X563076Y125563D01*
X562799Y125773D01*
X562528Y125990D01*
X562263Y126214D01*
X562003Y126443D01*
X561749Y126680D01*
X561500Y126922D01*
X561258Y127171D01*
X561021Y127425D01*
X560792Y127685D01*
X560568Y127950D01*
X560351Y128221D01*
X560141Y128498D01*
X559938Y128779D01*
X559741Y129065D01*
X559552Y129356D01*
X559370Y129652D01*
X559195Y129951D01*
X559028Y130256D01*
X558868Y130564D01*
X558716Y130876D01*
X558571Y131191D01*
X558434Y131510D01*
X558306Y131832D01*
X558185Y132158D01*
X558072Y132486D01*
X557967Y132817D01*
X557870Y133150D01*
X557782Y133486D01*
X557702Y133823D01*
X557630Y134163D01*
X557566Y134504D01*
X557511Y134847D01*
X557464Y135191D01*
X557426Y135536D01*
X557396Y135882D01*
X557375Y136228D01*
X557362Y136575D01*
X557358Y136922D01*
D13*
X538000Y155022D02*
X538002Y155078D01*
X538008Y155135D01*
X538018Y155190D01*
X538032Y155245D01*
X538049Y155299D01*
X538071Y155351D01*
X538096Y155401D01*
X538124Y155450D01*
X538156Y155497D01*
X538191Y155541D01*
X538229Y155583D01*
X538270Y155622D01*
X538314Y155657D01*
X538360Y155690D01*
X538408Y155719D01*
X538458Y155745D01*
X538510Y155768D01*
X538564Y155786D01*
X538618Y155801D01*
X538673Y155812D01*
X538729Y155819D01*
X538786Y155822D01*
X538842Y155821D01*
X538899Y155816D01*
X538954Y155807D01*
X539009Y155794D01*
X539063Y155777D01*
X539116Y155757D01*
X539167Y155733D01*
X539216Y155705D01*
X539263Y155674D01*
X539308Y155640D01*
X539351Y155602D01*
X539390Y155562D01*
X539427Y155519D01*
X539460Y155474D01*
X539490Y155426D01*
X539517Y155376D01*
X539540Y155325D01*
X539560Y155272D01*
X539576Y155218D01*
X539588Y155162D01*
X539596Y155107D01*
X539600Y155050D01*
X539600Y154994D01*
X539596Y154937D01*
X539588Y154882D01*
X539576Y154826D01*
X539560Y154772D01*
X539540Y154719D01*
X539517Y154668D01*
X539490Y154618D01*
X539460Y154570D01*
X539427Y154525D01*
X539390Y154482D01*
X539351Y154442D01*
X539308Y154404D01*
X539263Y154370D01*
X539216Y154339D01*
X539167Y154311D01*
X539116Y154287D01*
X539063Y154267D01*
X539009Y154250D01*
X538954Y154237D01*
X538899Y154228D01*
X538842Y154223D01*
X538786Y154222D01*
X538729Y154225D01*
X538673Y154232D01*
X538618Y154243D01*
X538564Y154258D01*
X538510Y154276D01*
X538458Y154299D01*
X538408Y154325D01*
X538360Y154354D01*
X538314Y154387D01*
X538270Y154422D01*
X538229Y154461D01*
X538191Y154503D01*
X538156Y154547D01*
X538124Y154594D01*
X538096Y154643D01*
X538071Y154693D01*
X538049Y154745D01*
X538032Y154799D01*
X538018Y154854D01*
X538008Y154909D01*
X538002Y154966D01*
X538000Y155022D01*
D11*
X554228Y149876D02*
X558800Y154448D01*
X744500Y119422D02*
X779500Y119422D01*
X779500Y154422D01*
X744500Y154422D01*
X744500Y119422D01*
X747858Y136922D02*
X747862Y137269D01*
X747875Y137616D01*
X747896Y137962D01*
X747926Y138308D01*
X747964Y138653D01*
X748011Y138997D01*
X748066Y139340D01*
X748130Y139681D01*
X748202Y140021D01*
X748282Y140358D01*
X748370Y140694D01*
X748467Y141027D01*
X748572Y141358D01*
X748685Y141686D01*
X748806Y142012D01*
X748934Y142334D01*
X749071Y142653D01*
X749216Y142968D01*
X749368Y143280D01*
X749528Y143588D01*
X749695Y143893D01*
X749870Y144192D01*
X750052Y144488D01*
X750241Y144779D01*
X750438Y145065D01*
X750641Y145346D01*
X750851Y145623D01*
X751068Y145894D01*
X751292Y146159D01*
X751521Y146419D01*
X751758Y146673D01*
X752000Y146922D01*
X752249Y147164D01*
X752503Y147401D01*
X752763Y147630D01*
X753028Y147854D01*
X753299Y148071D01*
X753576Y148281D01*
X753857Y148484D01*
X754143Y148681D01*
X754434Y148870D01*
X754730Y149052D01*
X755029Y149227D01*
X755334Y149394D01*
X755642Y149554D01*
X755954Y149706D01*
X756269Y149851D01*
X756588Y149988D01*
X756910Y150116D01*
X757236Y150237D01*
X757564Y150350D01*
X757895Y150455D01*
X758228Y150552D01*
X758564Y150640D01*
X758901Y150720D01*
X759241Y150792D01*
X759582Y150856D01*
X759925Y150911D01*
X760269Y150958D01*
X760614Y150996D01*
X760960Y151026D01*
X761306Y151047D01*
X761653Y151060D01*
X762000Y151064D01*
X762347Y151060D01*
X762694Y151047D01*
X763040Y151026D01*
X763386Y150996D01*
X763731Y150958D01*
X764075Y150911D01*
X764418Y150856D01*
X764759Y150792D01*
X765099Y150720D01*
X765436Y150640D01*
X765772Y150552D01*
X766105Y150455D01*
X766436Y150350D01*
X766764Y150237D01*
X767090Y150116D01*
X767412Y149988D01*
X767731Y149851D01*
X768046Y149706D01*
X768358Y149554D01*
X768666Y149394D01*
X768971Y149227D01*
X769270Y149052D01*
X769566Y148870D01*
X769857Y148681D01*
X770143Y148484D01*
X770424Y148281D01*
X770701Y148071D01*
X770972Y147854D01*
X771237Y147630D01*
X771497Y147401D01*
X771751Y147164D01*
X772000Y146922D01*
X772242Y146673D01*
X772479Y146419D01*
X772708Y146159D01*
X772932Y145894D01*
X773149Y145623D01*
X773359Y145346D01*
X773562Y145065D01*
X773759Y144779D01*
X773948Y144488D01*
X774130Y144192D01*
X774305Y143893D01*
X774472Y143588D01*
X774632Y143280D01*
X774784Y142968D01*
X774929Y142653D01*
X775066Y142334D01*
X775194Y142012D01*
X775315Y141686D01*
X775428Y141358D01*
X775533Y141027D01*
X775630Y140694D01*
X775718Y140358D01*
X775798Y140021D01*
X775870Y139681D01*
X775934Y139340D01*
X775989Y138997D01*
X776036Y138653D01*
X776074Y138308D01*
X776104Y137962D01*
X776125Y137616D01*
X776138Y137269D01*
X776142Y136922D01*
X776138Y136575D01*
X776125Y136228D01*
X776104Y135882D01*
X776074Y135536D01*
X776036Y135191D01*
X775989Y134847D01*
X775934Y134504D01*
X775870Y134163D01*
X775798Y133823D01*
X775718Y133486D01*
X775630Y133150D01*
X775533Y132817D01*
X775428Y132486D01*
X775315Y132158D01*
X775194Y131832D01*
X775066Y131510D01*
X774929Y131191D01*
X774784Y130876D01*
X774632Y130564D01*
X774472Y130256D01*
X774305Y129951D01*
X774130Y129652D01*
X773948Y129356D01*
X773759Y129065D01*
X773562Y128779D01*
X773359Y128498D01*
X773149Y128221D01*
X772932Y127950D01*
X772708Y127685D01*
X772479Y127425D01*
X772242Y127171D01*
X772000Y126922D01*
X771751Y126680D01*
X771497Y126443D01*
X771237Y126214D01*
X770972Y125990D01*
X770701Y125773D01*
X770424Y125563D01*
X770143Y125360D01*
X769857Y125163D01*
X769566Y124974D01*
X769270Y124792D01*
X768971Y124617D01*
X768666Y124450D01*
X768358Y124290D01*
X768046Y124138D01*
X767731Y123993D01*
X767412Y123856D01*
X767090Y123728D01*
X766764Y123607D01*
X766436Y123494D01*
X766105Y123389D01*
X765772Y123292D01*
X765436Y123204D01*
X765099Y123124D01*
X764759Y123052D01*
X764418Y122988D01*
X764075Y122933D01*
X763731Y122886D01*
X763386Y122848D01*
X763040Y122818D01*
X762694Y122797D01*
X762347Y122784D01*
X762000Y122780D01*
X761653Y122784D01*
X761306Y122797D01*
X760960Y122818D01*
X760614Y122848D01*
X760269Y122886D01*
X759925Y122933D01*
X759582Y122988D01*
X759241Y123052D01*
X758901Y123124D01*
X758564Y123204D01*
X758228Y123292D01*
X757895Y123389D01*
X757564Y123494D01*
X757236Y123607D01*
X756910Y123728D01*
X756588Y123856D01*
X756269Y123993D01*
X755954Y124138D01*
X755642Y124290D01*
X755334Y124450D01*
X755029Y124617D01*
X754730Y124792D01*
X754434Y124974D01*
X754143Y125163D01*
X753857Y125360D01*
X753576Y125563D01*
X753299Y125773D01*
X753028Y125990D01*
X752763Y126214D01*
X752503Y126443D01*
X752249Y126680D01*
X752000Y126922D01*
X751758Y127171D01*
X751521Y127425D01*
X751292Y127685D01*
X751068Y127950D01*
X750851Y128221D01*
X750641Y128498D01*
X750438Y128779D01*
X750241Y129065D01*
X750052Y129356D01*
X749870Y129652D01*
X749695Y129951D01*
X749528Y130256D01*
X749368Y130564D01*
X749216Y130876D01*
X749071Y131191D01*
X748934Y131510D01*
X748806Y131832D01*
X748685Y132158D01*
X748572Y132486D01*
X748467Y132817D01*
X748370Y133150D01*
X748282Y133486D01*
X748202Y133823D01*
X748130Y134163D01*
X748066Y134504D01*
X748011Y134847D01*
X747964Y135191D01*
X747926Y135536D01*
X747896Y135882D01*
X747875Y136228D01*
X747862Y136575D01*
X747858Y136922D01*
D13*
X728500Y155022D02*
X728502Y155078D01*
X728508Y155135D01*
X728518Y155190D01*
X728532Y155245D01*
X728549Y155299D01*
X728571Y155351D01*
X728596Y155401D01*
X728624Y155450D01*
X728656Y155497D01*
X728691Y155541D01*
X728729Y155583D01*
X728770Y155622D01*
X728814Y155657D01*
X728860Y155690D01*
X728908Y155719D01*
X728958Y155745D01*
X729010Y155768D01*
X729064Y155786D01*
X729118Y155801D01*
X729173Y155812D01*
X729229Y155819D01*
X729286Y155822D01*
X729342Y155821D01*
X729399Y155816D01*
X729454Y155807D01*
X729509Y155794D01*
X729563Y155777D01*
X729616Y155757D01*
X729667Y155733D01*
X729716Y155705D01*
X729763Y155674D01*
X729808Y155640D01*
X729851Y155602D01*
X729890Y155562D01*
X729927Y155519D01*
X729960Y155474D01*
X729990Y155426D01*
X730017Y155376D01*
X730040Y155325D01*
X730060Y155272D01*
X730076Y155218D01*
X730088Y155162D01*
X730096Y155107D01*
X730100Y155050D01*
X730100Y154994D01*
X730096Y154937D01*
X730088Y154882D01*
X730076Y154826D01*
X730060Y154772D01*
X730040Y154719D01*
X730017Y154668D01*
X729990Y154618D01*
X729960Y154570D01*
X729927Y154525D01*
X729890Y154482D01*
X729851Y154442D01*
X729808Y154404D01*
X729763Y154370D01*
X729716Y154339D01*
X729667Y154311D01*
X729616Y154287D01*
X729563Y154267D01*
X729509Y154250D01*
X729454Y154237D01*
X729399Y154228D01*
X729342Y154223D01*
X729286Y154222D01*
X729229Y154225D01*
X729173Y154232D01*
X729118Y154243D01*
X729064Y154258D01*
X729010Y154276D01*
X728958Y154299D01*
X728908Y154325D01*
X728860Y154354D01*
X728814Y154387D01*
X728770Y154422D01*
X728729Y154461D01*
X728691Y154503D01*
X728656Y154547D01*
X728624Y154594D01*
X728596Y154643D01*
X728571Y154693D01*
X728549Y154745D01*
X728532Y154799D01*
X728518Y154854D01*
X728508Y154909D01*
X728502Y154966D01*
X728500Y155022D01*
D11*
X744728Y149876D02*
X749300Y154448D01*
D14*
X664047Y912969D02*
X664047Y922969D01*
X664047Y872969D02*
X664047Y862969D01*
X675297Y862969D01*
X693047Y872969D02*
X693047Y912969D01*
X675297Y922969D02*
X664047Y922969D01*
D11*
X210678Y585500D02*
X210678Y557500D01*
X229853Y557500D02*
X229853Y585500D01*
X226616Y575310D02*
X220266Y567690D01*
X225346Y575310D02*
X226616Y575310D01*
X225346Y575310D02*
X224076Y575310D01*
X213916Y575310D01*
X220266Y567690D01*
X225346Y575310D01*
X215186Y574040D01*
X220266Y568960D01*
X224076Y575310D01*
X216456Y574040D01*
X220266Y570230D01*
X222806Y574040D01*
X221536Y574040D01*
X217726Y574040D01*
X218996Y572770D01*
X220266Y571500D01*
X221536Y574040D01*
X218996Y572770D01*
X220266Y572770D01*
D15*
X216770Y542362D02*
X223762Y542362D01*
X223762Y546246D02*
X219489Y542362D01*
X221043Y543915D02*
X216770Y546246D01*
D11*
X401178Y557500D02*
X401178Y585500D01*
X420353Y585500D02*
X420353Y557500D01*
X410766Y567690D02*
X417116Y575310D01*
X415846Y575310D01*
X414576Y575310D01*
X404416Y575310D01*
X410766Y567690D01*
X415846Y575310D01*
X405686Y574040D01*
X410766Y568960D01*
X414576Y575310D01*
X406956Y574040D01*
X410766Y570230D01*
X413306Y574040D01*
X412036Y574040D01*
X408226Y574040D01*
X409496Y572770D01*
X410766Y571500D01*
X412036Y574040D01*
X409496Y572770D01*
X410766Y572770D01*
D15*
X407270Y542362D02*
X414262Y542362D01*
X414262Y546246D02*
X409989Y542362D01*
X411543Y543915D02*
X407270Y546246D01*
D11*
X591678Y557500D02*
X591678Y585500D01*
X610853Y585500D02*
X610853Y557500D01*
X601266Y567690D02*
X607616Y575310D01*
X606346Y575310D01*
X605076Y575310D01*
X594916Y575310D01*
X601266Y567690D01*
X606346Y575310D01*
X596186Y574040D01*
X601266Y568960D01*
X605076Y575310D01*
X597456Y574040D01*
X601266Y570230D01*
X603806Y574040D01*
X602536Y574040D01*
X598726Y574040D01*
X599996Y572770D01*
X601266Y571500D01*
X602536Y574040D01*
X599996Y572770D01*
X601266Y572770D01*
D15*
X597770Y542362D02*
X604762Y542362D01*
X604762Y546246D02*
X600489Y542362D01*
X602043Y543915D02*
X597770Y546246D01*
D11*
X782178Y557500D02*
X782178Y585500D01*
X801353Y585500D02*
X801353Y557500D01*
X791766Y567690D02*
X798116Y575310D01*
X796846Y575310D01*
X795576Y575310D01*
X785416Y575310D01*
X791766Y567690D01*
X796846Y575310D01*
X786686Y574040D01*
X791766Y568960D01*
X795576Y575310D01*
X787956Y574040D01*
X791766Y570230D01*
X794306Y574040D01*
X793036Y574040D01*
X789226Y574040D01*
X790496Y572770D01*
X791766Y571500D01*
X793036Y574040D01*
X790496Y572770D01*
X791766Y572770D01*
D15*
X788270Y542362D02*
X795262Y542362D01*
X795262Y546246D02*
X790989Y542362D01*
X792543Y543915D02*
X788270Y546246D01*
D11*
X198772Y771813D02*
X198772Y799813D01*
X217947Y799813D02*
X217947Y771813D01*
X208359Y782003D02*
X214709Y789623D01*
X213439Y789623D01*
X212169Y789623D01*
X202009Y789623D01*
X208359Y782003D01*
X213439Y789623D01*
X203279Y788353D01*
X208359Y783273D01*
X212169Y789623D01*
X204549Y788353D01*
X208359Y784543D01*
X210899Y788353D01*
X209629Y788353D01*
X205819Y788353D01*
X207089Y787083D01*
X208359Y785813D01*
X209629Y788353D01*
X207089Y787083D01*
X208359Y787083D01*
D15*
X204863Y756674D02*
X211855Y756674D01*
X211855Y760559D02*
X207582Y756674D01*
X209136Y758228D02*
X204863Y760559D01*
D11*
X389272Y771813D02*
X389272Y799813D01*
X408447Y799813D02*
X408447Y771813D01*
X398859Y782003D02*
X405209Y789623D01*
X403939Y789623D01*
X402669Y789623D01*
X392509Y789623D01*
X398859Y782003D01*
X403939Y789623D01*
X393779Y788353D01*
X398859Y783273D01*
X402669Y789623D01*
X395049Y788353D01*
X398859Y784543D01*
X401399Y788353D01*
X400129Y788353D01*
X396319Y788353D01*
X397589Y787083D01*
X398859Y785813D01*
X400129Y788353D01*
X397589Y787083D01*
X398859Y787083D01*
D15*
X395363Y756674D02*
X402355Y756674D01*
X402355Y760559D02*
X398082Y756674D01*
X399636Y758228D02*
X395363Y760559D01*
D11*
X579772Y771813D02*
X579772Y799813D01*
X598947Y799813D02*
X598947Y771813D01*
X589359Y782003D02*
X595709Y789623D01*
X594439Y789623D01*
X593169Y789623D01*
X583009Y789623D01*
X589359Y782003D01*
X594439Y789623D01*
X584279Y788353D01*
X589359Y783273D01*
X593169Y789623D01*
X585549Y788353D01*
X589359Y784543D01*
X591899Y788353D01*
X590629Y788353D01*
X586819Y788353D01*
X588089Y787083D01*
X589359Y785813D01*
X590629Y788353D01*
X588089Y787083D01*
X589359Y787083D01*
D15*
X585863Y756674D02*
X592855Y756674D01*
X592855Y760559D02*
X588582Y756674D01*
X590136Y758228D02*
X585863Y760559D01*
D11*
X770272Y771813D02*
X770272Y799813D01*
X789447Y799813D02*
X789447Y771813D01*
X779859Y782003D02*
X786209Y789623D01*
X784939Y789623D01*
X783669Y789623D01*
X773509Y789623D01*
X779859Y782003D01*
X784939Y789623D01*
X774779Y788353D01*
X779859Y783273D01*
X783669Y789623D01*
X776049Y788353D01*
X779859Y784543D01*
X782399Y788353D01*
X781129Y788353D01*
X777319Y788353D01*
X778589Y787083D01*
X779859Y785813D01*
X781129Y788353D01*
X778589Y787083D01*
X779859Y787083D01*
D15*
X776363Y756674D02*
X783355Y756674D01*
X783355Y760559D02*
X779082Y756674D01*
X780636Y758228D02*
X776363Y760559D01*
D11*
X210678Y395000D02*
X210678Y367000D01*
X229853Y367000D02*
X229853Y395000D01*
X226616Y384810D02*
X220266Y377190D01*
X225346Y384810D02*
X226616Y384810D01*
X225346Y384810D02*
X224076Y384810D01*
X213916Y384810D01*
X220266Y377190D01*
X225346Y384810D01*
X215186Y383540D01*
X220266Y378460D01*
X224076Y384810D01*
X216456Y383540D01*
X220266Y379730D01*
X222806Y383540D01*
X221536Y383540D01*
X217726Y383540D01*
X218996Y382270D01*
X220266Y381000D01*
X221536Y383540D01*
X218996Y382270D01*
X220266Y382270D01*
D15*
X216770Y351862D02*
X223762Y351862D01*
X223762Y355746D02*
X219489Y351862D01*
X221043Y353415D02*
X216770Y355746D01*
D11*
X401178Y367000D02*
X401178Y395000D01*
X420353Y395000D02*
X420353Y367000D01*
X410766Y377190D02*
X417116Y384810D01*
X415846Y384810D01*
X414576Y384810D01*
X404416Y384810D01*
X410766Y377190D01*
X415846Y384810D01*
X405686Y383540D01*
X410766Y378460D01*
X414576Y384810D01*
X406956Y383540D01*
X410766Y379730D01*
X413306Y383540D01*
X412036Y383540D01*
X408226Y383540D01*
X409496Y382270D01*
X410766Y381000D01*
X412036Y383540D01*
X409496Y382270D01*
X410766Y382270D01*
D15*
X407270Y351862D02*
X414262Y351862D01*
X414262Y355746D02*
X409989Y351862D01*
X411543Y353415D02*
X407270Y355746D01*
D11*
X597631Y367000D02*
X597631Y395000D01*
X616806Y395000D02*
X616806Y367000D01*
X607219Y377190D02*
X613569Y384810D01*
X612299Y384810D01*
X611029Y384810D01*
X600869Y384810D01*
X607219Y377190D01*
X612299Y384810D01*
X602139Y383540D01*
X607219Y378460D01*
X611029Y384810D01*
X603409Y383540D01*
X607219Y379730D01*
X609759Y383540D01*
X608489Y383540D01*
X604679Y383540D01*
X605949Y382270D01*
X607219Y381000D01*
X608489Y383540D01*
X605949Y382270D01*
X607219Y382270D01*
D15*
X603723Y351862D02*
X610715Y351862D01*
X610715Y355746D02*
X606442Y351862D01*
X607996Y353415D02*
X603723Y355746D01*
D11*
X782178Y367000D02*
X782178Y395000D01*
X801353Y395000D02*
X801353Y367000D01*
X791766Y377190D02*
X798116Y384810D01*
X796846Y384810D01*
X795576Y384810D01*
X785416Y384810D01*
X791766Y377190D01*
X796846Y384810D01*
X786686Y383540D01*
X791766Y378460D01*
X795576Y384810D01*
X787956Y383540D01*
X791766Y379730D01*
X794306Y383540D01*
X793036Y383540D01*
X789226Y383540D01*
X790496Y382270D01*
X791766Y381000D01*
X793036Y383540D01*
X790496Y382270D01*
X791766Y382270D01*
D15*
X788270Y351862D02*
X795262Y351862D01*
X795262Y355746D02*
X790989Y351862D01*
X792543Y353415D02*
X788270Y355746D01*
D11*
X210678Y204500D02*
X210678Y176500D01*
X229853Y176500D02*
X229853Y204500D01*
X226616Y194310D02*
X220266Y186690D01*
X225346Y194310D02*
X226616Y194310D01*
X225346Y194310D02*
X224076Y194310D01*
X213916Y194310D01*
X220266Y186690D01*
X225346Y194310D01*
X215186Y193040D01*
X220266Y187960D01*
X224076Y194310D01*
X216456Y193040D01*
X220266Y189230D01*
X222806Y193040D01*
X221536Y193040D01*
X217726Y193040D01*
X218996Y191770D01*
X220266Y190500D01*
X221536Y193040D01*
X218996Y191770D01*
X220266Y191770D01*
D15*
X216770Y161362D02*
X223762Y161362D01*
X223762Y165246D02*
X219489Y161362D01*
X221043Y162915D02*
X216770Y165246D01*
D11*
X401178Y176500D02*
X401178Y204500D01*
X420353Y204500D02*
X420353Y176500D01*
X410766Y186690D02*
X417116Y194310D01*
X415846Y194310D01*
X414576Y194310D01*
X404416Y194310D01*
X410766Y186690D01*
X415846Y194310D01*
X405686Y193040D01*
X410766Y187960D01*
X414576Y194310D01*
X406956Y193040D01*
X410766Y189230D01*
X413306Y193040D01*
X412036Y193040D01*
X408226Y193040D01*
X409496Y191770D01*
X410766Y190500D01*
X412036Y193040D01*
X409496Y191770D01*
X410766Y191770D01*
D15*
X407270Y161362D02*
X414262Y161362D01*
X414262Y165246D02*
X409989Y161362D01*
X411543Y162915D02*
X407270Y165246D01*
D11*
X591678Y176500D02*
X591678Y204500D01*
X610853Y204500D02*
X610853Y176500D01*
X601266Y186690D02*
X607616Y194310D01*
X606346Y194310D01*
X605076Y194310D01*
X594916Y194310D01*
X601266Y186690D01*
X606346Y194310D01*
X596186Y193040D01*
X601266Y187960D01*
X605076Y194310D01*
X597456Y193040D01*
X601266Y189230D01*
X603806Y193040D01*
X602536Y193040D01*
X598726Y193040D01*
X599996Y191770D01*
X601266Y190500D01*
X602536Y193040D01*
X599996Y191770D01*
X601266Y191770D01*
D15*
X597770Y161362D02*
X604762Y161362D01*
X604762Y165246D02*
X600489Y161362D01*
X602043Y162915D02*
X597770Y165246D01*
D11*
X782178Y176500D02*
X782178Y204500D01*
X801353Y204500D02*
X801353Y176500D01*
X791766Y186690D02*
X798116Y194310D01*
X796846Y194310D01*
X795576Y194310D01*
X785416Y194310D01*
X791766Y186690D01*
X796846Y194310D01*
X786686Y193040D01*
X791766Y187960D01*
X795576Y194310D01*
X787956Y193040D01*
X791766Y189230D01*
X794306Y193040D01*
X793036Y193040D01*
X789226Y193040D01*
X790496Y191770D01*
X791766Y190500D01*
X793036Y193040D01*
X790496Y191770D01*
X791766Y191770D01*
D15*
X788270Y161362D02*
X795262Y161362D01*
X795262Y165246D02*
X790989Y161362D01*
X792543Y162915D02*
X788270Y165246D01*
M02*
