G04 EAGLE Gerber RS-274X export*
G75*
%MOMM*%
%FSLAX34Y34*%
%LPD*%
%INSilkscreen Top*%
%IPPOS*%
%AMOC8*
5,1,8,0,0,1.08239X$1,22.5*%
G01*
%ADD10C,0.127000*%
%ADD11C,0.200000*%
%ADD12C,0.152400*%
%ADD13C,0.050800*%


D10*
X128000Y819813D02*
X128000Y852813D01*
X153500Y852813D01*
X227500Y852813D02*
X253000Y852813D01*
X253000Y819813D01*
X128000Y751813D02*
X128000Y718813D01*
X153500Y718813D01*
X227500Y718813D02*
X253000Y718813D01*
X253000Y751813D01*
D11*
X147500Y861813D02*
X147502Y861876D01*
X147508Y861938D01*
X147518Y862000D01*
X147531Y862062D01*
X147549Y862122D01*
X147570Y862181D01*
X147595Y862239D01*
X147624Y862295D01*
X147656Y862349D01*
X147691Y862401D01*
X147729Y862450D01*
X147771Y862498D01*
X147815Y862542D01*
X147863Y862584D01*
X147912Y862622D01*
X147964Y862657D01*
X148018Y862689D01*
X148074Y862718D01*
X148132Y862743D01*
X148191Y862764D01*
X148251Y862782D01*
X148313Y862795D01*
X148375Y862805D01*
X148437Y862811D01*
X148500Y862813D01*
X148563Y862811D01*
X148625Y862805D01*
X148687Y862795D01*
X148749Y862782D01*
X148809Y862764D01*
X148868Y862743D01*
X148926Y862718D01*
X148982Y862689D01*
X149036Y862657D01*
X149088Y862622D01*
X149137Y862584D01*
X149185Y862542D01*
X149229Y862498D01*
X149271Y862450D01*
X149309Y862401D01*
X149344Y862349D01*
X149376Y862295D01*
X149405Y862239D01*
X149430Y862181D01*
X149451Y862122D01*
X149469Y862062D01*
X149482Y862000D01*
X149492Y861938D01*
X149498Y861876D01*
X149500Y861813D01*
X149498Y861750D01*
X149492Y861688D01*
X149482Y861626D01*
X149469Y861564D01*
X149451Y861504D01*
X149430Y861445D01*
X149405Y861387D01*
X149376Y861331D01*
X149344Y861277D01*
X149309Y861225D01*
X149271Y861176D01*
X149229Y861128D01*
X149185Y861084D01*
X149137Y861042D01*
X149088Y861004D01*
X149036Y860969D01*
X148982Y860937D01*
X148926Y860908D01*
X148868Y860883D01*
X148809Y860862D01*
X148749Y860844D01*
X148687Y860831D01*
X148625Y860821D01*
X148563Y860815D01*
X148500Y860813D01*
X148437Y860815D01*
X148375Y860821D01*
X148313Y860831D01*
X148251Y860844D01*
X148191Y860862D01*
X148132Y860883D01*
X148074Y860908D01*
X148018Y860937D01*
X147964Y860969D01*
X147912Y861004D01*
X147863Y861042D01*
X147815Y861084D01*
X147771Y861128D01*
X147729Y861176D01*
X147691Y861225D01*
X147656Y861277D01*
X147624Y861331D01*
X147595Y861387D01*
X147570Y861445D01*
X147549Y861504D01*
X147531Y861564D01*
X147518Y861626D01*
X147508Y861688D01*
X147502Y861750D01*
X147500Y861813D01*
D10*
X318500Y852813D02*
X318500Y819813D01*
X318500Y852813D02*
X344000Y852813D01*
X418000Y852813D02*
X443500Y852813D01*
X443500Y819813D01*
X318500Y751813D02*
X318500Y718813D01*
X344000Y718813D01*
X418000Y718813D02*
X443500Y718813D01*
X443500Y751813D01*
D11*
X338000Y861813D02*
X338002Y861876D01*
X338008Y861938D01*
X338018Y862000D01*
X338031Y862062D01*
X338049Y862122D01*
X338070Y862181D01*
X338095Y862239D01*
X338124Y862295D01*
X338156Y862349D01*
X338191Y862401D01*
X338229Y862450D01*
X338271Y862498D01*
X338315Y862542D01*
X338363Y862584D01*
X338412Y862622D01*
X338464Y862657D01*
X338518Y862689D01*
X338574Y862718D01*
X338632Y862743D01*
X338691Y862764D01*
X338751Y862782D01*
X338813Y862795D01*
X338875Y862805D01*
X338937Y862811D01*
X339000Y862813D01*
X339063Y862811D01*
X339125Y862805D01*
X339187Y862795D01*
X339249Y862782D01*
X339309Y862764D01*
X339368Y862743D01*
X339426Y862718D01*
X339482Y862689D01*
X339536Y862657D01*
X339588Y862622D01*
X339637Y862584D01*
X339685Y862542D01*
X339729Y862498D01*
X339771Y862450D01*
X339809Y862401D01*
X339844Y862349D01*
X339876Y862295D01*
X339905Y862239D01*
X339930Y862181D01*
X339951Y862122D01*
X339969Y862062D01*
X339982Y862000D01*
X339992Y861938D01*
X339998Y861876D01*
X340000Y861813D01*
X339998Y861750D01*
X339992Y861688D01*
X339982Y861626D01*
X339969Y861564D01*
X339951Y861504D01*
X339930Y861445D01*
X339905Y861387D01*
X339876Y861331D01*
X339844Y861277D01*
X339809Y861225D01*
X339771Y861176D01*
X339729Y861128D01*
X339685Y861084D01*
X339637Y861042D01*
X339588Y861004D01*
X339536Y860969D01*
X339482Y860937D01*
X339426Y860908D01*
X339368Y860883D01*
X339309Y860862D01*
X339249Y860844D01*
X339187Y860831D01*
X339125Y860821D01*
X339063Y860815D01*
X339000Y860813D01*
X338937Y860815D01*
X338875Y860821D01*
X338813Y860831D01*
X338751Y860844D01*
X338691Y860862D01*
X338632Y860883D01*
X338574Y860908D01*
X338518Y860937D01*
X338464Y860969D01*
X338412Y861004D01*
X338363Y861042D01*
X338315Y861084D01*
X338271Y861128D01*
X338229Y861176D01*
X338191Y861225D01*
X338156Y861277D01*
X338124Y861331D01*
X338095Y861387D01*
X338070Y861445D01*
X338049Y861504D01*
X338031Y861564D01*
X338018Y861626D01*
X338008Y861688D01*
X338002Y861750D01*
X338000Y861813D01*
D10*
X509000Y852813D02*
X509000Y819813D01*
X509000Y852813D02*
X534500Y852813D01*
X608500Y852813D02*
X634000Y852813D01*
X634000Y819813D01*
X509000Y751813D02*
X509000Y718813D01*
X534500Y718813D01*
X608500Y718813D02*
X634000Y718813D01*
X634000Y751813D01*
D11*
X528500Y861813D02*
X528502Y861876D01*
X528508Y861938D01*
X528518Y862000D01*
X528531Y862062D01*
X528549Y862122D01*
X528570Y862181D01*
X528595Y862239D01*
X528624Y862295D01*
X528656Y862349D01*
X528691Y862401D01*
X528729Y862450D01*
X528771Y862498D01*
X528815Y862542D01*
X528863Y862584D01*
X528912Y862622D01*
X528964Y862657D01*
X529018Y862689D01*
X529074Y862718D01*
X529132Y862743D01*
X529191Y862764D01*
X529251Y862782D01*
X529313Y862795D01*
X529375Y862805D01*
X529437Y862811D01*
X529500Y862813D01*
X529563Y862811D01*
X529625Y862805D01*
X529687Y862795D01*
X529749Y862782D01*
X529809Y862764D01*
X529868Y862743D01*
X529926Y862718D01*
X529982Y862689D01*
X530036Y862657D01*
X530088Y862622D01*
X530137Y862584D01*
X530185Y862542D01*
X530229Y862498D01*
X530271Y862450D01*
X530309Y862401D01*
X530344Y862349D01*
X530376Y862295D01*
X530405Y862239D01*
X530430Y862181D01*
X530451Y862122D01*
X530469Y862062D01*
X530482Y862000D01*
X530492Y861938D01*
X530498Y861876D01*
X530500Y861813D01*
X530498Y861750D01*
X530492Y861688D01*
X530482Y861626D01*
X530469Y861564D01*
X530451Y861504D01*
X530430Y861445D01*
X530405Y861387D01*
X530376Y861331D01*
X530344Y861277D01*
X530309Y861225D01*
X530271Y861176D01*
X530229Y861128D01*
X530185Y861084D01*
X530137Y861042D01*
X530088Y861004D01*
X530036Y860969D01*
X529982Y860937D01*
X529926Y860908D01*
X529868Y860883D01*
X529809Y860862D01*
X529749Y860844D01*
X529687Y860831D01*
X529625Y860821D01*
X529563Y860815D01*
X529500Y860813D01*
X529437Y860815D01*
X529375Y860821D01*
X529313Y860831D01*
X529251Y860844D01*
X529191Y860862D01*
X529132Y860883D01*
X529074Y860908D01*
X529018Y860937D01*
X528964Y860969D01*
X528912Y861004D01*
X528863Y861042D01*
X528815Y861084D01*
X528771Y861128D01*
X528729Y861176D01*
X528691Y861225D01*
X528656Y861277D01*
X528624Y861331D01*
X528595Y861387D01*
X528570Y861445D01*
X528549Y861504D01*
X528531Y861564D01*
X528518Y861626D01*
X528508Y861688D01*
X528502Y861750D01*
X528500Y861813D01*
D10*
X699500Y852813D02*
X699500Y819813D01*
X699500Y852813D02*
X725000Y852813D01*
X799000Y852813D02*
X824500Y852813D01*
X824500Y819813D01*
X699500Y751813D02*
X699500Y718813D01*
X725000Y718813D01*
X799000Y718813D02*
X824500Y718813D01*
X824500Y751813D01*
D11*
X719000Y861813D02*
X719002Y861876D01*
X719008Y861938D01*
X719018Y862000D01*
X719031Y862062D01*
X719049Y862122D01*
X719070Y862181D01*
X719095Y862239D01*
X719124Y862295D01*
X719156Y862349D01*
X719191Y862401D01*
X719229Y862450D01*
X719271Y862498D01*
X719315Y862542D01*
X719363Y862584D01*
X719412Y862622D01*
X719464Y862657D01*
X719518Y862689D01*
X719574Y862718D01*
X719632Y862743D01*
X719691Y862764D01*
X719751Y862782D01*
X719813Y862795D01*
X719875Y862805D01*
X719937Y862811D01*
X720000Y862813D01*
X720063Y862811D01*
X720125Y862805D01*
X720187Y862795D01*
X720249Y862782D01*
X720309Y862764D01*
X720368Y862743D01*
X720426Y862718D01*
X720482Y862689D01*
X720536Y862657D01*
X720588Y862622D01*
X720637Y862584D01*
X720685Y862542D01*
X720729Y862498D01*
X720771Y862450D01*
X720809Y862401D01*
X720844Y862349D01*
X720876Y862295D01*
X720905Y862239D01*
X720930Y862181D01*
X720951Y862122D01*
X720969Y862062D01*
X720982Y862000D01*
X720992Y861938D01*
X720998Y861876D01*
X721000Y861813D01*
X720998Y861750D01*
X720992Y861688D01*
X720982Y861626D01*
X720969Y861564D01*
X720951Y861504D01*
X720930Y861445D01*
X720905Y861387D01*
X720876Y861331D01*
X720844Y861277D01*
X720809Y861225D01*
X720771Y861176D01*
X720729Y861128D01*
X720685Y861084D01*
X720637Y861042D01*
X720588Y861004D01*
X720536Y860969D01*
X720482Y860937D01*
X720426Y860908D01*
X720368Y860883D01*
X720309Y860862D01*
X720249Y860844D01*
X720187Y860831D01*
X720125Y860821D01*
X720063Y860815D01*
X720000Y860813D01*
X719937Y860815D01*
X719875Y860821D01*
X719813Y860831D01*
X719751Y860844D01*
X719691Y860862D01*
X719632Y860883D01*
X719574Y860908D01*
X719518Y860937D01*
X719464Y860969D01*
X719412Y861004D01*
X719363Y861042D01*
X719315Y861084D01*
X719271Y861128D01*
X719229Y861176D01*
X719191Y861225D01*
X719156Y861277D01*
X719124Y861331D01*
X719095Y861387D01*
X719070Y861445D01*
X719049Y861504D01*
X719031Y861564D01*
X719018Y861626D01*
X719008Y861688D01*
X719002Y861750D01*
X719000Y861813D01*
D12*
X76597Y996752D02*
X76597Y1009452D01*
X82947Y1015802D01*
X95647Y1015802D01*
X101997Y1009452D01*
X95647Y990402D02*
X82947Y990402D01*
X76597Y996752D01*
X95647Y990402D02*
X101997Y996752D01*
X101997Y1009452D01*
X101997Y851694D02*
X101997Y838994D01*
X95647Y832644D01*
X82947Y832644D01*
X76597Y838994D01*
X82947Y858044D02*
X95647Y858044D01*
X101997Y851694D01*
X82947Y858044D02*
X76597Y851694D01*
X76597Y838994D01*
D11*
X527400Y891778D02*
X527402Y891841D01*
X527408Y891903D01*
X527418Y891965D01*
X527431Y892027D01*
X527449Y892087D01*
X527470Y892146D01*
X527495Y892204D01*
X527524Y892260D01*
X527556Y892314D01*
X527591Y892366D01*
X527629Y892415D01*
X527671Y892463D01*
X527715Y892507D01*
X527763Y892549D01*
X527812Y892587D01*
X527864Y892622D01*
X527918Y892654D01*
X527974Y892683D01*
X528032Y892708D01*
X528091Y892729D01*
X528151Y892747D01*
X528213Y892760D01*
X528275Y892770D01*
X528337Y892776D01*
X528400Y892778D01*
X528463Y892776D01*
X528525Y892770D01*
X528587Y892760D01*
X528649Y892747D01*
X528709Y892729D01*
X528768Y892708D01*
X528826Y892683D01*
X528882Y892654D01*
X528936Y892622D01*
X528988Y892587D01*
X529037Y892549D01*
X529085Y892507D01*
X529129Y892463D01*
X529171Y892415D01*
X529209Y892366D01*
X529244Y892314D01*
X529276Y892260D01*
X529305Y892204D01*
X529330Y892146D01*
X529351Y892087D01*
X529369Y892027D01*
X529382Y891965D01*
X529392Y891903D01*
X529398Y891841D01*
X529400Y891778D01*
X529398Y891715D01*
X529392Y891653D01*
X529382Y891591D01*
X529369Y891529D01*
X529351Y891469D01*
X529330Y891410D01*
X529305Y891352D01*
X529276Y891296D01*
X529244Y891242D01*
X529209Y891190D01*
X529171Y891141D01*
X529129Y891093D01*
X529085Y891049D01*
X529037Y891007D01*
X528988Y890969D01*
X528936Y890934D01*
X528882Y890902D01*
X528826Y890873D01*
X528768Y890848D01*
X528709Y890827D01*
X528649Y890809D01*
X528587Y890796D01*
X528525Y890786D01*
X528463Y890780D01*
X528400Y890778D01*
X528337Y890780D01*
X528275Y890786D01*
X528213Y890796D01*
X528151Y890809D01*
X528091Y890827D01*
X528032Y890848D01*
X527974Y890873D01*
X527918Y890902D01*
X527864Y890934D01*
X527812Y890969D01*
X527763Y891007D01*
X527715Y891049D01*
X527671Y891093D01*
X527629Y891141D01*
X527591Y891190D01*
X527556Y891242D01*
X527524Y891296D01*
X527495Y891352D01*
X527470Y891410D01*
X527449Y891469D01*
X527431Y891529D01*
X527418Y891591D01*
X527408Y891653D01*
X527402Y891715D01*
X527400Y891778D01*
D10*
X502650Y884428D02*
X449850Y884428D01*
X449850Y937228D02*
X502650Y937228D01*
D11*
X364328Y997250D02*
X364330Y997313D01*
X364336Y997375D01*
X364346Y997437D01*
X364359Y997499D01*
X364377Y997559D01*
X364398Y997618D01*
X364423Y997676D01*
X364452Y997732D01*
X364484Y997786D01*
X364519Y997838D01*
X364557Y997887D01*
X364599Y997935D01*
X364643Y997979D01*
X364691Y998021D01*
X364740Y998059D01*
X364792Y998094D01*
X364846Y998126D01*
X364902Y998155D01*
X364960Y998180D01*
X365019Y998201D01*
X365079Y998219D01*
X365141Y998232D01*
X365203Y998242D01*
X365265Y998248D01*
X365328Y998250D01*
X365391Y998248D01*
X365453Y998242D01*
X365515Y998232D01*
X365577Y998219D01*
X365637Y998201D01*
X365696Y998180D01*
X365754Y998155D01*
X365810Y998126D01*
X365864Y998094D01*
X365916Y998059D01*
X365965Y998021D01*
X366013Y997979D01*
X366057Y997935D01*
X366099Y997887D01*
X366137Y997838D01*
X366172Y997786D01*
X366204Y997732D01*
X366233Y997676D01*
X366258Y997618D01*
X366279Y997559D01*
X366297Y997499D01*
X366310Y997437D01*
X366320Y997375D01*
X366326Y997313D01*
X366328Y997250D01*
X366326Y997187D01*
X366320Y997125D01*
X366310Y997063D01*
X366297Y997001D01*
X366279Y996941D01*
X366258Y996882D01*
X366233Y996824D01*
X366204Y996768D01*
X366172Y996714D01*
X366137Y996662D01*
X366099Y996613D01*
X366057Y996565D01*
X366013Y996521D01*
X365965Y996479D01*
X365916Y996441D01*
X365864Y996406D01*
X365810Y996374D01*
X365754Y996345D01*
X365696Y996320D01*
X365637Y996299D01*
X365577Y996281D01*
X365515Y996268D01*
X365453Y996258D01*
X365391Y996252D01*
X365328Y996250D01*
X365265Y996252D01*
X365203Y996258D01*
X365141Y996268D01*
X365079Y996281D01*
X365019Y996299D01*
X364960Y996320D01*
X364902Y996345D01*
X364846Y996374D01*
X364792Y996406D01*
X364740Y996441D01*
X364691Y996479D01*
X364643Y996521D01*
X364599Y996565D01*
X364557Y996613D01*
X364519Y996662D01*
X364484Y996714D01*
X364452Y996768D01*
X364423Y996824D01*
X364398Y996882D01*
X364377Y996941D01*
X364359Y997001D01*
X364346Y997063D01*
X364336Y997125D01*
X364330Y997187D01*
X364328Y997250D01*
D10*
X304328Y922300D02*
X304328Y917500D01*
X374328Y917500D02*
X374328Y922300D01*
X304328Y982700D02*
X304328Y987500D01*
X374328Y987500D02*
X374328Y982700D01*
X309128Y917500D02*
X304328Y917500D01*
X369528Y917500D02*
X374328Y917500D01*
X309128Y987500D02*
X304328Y987500D01*
X369528Y987500D02*
X374328Y987500D01*
X256159Y1055370D02*
X256159Y915543D01*
X124841Y915543D02*
X124841Y1055370D01*
X125730Y1055370D02*
X255270Y1055370D01*
X255524Y915416D02*
X125476Y915416D01*
X139700Y977900D02*
X146050Y1041400D01*
X177800Y1041400D01*
X184150Y977900D01*
X241300Y977900D02*
X234950Y1041400D01*
X203200Y1041400D01*
X196850Y977900D01*
X827659Y915543D02*
X827659Y1055370D01*
X696341Y1055370D02*
X696341Y915543D01*
X697230Y1055370D02*
X826770Y1055370D01*
X827024Y915416D02*
X696976Y915416D01*
X711200Y977900D02*
X717550Y1041400D01*
X749300Y1041400D01*
X755650Y977900D01*
X812800Y977900D02*
X806450Y1041400D01*
X774700Y1041400D01*
X768350Y977900D01*
D12*
X638683Y935276D02*
X638683Y1029256D01*
X599567Y935276D02*
X599569Y935154D01*
X599575Y935032D01*
X599585Y934910D01*
X599598Y934789D01*
X599616Y934668D01*
X599637Y934548D01*
X599663Y934428D01*
X599692Y934310D01*
X599724Y934192D01*
X599761Y934075D01*
X599801Y933960D01*
X599845Y933846D01*
X599893Y933734D01*
X599944Y933623D01*
X599999Y933514D01*
X600057Y933406D01*
X600119Y933301D01*
X600184Y933198D01*
X600252Y933096D01*
X600324Y932997D01*
X600398Y932901D01*
X600476Y932806D01*
X600557Y932715D01*
X600640Y932625D01*
X600726Y932539D01*
X600816Y932456D01*
X600907Y932375D01*
X601002Y932297D01*
X601098Y932223D01*
X601197Y932151D01*
X601299Y932083D01*
X601402Y932018D01*
X601507Y931956D01*
X601615Y931898D01*
X601724Y931843D01*
X601835Y931792D01*
X601947Y931744D01*
X602061Y931700D01*
X602176Y931660D01*
X602293Y931623D01*
X602411Y931591D01*
X602529Y931562D01*
X602649Y931536D01*
X602769Y931515D01*
X602890Y931497D01*
X603011Y931484D01*
X603133Y931474D01*
X603255Y931468D01*
X603377Y931466D01*
X638683Y1029256D02*
X638681Y1029378D01*
X638675Y1029500D01*
X638665Y1029622D01*
X638652Y1029743D01*
X638634Y1029864D01*
X638613Y1029984D01*
X638587Y1030104D01*
X638558Y1030222D01*
X638526Y1030340D01*
X638489Y1030457D01*
X638449Y1030572D01*
X638405Y1030686D01*
X638357Y1030798D01*
X638306Y1030909D01*
X638251Y1031018D01*
X638193Y1031126D01*
X638131Y1031231D01*
X638066Y1031334D01*
X637998Y1031436D01*
X637926Y1031535D01*
X637852Y1031631D01*
X637774Y1031726D01*
X637693Y1031817D01*
X637610Y1031907D01*
X637524Y1031993D01*
X637434Y1032076D01*
X637343Y1032157D01*
X637248Y1032235D01*
X637152Y1032309D01*
X637053Y1032381D01*
X636951Y1032449D01*
X636848Y1032514D01*
X636743Y1032576D01*
X636635Y1032634D01*
X636526Y1032689D01*
X636415Y1032740D01*
X636303Y1032788D01*
X636189Y1032832D01*
X636074Y1032872D01*
X635957Y1032909D01*
X635839Y1032941D01*
X635721Y1032970D01*
X635601Y1032996D01*
X635481Y1033017D01*
X635360Y1033035D01*
X635239Y1033048D01*
X635117Y1033058D01*
X634995Y1033064D01*
X634873Y1033066D01*
X638683Y935276D02*
X638681Y935154D01*
X638675Y935032D01*
X638665Y934910D01*
X638652Y934789D01*
X638634Y934668D01*
X638613Y934548D01*
X638587Y934428D01*
X638558Y934310D01*
X638526Y934192D01*
X638489Y934075D01*
X638449Y933960D01*
X638405Y933846D01*
X638357Y933734D01*
X638306Y933623D01*
X638251Y933514D01*
X638193Y933406D01*
X638131Y933301D01*
X638066Y933198D01*
X637998Y933096D01*
X637926Y932997D01*
X637852Y932901D01*
X637774Y932806D01*
X637693Y932715D01*
X637610Y932625D01*
X637524Y932539D01*
X637434Y932456D01*
X637343Y932375D01*
X637248Y932297D01*
X637152Y932223D01*
X637053Y932151D01*
X636951Y932083D01*
X636848Y932018D01*
X636743Y931956D01*
X636635Y931898D01*
X636526Y931843D01*
X636415Y931792D01*
X636303Y931744D01*
X636189Y931700D01*
X636074Y931660D01*
X635957Y931623D01*
X635839Y931591D01*
X635721Y931562D01*
X635601Y931536D01*
X635481Y931515D01*
X635360Y931497D01*
X635239Y931484D01*
X635117Y931474D01*
X634995Y931468D01*
X634873Y931466D01*
X599567Y1029256D02*
X599569Y1029378D01*
X599575Y1029500D01*
X599585Y1029622D01*
X599598Y1029743D01*
X599616Y1029864D01*
X599637Y1029984D01*
X599663Y1030104D01*
X599692Y1030222D01*
X599724Y1030340D01*
X599761Y1030457D01*
X599801Y1030572D01*
X599845Y1030686D01*
X599893Y1030798D01*
X599944Y1030909D01*
X599999Y1031018D01*
X600057Y1031126D01*
X600119Y1031231D01*
X600184Y1031334D01*
X600252Y1031436D01*
X600324Y1031535D01*
X600398Y1031631D01*
X600476Y1031726D01*
X600557Y1031817D01*
X600640Y1031907D01*
X600726Y1031993D01*
X600816Y1032076D01*
X600907Y1032157D01*
X601002Y1032235D01*
X601098Y1032309D01*
X601197Y1032381D01*
X601299Y1032449D01*
X601402Y1032514D01*
X601507Y1032576D01*
X601615Y1032634D01*
X601724Y1032689D01*
X601835Y1032740D01*
X601947Y1032788D01*
X602061Y1032832D01*
X602176Y1032872D01*
X602293Y1032909D01*
X602411Y1032941D01*
X602529Y1032970D01*
X602649Y1032996D01*
X602769Y1033017D01*
X602890Y1033035D01*
X603011Y1033048D01*
X603133Y1033058D01*
X603255Y1033064D01*
X603377Y1033066D01*
X599567Y1029256D02*
X599567Y935276D01*
X603377Y931466D02*
X634873Y931466D01*
X634873Y1033066D02*
X624205Y1033066D01*
X614045Y1033066D01*
X603377Y1033066D01*
X614045Y1033066D02*
X614047Y1032925D01*
X614053Y1032784D01*
X614063Y1032643D01*
X614076Y1032502D01*
X614094Y1032362D01*
X614116Y1032223D01*
X614141Y1032084D01*
X614170Y1031945D01*
X614203Y1031808D01*
X614240Y1031672D01*
X614281Y1031537D01*
X614325Y1031402D01*
X614373Y1031270D01*
X614425Y1031138D01*
X614480Y1031008D01*
X614539Y1030880D01*
X614602Y1030753D01*
X614668Y1030629D01*
X614737Y1030506D01*
X614810Y1030385D01*
X614886Y1030266D01*
X614966Y1030149D01*
X615049Y1030035D01*
X615134Y1029922D01*
X615223Y1029813D01*
X615315Y1029705D01*
X615410Y1029601D01*
X615508Y1029499D01*
X615609Y1029400D01*
X615712Y1029303D01*
X615818Y1029210D01*
X615926Y1029120D01*
X616037Y1029032D01*
X616150Y1028948D01*
X616266Y1028867D01*
X616384Y1028789D01*
X616504Y1028714D01*
X616626Y1028643D01*
X616750Y1028575D01*
X616876Y1028511D01*
X617003Y1028450D01*
X617132Y1028393D01*
X617263Y1028340D01*
X617395Y1028290D01*
X617528Y1028243D01*
X617663Y1028201D01*
X617799Y1028162D01*
X617936Y1028127D01*
X618073Y1028096D01*
X618212Y1028069D01*
X618351Y1028045D01*
X618491Y1028026D01*
X618631Y1028010D01*
X618772Y1027998D01*
X618913Y1027990D01*
X619054Y1027986D01*
X619196Y1027986D01*
X619337Y1027990D01*
X619478Y1027998D01*
X619619Y1028010D01*
X619759Y1028026D01*
X619899Y1028045D01*
X620038Y1028069D01*
X620177Y1028096D01*
X620314Y1028127D01*
X620451Y1028162D01*
X620587Y1028201D01*
X620722Y1028243D01*
X620855Y1028290D01*
X620987Y1028340D01*
X621118Y1028393D01*
X621247Y1028450D01*
X621374Y1028511D01*
X621500Y1028575D01*
X621624Y1028643D01*
X621746Y1028714D01*
X621866Y1028789D01*
X621984Y1028867D01*
X622100Y1028948D01*
X622213Y1029032D01*
X622324Y1029120D01*
X622432Y1029210D01*
X622538Y1029303D01*
X622641Y1029400D01*
X622742Y1029499D01*
X622840Y1029601D01*
X622935Y1029705D01*
X623027Y1029813D01*
X623116Y1029922D01*
X623201Y1030035D01*
X623284Y1030149D01*
X623364Y1030266D01*
X623440Y1030385D01*
X623513Y1030506D01*
X623582Y1030629D01*
X623648Y1030753D01*
X623711Y1030880D01*
X623770Y1031008D01*
X623825Y1031138D01*
X623877Y1031270D01*
X623925Y1031402D01*
X623969Y1031537D01*
X624010Y1031672D01*
X624047Y1031808D01*
X624080Y1031945D01*
X624109Y1032084D01*
X624134Y1032223D01*
X624156Y1032362D01*
X624174Y1032502D01*
X624187Y1032643D01*
X624197Y1032784D01*
X624203Y1032925D01*
X624205Y1033066D01*
D13*
X603123Y1033066D02*
X603123Y931466D01*
D10*
X520950Y995838D02*
X520950Y1010238D01*
X431550Y1010238D02*
X431550Y995838D01*
X431550Y1037638D02*
X431550Y1049938D01*
X520950Y1049938D01*
X520950Y1037638D01*
D11*
X509250Y959938D02*
X509252Y960001D01*
X509258Y960063D01*
X509268Y960125D01*
X509281Y960187D01*
X509299Y960247D01*
X509320Y960306D01*
X509345Y960364D01*
X509374Y960420D01*
X509406Y960474D01*
X509441Y960526D01*
X509479Y960575D01*
X509521Y960623D01*
X509565Y960667D01*
X509613Y960709D01*
X509662Y960747D01*
X509714Y960782D01*
X509768Y960814D01*
X509824Y960843D01*
X509882Y960868D01*
X509941Y960889D01*
X510001Y960907D01*
X510063Y960920D01*
X510125Y960930D01*
X510187Y960936D01*
X510250Y960938D01*
X510313Y960936D01*
X510375Y960930D01*
X510437Y960920D01*
X510499Y960907D01*
X510559Y960889D01*
X510618Y960868D01*
X510676Y960843D01*
X510732Y960814D01*
X510786Y960782D01*
X510838Y960747D01*
X510887Y960709D01*
X510935Y960667D01*
X510979Y960623D01*
X511021Y960575D01*
X511059Y960526D01*
X511094Y960474D01*
X511126Y960420D01*
X511155Y960364D01*
X511180Y960306D01*
X511201Y960247D01*
X511219Y960187D01*
X511232Y960125D01*
X511242Y960063D01*
X511248Y960001D01*
X511250Y959938D01*
X511248Y959875D01*
X511242Y959813D01*
X511232Y959751D01*
X511219Y959689D01*
X511201Y959629D01*
X511180Y959570D01*
X511155Y959512D01*
X511126Y959456D01*
X511094Y959402D01*
X511059Y959350D01*
X511021Y959301D01*
X510979Y959253D01*
X510935Y959209D01*
X510887Y959167D01*
X510838Y959129D01*
X510786Y959094D01*
X510732Y959062D01*
X510676Y959033D01*
X510618Y959008D01*
X510559Y958987D01*
X510499Y958969D01*
X510437Y958956D01*
X510375Y958946D01*
X510313Y958940D01*
X510250Y958938D01*
X510187Y958940D01*
X510125Y958946D01*
X510063Y958956D01*
X510001Y958969D01*
X509941Y958987D01*
X509882Y959008D01*
X509824Y959033D01*
X509768Y959062D01*
X509714Y959094D01*
X509662Y959129D01*
X509613Y959167D01*
X509565Y959209D01*
X509521Y959253D01*
X509479Y959301D01*
X509441Y959350D01*
X509406Y959402D01*
X509374Y959456D01*
X509345Y959512D01*
X509320Y959570D01*
X509299Y959629D01*
X509281Y959689D01*
X509268Y959751D01*
X509258Y959813D01*
X509252Y959875D01*
X509250Y959938D01*
M02*
