G04 EAGLE Gerber RS-274X export*
G75*
%MOMM*%
%FSLAX34Y34*%
%LPD*%
%INSolderpaste Top*%
%IPPOS*%
%AMOC8*
5,1,8,0,0,1.08239X$1,22.5*%
G01*
%ADD10C,0.145000*%
%ADD11R,1.960000X1.960000*%
%ADD12C,0.050000*%
%ADD13R,2.032000X0.660400*%
%ADD14R,0.600000X1.450000*%
%ADD15R,0.300000X1.450000*%
%ADD16R,0.600000X0.700000*%


D10*
X504975Y893953D02*
X519625Y893953D01*
X519625Y889603D01*
X504975Y889603D01*
X504975Y893953D01*
X504975Y890980D02*
X519625Y890980D01*
X519625Y892357D02*
X504975Y892357D01*
X504975Y893734D02*
X519625Y893734D01*
X519625Y906653D02*
X504975Y906653D01*
X519625Y906653D02*
X519625Y902303D01*
X504975Y902303D01*
X504975Y906653D01*
X504975Y903680D02*
X519625Y903680D01*
X519625Y905057D02*
X504975Y905057D01*
X504975Y906434D02*
X519625Y906434D01*
X519625Y919353D02*
X504975Y919353D01*
X519625Y919353D02*
X519625Y915003D01*
X504975Y915003D01*
X504975Y919353D01*
X504975Y916380D02*
X519625Y916380D01*
X519625Y917757D02*
X504975Y917757D01*
X504975Y919134D02*
X519625Y919134D01*
X519625Y932053D02*
X504975Y932053D01*
X519625Y932053D02*
X519625Y927703D01*
X504975Y927703D01*
X504975Y932053D01*
X504975Y929080D02*
X519625Y929080D01*
X519625Y930457D02*
X504975Y930457D01*
X504975Y931834D02*
X519625Y931834D01*
X447525Y932053D02*
X432875Y932053D01*
X447525Y932053D02*
X447525Y927703D01*
X432875Y927703D01*
X432875Y932053D01*
X432875Y929080D02*
X447525Y929080D01*
X447525Y930457D02*
X432875Y930457D01*
X432875Y931834D02*
X447525Y931834D01*
X447525Y919353D02*
X432875Y919353D01*
X447525Y919353D02*
X447525Y915003D01*
X432875Y915003D01*
X432875Y919353D01*
X432875Y916380D02*
X447525Y916380D01*
X447525Y917757D02*
X432875Y917757D01*
X432875Y919134D02*
X447525Y919134D01*
X447525Y906653D02*
X432875Y906653D01*
X447525Y906653D02*
X447525Y902303D01*
X432875Y902303D01*
X432875Y906653D01*
X432875Y903680D02*
X447525Y903680D01*
X447525Y905057D02*
X432875Y905057D01*
X432875Y906434D02*
X447525Y906434D01*
X447525Y893953D02*
X432875Y893953D01*
X447525Y893953D02*
X447525Y889603D01*
X432875Y889603D01*
X432875Y893953D01*
X432875Y890980D02*
X447525Y890980D01*
X447525Y892357D02*
X432875Y892357D01*
X432875Y893734D02*
X447525Y893734D01*
D11*
X339328Y952500D03*
D12*
X301028Y977750D02*
X301028Y979250D01*
X308928Y979250D01*
X308928Y977750D01*
X301028Y977750D01*
X301028Y978225D02*
X308928Y978225D01*
X308928Y978700D02*
X301028Y978700D01*
X301028Y979175D02*
X308928Y979175D01*
X301028Y975250D02*
X301028Y973750D01*
X301028Y975250D02*
X308928Y975250D01*
X308928Y973750D01*
X301028Y973750D01*
X301028Y974225D02*
X308928Y974225D01*
X308928Y974700D02*
X301028Y974700D01*
X301028Y975175D02*
X308928Y975175D01*
X301028Y971250D02*
X301028Y969750D01*
X301028Y971250D02*
X308928Y971250D01*
X308928Y969750D01*
X301028Y969750D01*
X301028Y970225D02*
X308928Y970225D01*
X308928Y970700D02*
X301028Y970700D01*
X301028Y971175D02*
X308928Y971175D01*
X301028Y967250D02*
X301028Y965750D01*
X301028Y967250D02*
X308928Y967250D01*
X308928Y965750D01*
X301028Y965750D01*
X301028Y966225D02*
X308928Y966225D01*
X308928Y966700D02*
X301028Y966700D01*
X301028Y967175D02*
X308928Y967175D01*
X301028Y963250D02*
X301028Y961750D01*
X301028Y963250D02*
X308928Y963250D01*
X308928Y961750D01*
X301028Y961750D01*
X301028Y962225D02*
X308928Y962225D01*
X308928Y962700D02*
X301028Y962700D01*
X301028Y963175D02*
X308928Y963175D01*
X301028Y959250D02*
X301028Y957750D01*
X301028Y959250D02*
X308928Y959250D01*
X308928Y957750D01*
X301028Y957750D01*
X301028Y958225D02*
X308928Y958225D01*
X308928Y958700D02*
X301028Y958700D01*
X301028Y959175D02*
X308928Y959175D01*
X301028Y955250D02*
X301028Y953750D01*
X301028Y955250D02*
X308928Y955250D01*
X308928Y953750D01*
X301028Y953750D01*
X301028Y954225D02*
X308928Y954225D01*
X308928Y954700D02*
X301028Y954700D01*
X301028Y955175D02*
X308928Y955175D01*
X301028Y951250D02*
X301028Y949750D01*
X301028Y951250D02*
X308928Y951250D01*
X308928Y949750D01*
X301028Y949750D01*
X301028Y950225D02*
X308928Y950225D01*
X308928Y950700D02*
X301028Y950700D01*
X301028Y951175D02*
X308928Y951175D01*
X301028Y947250D02*
X301028Y945750D01*
X301028Y947250D02*
X308928Y947250D01*
X308928Y945750D01*
X301028Y945750D01*
X301028Y946225D02*
X308928Y946225D01*
X308928Y946700D02*
X301028Y946700D01*
X301028Y947175D02*
X308928Y947175D01*
X301028Y943250D02*
X301028Y941750D01*
X301028Y943250D02*
X308928Y943250D01*
X308928Y941750D01*
X301028Y941750D01*
X301028Y942225D02*
X308928Y942225D01*
X308928Y942700D02*
X301028Y942700D01*
X301028Y943175D02*
X308928Y943175D01*
X301028Y939250D02*
X301028Y937750D01*
X301028Y939250D02*
X308928Y939250D01*
X308928Y937750D01*
X301028Y937750D01*
X301028Y938225D02*
X308928Y938225D01*
X308928Y938700D02*
X301028Y938700D01*
X301028Y939175D02*
X308928Y939175D01*
X301028Y935250D02*
X301028Y933750D01*
X301028Y935250D02*
X308928Y935250D01*
X308928Y933750D01*
X301028Y933750D01*
X301028Y934225D02*
X308928Y934225D01*
X308928Y934700D02*
X301028Y934700D01*
X301028Y935175D02*
X308928Y935175D01*
X301028Y931250D02*
X301028Y929750D01*
X301028Y931250D02*
X308928Y931250D01*
X308928Y929750D01*
X301028Y929750D01*
X301028Y930225D02*
X308928Y930225D01*
X308928Y930700D02*
X301028Y930700D01*
X301028Y931175D02*
X308928Y931175D01*
X301028Y927250D02*
X301028Y925750D01*
X301028Y927250D02*
X308928Y927250D01*
X308928Y925750D01*
X301028Y925750D01*
X301028Y926225D02*
X308928Y926225D01*
X308928Y926700D02*
X301028Y926700D01*
X301028Y927175D02*
X308928Y927175D01*
X369728Y927250D02*
X369728Y925750D01*
X369728Y927250D02*
X377628Y927250D01*
X377628Y925750D01*
X369728Y925750D01*
X369728Y926225D02*
X377628Y926225D01*
X377628Y926700D02*
X369728Y926700D01*
X369728Y927175D02*
X377628Y927175D01*
X369728Y929750D02*
X369728Y931250D01*
X377628Y931250D01*
X377628Y929750D01*
X369728Y929750D01*
X369728Y930225D02*
X377628Y930225D01*
X377628Y930700D02*
X369728Y930700D01*
X369728Y931175D02*
X377628Y931175D01*
X369728Y933750D02*
X369728Y935250D01*
X377628Y935250D01*
X377628Y933750D01*
X369728Y933750D01*
X369728Y934225D02*
X377628Y934225D01*
X377628Y934700D02*
X369728Y934700D01*
X369728Y935175D02*
X377628Y935175D01*
X369728Y937750D02*
X369728Y939250D01*
X377628Y939250D01*
X377628Y937750D01*
X369728Y937750D01*
X369728Y938225D02*
X377628Y938225D01*
X377628Y938700D02*
X369728Y938700D01*
X369728Y939175D02*
X377628Y939175D01*
X369728Y941750D02*
X369728Y943250D01*
X377628Y943250D01*
X377628Y941750D01*
X369728Y941750D01*
X369728Y942225D02*
X377628Y942225D01*
X377628Y942700D02*
X369728Y942700D01*
X369728Y943175D02*
X377628Y943175D01*
X369728Y945750D02*
X369728Y947250D01*
X377628Y947250D01*
X377628Y945750D01*
X369728Y945750D01*
X369728Y946225D02*
X377628Y946225D01*
X377628Y946700D02*
X369728Y946700D01*
X369728Y947175D02*
X377628Y947175D01*
X369728Y949750D02*
X369728Y951250D01*
X377628Y951250D01*
X377628Y949750D01*
X369728Y949750D01*
X369728Y950225D02*
X377628Y950225D01*
X377628Y950700D02*
X369728Y950700D01*
X369728Y951175D02*
X377628Y951175D01*
X369728Y953750D02*
X369728Y955250D01*
X377628Y955250D01*
X377628Y953750D01*
X369728Y953750D01*
X369728Y954225D02*
X377628Y954225D01*
X377628Y954700D02*
X369728Y954700D01*
X369728Y955175D02*
X377628Y955175D01*
X369728Y957750D02*
X369728Y959250D01*
X377628Y959250D01*
X377628Y957750D01*
X369728Y957750D01*
X369728Y958225D02*
X377628Y958225D01*
X377628Y958700D02*
X369728Y958700D01*
X369728Y959175D02*
X377628Y959175D01*
X369728Y961750D02*
X369728Y963250D01*
X377628Y963250D01*
X377628Y961750D01*
X369728Y961750D01*
X369728Y962225D02*
X377628Y962225D01*
X377628Y962700D02*
X369728Y962700D01*
X369728Y963175D02*
X377628Y963175D01*
X369728Y965750D02*
X369728Y967250D01*
X377628Y967250D01*
X377628Y965750D01*
X369728Y965750D01*
X369728Y966225D02*
X377628Y966225D01*
X377628Y966700D02*
X369728Y966700D01*
X369728Y967175D02*
X377628Y967175D01*
X369728Y969750D02*
X369728Y971250D01*
X377628Y971250D01*
X377628Y969750D01*
X369728Y969750D01*
X369728Y970225D02*
X377628Y970225D01*
X377628Y970700D02*
X369728Y970700D01*
X369728Y971175D02*
X377628Y971175D01*
X369728Y973750D02*
X369728Y975250D01*
X377628Y975250D01*
X377628Y973750D01*
X369728Y973750D01*
X369728Y974225D02*
X377628Y974225D01*
X377628Y974700D02*
X369728Y974700D01*
X369728Y975175D02*
X377628Y975175D01*
X369728Y977750D02*
X369728Y979250D01*
X377628Y979250D01*
X377628Y977750D01*
X369728Y977750D01*
X369728Y978225D02*
X377628Y978225D01*
X377628Y978700D02*
X369728Y978700D01*
X369728Y979175D02*
X377628Y979175D01*
X364578Y982900D02*
X364578Y990800D01*
X366078Y990800D01*
X366078Y982900D01*
X364578Y982900D01*
X364578Y983375D02*
X366078Y983375D01*
X366078Y983850D02*
X364578Y983850D01*
X364578Y984325D02*
X366078Y984325D01*
X366078Y984800D02*
X364578Y984800D01*
X364578Y985275D02*
X366078Y985275D01*
X366078Y985750D02*
X364578Y985750D01*
X364578Y986225D02*
X366078Y986225D01*
X366078Y986700D02*
X364578Y986700D01*
X364578Y987175D02*
X366078Y987175D01*
X366078Y987650D02*
X364578Y987650D01*
X364578Y988125D02*
X366078Y988125D01*
X366078Y988600D02*
X364578Y988600D01*
X364578Y989075D02*
X366078Y989075D01*
X366078Y989550D02*
X364578Y989550D01*
X364578Y990025D02*
X366078Y990025D01*
X366078Y990500D02*
X364578Y990500D01*
X360578Y990800D02*
X360578Y982900D01*
X360578Y990800D02*
X362078Y990800D01*
X362078Y982900D01*
X360578Y982900D01*
X360578Y983375D02*
X362078Y983375D01*
X362078Y983850D02*
X360578Y983850D01*
X360578Y984325D02*
X362078Y984325D01*
X362078Y984800D02*
X360578Y984800D01*
X360578Y985275D02*
X362078Y985275D01*
X362078Y985750D02*
X360578Y985750D01*
X360578Y986225D02*
X362078Y986225D01*
X362078Y986700D02*
X360578Y986700D01*
X360578Y987175D02*
X362078Y987175D01*
X362078Y987650D02*
X360578Y987650D01*
X360578Y988125D02*
X362078Y988125D01*
X362078Y988600D02*
X360578Y988600D01*
X360578Y989075D02*
X362078Y989075D01*
X362078Y989550D02*
X360578Y989550D01*
X360578Y990025D02*
X362078Y990025D01*
X362078Y990500D02*
X360578Y990500D01*
X356578Y990800D02*
X356578Y982900D01*
X356578Y990800D02*
X358078Y990800D01*
X358078Y982900D01*
X356578Y982900D01*
X356578Y983375D02*
X358078Y983375D01*
X358078Y983850D02*
X356578Y983850D01*
X356578Y984325D02*
X358078Y984325D01*
X358078Y984800D02*
X356578Y984800D01*
X356578Y985275D02*
X358078Y985275D01*
X358078Y985750D02*
X356578Y985750D01*
X356578Y986225D02*
X358078Y986225D01*
X358078Y986700D02*
X356578Y986700D01*
X356578Y987175D02*
X358078Y987175D01*
X358078Y987650D02*
X356578Y987650D01*
X356578Y988125D02*
X358078Y988125D01*
X358078Y988600D02*
X356578Y988600D01*
X356578Y989075D02*
X358078Y989075D01*
X358078Y989550D02*
X356578Y989550D01*
X356578Y990025D02*
X358078Y990025D01*
X358078Y990500D02*
X356578Y990500D01*
X352578Y990800D02*
X352578Y982900D01*
X352578Y990800D02*
X354078Y990800D01*
X354078Y982900D01*
X352578Y982900D01*
X352578Y983375D02*
X354078Y983375D01*
X354078Y983850D02*
X352578Y983850D01*
X352578Y984325D02*
X354078Y984325D01*
X354078Y984800D02*
X352578Y984800D01*
X352578Y985275D02*
X354078Y985275D01*
X354078Y985750D02*
X352578Y985750D01*
X352578Y986225D02*
X354078Y986225D01*
X354078Y986700D02*
X352578Y986700D01*
X352578Y987175D02*
X354078Y987175D01*
X354078Y987650D02*
X352578Y987650D01*
X352578Y988125D02*
X354078Y988125D01*
X354078Y988600D02*
X352578Y988600D01*
X352578Y989075D02*
X354078Y989075D01*
X354078Y989550D02*
X352578Y989550D01*
X352578Y990025D02*
X354078Y990025D01*
X354078Y990500D02*
X352578Y990500D01*
X348578Y990800D02*
X348578Y982900D01*
X348578Y990800D02*
X350078Y990800D01*
X350078Y982900D01*
X348578Y982900D01*
X348578Y983375D02*
X350078Y983375D01*
X350078Y983850D02*
X348578Y983850D01*
X348578Y984325D02*
X350078Y984325D01*
X350078Y984800D02*
X348578Y984800D01*
X348578Y985275D02*
X350078Y985275D01*
X350078Y985750D02*
X348578Y985750D01*
X348578Y986225D02*
X350078Y986225D01*
X350078Y986700D02*
X348578Y986700D01*
X348578Y987175D02*
X350078Y987175D01*
X350078Y987650D02*
X348578Y987650D01*
X348578Y988125D02*
X350078Y988125D01*
X350078Y988600D02*
X348578Y988600D01*
X348578Y989075D02*
X350078Y989075D01*
X350078Y989550D02*
X348578Y989550D01*
X348578Y990025D02*
X350078Y990025D01*
X350078Y990500D02*
X348578Y990500D01*
X344578Y990800D02*
X344578Y982900D01*
X344578Y990800D02*
X346078Y990800D01*
X346078Y982900D01*
X344578Y982900D01*
X344578Y983375D02*
X346078Y983375D01*
X346078Y983850D02*
X344578Y983850D01*
X344578Y984325D02*
X346078Y984325D01*
X346078Y984800D02*
X344578Y984800D01*
X344578Y985275D02*
X346078Y985275D01*
X346078Y985750D02*
X344578Y985750D01*
X344578Y986225D02*
X346078Y986225D01*
X346078Y986700D02*
X344578Y986700D01*
X344578Y987175D02*
X346078Y987175D01*
X346078Y987650D02*
X344578Y987650D01*
X344578Y988125D02*
X346078Y988125D01*
X346078Y988600D02*
X344578Y988600D01*
X344578Y989075D02*
X346078Y989075D01*
X346078Y989550D02*
X344578Y989550D01*
X344578Y990025D02*
X346078Y990025D01*
X346078Y990500D02*
X344578Y990500D01*
X340578Y990800D02*
X340578Y982900D01*
X340578Y990800D02*
X342078Y990800D01*
X342078Y982900D01*
X340578Y982900D01*
X340578Y983375D02*
X342078Y983375D01*
X342078Y983850D02*
X340578Y983850D01*
X340578Y984325D02*
X342078Y984325D01*
X342078Y984800D02*
X340578Y984800D01*
X340578Y985275D02*
X342078Y985275D01*
X342078Y985750D02*
X340578Y985750D01*
X340578Y986225D02*
X342078Y986225D01*
X342078Y986700D02*
X340578Y986700D01*
X340578Y987175D02*
X342078Y987175D01*
X342078Y987650D02*
X340578Y987650D01*
X340578Y988125D02*
X342078Y988125D01*
X342078Y988600D02*
X340578Y988600D01*
X340578Y989075D02*
X342078Y989075D01*
X342078Y989550D02*
X340578Y989550D01*
X340578Y990025D02*
X342078Y990025D01*
X342078Y990500D02*
X340578Y990500D01*
X336578Y990800D02*
X336578Y982900D01*
X336578Y990800D02*
X338078Y990800D01*
X338078Y982900D01*
X336578Y982900D01*
X336578Y983375D02*
X338078Y983375D01*
X338078Y983850D02*
X336578Y983850D01*
X336578Y984325D02*
X338078Y984325D01*
X338078Y984800D02*
X336578Y984800D01*
X336578Y985275D02*
X338078Y985275D01*
X338078Y985750D02*
X336578Y985750D01*
X336578Y986225D02*
X338078Y986225D01*
X338078Y986700D02*
X336578Y986700D01*
X336578Y987175D02*
X338078Y987175D01*
X338078Y987650D02*
X336578Y987650D01*
X336578Y988125D02*
X338078Y988125D01*
X338078Y988600D02*
X336578Y988600D01*
X336578Y989075D02*
X338078Y989075D01*
X338078Y989550D02*
X336578Y989550D01*
X336578Y990025D02*
X338078Y990025D01*
X338078Y990500D02*
X336578Y990500D01*
X332578Y990800D02*
X332578Y982900D01*
X332578Y990800D02*
X334078Y990800D01*
X334078Y982900D01*
X332578Y982900D01*
X332578Y983375D02*
X334078Y983375D01*
X334078Y983850D02*
X332578Y983850D01*
X332578Y984325D02*
X334078Y984325D01*
X334078Y984800D02*
X332578Y984800D01*
X332578Y985275D02*
X334078Y985275D01*
X334078Y985750D02*
X332578Y985750D01*
X332578Y986225D02*
X334078Y986225D01*
X334078Y986700D02*
X332578Y986700D01*
X332578Y987175D02*
X334078Y987175D01*
X334078Y987650D02*
X332578Y987650D01*
X332578Y988125D02*
X334078Y988125D01*
X334078Y988600D02*
X332578Y988600D01*
X332578Y989075D02*
X334078Y989075D01*
X334078Y989550D02*
X332578Y989550D01*
X332578Y990025D02*
X334078Y990025D01*
X334078Y990500D02*
X332578Y990500D01*
X328578Y990800D02*
X328578Y982900D01*
X328578Y990800D02*
X330078Y990800D01*
X330078Y982900D01*
X328578Y982900D01*
X328578Y983375D02*
X330078Y983375D01*
X330078Y983850D02*
X328578Y983850D01*
X328578Y984325D02*
X330078Y984325D01*
X330078Y984800D02*
X328578Y984800D01*
X328578Y985275D02*
X330078Y985275D01*
X330078Y985750D02*
X328578Y985750D01*
X328578Y986225D02*
X330078Y986225D01*
X330078Y986700D02*
X328578Y986700D01*
X328578Y987175D02*
X330078Y987175D01*
X330078Y987650D02*
X328578Y987650D01*
X328578Y988125D02*
X330078Y988125D01*
X330078Y988600D02*
X328578Y988600D01*
X328578Y989075D02*
X330078Y989075D01*
X330078Y989550D02*
X328578Y989550D01*
X328578Y990025D02*
X330078Y990025D01*
X330078Y990500D02*
X328578Y990500D01*
X324578Y990800D02*
X324578Y982900D01*
X324578Y990800D02*
X326078Y990800D01*
X326078Y982900D01*
X324578Y982900D01*
X324578Y983375D02*
X326078Y983375D01*
X326078Y983850D02*
X324578Y983850D01*
X324578Y984325D02*
X326078Y984325D01*
X326078Y984800D02*
X324578Y984800D01*
X324578Y985275D02*
X326078Y985275D01*
X326078Y985750D02*
X324578Y985750D01*
X324578Y986225D02*
X326078Y986225D01*
X326078Y986700D02*
X324578Y986700D01*
X324578Y987175D02*
X326078Y987175D01*
X326078Y987650D02*
X324578Y987650D01*
X324578Y988125D02*
X326078Y988125D01*
X326078Y988600D02*
X324578Y988600D01*
X324578Y989075D02*
X326078Y989075D01*
X326078Y989550D02*
X324578Y989550D01*
X324578Y990025D02*
X326078Y990025D01*
X326078Y990500D02*
X324578Y990500D01*
X320578Y990800D02*
X320578Y982900D01*
X320578Y990800D02*
X322078Y990800D01*
X322078Y982900D01*
X320578Y982900D01*
X320578Y983375D02*
X322078Y983375D01*
X322078Y983850D02*
X320578Y983850D01*
X320578Y984325D02*
X322078Y984325D01*
X322078Y984800D02*
X320578Y984800D01*
X320578Y985275D02*
X322078Y985275D01*
X322078Y985750D02*
X320578Y985750D01*
X320578Y986225D02*
X322078Y986225D01*
X322078Y986700D02*
X320578Y986700D01*
X320578Y987175D02*
X322078Y987175D01*
X322078Y987650D02*
X320578Y987650D01*
X320578Y988125D02*
X322078Y988125D01*
X322078Y988600D02*
X320578Y988600D01*
X320578Y989075D02*
X322078Y989075D01*
X322078Y989550D02*
X320578Y989550D01*
X320578Y990025D02*
X322078Y990025D01*
X322078Y990500D02*
X320578Y990500D01*
X316578Y990800D02*
X316578Y982900D01*
X316578Y990800D02*
X318078Y990800D01*
X318078Y982900D01*
X316578Y982900D01*
X316578Y983375D02*
X318078Y983375D01*
X318078Y983850D02*
X316578Y983850D01*
X316578Y984325D02*
X318078Y984325D01*
X318078Y984800D02*
X316578Y984800D01*
X316578Y985275D02*
X318078Y985275D01*
X318078Y985750D02*
X316578Y985750D01*
X316578Y986225D02*
X318078Y986225D01*
X318078Y986700D02*
X316578Y986700D01*
X316578Y987175D02*
X318078Y987175D01*
X318078Y987650D02*
X316578Y987650D01*
X316578Y988125D02*
X318078Y988125D01*
X318078Y988600D02*
X316578Y988600D01*
X316578Y989075D02*
X318078Y989075D01*
X318078Y989550D02*
X316578Y989550D01*
X316578Y990025D02*
X318078Y990025D01*
X318078Y990500D02*
X316578Y990500D01*
X312578Y990800D02*
X312578Y982900D01*
X312578Y990800D02*
X314078Y990800D01*
X314078Y982900D01*
X312578Y982900D01*
X312578Y983375D02*
X314078Y983375D01*
X314078Y983850D02*
X312578Y983850D01*
X312578Y984325D02*
X314078Y984325D01*
X314078Y984800D02*
X312578Y984800D01*
X312578Y985275D02*
X314078Y985275D01*
X314078Y985750D02*
X312578Y985750D01*
X312578Y986225D02*
X314078Y986225D01*
X314078Y986700D02*
X312578Y986700D01*
X312578Y987175D02*
X314078Y987175D01*
X314078Y987650D02*
X312578Y987650D01*
X312578Y988125D02*
X314078Y988125D01*
X314078Y988600D02*
X312578Y988600D01*
X312578Y989075D02*
X314078Y989075D01*
X314078Y989550D02*
X312578Y989550D01*
X312578Y990025D02*
X314078Y990025D01*
X314078Y990500D02*
X312578Y990500D01*
X312578Y922100D02*
X312578Y914200D01*
X312578Y922100D02*
X314078Y922100D01*
X314078Y914200D01*
X312578Y914200D01*
X312578Y914675D02*
X314078Y914675D01*
X314078Y915150D02*
X312578Y915150D01*
X312578Y915625D02*
X314078Y915625D01*
X314078Y916100D02*
X312578Y916100D01*
X312578Y916575D02*
X314078Y916575D01*
X314078Y917050D02*
X312578Y917050D01*
X312578Y917525D02*
X314078Y917525D01*
X314078Y918000D02*
X312578Y918000D01*
X312578Y918475D02*
X314078Y918475D01*
X314078Y918950D02*
X312578Y918950D01*
X312578Y919425D02*
X314078Y919425D01*
X314078Y919900D02*
X312578Y919900D01*
X312578Y920375D02*
X314078Y920375D01*
X314078Y920850D02*
X312578Y920850D01*
X312578Y921325D02*
X314078Y921325D01*
X314078Y921800D02*
X312578Y921800D01*
X316578Y922100D02*
X316578Y914200D01*
X316578Y922100D02*
X318078Y922100D01*
X318078Y914200D01*
X316578Y914200D01*
X316578Y914675D02*
X318078Y914675D01*
X318078Y915150D02*
X316578Y915150D01*
X316578Y915625D02*
X318078Y915625D01*
X318078Y916100D02*
X316578Y916100D01*
X316578Y916575D02*
X318078Y916575D01*
X318078Y917050D02*
X316578Y917050D01*
X316578Y917525D02*
X318078Y917525D01*
X318078Y918000D02*
X316578Y918000D01*
X316578Y918475D02*
X318078Y918475D01*
X318078Y918950D02*
X316578Y918950D01*
X316578Y919425D02*
X318078Y919425D01*
X318078Y919900D02*
X316578Y919900D01*
X316578Y920375D02*
X318078Y920375D01*
X318078Y920850D02*
X316578Y920850D01*
X316578Y921325D02*
X318078Y921325D01*
X318078Y921800D02*
X316578Y921800D01*
X320578Y922100D02*
X320578Y914200D01*
X320578Y922100D02*
X322078Y922100D01*
X322078Y914200D01*
X320578Y914200D01*
X320578Y914675D02*
X322078Y914675D01*
X322078Y915150D02*
X320578Y915150D01*
X320578Y915625D02*
X322078Y915625D01*
X322078Y916100D02*
X320578Y916100D01*
X320578Y916575D02*
X322078Y916575D01*
X322078Y917050D02*
X320578Y917050D01*
X320578Y917525D02*
X322078Y917525D01*
X322078Y918000D02*
X320578Y918000D01*
X320578Y918475D02*
X322078Y918475D01*
X322078Y918950D02*
X320578Y918950D01*
X320578Y919425D02*
X322078Y919425D01*
X322078Y919900D02*
X320578Y919900D01*
X320578Y920375D02*
X322078Y920375D01*
X322078Y920850D02*
X320578Y920850D01*
X320578Y921325D02*
X322078Y921325D01*
X322078Y921800D02*
X320578Y921800D01*
X324578Y922100D02*
X324578Y914200D01*
X324578Y922100D02*
X326078Y922100D01*
X326078Y914200D01*
X324578Y914200D01*
X324578Y914675D02*
X326078Y914675D01*
X326078Y915150D02*
X324578Y915150D01*
X324578Y915625D02*
X326078Y915625D01*
X326078Y916100D02*
X324578Y916100D01*
X324578Y916575D02*
X326078Y916575D01*
X326078Y917050D02*
X324578Y917050D01*
X324578Y917525D02*
X326078Y917525D01*
X326078Y918000D02*
X324578Y918000D01*
X324578Y918475D02*
X326078Y918475D01*
X326078Y918950D02*
X324578Y918950D01*
X324578Y919425D02*
X326078Y919425D01*
X326078Y919900D02*
X324578Y919900D01*
X324578Y920375D02*
X326078Y920375D01*
X326078Y920850D02*
X324578Y920850D01*
X324578Y921325D02*
X326078Y921325D01*
X326078Y921800D02*
X324578Y921800D01*
X328578Y922100D02*
X328578Y914200D01*
X328578Y922100D02*
X330078Y922100D01*
X330078Y914200D01*
X328578Y914200D01*
X328578Y914675D02*
X330078Y914675D01*
X330078Y915150D02*
X328578Y915150D01*
X328578Y915625D02*
X330078Y915625D01*
X330078Y916100D02*
X328578Y916100D01*
X328578Y916575D02*
X330078Y916575D01*
X330078Y917050D02*
X328578Y917050D01*
X328578Y917525D02*
X330078Y917525D01*
X330078Y918000D02*
X328578Y918000D01*
X328578Y918475D02*
X330078Y918475D01*
X330078Y918950D02*
X328578Y918950D01*
X328578Y919425D02*
X330078Y919425D01*
X330078Y919900D02*
X328578Y919900D01*
X328578Y920375D02*
X330078Y920375D01*
X330078Y920850D02*
X328578Y920850D01*
X328578Y921325D02*
X330078Y921325D01*
X330078Y921800D02*
X328578Y921800D01*
X332578Y922100D02*
X332578Y914200D01*
X332578Y922100D02*
X334078Y922100D01*
X334078Y914200D01*
X332578Y914200D01*
X332578Y914675D02*
X334078Y914675D01*
X334078Y915150D02*
X332578Y915150D01*
X332578Y915625D02*
X334078Y915625D01*
X334078Y916100D02*
X332578Y916100D01*
X332578Y916575D02*
X334078Y916575D01*
X334078Y917050D02*
X332578Y917050D01*
X332578Y917525D02*
X334078Y917525D01*
X334078Y918000D02*
X332578Y918000D01*
X332578Y918475D02*
X334078Y918475D01*
X334078Y918950D02*
X332578Y918950D01*
X332578Y919425D02*
X334078Y919425D01*
X334078Y919900D02*
X332578Y919900D01*
X332578Y920375D02*
X334078Y920375D01*
X334078Y920850D02*
X332578Y920850D01*
X332578Y921325D02*
X334078Y921325D01*
X334078Y921800D02*
X332578Y921800D01*
X336578Y922100D02*
X336578Y914200D01*
X336578Y922100D02*
X338078Y922100D01*
X338078Y914200D01*
X336578Y914200D01*
X336578Y914675D02*
X338078Y914675D01*
X338078Y915150D02*
X336578Y915150D01*
X336578Y915625D02*
X338078Y915625D01*
X338078Y916100D02*
X336578Y916100D01*
X336578Y916575D02*
X338078Y916575D01*
X338078Y917050D02*
X336578Y917050D01*
X336578Y917525D02*
X338078Y917525D01*
X338078Y918000D02*
X336578Y918000D01*
X336578Y918475D02*
X338078Y918475D01*
X338078Y918950D02*
X336578Y918950D01*
X336578Y919425D02*
X338078Y919425D01*
X338078Y919900D02*
X336578Y919900D01*
X336578Y920375D02*
X338078Y920375D01*
X338078Y920850D02*
X336578Y920850D01*
X336578Y921325D02*
X338078Y921325D01*
X338078Y921800D02*
X336578Y921800D01*
X340578Y922100D02*
X340578Y914200D01*
X340578Y922100D02*
X342078Y922100D01*
X342078Y914200D01*
X340578Y914200D01*
X340578Y914675D02*
X342078Y914675D01*
X342078Y915150D02*
X340578Y915150D01*
X340578Y915625D02*
X342078Y915625D01*
X342078Y916100D02*
X340578Y916100D01*
X340578Y916575D02*
X342078Y916575D01*
X342078Y917050D02*
X340578Y917050D01*
X340578Y917525D02*
X342078Y917525D01*
X342078Y918000D02*
X340578Y918000D01*
X340578Y918475D02*
X342078Y918475D01*
X342078Y918950D02*
X340578Y918950D01*
X340578Y919425D02*
X342078Y919425D01*
X342078Y919900D02*
X340578Y919900D01*
X340578Y920375D02*
X342078Y920375D01*
X342078Y920850D02*
X340578Y920850D01*
X340578Y921325D02*
X342078Y921325D01*
X342078Y921800D02*
X340578Y921800D01*
X344578Y922100D02*
X344578Y914200D01*
X344578Y922100D02*
X346078Y922100D01*
X346078Y914200D01*
X344578Y914200D01*
X344578Y914675D02*
X346078Y914675D01*
X346078Y915150D02*
X344578Y915150D01*
X344578Y915625D02*
X346078Y915625D01*
X346078Y916100D02*
X344578Y916100D01*
X344578Y916575D02*
X346078Y916575D01*
X346078Y917050D02*
X344578Y917050D01*
X344578Y917525D02*
X346078Y917525D01*
X346078Y918000D02*
X344578Y918000D01*
X344578Y918475D02*
X346078Y918475D01*
X346078Y918950D02*
X344578Y918950D01*
X344578Y919425D02*
X346078Y919425D01*
X346078Y919900D02*
X344578Y919900D01*
X344578Y920375D02*
X346078Y920375D01*
X346078Y920850D02*
X344578Y920850D01*
X344578Y921325D02*
X346078Y921325D01*
X346078Y921800D02*
X344578Y921800D01*
X348578Y922100D02*
X348578Y914200D01*
X348578Y922100D02*
X350078Y922100D01*
X350078Y914200D01*
X348578Y914200D01*
X348578Y914675D02*
X350078Y914675D01*
X350078Y915150D02*
X348578Y915150D01*
X348578Y915625D02*
X350078Y915625D01*
X350078Y916100D02*
X348578Y916100D01*
X348578Y916575D02*
X350078Y916575D01*
X350078Y917050D02*
X348578Y917050D01*
X348578Y917525D02*
X350078Y917525D01*
X350078Y918000D02*
X348578Y918000D01*
X348578Y918475D02*
X350078Y918475D01*
X350078Y918950D02*
X348578Y918950D01*
X348578Y919425D02*
X350078Y919425D01*
X350078Y919900D02*
X348578Y919900D01*
X348578Y920375D02*
X350078Y920375D01*
X350078Y920850D02*
X348578Y920850D01*
X348578Y921325D02*
X350078Y921325D01*
X350078Y921800D02*
X348578Y921800D01*
X352578Y922100D02*
X352578Y914200D01*
X352578Y922100D02*
X354078Y922100D01*
X354078Y914200D01*
X352578Y914200D01*
X352578Y914675D02*
X354078Y914675D01*
X354078Y915150D02*
X352578Y915150D01*
X352578Y915625D02*
X354078Y915625D01*
X354078Y916100D02*
X352578Y916100D01*
X352578Y916575D02*
X354078Y916575D01*
X354078Y917050D02*
X352578Y917050D01*
X352578Y917525D02*
X354078Y917525D01*
X354078Y918000D02*
X352578Y918000D01*
X352578Y918475D02*
X354078Y918475D01*
X354078Y918950D02*
X352578Y918950D01*
X352578Y919425D02*
X354078Y919425D01*
X354078Y919900D02*
X352578Y919900D01*
X352578Y920375D02*
X354078Y920375D01*
X354078Y920850D02*
X352578Y920850D01*
X352578Y921325D02*
X354078Y921325D01*
X354078Y921800D02*
X352578Y921800D01*
X356578Y922100D02*
X356578Y914200D01*
X356578Y922100D02*
X358078Y922100D01*
X358078Y914200D01*
X356578Y914200D01*
X356578Y914675D02*
X358078Y914675D01*
X358078Y915150D02*
X356578Y915150D01*
X356578Y915625D02*
X358078Y915625D01*
X358078Y916100D02*
X356578Y916100D01*
X356578Y916575D02*
X358078Y916575D01*
X358078Y917050D02*
X356578Y917050D01*
X356578Y917525D02*
X358078Y917525D01*
X358078Y918000D02*
X356578Y918000D01*
X356578Y918475D02*
X358078Y918475D01*
X358078Y918950D02*
X356578Y918950D01*
X356578Y919425D02*
X358078Y919425D01*
X358078Y919900D02*
X356578Y919900D01*
X356578Y920375D02*
X358078Y920375D01*
X358078Y920850D02*
X356578Y920850D01*
X356578Y921325D02*
X358078Y921325D01*
X358078Y921800D02*
X356578Y921800D01*
X360578Y922100D02*
X360578Y914200D01*
X360578Y922100D02*
X362078Y922100D01*
X362078Y914200D01*
X360578Y914200D01*
X360578Y914675D02*
X362078Y914675D01*
X362078Y915150D02*
X360578Y915150D01*
X360578Y915625D02*
X362078Y915625D01*
X362078Y916100D02*
X360578Y916100D01*
X360578Y916575D02*
X362078Y916575D01*
X362078Y917050D02*
X360578Y917050D01*
X360578Y917525D02*
X362078Y917525D01*
X362078Y918000D02*
X360578Y918000D01*
X360578Y918475D02*
X362078Y918475D01*
X362078Y918950D02*
X360578Y918950D01*
X360578Y919425D02*
X362078Y919425D01*
X362078Y919900D02*
X360578Y919900D01*
X360578Y920375D02*
X362078Y920375D01*
X362078Y920850D02*
X360578Y920850D01*
X360578Y921325D02*
X362078Y921325D01*
X362078Y921800D02*
X360578Y921800D01*
X364578Y922100D02*
X364578Y914200D01*
X364578Y922100D02*
X366078Y922100D01*
X366078Y914200D01*
X364578Y914200D01*
X364578Y914675D02*
X366078Y914675D01*
X366078Y915150D02*
X364578Y915150D01*
X364578Y915625D02*
X366078Y915625D01*
X366078Y916100D02*
X364578Y916100D01*
X364578Y916575D02*
X366078Y916575D01*
X366078Y917050D02*
X364578Y917050D01*
X364578Y917525D02*
X366078Y917525D01*
X366078Y918000D02*
X364578Y918000D01*
X364578Y918475D02*
X366078Y918475D01*
X366078Y918950D02*
X364578Y918950D01*
X364578Y919425D02*
X366078Y919425D01*
X366078Y919900D02*
X364578Y919900D01*
X364578Y920375D02*
X366078Y920375D01*
X366078Y920850D02*
X364578Y920850D01*
X364578Y921325D02*
X366078Y921325D01*
X366078Y921800D02*
X364578Y921800D01*
D13*
X588391Y1026716D03*
X649859Y1026716D03*
X588391Y1014016D03*
X588391Y1001316D03*
X649859Y1014016D03*
X649859Y1001316D03*
X588391Y988616D03*
X649859Y988616D03*
X588391Y975916D03*
X649859Y975916D03*
X588391Y963216D03*
X588391Y950516D03*
X649859Y963216D03*
X649859Y950516D03*
X588391Y937816D03*
X649859Y937816D03*
D14*
X508750Y972988D03*
X500750Y972988D03*
D15*
X478750Y972988D03*
X483750Y972988D03*
X488750Y972988D03*
X493750Y972988D03*
X473750Y972988D03*
X468750Y972988D03*
X463750Y972988D03*
X458750Y972988D03*
D14*
X451750Y972988D03*
X443750Y972988D03*
D16*
X614125Y919758D03*
X624125Y919758D03*
X614125Y907852D03*
X624125Y907852D03*
M02*
