G04 EAGLE Gerber RS-274X export*
G75*
%MOMM*%
%FSLAX34Y34*%
%LPD*%
%INSoldermask Top*%
%IPPOS*%
%AMOC8*
5,1,8,0,0,1.08239X$1,22.5*%
G01*
%ADD10C,4.203200*%
%ADD11C,2.004800*%
%ADD12C,3.203200*%
%ADD13C,0.961200*%
%ADD14R,1.853200X1.853200*%
%ADD15C,1.853200*%
%ADD16C,3.203200*%
%ADD17P,2.309387X8X112.500000*%
%ADD18P,2.309387X8X292.500000*%
%ADD19C,1.981200*%
%ADD20C,0.344606*%
%ADD21C,0.254016*%
%ADD22R,3.303200X3.303200*%
%ADD23C,1.625600*%
%ADD24C,3.530600*%
%ADD25R,2.235200X0.863600*%
%ADD26R,0.803200X1.653200*%
%ADD27R,0.503200X1.653200*%
%ADD28C,1.361200*%
%ADD29C,0.903200*%
%ADD30R,0.803200X0.903200*%
%ADD31C,1.473200*%
%ADD32C,3.319200*%


D10*
X190500Y571500D03*
D11*
X139700Y571500D03*
X241300Y571500D03*
D12*
X152400Y596900D03*
X215900Y622300D03*
D13*
X114300Y603250D03*
X114300Y590550D03*
X254000Y628650D03*
X254000Y615950D03*
D10*
X381000Y571500D03*
D11*
X330200Y571500D03*
X431800Y571500D03*
D12*
X342900Y596900D03*
X406400Y622300D03*
D13*
X304800Y603250D03*
X304800Y590550D03*
X444500Y628650D03*
X444500Y615950D03*
D10*
X571500Y571500D03*
D11*
X520700Y571500D03*
X622300Y571500D03*
D12*
X533400Y596900D03*
X596900Y622300D03*
D13*
X495300Y603250D03*
X495300Y590550D03*
X635000Y628650D03*
X635000Y615950D03*
D10*
X762000Y571500D03*
D11*
X711200Y571500D03*
X812800Y571500D03*
D12*
X723900Y596900D03*
X787400Y622300D03*
D13*
X685800Y603250D03*
X685800Y590550D03*
X825500Y628650D03*
X825500Y615950D03*
D10*
X190500Y381000D03*
D11*
X139700Y381000D03*
X241300Y381000D03*
D12*
X152400Y406400D03*
X215900Y431800D03*
D13*
X114300Y412750D03*
X114300Y400050D03*
X254000Y438150D03*
X254000Y425450D03*
D10*
X381000Y381000D03*
D11*
X330200Y381000D03*
X431800Y381000D03*
D12*
X342900Y406400D03*
X406400Y431800D03*
D13*
X304800Y412750D03*
X304800Y400050D03*
X444500Y438150D03*
X444500Y425450D03*
D10*
X571500Y381000D03*
D11*
X520700Y381000D03*
X622300Y381000D03*
D12*
X533400Y406400D03*
X596900Y431800D03*
D13*
X495300Y412750D03*
X495300Y400050D03*
X635000Y438150D03*
X635000Y425450D03*
D10*
X762000Y381000D03*
D11*
X711200Y381000D03*
X812800Y381000D03*
D12*
X723900Y406400D03*
X787400Y431800D03*
D13*
X685800Y412750D03*
X685800Y400050D03*
X825500Y438150D03*
X825500Y425450D03*
D10*
X190500Y190500D03*
D11*
X139700Y190500D03*
X241300Y190500D03*
D12*
X152400Y215900D03*
X215900Y241300D03*
D13*
X114300Y222250D03*
X114300Y209550D03*
X254000Y247650D03*
X254000Y234950D03*
D10*
X381000Y190500D03*
D11*
X330200Y190500D03*
X431800Y190500D03*
D12*
X342900Y215900D03*
X406400Y241300D03*
D13*
X304800Y222250D03*
X304800Y209550D03*
X444500Y247650D03*
X444500Y234950D03*
D10*
X571500Y190500D03*
D11*
X520700Y190500D03*
X622300Y190500D03*
D12*
X533400Y215900D03*
X596900Y241300D03*
D13*
X495300Y222250D03*
X495300Y209550D03*
X635000Y247650D03*
X635000Y234950D03*
D10*
X762000Y190500D03*
D11*
X711200Y190500D03*
X812800Y190500D03*
D12*
X723900Y215900D03*
X787400Y241300D03*
D13*
X685800Y222250D03*
X685800Y209550D03*
X825500Y247650D03*
X825500Y234950D03*
D14*
X165500Y855813D03*
D15*
X215500Y855813D03*
X165500Y710813D03*
X190500Y710813D03*
X215500Y710813D03*
D16*
X133500Y770813D02*
X133500Y800813D01*
X247500Y800813D02*
X247500Y770813D01*
D14*
X356000Y855813D03*
D15*
X406000Y855813D03*
X356000Y710813D03*
X381000Y710813D03*
X406000Y710813D03*
D16*
X324000Y770813D02*
X324000Y800813D01*
X438000Y800813D02*
X438000Y770813D01*
D14*
X546500Y855813D03*
D15*
X596500Y855813D03*
X546500Y710813D03*
X571500Y710813D03*
X596500Y710813D03*
D16*
X514500Y770813D02*
X514500Y800813D01*
X628500Y800813D02*
X628500Y770813D01*
D14*
X737000Y855813D03*
D15*
X787000Y855813D03*
X737000Y710813D03*
X762000Y710813D03*
X787000Y710813D03*
D16*
X705000Y770813D02*
X705000Y800813D01*
X819000Y800813D02*
X819000Y770813D01*
D17*
X89297Y1003102D03*
D18*
X89297Y845344D03*
D19*
X89297Y1026914D03*
X89297Y821531D03*
D20*
X504957Y893971D02*
X519643Y893971D01*
X519643Y889585D01*
X504957Y889585D01*
X504957Y893971D01*
X504957Y892859D02*
X519643Y892859D01*
X519643Y906671D02*
X504957Y906671D01*
X519643Y906671D02*
X519643Y902285D01*
X504957Y902285D01*
X504957Y906671D01*
X504957Y905559D02*
X519643Y905559D01*
X519643Y919371D02*
X504957Y919371D01*
X519643Y919371D02*
X519643Y914985D01*
X504957Y914985D01*
X504957Y919371D01*
X504957Y918259D02*
X519643Y918259D01*
X519643Y932071D02*
X504957Y932071D01*
X519643Y932071D02*
X519643Y927685D01*
X504957Y927685D01*
X504957Y932071D01*
X504957Y930959D02*
X519643Y930959D01*
X447543Y932071D02*
X432857Y932071D01*
X447543Y932071D02*
X447543Y927685D01*
X432857Y927685D01*
X432857Y932071D01*
X432857Y930959D02*
X447543Y930959D01*
X447543Y919371D02*
X432857Y919371D01*
X447543Y919371D02*
X447543Y914985D01*
X432857Y914985D01*
X432857Y919371D01*
X432857Y918259D02*
X447543Y918259D01*
X447543Y906671D02*
X432857Y906671D01*
X447543Y906671D02*
X447543Y902285D01*
X432857Y902285D01*
X432857Y906671D01*
X432857Y905559D02*
X447543Y905559D01*
X447543Y893971D02*
X432857Y893971D01*
X447543Y893971D02*
X447543Y889585D01*
X432857Y889585D01*
X432857Y893971D01*
X432857Y892859D02*
X447543Y892859D01*
D21*
X301032Y977754D02*
X301032Y979246D01*
X308924Y979246D01*
X308924Y977754D01*
X301032Y977754D01*
X301032Y975246D02*
X301032Y973754D01*
X301032Y975246D02*
X308924Y975246D01*
X308924Y973754D01*
X301032Y973754D01*
X301032Y971246D02*
X301032Y969754D01*
X301032Y971246D02*
X308924Y971246D01*
X308924Y969754D01*
X301032Y969754D01*
X301032Y967246D02*
X301032Y965754D01*
X301032Y967246D02*
X308924Y967246D01*
X308924Y965754D01*
X301032Y965754D01*
X301032Y963246D02*
X301032Y961754D01*
X301032Y963246D02*
X308924Y963246D01*
X308924Y961754D01*
X301032Y961754D01*
X301032Y959246D02*
X301032Y957754D01*
X301032Y959246D02*
X308924Y959246D01*
X308924Y957754D01*
X301032Y957754D01*
X301032Y955246D02*
X301032Y953754D01*
X301032Y955246D02*
X308924Y955246D01*
X308924Y953754D01*
X301032Y953754D01*
X301032Y951246D02*
X301032Y949754D01*
X301032Y951246D02*
X308924Y951246D01*
X308924Y949754D01*
X301032Y949754D01*
X301032Y947246D02*
X301032Y945754D01*
X301032Y947246D02*
X308924Y947246D01*
X308924Y945754D01*
X301032Y945754D01*
X301032Y943246D02*
X301032Y941754D01*
X301032Y943246D02*
X308924Y943246D01*
X308924Y941754D01*
X301032Y941754D01*
X301032Y939246D02*
X301032Y937754D01*
X301032Y939246D02*
X308924Y939246D01*
X308924Y937754D01*
X301032Y937754D01*
X301032Y935246D02*
X301032Y933754D01*
X301032Y935246D02*
X308924Y935246D01*
X308924Y933754D01*
X301032Y933754D01*
X301032Y931246D02*
X301032Y929754D01*
X301032Y931246D02*
X308924Y931246D01*
X308924Y929754D01*
X301032Y929754D01*
X301032Y927246D02*
X301032Y925754D01*
X301032Y927246D02*
X308924Y927246D01*
X308924Y925754D01*
X301032Y925754D01*
X369732Y925754D02*
X369732Y927246D01*
X377624Y927246D01*
X377624Y925754D01*
X369732Y925754D01*
X369732Y929754D02*
X369732Y931246D01*
X377624Y931246D01*
X377624Y929754D01*
X369732Y929754D01*
X369732Y933754D02*
X369732Y935246D01*
X377624Y935246D01*
X377624Y933754D01*
X369732Y933754D01*
X369732Y937754D02*
X369732Y939246D01*
X377624Y939246D01*
X377624Y937754D01*
X369732Y937754D01*
X369732Y941754D02*
X369732Y943246D01*
X377624Y943246D01*
X377624Y941754D01*
X369732Y941754D01*
X369732Y945754D02*
X369732Y947246D01*
X377624Y947246D01*
X377624Y945754D01*
X369732Y945754D01*
X369732Y949754D02*
X369732Y951246D01*
X377624Y951246D01*
X377624Y949754D01*
X369732Y949754D01*
X369732Y953754D02*
X369732Y955246D01*
X377624Y955246D01*
X377624Y953754D01*
X369732Y953754D01*
X369732Y957754D02*
X369732Y959246D01*
X377624Y959246D01*
X377624Y957754D01*
X369732Y957754D01*
X369732Y961754D02*
X369732Y963246D01*
X377624Y963246D01*
X377624Y961754D01*
X369732Y961754D01*
X369732Y965754D02*
X369732Y967246D01*
X377624Y967246D01*
X377624Y965754D01*
X369732Y965754D01*
X369732Y969754D02*
X369732Y971246D01*
X377624Y971246D01*
X377624Y969754D01*
X369732Y969754D01*
X369732Y973754D02*
X369732Y975246D01*
X377624Y975246D01*
X377624Y973754D01*
X369732Y973754D01*
X369732Y977754D02*
X369732Y979246D01*
X377624Y979246D01*
X377624Y977754D01*
X369732Y977754D01*
X364582Y982904D02*
X364582Y990796D01*
X366074Y990796D01*
X366074Y982904D01*
X364582Y982904D01*
X364582Y985317D02*
X366074Y985317D01*
X366074Y987730D02*
X364582Y987730D01*
X364582Y990143D02*
X366074Y990143D01*
X360582Y990796D02*
X360582Y982904D01*
X360582Y990796D02*
X362074Y990796D01*
X362074Y982904D01*
X360582Y982904D01*
X360582Y985317D02*
X362074Y985317D01*
X362074Y987730D02*
X360582Y987730D01*
X360582Y990143D02*
X362074Y990143D01*
X356582Y990796D02*
X356582Y982904D01*
X356582Y990796D02*
X358074Y990796D01*
X358074Y982904D01*
X356582Y982904D01*
X356582Y985317D02*
X358074Y985317D01*
X358074Y987730D02*
X356582Y987730D01*
X356582Y990143D02*
X358074Y990143D01*
X352582Y990796D02*
X352582Y982904D01*
X352582Y990796D02*
X354074Y990796D01*
X354074Y982904D01*
X352582Y982904D01*
X352582Y985317D02*
X354074Y985317D01*
X354074Y987730D02*
X352582Y987730D01*
X352582Y990143D02*
X354074Y990143D01*
X348582Y990796D02*
X348582Y982904D01*
X348582Y990796D02*
X350074Y990796D01*
X350074Y982904D01*
X348582Y982904D01*
X348582Y985317D02*
X350074Y985317D01*
X350074Y987730D02*
X348582Y987730D01*
X348582Y990143D02*
X350074Y990143D01*
X344582Y990796D02*
X344582Y982904D01*
X344582Y990796D02*
X346074Y990796D01*
X346074Y982904D01*
X344582Y982904D01*
X344582Y985317D02*
X346074Y985317D01*
X346074Y987730D02*
X344582Y987730D01*
X344582Y990143D02*
X346074Y990143D01*
X340582Y990796D02*
X340582Y982904D01*
X340582Y990796D02*
X342074Y990796D01*
X342074Y982904D01*
X340582Y982904D01*
X340582Y985317D02*
X342074Y985317D01*
X342074Y987730D02*
X340582Y987730D01*
X340582Y990143D02*
X342074Y990143D01*
X336582Y990796D02*
X336582Y982904D01*
X336582Y990796D02*
X338074Y990796D01*
X338074Y982904D01*
X336582Y982904D01*
X336582Y985317D02*
X338074Y985317D01*
X338074Y987730D02*
X336582Y987730D01*
X336582Y990143D02*
X338074Y990143D01*
X332582Y990796D02*
X332582Y982904D01*
X332582Y990796D02*
X334074Y990796D01*
X334074Y982904D01*
X332582Y982904D01*
X332582Y985317D02*
X334074Y985317D01*
X334074Y987730D02*
X332582Y987730D01*
X332582Y990143D02*
X334074Y990143D01*
X328582Y990796D02*
X328582Y982904D01*
X328582Y990796D02*
X330074Y990796D01*
X330074Y982904D01*
X328582Y982904D01*
X328582Y985317D02*
X330074Y985317D01*
X330074Y987730D02*
X328582Y987730D01*
X328582Y990143D02*
X330074Y990143D01*
X324582Y990796D02*
X324582Y982904D01*
X324582Y990796D02*
X326074Y990796D01*
X326074Y982904D01*
X324582Y982904D01*
X324582Y985317D02*
X326074Y985317D01*
X326074Y987730D02*
X324582Y987730D01*
X324582Y990143D02*
X326074Y990143D01*
X320582Y990796D02*
X320582Y982904D01*
X320582Y990796D02*
X322074Y990796D01*
X322074Y982904D01*
X320582Y982904D01*
X320582Y985317D02*
X322074Y985317D01*
X322074Y987730D02*
X320582Y987730D01*
X320582Y990143D02*
X322074Y990143D01*
X316582Y990796D02*
X316582Y982904D01*
X316582Y990796D02*
X318074Y990796D01*
X318074Y982904D01*
X316582Y982904D01*
X316582Y985317D02*
X318074Y985317D01*
X318074Y987730D02*
X316582Y987730D01*
X316582Y990143D02*
X318074Y990143D01*
X312582Y990796D02*
X312582Y982904D01*
X312582Y990796D02*
X314074Y990796D01*
X314074Y982904D01*
X312582Y982904D01*
X312582Y985317D02*
X314074Y985317D01*
X314074Y987730D02*
X312582Y987730D01*
X312582Y990143D02*
X314074Y990143D01*
X312582Y922096D02*
X312582Y914204D01*
X312582Y922096D02*
X314074Y922096D01*
X314074Y914204D01*
X312582Y914204D01*
X312582Y916617D02*
X314074Y916617D01*
X314074Y919030D02*
X312582Y919030D01*
X312582Y921443D02*
X314074Y921443D01*
X316582Y922096D02*
X316582Y914204D01*
X316582Y922096D02*
X318074Y922096D01*
X318074Y914204D01*
X316582Y914204D01*
X316582Y916617D02*
X318074Y916617D01*
X318074Y919030D02*
X316582Y919030D01*
X316582Y921443D02*
X318074Y921443D01*
X320582Y922096D02*
X320582Y914204D01*
X320582Y922096D02*
X322074Y922096D01*
X322074Y914204D01*
X320582Y914204D01*
X320582Y916617D02*
X322074Y916617D01*
X322074Y919030D02*
X320582Y919030D01*
X320582Y921443D02*
X322074Y921443D01*
X324582Y922096D02*
X324582Y914204D01*
X324582Y922096D02*
X326074Y922096D01*
X326074Y914204D01*
X324582Y914204D01*
X324582Y916617D02*
X326074Y916617D01*
X326074Y919030D02*
X324582Y919030D01*
X324582Y921443D02*
X326074Y921443D01*
X328582Y922096D02*
X328582Y914204D01*
X328582Y922096D02*
X330074Y922096D01*
X330074Y914204D01*
X328582Y914204D01*
X328582Y916617D02*
X330074Y916617D01*
X330074Y919030D02*
X328582Y919030D01*
X328582Y921443D02*
X330074Y921443D01*
X332582Y922096D02*
X332582Y914204D01*
X332582Y922096D02*
X334074Y922096D01*
X334074Y914204D01*
X332582Y914204D01*
X332582Y916617D02*
X334074Y916617D01*
X334074Y919030D02*
X332582Y919030D01*
X332582Y921443D02*
X334074Y921443D01*
X336582Y922096D02*
X336582Y914204D01*
X336582Y922096D02*
X338074Y922096D01*
X338074Y914204D01*
X336582Y914204D01*
X336582Y916617D02*
X338074Y916617D01*
X338074Y919030D02*
X336582Y919030D01*
X336582Y921443D02*
X338074Y921443D01*
X340582Y922096D02*
X340582Y914204D01*
X340582Y922096D02*
X342074Y922096D01*
X342074Y914204D01*
X340582Y914204D01*
X340582Y916617D02*
X342074Y916617D01*
X342074Y919030D02*
X340582Y919030D01*
X340582Y921443D02*
X342074Y921443D01*
X344582Y922096D02*
X344582Y914204D01*
X344582Y922096D02*
X346074Y922096D01*
X346074Y914204D01*
X344582Y914204D01*
X344582Y916617D02*
X346074Y916617D01*
X346074Y919030D02*
X344582Y919030D01*
X344582Y921443D02*
X346074Y921443D01*
X348582Y922096D02*
X348582Y914204D01*
X348582Y922096D02*
X350074Y922096D01*
X350074Y914204D01*
X348582Y914204D01*
X348582Y916617D02*
X350074Y916617D01*
X350074Y919030D02*
X348582Y919030D01*
X348582Y921443D02*
X350074Y921443D01*
X352582Y922096D02*
X352582Y914204D01*
X352582Y922096D02*
X354074Y922096D01*
X354074Y914204D01*
X352582Y914204D01*
X352582Y916617D02*
X354074Y916617D01*
X354074Y919030D02*
X352582Y919030D01*
X352582Y921443D02*
X354074Y921443D01*
X356582Y922096D02*
X356582Y914204D01*
X356582Y922096D02*
X358074Y922096D01*
X358074Y914204D01*
X356582Y914204D01*
X356582Y916617D02*
X358074Y916617D01*
X358074Y919030D02*
X356582Y919030D01*
X356582Y921443D02*
X358074Y921443D01*
X360582Y922096D02*
X360582Y914204D01*
X360582Y922096D02*
X362074Y922096D01*
X362074Y914204D01*
X360582Y914204D01*
X360582Y916617D02*
X362074Y916617D01*
X362074Y919030D02*
X360582Y919030D01*
X360582Y921443D02*
X362074Y921443D01*
X364582Y922096D02*
X364582Y914204D01*
X364582Y922096D02*
X366074Y922096D01*
X366074Y914204D01*
X364582Y914204D01*
X364582Y916617D02*
X366074Y916617D01*
X366074Y919030D02*
X364582Y919030D01*
X364582Y921443D02*
X366074Y921443D01*
D22*
X339328Y952500D03*
D23*
X225425Y925322D03*
X200533Y925322D03*
X180467Y925322D03*
X155575Y925322D03*
D24*
X124841Y952500D03*
X256159Y952500D03*
D23*
X796925Y925322D03*
X772033Y925322D03*
X751967Y925322D03*
X727075Y925322D03*
D24*
X696341Y952500D03*
X827659Y952500D03*
D25*
X588391Y1026716D03*
X649859Y1026716D03*
X588391Y1014016D03*
X588391Y1001316D03*
X649859Y1014016D03*
X649859Y1001316D03*
X588391Y988616D03*
X649859Y988616D03*
X588391Y975916D03*
X649859Y975916D03*
X588391Y963216D03*
X588391Y950516D03*
X649859Y963216D03*
X649859Y950516D03*
X588391Y937816D03*
X649859Y937816D03*
D26*
X508750Y972988D03*
X500750Y972988D03*
D27*
X478750Y972988D03*
X483750Y972988D03*
X488750Y972988D03*
X493750Y972988D03*
X473750Y972988D03*
X468750Y972988D03*
X463750Y972988D03*
X458750Y972988D03*
D26*
X451750Y972988D03*
X443750Y972988D03*
D28*
X519450Y976348D02*
X519450Y987928D01*
X433050Y987928D02*
X433050Y976348D01*
X519450Y1018148D02*
X519450Y1029728D01*
X433050Y1029728D02*
X433050Y1018148D01*
D29*
X505150Y987438D03*
X447350Y987438D03*
D30*
X614125Y919758D03*
X624125Y919758D03*
X614125Y907852D03*
X624125Y907852D03*
D31*
X253008Y895945D03*
X233008Y895945D03*
X273008Y895945D03*
X293008Y895945D03*
X213008Y895945D03*
D32*
X857250Y95250D03*
X95250Y95250D03*
X95250Y892969D03*
X857250Y892969D03*
X285750Y476250D03*
X666750Y476250D03*
M02*
