M48
;GenerationSoftware,Autodesk,EAGLE,9.6.1*%
;CreationDate,2022-11-22T14:28:52Z*%
FMAT,2
ICI,OFF
METRIC,TZ,000.000
T14C0.250
T13C0.350
T12C0.550
T11C0.650
T10C0.700
T9C0.914
T8C1.016
T7C1.100
T6C1.802
T5C2.000
T4C2.100
T3C2.311
T2C3.000
T1C4.000
%
G90
M71
T1
X76200Y38100
X38100Y19050
X57150Y38100
X38100Y57150
X19050Y57150
X19050Y19050
X57150Y19050
X76200Y19050
X38100Y38100
X19050Y38100
X76200Y57150
X57150Y57150
T2
X15240Y59690
X53340Y21590
X72390Y40640
X78740Y43180
X53340Y59690
X15240Y21590
X21590Y24130
X34290Y21590
X34290Y59690
X40640Y24130
X59690Y24130
X34290Y40640
X72390Y21590
X78740Y24130
X40640Y43180
X21590Y43180
X15240Y40640
X21590Y62230
X78740Y62230
X72390Y59690
X53340Y40640
X59690Y62230
X59690Y43180
X40640Y62230
T3
X82766Y95250
X25616Y95250
X12484Y95250
X69634Y95250
T4
X85725Y9525
X9525Y9525
X85725Y89297
X28575Y47625
X66675Y47625
X9525Y89297
T5
X62850Y78581
X51450Y78581
X81900Y78581
X43800Y78581
X13350Y78581
X24750Y78581
X32400Y78581
X70500Y78581
T6
X52070Y38100
X62230Y38100
X71120Y38100
X52070Y19050
X43180Y19050
X33020Y19050
X43180Y38100
X24130Y19050
X62230Y19050
X13970Y19050
X13970Y57150
X24130Y57150
X33020Y57150
X43180Y57150
X52070Y57150
X62230Y57150
X71120Y57150
X81280Y57150
X13970Y38100
X24130Y38100
X81280Y19050
X71120Y19050
X81280Y38100
X33020Y38100
T7
X78700Y71081
X54650Y71081
X73700Y71081
X78700Y85581
X16550Y85581
X38100Y71081
X59650Y85581
X21550Y71081
X59650Y71081
X19050Y71081
X16550Y71081
X21550Y85581
X54650Y85581
X73700Y85581
X40600Y71081
X35600Y71081
X35600Y85581
X40600Y85581
X76200Y71081
X57150Y71081
T8
X8930Y100310
X8930Y84534
X8930Y82153
X8930Y102691
T9
X15557Y92532
X79693Y92532
X77203Y92532
X72708Y92532
X75197Y92532
X22542Y92532
X20053Y92532
X18047Y92532
T10
X50515Y98744
X44735Y98744
T11
X51945Y98214
X43305Y98214
X51945Y102394
X43305Y102394
T12
X25301Y89595
X23301Y89595
X27301Y89595
X29301Y89595
X21301Y89595
T13
X47947Y93148
X33933Y95250
X74500Y97700
X22284Y100045
X14287Y14287
X50006Y14287
X71438Y14287
X28575Y64294
X52387Y52387
X29822Y68691
X29822Y70600
X29822Y69600
X64000Y89600
X64100Y88480
X55200Y100922
X53500Y96300
X50000Y95600
X45200Y95600
X53894Y102989
X41356Y102989
X57100Y87300
X56135Y87335
X64986Y101402
X64986Y102672
X64986Y100132
X64986Y98862
X64986Y95052
X46691Y95600
X64986Y93782
X43000Y12800
X43600Y50800
X23900Y34600
X23600Y12800
X23900Y50800
X40166Y92243
X28593Y95250
X32742Y89612
X36314Y89612
X39570Y89297
X39570Y90785
X39570Y93762
X39570Y95250
X36314Y100292
X32742Y100292
X27998Y93762
X40166Y96738
X27500Y16415
X27093Y35465
X22027Y55515
X41088Y94269
X58839Y93782
X58839Y95052
X24408Y98245
X21711Y96143
X56597Y103851
X64986Y96322
X54173Y90357
X55364Y97912
X45839Y91083
X33338Y52387
X71438Y52387
X10772Y51200
X29822Y65891
X29822Y66800
X29822Y67782
X37800Y75200
X47600Y95600
X48500Y89193
X47000Y86904
X46750Y89297
X41100Y93360
X81800Y28500
X62600Y28400
X43400Y28300
X23900Y28300
X72900Y34300
X81100Y13000
X81100Y50900
X53400Y34100
X62100Y12900
X62000Y50900
X35000Y34400
T14
X11430Y60325
X11430Y59055
X25400Y62865
X25400Y61595
X30480Y60325
X30480Y59055
X44450Y62865
X44450Y61595
X49530Y60325
X49530Y59055
X63500Y62865
X63500Y61595
X68580Y60325
X68580Y59055
X82550Y62865
X82550Y61595
X11430Y41275
X11430Y40005
X25400Y43815
X25400Y42545
X30480Y40005
X44450Y43815
X44450Y42545
X49530Y41275
X49530Y40005
X63500Y43815
X63500Y42545
X68580Y41275
X68580Y40005
X82550Y43815
X82550Y42545
X11430Y22225
X11430Y20955
X25400Y24765
X25400Y23495
X63500Y23495
X68580Y22225
X68580Y20955
X82550Y24765
X82550Y23495
X30480Y20955
X44450Y23495
X49530Y22225
X30480Y41275
X49530Y20955
X30480Y22225
X63500Y24765
X44450Y24765
M30