G04 EAGLE Gerber RS-274X export*
G75*
%MOMM*%
%FSLAX34Y34*%
%LPD*%
%INSilkscreen Top*%
%IPPOS*%
%AMOC8*
5,1,8,0,0,1.08239X$1,22.5*%
G01*
%ADD10C,0.127000*%
%ADD11C,0.200000*%
%ADD12C,0.152400*%


D10*
X157200Y1421900D02*
X157200Y1436300D01*
X67800Y1436300D02*
X67800Y1421900D01*
X67800Y1463700D02*
X67800Y1476000D01*
X157200Y1476000D01*
X157200Y1463700D01*
D11*
X145500Y1386000D02*
X145502Y1386063D01*
X145508Y1386125D01*
X145518Y1386187D01*
X145531Y1386249D01*
X145549Y1386309D01*
X145570Y1386368D01*
X145595Y1386426D01*
X145624Y1386482D01*
X145656Y1386536D01*
X145691Y1386588D01*
X145729Y1386637D01*
X145771Y1386685D01*
X145815Y1386729D01*
X145863Y1386771D01*
X145912Y1386809D01*
X145964Y1386844D01*
X146018Y1386876D01*
X146074Y1386905D01*
X146132Y1386930D01*
X146191Y1386951D01*
X146251Y1386969D01*
X146313Y1386982D01*
X146375Y1386992D01*
X146437Y1386998D01*
X146500Y1387000D01*
X146563Y1386998D01*
X146625Y1386992D01*
X146687Y1386982D01*
X146749Y1386969D01*
X146809Y1386951D01*
X146868Y1386930D01*
X146926Y1386905D01*
X146982Y1386876D01*
X147036Y1386844D01*
X147088Y1386809D01*
X147137Y1386771D01*
X147185Y1386729D01*
X147229Y1386685D01*
X147271Y1386637D01*
X147309Y1386588D01*
X147344Y1386536D01*
X147376Y1386482D01*
X147405Y1386426D01*
X147430Y1386368D01*
X147451Y1386309D01*
X147469Y1386249D01*
X147482Y1386187D01*
X147492Y1386125D01*
X147498Y1386063D01*
X147500Y1386000D01*
X147498Y1385937D01*
X147492Y1385875D01*
X147482Y1385813D01*
X147469Y1385751D01*
X147451Y1385691D01*
X147430Y1385632D01*
X147405Y1385574D01*
X147376Y1385518D01*
X147344Y1385464D01*
X147309Y1385412D01*
X147271Y1385363D01*
X147229Y1385315D01*
X147185Y1385271D01*
X147137Y1385229D01*
X147088Y1385191D01*
X147036Y1385156D01*
X146982Y1385124D01*
X146926Y1385095D01*
X146868Y1385070D01*
X146809Y1385049D01*
X146749Y1385031D01*
X146687Y1385018D01*
X146625Y1385008D01*
X146563Y1385002D01*
X146500Y1385000D01*
X146437Y1385002D01*
X146375Y1385008D01*
X146313Y1385018D01*
X146251Y1385031D01*
X146191Y1385049D01*
X146132Y1385070D01*
X146074Y1385095D01*
X146018Y1385124D01*
X145964Y1385156D01*
X145912Y1385191D01*
X145863Y1385229D01*
X145815Y1385271D01*
X145771Y1385315D01*
X145729Y1385363D01*
X145691Y1385412D01*
X145656Y1385464D01*
X145624Y1385518D01*
X145595Y1385574D01*
X145570Y1385632D01*
X145549Y1385691D01*
X145531Y1385751D01*
X145518Y1385813D01*
X145508Y1385875D01*
X145502Y1385937D01*
X145500Y1386000D01*
D12*
X132500Y1306750D02*
X92500Y1306750D01*
X82500Y1324500D02*
X82500Y1349250D01*
X92500Y1349250D01*
X132500Y1349250D02*
X142500Y1349250D01*
X142500Y1324500D01*
D10*
X39100Y1352450D02*
X39100Y1385050D01*
X60900Y1385050D02*
X60900Y1352450D01*
D11*
X183500Y1359250D02*
X183500Y1365750D01*
X183500Y1359250D02*
X154000Y1359250D01*
X154000Y1365750D01*
X183500Y1365750D01*
X184750Y1369250D02*
X184750Y1380750D01*
D10*
X357200Y1421900D02*
X357200Y1436300D01*
X267800Y1436300D02*
X267800Y1421900D01*
X267800Y1463700D02*
X267800Y1476000D01*
X357200Y1476000D01*
X357200Y1463700D01*
D11*
X345500Y1386000D02*
X345502Y1386063D01*
X345508Y1386125D01*
X345518Y1386187D01*
X345531Y1386249D01*
X345549Y1386309D01*
X345570Y1386368D01*
X345595Y1386426D01*
X345624Y1386482D01*
X345656Y1386536D01*
X345691Y1386588D01*
X345729Y1386637D01*
X345771Y1386685D01*
X345815Y1386729D01*
X345863Y1386771D01*
X345912Y1386809D01*
X345964Y1386844D01*
X346018Y1386876D01*
X346074Y1386905D01*
X346132Y1386930D01*
X346191Y1386951D01*
X346251Y1386969D01*
X346313Y1386982D01*
X346375Y1386992D01*
X346437Y1386998D01*
X346500Y1387000D01*
X346563Y1386998D01*
X346625Y1386992D01*
X346687Y1386982D01*
X346749Y1386969D01*
X346809Y1386951D01*
X346868Y1386930D01*
X346926Y1386905D01*
X346982Y1386876D01*
X347036Y1386844D01*
X347088Y1386809D01*
X347137Y1386771D01*
X347185Y1386729D01*
X347229Y1386685D01*
X347271Y1386637D01*
X347309Y1386588D01*
X347344Y1386536D01*
X347376Y1386482D01*
X347405Y1386426D01*
X347430Y1386368D01*
X347451Y1386309D01*
X347469Y1386249D01*
X347482Y1386187D01*
X347492Y1386125D01*
X347498Y1386063D01*
X347500Y1386000D01*
X347498Y1385937D01*
X347492Y1385875D01*
X347482Y1385813D01*
X347469Y1385751D01*
X347451Y1385691D01*
X347430Y1385632D01*
X347405Y1385574D01*
X347376Y1385518D01*
X347344Y1385464D01*
X347309Y1385412D01*
X347271Y1385363D01*
X347229Y1385315D01*
X347185Y1385271D01*
X347137Y1385229D01*
X347088Y1385191D01*
X347036Y1385156D01*
X346982Y1385124D01*
X346926Y1385095D01*
X346868Y1385070D01*
X346809Y1385049D01*
X346749Y1385031D01*
X346687Y1385018D01*
X346625Y1385008D01*
X346563Y1385002D01*
X346500Y1385000D01*
X346437Y1385002D01*
X346375Y1385008D01*
X346313Y1385018D01*
X346251Y1385031D01*
X346191Y1385049D01*
X346132Y1385070D01*
X346074Y1385095D01*
X346018Y1385124D01*
X345964Y1385156D01*
X345912Y1385191D01*
X345863Y1385229D01*
X345815Y1385271D01*
X345771Y1385315D01*
X345729Y1385363D01*
X345691Y1385412D01*
X345656Y1385464D01*
X345624Y1385518D01*
X345595Y1385574D01*
X345570Y1385632D01*
X345549Y1385691D01*
X345531Y1385751D01*
X345518Y1385813D01*
X345508Y1385875D01*
X345502Y1385937D01*
X345500Y1386000D01*
D12*
X332500Y1306750D02*
X292500Y1306750D01*
X282500Y1324500D02*
X282500Y1349250D01*
X292500Y1349250D01*
X332500Y1349250D02*
X342500Y1349250D01*
X342500Y1324500D01*
D10*
X239100Y1352450D02*
X239100Y1385050D01*
X260900Y1385050D02*
X260900Y1352450D01*
D11*
X354000Y1359250D02*
X354000Y1365750D01*
X383500Y1365750D01*
X383500Y1359250D01*
X354000Y1359250D01*
X352750Y1355750D02*
X352750Y1344250D01*
D10*
X557200Y1421900D02*
X557200Y1436300D01*
X467800Y1436300D02*
X467800Y1421900D01*
X467800Y1463700D02*
X467800Y1476000D01*
X557200Y1476000D01*
X557200Y1463700D01*
D11*
X545500Y1386000D02*
X545502Y1386063D01*
X545508Y1386125D01*
X545518Y1386187D01*
X545531Y1386249D01*
X545549Y1386309D01*
X545570Y1386368D01*
X545595Y1386426D01*
X545624Y1386482D01*
X545656Y1386536D01*
X545691Y1386588D01*
X545729Y1386637D01*
X545771Y1386685D01*
X545815Y1386729D01*
X545863Y1386771D01*
X545912Y1386809D01*
X545964Y1386844D01*
X546018Y1386876D01*
X546074Y1386905D01*
X546132Y1386930D01*
X546191Y1386951D01*
X546251Y1386969D01*
X546313Y1386982D01*
X546375Y1386992D01*
X546437Y1386998D01*
X546500Y1387000D01*
X546563Y1386998D01*
X546625Y1386992D01*
X546687Y1386982D01*
X546749Y1386969D01*
X546809Y1386951D01*
X546868Y1386930D01*
X546926Y1386905D01*
X546982Y1386876D01*
X547036Y1386844D01*
X547088Y1386809D01*
X547137Y1386771D01*
X547185Y1386729D01*
X547229Y1386685D01*
X547271Y1386637D01*
X547309Y1386588D01*
X547344Y1386536D01*
X547376Y1386482D01*
X547405Y1386426D01*
X547430Y1386368D01*
X547451Y1386309D01*
X547469Y1386249D01*
X547482Y1386187D01*
X547492Y1386125D01*
X547498Y1386063D01*
X547500Y1386000D01*
X547498Y1385937D01*
X547492Y1385875D01*
X547482Y1385813D01*
X547469Y1385751D01*
X547451Y1385691D01*
X547430Y1385632D01*
X547405Y1385574D01*
X547376Y1385518D01*
X547344Y1385464D01*
X547309Y1385412D01*
X547271Y1385363D01*
X547229Y1385315D01*
X547185Y1385271D01*
X547137Y1385229D01*
X547088Y1385191D01*
X547036Y1385156D01*
X546982Y1385124D01*
X546926Y1385095D01*
X546868Y1385070D01*
X546809Y1385049D01*
X546749Y1385031D01*
X546687Y1385018D01*
X546625Y1385008D01*
X546563Y1385002D01*
X546500Y1385000D01*
X546437Y1385002D01*
X546375Y1385008D01*
X546313Y1385018D01*
X546251Y1385031D01*
X546191Y1385049D01*
X546132Y1385070D01*
X546074Y1385095D01*
X546018Y1385124D01*
X545964Y1385156D01*
X545912Y1385191D01*
X545863Y1385229D01*
X545815Y1385271D01*
X545771Y1385315D01*
X545729Y1385363D01*
X545691Y1385412D01*
X545656Y1385464D01*
X545624Y1385518D01*
X545595Y1385574D01*
X545570Y1385632D01*
X545549Y1385691D01*
X545531Y1385751D01*
X545518Y1385813D01*
X545508Y1385875D01*
X545502Y1385937D01*
X545500Y1386000D01*
D12*
X532500Y1306750D02*
X492500Y1306750D01*
X482500Y1324500D02*
X482500Y1349250D01*
X492500Y1349250D01*
X532500Y1349250D02*
X542500Y1349250D01*
X542500Y1324500D01*
D10*
X439100Y1352450D02*
X439100Y1385050D01*
X460900Y1385050D02*
X460900Y1352450D01*
D11*
X554000Y1359250D02*
X554000Y1365750D01*
X583500Y1365750D01*
X583500Y1359250D01*
X554000Y1359250D01*
X552750Y1355750D02*
X552750Y1344250D01*
D10*
X757200Y1421900D02*
X757200Y1436300D01*
X667800Y1436300D02*
X667800Y1421900D01*
X667800Y1463700D02*
X667800Y1476000D01*
X757200Y1476000D01*
X757200Y1463700D01*
D11*
X745500Y1386000D02*
X745502Y1386063D01*
X745508Y1386125D01*
X745518Y1386187D01*
X745531Y1386249D01*
X745549Y1386309D01*
X745570Y1386368D01*
X745595Y1386426D01*
X745624Y1386482D01*
X745656Y1386536D01*
X745691Y1386588D01*
X745729Y1386637D01*
X745771Y1386685D01*
X745815Y1386729D01*
X745863Y1386771D01*
X745912Y1386809D01*
X745964Y1386844D01*
X746018Y1386876D01*
X746074Y1386905D01*
X746132Y1386930D01*
X746191Y1386951D01*
X746251Y1386969D01*
X746313Y1386982D01*
X746375Y1386992D01*
X746437Y1386998D01*
X746500Y1387000D01*
X746563Y1386998D01*
X746625Y1386992D01*
X746687Y1386982D01*
X746749Y1386969D01*
X746809Y1386951D01*
X746868Y1386930D01*
X746926Y1386905D01*
X746982Y1386876D01*
X747036Y1386844D01*
X747088Y1386809D01*
X747137Y1386771D01*
X747185Y1386729D01*
X747229Y1386685D01*
X747271Y1386637D01*
X747309Y1386588D01*
X747344Y1386536D01*
X747376Y1386482D01*
X747405Y1386426D01*
X747430Y1386368D01*
X747451Y1386309D01*
X747469Y1386249D01*
X747482Y1386187D01*
X747492Y1386125D01*
X747498Y1386063D01*
X747500Y1386000D01*
X747498Y1385937D01*
X747492Y1385875D01*
X747482Y1385813D01*
X747469Y1385751D01*
X747451Y1385691D01*
X747430Y1385632D01*
X747405Y1385574D01*
X747376Y1385518D01*
X747344Y1385464D01*
X747309Y1385412D01*
X747271Y1385363D01*
X747229Y1385315D01*
X747185Y1385271D01*
X747137Y1385229D01*
X747088Y1385191D01*
X747036Y1385156D01*
X746982Y1385124D01*
X746926Y1385095D01*
X746868Y1385070D01*
X746809Y1385049D01*
X746749Y1385031D01*
X746687Y1385018D01*
X746625Y1385008D01*
X746563Y1385002D01*
X746500Y1385000D01*
X746437Y1385002D01*
X746375Y1385008D01*
X746313Y1385018D01*
X746251Y1385031D01*
X746191Y1385049D01*
X746132Y1385070D01*
X746074Y1385095D01*
X746018Y1385124D01*
X745964Y1385156D01*
X745912Y1385191D01*
X745863Y1385229D01*
X745815Y1385271D01*
X745771Y1385315D01*
X745729Y1385363D01*
X745691Y1385412D01*
X745656Y1385464D01*
X745624Y1385518D01*
X745595Y1385574D01*
X745570Y1385632D01*
X745549Y1385691D01*
X745531Y1385751D01*
X745518Y1385813D01*
X745508Y1385875D01*
X745502Y1385937D01*
X745500Y1386000D01*
D12*
X732500Y1306750D02*
X692500Y1306750D01*
X682500Y1324500D02*
X682500Y1349250D01*
X692500Y1349250D01*
X732500Y1349250D02*
X742500Y1349250D01*
X742500Y1324500D01*
D10*
X639100Y1352450D02*
X639100Y1385050D01*
X660900Y1385050D02*
X660900Y1352450D01*
D11*
X754000Y1359250D02*
X754000Y1365750D01*
X783500Y1365750D01*
X783500Y1359250D01*
X754000Y1359250D01*
X752750Y1355750D02*
X752750Y1344250D01*
D10*
X957200Y1421900D02*
X957200Y1436300D01*
X867800Y1436300D02*
X867800Y1421900D01*
X867800Y1463700D02*
X867800Y1476000D01*
X957200Y1476000D01*
X957200Y1463700D01*
D11*
X945500Y1386000D02*
X945502Y1386063D01*
X945508Y1386125D01*
X945518Y1386187D01*
X945531Y1386249D01*
X945549Y1386309D01*
X945570Y1386368D01*
X945595Y1386426D01*
X945624Y1386482D01*
X945656Y1386536D01*
X945691Y1386588D01*
X945729Y1386637D01*
X945771Y1386685D01*
X945815Y1386729D01*
X945863Y1386771D01*
X945912Y1386809D01*
X945964Y1386844D01*
X946018Y1386876D01*
X946074Y1386905D01*
X946132Y1386930D01*
X946191Y1386951D01*
X946251Y1386969D01*
X946313Y1386982D01*
X946375Y1386992D01*
X946437Y1386998D01*
X946500Y1387000D01*
X946563Y1386998D01*
X946625Y1386992D01*
X946687Y1386982D01*
X946749Y1386969D01*
X946809Y1386951D01*
X946868Y1386930D01*
X946926Y1386905D01*
X946982Y1386876D01*
X947036Y1386844D01*
X947088Y1386809D01*
X947137Y1386771D01*
X947185Y1386729D01*
X947229Y1386685D01*
X947271Y1386637D01*
X947309Y1386588D01*
X947344Y1386536D01*
X947376Y1386482D01*
X947405Y1386426D01*
X947430Y1386368D01*
X947451Y1386309D01*
X947469Y1386249D01*
X947482Y1386187D01*
X947492Y1386125D01*
X947498Y1386063D01*
X947500Y1386000D01*
X947498Y1385937D01*
X947492Y1385875D01*
X947482Y1385813D01*
X947469Y1385751D01*
X947451Y1385691D01*
X947430Y1385632D01*
X947405Y1385574D01*
X947376Y1385518D01*
X947344Y1385464D01*
X947309Y1385412D01*
X947271Y1385363D01*
X947229Y1385315D01*
X947185Y1385271D01*
X947137Y1385229D01*
X947088Y1385191D01*
X947036Y1385156D01*
X946982Y1385124D01*
X946926Y1385095D01*
X946868Y1385070D01*
X946809Y1385049D01*
X946749Y1385031D01*
X946687Y1385018D01*
X946625Y1385008D01*
X946563Y1385002D01*
X946500Y1385000D01*
X946437Y1385002D01*
X946375Y1385008D01*
X946313Y1385018D01*
X946251Y1385031D01*
X946191Y1385049D01*
X946132Y1385070D01*
X946074Y1385095D01*
X946018Y1385124D01*
X945964Y1385156D01*
X945912Y1385191D01*
X945863Y1385229D01*
X945815Y1385271D01*
X945771Y1385315D01*
X945729Y1385363D01*
X945691Y1385412D01*
X945656Y1385464D01*
X945624Y1385518D01*
X945595Y1385574D01*
X945570Y1385632D01*
X945549Y1385691D01*
X945531Y1385751D01*
X945518Y1385813D01*
X945508Y1385875D01*
X945502Y1385937D01*
X945500Y1386000D01*
D12*
X932500Y1306750D02*
X892500Y1306750D01*
X882500Y1324500D02*
X882500Y1349250D01*
X892500Y1349250D01*
X932500Y1349250D02*
X942500Y1349250D01*
X942500Y1324500D01*
D10*
X839100Y1352450D02*
X839100Y1385050D01*
X860900Y1385050D02*
X860900Y1352450D01*
D11*
X954000Y1359250D02*
X954000Y1365750D01*
X983500Y1365750D01*
X983500Y1359250D01*
X954000Y1359250D01*
X952750Y1355750D02*
X952750Y1344250D01*
D10*
X157200Y1236300D02*
X157200Y1221900D01*
X67800Y1221900D02*
X67800Y1236300D01*
X67800Y1263700D02*
X67800Y1276000D01*
X157200Y1276000D01*
X157200Y1263700D01*
D11*
X145500Y1186000D02*
X145502Y1186063D01*
X145508Y1186125D01*
X145518Y1186187D01*
X145531Y1186249D01*
X145549Y1186309D01*
X145570Y1186368D01*
X145595Y1186426D01*
X145624Y1186482D01*
X145656Y1186536D01*
X145691Y1186588D01*
X145729Y1186637D01*
X145771Y1186685D01*
X145815Y1186729D01*
X145863Y1186771D01*
X145912Y1186809D01*
X145964Y1186844D01*
X146018Y1186876D01*
X146074Y1186905D01*
X146132Y1186930D01*
X146191Y1186951D01*
X146251Y1186969D01*
X146313Y1186982D01*
X146375Y1186992D01*
X146437Y1186998D01*
X146500Y1187000D01*
X146563Y1186998D01*
X146625Y1186992D01*
X146687Y1186982D01*
X146749Y1186969D01*
X146809Y1186951D01*
X146868Y1186930D01*
X146926Y1186905D01*
X146982Y1186876D01*
X147036Y1186844D01*
X147088Y1186809D01*
X147137Y1186771D01*
X147185Y1186729D01*
X147229Y1186685D01*
X147271Y1186637D01*
X147309Y1186588D01*
X147344Y1186536D01*
X147376Y1186482D01*
X147405Y1186426D01*
X147430Y1186368D01*
X147451Y1186309D01*
X147469Y1186249D01*
X147482Y1186187D01*
X147492Y1186125D01*
X147498Y1186063D01*
X147500Y1186000D01*
X147498Y1185937D01*
X147492Y1185875D01*
X147482Y1185813D01*
X147469Y1185751D01*
X147451Y1185691D01*
X147430Y1185632D01*
X147405Y1185574D01*
X147376Y1185518D01*
X147344Y1185464D01*
X147309Y1185412D01*
X147271Y1185363D01*
X147229Y1185315D01*
X147185Y1185271D01*
X147137Y1185229D01*
X147088Y1185191D01*
X147036Y1185156D01*
X146982Y1185124D01*
X146926Y1185095D01*
X146868Y1185070D01*
X146809Y1185049D01*
X146749Y1185031D01*
X146687Y1185018D01*
X146625Y1185008D01*
X146563Y1185002D01*
X146500Y1185000D01*
X146437Y1185002D01*
X146375Y1185008D01*
X146313Y1185018D01*
X146251Y1185031D01*
X146191Y1185049D01*
X146132Y1185070D01*
X146074Y1185095D01*
X146018Y1185124D01*
X145964Y1185156D01*
X145912Y1185191D01*
X145863Y1185229D01*
X145815Y1185271D01*
X145771Y1185315D01*
X145729Y1185363D01*
X145691Y1185412D01*
X145656Y1185464D01*
X145624Y1185518D01*
X145595Y1185574D01*
X145570Y1185632D01*
X145549Y1185691D01*
X145531Y1185751D01*
X145518Y1185813D01*
X145508Y1185875D01*
X145502Y1185937D01*
X145500Y1186000D01*
D12*
X132500Y1106750D02*
X92500Y1106750D01*
X82500Y1124500D02*
X82500Y1149250D01*
X92500Y1149250D01*
X132500Y1149250D02*
X142500Y1149250D01*
X142500Y1124500D01*
D10*
X39100Y1152450D02*
X39100Y1185050D01*
X60900Y1185050D02*
X60900Y1152450D01*
D11*
X154000Y1159250D02*
X154000Y1165750D01*
X183500Y1165750D01*
X183500Y1159250D01*
X154000Y1159250D01*
X152750Y1155750D02*
X152750Y1144250D01*
D10*
X357200Y1221900D02*
X357200Y1236300D01*
X267800Y1236300D02*
X267800Y1221900D01*
X267800Y1263700D02*
X267800Y1276000D01*
X357200Y1276000D01*
X357200Y1263700D01*
D11*
X345500Y1186000D02*
X345502Y1186063D01*
X345508Y1186125D01*
X345518Y1186187D01*
X345531Y1186249D01*
X345549Y1186309D01*
X345570Y1186368D01*
X345595Y1186426D01*
X345624Y1186482D01*
X345656Y1186536D01*
X345691Y1186588D01*
X345729Y1186637D01*
X345771Y1186685D01*
X345815Y1186729D01*
X345863Y1186771D01*
X345912Y1186809D01*
X345964Y1186844D01*
X346018Y1186876D01*
X346074Y1186905D01*
X346132Y1186930D01*
X346191Y1186951D01*
X346251Y1186969D01*
X346313Y1186982D01*
X346375Y1186992D01*
X346437Y1186998D01*
X346500Y1187000D01*
X346563Y1186998D01*
X346625Y1186992D01*
X346687Y1186982D01*
X346749Y1186969D01*
X346809Y1186951D01*
X346868Y1186930D01*
X346926Y1186905D01*
X346982Y1186876D01*
X347036Y1186844D01*
X347088Y1186809D01*
X347137Y1186771D01*
X347185Y1186729D01*
X347229Y1186685D01*
X347271Y1186637D01*
X347309Y1186588D01*
X347344Y1186536D01*
X347376Y1186482D01*
X347405Y1186426D01*
X347430Y1186368D01*
X347451Y1186309D01*
X347469Y1186249D01*
X347482Y1186187D01*
X347492Y1186125D01*
X347498Y1186063D01*
X347500Y1186000D01*
X347498Y1185937D01*
X347492Y1185875D01*
X347482Y1185813D01*
X347469Y1185751D01*
X347451Y1185691D01*
X347430Y1185632D01*
X347405Y1185574D01*
X347376Y1185518D01*
X347344Y1185464D01*
X347309Y1185412D01*
X347271Y1185363D01*
X347229Y1185315D01*
X347185Y1185271D01*
X347137Y1185229D01*
X347088Y1185191D01*
X347036Y1185156D01*
X346982Y1185124D01*
X346926Y1185095D01*
X346868Y1185070D01*
X346809Y1185049D01*
X346749Y1185031D01*
X346687Y1185018D01*
X346625Y1185008D01*
X346563Y1185002D01*
X346500Y1185000D01*
X346437Y1185002D01*
X346375Y1185008D01*
X346313Y1185018D01*
X346251Y1185031D01*
X346191Y1185049D01*
X346132Y1185070D01*
X346074Y1185095D01*
X346018Y1185124D01*
X345964Y1185156D01*
X345912Y1185191D01*
X345863Y1185229D01*
X345815Y1185271D01*
X345771Y1185315D01*
X345729Y1185363D01*
X345691Y1185412D01*
X345656Y1185464D01*
X345624Y1185518D01*
X345595Y1185574D01*
X345570Y1185632D01*
X345549Y1185691D01*
X345531Y1185751D01*
X345518Y1185813D01*
X345508Y1185875D01*
X345502Y1185937D01*
X345500Y1186000D01*
D12*
X332500Y1106750D02*
X292500Y1106750D01*
X282500Y1124500D02*
X282500Y1149250D01*
X292500Y1149250D01*
X332500Y1149250D02*
X342500Y1149250D01*
X342500Y1124500D01*
D10*
X239100Y1152450D02*
X239100Y1185050D01*
X260900Y1185050D02*
X260900Y1152450D01*
D11*
X354000Y1159250D02*
X354000Y1165750D01*
X383500Y1165750D01*
X383500Y1159250D01*
X354000Y1159250D01*
X352750Y1155750D02*
X352750Y1144250D01*
D10*
X557200Y1221900D02*
X557200Y1236300D01*
X467800Y1236300D02*
X467800Y1221900D01*
X467800Y1263700D02*
X467800Y1276000D01*
X557200Y1276000D01*
X557200Y1263700D01*
D11*
X545500Y1186000D02*
X545502Y1186063D01*
X545508Y1186125D01*
X545518Y1186187D01*
X545531Y1186249D01*
X545549Y1186309D01*
X545570Y1186368D01*
X545595Y1186426D01*
X545624Y1186482D01*
X545656Y1186536D01*
X545691Y1186588D01*
X545729Y1186637D01*
X545771Y1186685D01*
X545815Y1186729D01*
X545863Y1186771D01*
X545912Y1186809D01*
X545964Y1186844D01*
X546018Y1186876D01*
X546074Y1186905D01*
X546132Y1186930D01*
X546191Y1186951D01*
X546251Y1186969D01*
X546313Y1186982D01*
X546375Y1186992D01*
X546437Y1186998D01*
X546500Y1187000D01*
X546563Y1186998D01*
X546625Y1186992D01*
X546687Y1186982D01*
X546749Y1186969D01*
X546809Y1186951D01*
X546868Y1186930D01*
X546926Y1186905D01*
X546982Y1186876D01*
X547036Y1186844D01*
X547088Y1186809D01*
X547137Y1186771D01*
X547185Y1186729D01*
X547229Y1186685D01*
X547271Y1186637D01*
X547309Y1186588D01*
X547344Y1186536D01*
X547376Y1186482D01*
X547405Y1186426D01*
X547430Y1186368D01*
X547451Y1186309D01*
X547469Y1186249D01*
X547482Y1186187D01*
X547492Y1186125D01*
X547498Y1186063D01*
X547500Y1186000D01*
X547498Y1185937D01*
X547492Y1185875D01*
X547482Y1185813D01*
X547469Y1185751D01*
X547451Y1185691D01*
X547430Y1185632D01*
X547405Y1185574D01*
X547376Y1185518D01*
X547344Y1185464D01*
X547309Y1185412D01*
X547271Y1185363D01*
X547229Y1185315D01*
X547185Y1185271D01*
X547137Y1185229D01*
X547088Y1185191D01*
X547036Y1185156D01*
X546982Y1185124D01*
X546926Y1185095D01*
X546868Y1185070D01*
X546809Y1185049D01*
X546749Y1185031D01*
X546687Y1185018D01*
X546625Y1185008D01*
X546563Y1185002D01*
X546500Y1185000D01*
X546437Y1185002D01*
X546375Y1185008D01*
X546313Y1185018D01*
X546251Y1185031D01*
X546191Y1185049D01*
X546132Y1185070D01*
X546074Y1185095D01*
X546018Y1185124D01*
X545964Y1185156D01*
X545912Y1185191D01*
X545863Y1185229D01*
X545815Y1185271D01*
X545771Y1185315D01*
X545729Y1185363D01*
X545691Y1185412D01*
X545656Y1185464D01*
X545624Y1185518D01*
X545595Y1185574D01*
X545570Y1185632D01*
X545549Y1185691D01*
X545531Y1185751D01*
X545518Y1185813D01*
X545508Y1185875D01*
X545502Y1185937D01*
X545500Y1186000D01*
D12*
X532500Y1106750D02*
X492500Y1106750D01*
X482500Y1124500D02*
X482500Y1149250D01*
X492500Y1149250D01*
X532500Y1149250D02*
X542500Y1149250D01*
X542500Y1124500D01*
D10*
X439100Y1152450D02*
X439100Y1185050D01*
X460900Y1185050D02*
X460900Y1152450D01*
D11*
X554000Y1159250D02*
X554000Y1165750D01*
X583500Y1165750D01*
X583500Y1159250D01*
X554000Y1159250D01*
X552750Y1155750D02*
X552750Y1144250D01*
D10*
X757200Y1221900D02*
X757200Y1236300D01*
X667800Y1236300D02*
X667800Y1221900D01*
X667800Y1263700D02*
X667800Y1276000D01*
X757200Y1276000D01*
X757200Y1263700D01*
D11*
X745500Y1186000D02*
X745502Y1186063D01*
X745508Y1186125D01*
X745518Y1186187D01*
X745531Y1186249D01*
X745549Y1186309D01*
X745570Y1186368D01*
X745595Y1186426D01*
X745624Y1186482D01*
X745656Y1186536D01*
X745691Y1186588D01*
X745729Y1186637D01*
X745771Y1186685D01*
X745815Y1186729D01*
X745863Y1186771D01*
X745912Y1186809D01*
X745964Y1186844D01*
X746018Y1186876D01*
X746074Y1186905D01*
X746132Y1186930D01*
X746191Y1186951D01*
X746251Y1186969D01*
X746313Y1186982D01*
X746375Y1186992D01*
X746437Y1186998D01*
X746500Y1187000D01*
X746563Y1186998D01*
X746625Y1186992D01*
X746687Y1186982D01*
X746749Y1186969D01*
X746809Y1186951D01*
X746868Y1186930D01*
X746926Y1186905D01*
X746982Y1186876D01*
X747036Y1186844D01*
X747088Y1186809D01*
X747137Y1186771D01*
X747185Y1186729D01*
X747229Y1186685D01*
X747271Y1186637D01*
X747309Y1186588D01*
X747344Y1186536D01*
X747376Y1186482D01*
X747405Y1186426D01*
X747430Y1186368D01*
X747451Y1186309D01*
X747469Y1186249D01*
X747482Y1186187D01*
X747492Y1186125D01*
X747498Y1186063D01*
X747500Y1186000D01*
X747498Y1185937D01*
X747492Y1185875D01*
X747482Y1185813D01*
X747469Y1185751D01*
X747451Y1185691D01*
X747430Y1185632D01*
X747405Y1185574D01*
X747376Y1185518D01*
X747344Y1185464D01*
X747309Y1185412D01*
X747271Y1185363D01*
X747229Y1185315D01*
X747185Y1185271D01*
X747137Y1185229D01*
X747088Y1185191D01*
X747036Y1185156D01*
X746982Y1185124D01*
X746926Y1185095D01*
X746868Y1185070D01*
X746809Y1185049D01*
X746749Y1185031D01*
X746687Y1185018D01*
X746625Y1185008D01*
X746563Y1185002D01*
X746500Y1185000D01*
X746437Y1185002D01*
X746375Y1185008D01*
X746313Y1185018D01*
X746251Y1185031D01*
X746191Y1185049D01*
X746132Y1185070D01*
X746074Y1185095D01*
X746018Y1185124D01*
X745964Y1185156D01*
X745912Y1185191D01*
X745863Y1185229D01*
X745815Y1185271D01*
X745771Y1185315D01*
X745729Y1185363D01*
X745691Y1185412D01*
X745656Y1185464D01*
X745624Y1185518D01*
X745595Y1185574D01*
X745570Y1185632D01*
X745549Y1185691D01*
X745531Y1185751D01*
X745518Y1185813D01*
X745508Y1185875D01*
X745502Y1185937D01*
X745500Y1186000D01*
D12*
X732500Y1106750D02*
X692500Y1106750D01*
X682500Y1124500D02*
X682500Y1149250D01*
X692500Y1149250D01*
X732500Y1149250D02*
X742500Y1149250D01*
X742500Y1124500D01*
D10*
X639100Y1152450D02*
X639100Y1185050D01*
X660900Y1185050D02*
X660900Y1152450D01*
D11*
X754000Y1159250D02*
X754000Y1165750D01*
X783500Y1165750D01*
X783500Y1159250D01*
X754000Y1159250D01*
X752750Y1155750D02*
X752750Y1144250D01*
D10*
X957200Y1221900D02*
X957200Y1236300D01*
X867800Y1236300D02*
X867800Y1221900D01*
X867800Y1263700D02*
X867800Y1276000D01*
X957200Y1276000D01*
X957200Y1263700D01*
D11*
X945500Y1186000D02*
X945502Y1186063D01*
X945508Y1186125D01*
X945518Y1186187D01*
X945531Y1186249D01*
X945549Y1186309D01*
X945570Y1186368D01*
X945595Y1186426D01*
X945624Y1186482D01*
X945656Y1186536D01*
X945691Y1186588D01*
X945729Y1186637D01*
X945771Y1186685D01*
X945815Y1186729D01*
X945863Y1186771D01*
X945912Y1186809D01*
X945964Y1186844D01*
X946018Y1186876D01*
X946074Y1186905D01*
X946132Y1186930D01*
X946191Y1186951D01*
X946251Y1186969D01*
X946313Y1186982D01*
X946375Y1186992D01*
X946437Y1186998D01*
X946500Y1187000D01*
X946563Y1186998D01*
X946625Y1186992D01*
X946687Y1186982D01*
X946749Y1186969D01*
X946809Y1186951D01*
X946868Y1186930D01*
X946926Y1186905D01*
X946982Y1186876D01*
X947036Y1186844D01*
X947088Y1186809D01*
X947137Y1186771D01*
X947185Y1186729D01*
X947229Y1186685D01*
X947271Y1186637D01*
X947309Y1186588D01*
X947344Y1186536D01*
X947376Y1186482D01*
X947405Y1186426D01*
X947430Y1186368D01*
X947451Y1186309D01*
X947469Y1186249D01*
X947482Y1186187D01*
X947492Y1186125D01*
X947498Y1186063D01*
X947500Y1186000D01*
X947498Y1185937D01*
X947492Y1185875D01*
X947482Y1185813D01*
X947469Y1185751D01*
X947451Y1185691D01*
X947430Y1185632D01*
X947405Y1185574D01*
X947376Y1185518D01*
X947344Y1185464D01*
X947309Y1185412D01*
X947271Y1185363D01*
X947229Y1185315D01*
X947185Y1185271D01*
X947137Y1185229D01*
X947088Y1185191D01*
X947036Y1185156D01*
X946982Y1185124D01*
X946926Y1185095D01*
X946868Y1185070D01*
X946809Y1185049D01*
X946749Y1185031D01*
X946687Y1185018D01*
X946625Y1185008D01*
X946563Y1185002D01*
X946500Y1185000D01*
X946437Y1185002D01*
X946375Y1185008D01*
X946313Y1185018D01*
X946251Y1185031D01*
X946191Y1185049D01*
X946132Y1185070D01*
X946074Y1185095D01*
X946018Y1185124D01*
X945964Y1185156D01*
X945912Y1185191D01*
X945863Y1185229D01*
X945815Y1185271D01*
X945771Y1185315D01*
X945729Y1185363D01*
X945691Y1185412D01*
X945656Y1185464D01*
X945624Y1185518D01*
X945595Y1185574D01*
X945570Y1185632D01*
X945549Y1185691D01*
X945531Y1185751D01*
X945518Y1185813D01*
X945508Y1185875D01*
X945502Y1185937D01*
X945500Y1186000D01*
D12*
X932500Y1106750D02*
X892500Y1106750D01*
X882500Y1124500D02*
X882500Y1149250D01*
X892500Y1149250D01*
X932500Y1149250D02*
X942500Y1149250D01*
X942500Y1124500D01*
D10*
X839100Y1152450D02*
X839100Y1185050D01*
X860900Y1185050D02*
X860900Y1152450D01*
D11*
X954000Y1159250D02*
X954000Y1165750D01*
X983500Y1165750D01*
X983500Y1159250D01*
X954000Y1159250D01*
X952750Y1155750D02*
X952750Y1144250D01*
D10*
X157200Y1036300D02*
X157200Y1021900D01*
X67800Y1021900D02*
X67800Y1036300D01*
X67800Y1063700D02*
X67800Y1076000D01*
X157200Y1076000D01*
X157200Y1063700D01*
D11*
X145500Y986000D02*
X145502Y986063D01*
X145508Y986125D01*
X145518Y986187D01*
X145531Y986249D01*
X145549Y986309D01*
X145570Y986368D01*
X145595Y986426D01*
X145624Y986482D01*
X145656Y986536D01*
X145691Y986588D01*
X145729Y986637D01*
X145771Y986685D01*
X145815Y986729D01*
X145863Y986771D01*
X145912Y986809D01*
X145964Y986844D01*
X146018Y986876D01*
X146074Y986905D01*
X146132Y986930D01*
X146191Y986951D01*
X146251Y986969D01*
X146313Y986982D01*
X146375Y986992D01*
X146437Y986998D01*
X146500Y987000D01*
X146563Y986998D01*
X146625Y986992D01*
X146687Y986982D01*
X146749Y986969D01*
X146809Y986951D01*
X146868Y986930D01*
X146926Y986905D01*
X146982Y986876D01*
X147036Y986844D01*
X147088Y986809D01*
X147137Y986771D01*
X147185Y986729D01*
X147229Y986685D01*
X147271Y986637D01*
X147309Y986588D01*
X147344Y986536D01*
X147376Y986482D01*
X147405Y986426D01*
X147430Y986368D01*
X147451Y986309D01*
X147469Y986249D01*
X147482Y986187D01*
X147492Y986125D01*
X147498Y986063D01*
X147500Y986000D01*
X147498Y985937D01*
X147492Y985875D01*
X147482Y985813D01*
X147469Y985751D01*
X147451Y985691D01*
X147430Y985632D01*
X147405Y985574D01*
X147376Y985518D01*
X147344Y985464D01*
X147309Y985412D01*
X147271Y985363D01*
X147229Y985315D01*
X147185Y985271D01*
X147137Y985229D01*
X147088Y985191D01*
X147036Y985156D01*
X146982Y985124D01*
X146926Y985095D01*
X146868Y985070D01*
X146809Y985049D01*
X146749Y985031D01*
X146687Y985018D01*
X146625Y985008D01*
X146563Y985002D01*
X146500Y985000D01*
X146437Y985002D01*
X146375Y985008D01*
X146313Y985018D01*
X146251Y985031D01*
X146191Y985049D01*
X146132Y985070D01*
X146074Y985095D01*
X146018Y985124D01*
X145964Y985156D01*
X145912Y985191D01*
X145863Y985229D01*
X145815Y985271D01*
X145771Y985315D01*
X145729Y985363D01*
X145691Y985412D01*
X145656Y985464D01*
X145624Y985518D01*
X145595Y985574D01*
X145570Y985632D01*
X145549Y985691D01*
X145531Y985751D01*
X145518Y985813D01*
X145508Y985875D01*
X145502Y985937D01*
X145500Y986000D01*
D12*
X132500Y906750D02*
X92500Y906750D01*
X82500Y924500D02*
X82500Y949250D01*
X92500Y949250D01*
X132500Y949250D02*
X142500Y949250D01*
X142500Y924500D01*
D10*
X39100Y952450D02*
X39100Y985050D01*
X60900Y985050D02*
X60900Y952450D01*
D11*
X154000Y959250D02*
X154000Y965750D01*
X183500Y965750D01*
X183500Y959250D01*
X154000Y959250D01*
X152750Y955750D02*
X152750Y944250D01*
D10*
X357200Y1021900D02*
X357200Y1036300D01*
X267800Y1036300D02*
X267800Y1021900D01*
X267800Y1063700D02*
X267800Y1076000D01*
X357200Y1076000D01*
X357200Y1063700D01*
D11*
X345500Y986000D02*
X345502Y986063D01*
X345508Y986125D01*
X345518Y986187D01*
X345531Y986249D01*
X345549Y986309D01*
X345570Y986368D01*
X345595Y986426D01*
X345624Y986482D01*
X345656Y986536D01*
X345691Y986588D01*
X345729Y986637D01*
X345771Y986685D01*
X345815Y986729D01*
X345863Y986771D01*
X345912Y986809D01*
X345964Y986844D01*
X346018Y986876D01*
X346074Y986905D01*
X346132Y986930D01*
X346191Y986951D01*
X346251Y986969D01*
X346313Y986982D01*
X346375Y986992D01*
X346437Y986998D01*
X346500Y987000D01*
X346563Y986998D01*
X346625Y986992D01*
X346687Y986982D01*
X346749Y986969D01*
X346809Y986951D01*
X346868Y986930D01*
X346926Y986905D01*
X346982Y986876D01*
X347036Y986844D01*
X347088Y986809D01*
X347137Y986771D01*
X347185Y986729D01*
X347229Y986685D01*
X347271Y986637D01*
X347309Y986588D01*
X347344Y986536D01*
X347376Y986482D01*
X347405Y986426D01*
X347430Y986368D01*
X347451Y986309D01*
X347469Y986249D01*
X347482Y986187D01*
X347492Y986125D01*
X347498Y986063D01*
X347500Y986000D01*
X347498Y985937D01*
X347492Y985875D01*
X347482Y985813D01*
X347469Y985751D01*
X347451Y985691D01*
X347430Y985632D01*
X347405Y985574D01*
X347376Y985518D01*
X347344Y985464D01*
X347309Y985412D01*
X347271Y985363D01*
X347229Y985315D01*
X347185Y985271D01*
X347137Y985229D01*
X347088Y985191D01*
X347036Y985156D01*
X346982Y985124D01*
X346926Y985095D01*
X346868Y985070D01*
X346809Y985049D01*
X346749Y985031D01*
X346687Y985018D01*
X346625Y985008D01*
X346563Y985002D01*
X346500Y985000D01*
X346437Y985002D01*
X346375Y985008D01*
X346313Y985018D01*
X346251Y985031D01*
X346191Y985049D01*
X346132Y985070D01*
X346074Y985095D01*
X346018Y985124D01*
X345964Y985156D01*
X345912Y985191D01*
X345863Y985229D01*
X345815Y985271D01*
X345771Y985315D01*
X345729Y985363D01*
X345691Y985412D01*
X345656Y985464D01*
X345624Y985518D01*
X345595Y985574D01*
X345570Y985632D01*
X345549Y985691D01*
X345531Y985751D01*
X345518Y985813D01*
X345508Y985875D01*
X345502Y985937D01*
X345500Y986000D01*
D12*
X332500Y906750D02*
X292500Y906750D01*
X282500Y924500D02*
X282500Y949250D01*
X292500Y949250D01*
X332500Y949250D02*
X342500Y949250D01*
X342500Y924500D01*
D10*
X239100Y952450D02*
X239100Y985050D01*
X260900Y985050D02*
X260900Y952450D01*
D11*
X360250Y959250D02*
X360250Y965750D01*
X389750Y965750D01*
X389750Y959250D01*
X360250Y959250D01*
X359000Y955750D02*
X359000Y944250D01*
D10*
X557200Y1021900D02*
X557200Y1036300D01*
X467800Y1036300D02*
X467800Y1021900D01*
X467800Y1063700D02*
X467800Y1076000D01*
X557200Y1076000D01*
X557200Y1063700D01*
D11*
X545500Y986000D02*
X545502Y986063D01*
X545508Y986125D01*
X545518Y986187D01*
X545531Y986249D01*
X545549Y986309D01*
X545570Y986368D01*
X545595Y986426D01*
X545624Y986482D01*
X545656Y986536D01*
X545691Y986588D01*
X545729Y986637D01*
X545771Y986685D01*
X545815Y986729D01*
X545863Y986771D01*
X545912Y986809D01*
X545964Y986844D01*
X546018Y986876D01*
X546074Y986905D01*
X546132Y986930D01*
X546191Y986951D01*
X546251Y986969D01*
X546313Y986982D01*
X546375Y986992D01*
X546437Y986998D01*
X546500Y987000D01*
X546563Y986998D01*
X546625Y986992D01*
X546687Y986982D01*
X546749Y986969D01*
X546809Y986951D01*
X546868Y986930D01*
X546926Y986905D01*
X546982Y986876D01*
X547036Y986844D01*
X547088Y986809D01*
X547137Y986771D01*
X547185Y986729D01*
X547229Y986685D01*
X547271Y986637D01*
X547309Y986588D01*
X547344Y986536D01*
X547376Y986482D01*
X547405Y986426D01*
X547430Y986368D01*
X547451Y986309D01*
X547469Y986249D01*
X547482Y986187D01*
X547492Y986125D01*
X547498Y986063D01*
X547500Y986000D01*
X547498Y985937D01*
X547492Y985875D01*
X547482Y985813D01*
X547469Y985751D01*
X547451Y985691D01*
X547430Y985632D01*
X547405Y985574D01*
X547376Y985518D01*
X547344Y985464D01*
X547309Y985412D01*
X547271Y985363D01*
X547229Y985315D01*
X547185Y985271D01*
X547137Y985229D01*
X547088Y985191D01*
X547036Y985156D01*
X546982Y985124D01*
X546926Y985095D01*
X546868Y985070D01*
X546809Y985049D01*
X546749Y985031D01*
X546687Y985018D01*
X546625Y985008D01*
X546563Y985002D01*
X546500Y985000D01*
X546437Y985002D01*
X546375Y985008D01*
X546313Y985018D01*
X546251Y985031D01*
X546191Y985049D01*
X546132Y985070D01*
X546074Y985095D01*
X546018Y985124D01*
X545964Y985156D01*
X545912Y985191D01*
X545863Y985229D01*
X545815Y985271D01*
X545771Y985315D01*
X545729Y985363D01*
X545691Y985412D01*
X545656Y985464D01*
X545624Y985518D01*
X545595Y985574D01*
X545570Y985632D01*
X545549Y985691D01*
X545531Y985751D01*
X545518Y985813D01*
X545508Y985875D01*
X545502Y985937D01*
X545500Y986000D01*
D12*
X532500Y906750D02*
X492500Y906750D01*
X482500Y924500D02*
X482500Y949250D01*
X492500Y949250D01*
X532500Y949250D02*
X542500Y949250D01*
X542500Y924500D01*
D10*
X439100Y952450D02*
X439100Y985050D01*
X460900Y985050D02*
X460900Y952450D01*
D11*
X554000Y959250D02*
X554000Y965750D01*
X583500Y965750D01*
X583500Y959250D01*
X554000Y959250D01*
X552750Y955750D02*
X552750Y944250D01*
D10*
X757200Y1021900D02*
X757200Y1036300D01*
X667800Y1036300D02*
X667800Y1021900D01*
X667800Y1063700D02*
X667800Y1076000D01*
X757200Y1076000D01*
X757200Y1063700D01*
D11*
X745500Y986000D02*
X745502Y986063D01*
X745508Y986125D01*
X745518Y986187D01*
X745531Y986249D01*
X745549Y986309D01*
X745570Y986368D01*
X745595Y986426D01*
X745624Y986482D01*
X745656Y986536D01*
X745691Y986588D01*
X745729Y986637D01*
X745771Y986685D01*
X745815Y986729D01*
X745863Y986771D01*
X745912Y986809D01*
X745964Y986844D01*
X746018Y986876D01*
X746074Y986905D01*
X746132Y986930D01*
X746191Y986951D01*
X746251Y986969D01*
X746313Y986982D01*
X746375Y986992D01*
X746437Y986998D01*
X746500Y987000D01*
X746563Y986998D01*
X746625Y986992D01*
X746687Y986982D01*
X746749Y986969D01*
X746809Y986951D01*
X746868Y986930D01*
X746926Y986905D01*
X746982Y986876D01*
X747036Y986844D01*
X747088Y986809D01*
X747137Y986771D01*
X747185Y986729D01*
X747229Y986685D01*
X747271Y986637D01*
X747309Y986588D01*
X747344Y986536D01*
X747376Y986482D01*
X747405Y986426D01*
X747430Y986368D01*
X747451Y986309D01*
X747469Y986249D01*
X747482Y986187D01*
X747492Y986125D01*
X747498Y986063D01*
X747500Y986000D01*
X747498Y985937D01*
X747492Y985875D01*
X747482Y985813D01*
X747469Y985751D01*
X747451Y985691D01*
X747430Y985632D01*
X747405Y985574D01*
X747376Y985518D01*
X747344Y985464D01*
X747309Y985412D01*
X747271Y985363D01*
X747229Y985315D01*
X747185Y985271D01*
X747137Y985229D01*
X747088Y985191D01*
X747036Y985156D01*
X746982Y985124D01*
X746926Y985095D01*
X746868Y985070D01*
X746809Y985049D01*
X746749Y985031D01*
X746687Y985018D01*
X746625Y985008D01*
X746563Y985002D01*
X746500Y985000D01*
X746437Y985002D01*
X746375Y985008D01*
X746313Y985018D01*
X746251Y985031D01*
X746191Y985049D01*
X746132Y985070D01*
X746074Y985095D01*
X746018Y985124D01*
X745964Y985156D01*
X745912Y985191D01*
X745863Y985229D01*
X745815Y985271D01*
X745771Y985315D01*
X745729Y985363D01*
X745691Y985412D01*
X745656Y985464D01*
X745624Y985518D01*
X745595Y985574D01*
X745570Y985632D01*
X745549Y985691D01*
X745531Y985751D01*
X745518Y985813D01*
X745508Y985875D01*
X745502Y985937D01*
X745500Y986000D01*
D12*
X732500Y906750D02*
X692500Y906750D01*
X682500Y924500D02*
X682500Y949250D01*
X692500Y949250D01*
X732500Y949250D02*
X742500Y949250D01*
X742500Y924500D01*
D10*
X639100Y952450D02*
X639100Y985050D01*
X660900Y985050D02*
X660900Y952450D01*
D11*
X754000Y959250D02*
X754000Y965750D01*
X783500Y965750D01*
X783500Y959250D01*
X754000Y959250D01*
X752750Y955750D02*
X752750Y944250D01*
D10*
X957200Y1021900D02*
X957200Y1036300D01*
X867800Y1036300D02*
X867800Y1021900D01*
X867800Y1063700D02*
X867800Y1076000D01*
X957200Y1076000D01*
X957200Y1063700D01*
D11*
X945500Y986000D02*
X945502Y986063D01*
X945508Y986125D01*
X945518Y986187D01*
X945531Y986249D01*
X945549Y986309D01*
X945570Y986368D01*
X945595Y986426D01*
X945624Y986482D01*
X945656Y986536D01*
X945691Y986588D01*
X945729Y986637D01*
X945771Y986685D01*
X945815Y986729D01*
X945863Y986771D01*
X945912Y986809D01*
X945964Y986844D01*
X946018Y986876D01*
X946074Y986905D01*
X946132Y986930D01*
X946191Y986951D01*
X946251Y986969D01*
X946313Y986982D01*
X946375Y986992D01*
X946437Y986998D01*
X946500Y987000D01*
X946563Y986998D01*
X946625Y986992D01*
X946687Y986982D01*
X946749Y986969D01*
X946809Y986951D01*
X946868Y986930D01*
X946926Y986905D01*
X946982Y986876D01*
X947036Y986844D01*
X947088Y986809D01*
X947137Y986771D01*
X947185Y986729D01*
X947229Y986685D01*
X947271Y986637D01*
X947309Y986588D01*
X947344Y986536D01*
X947376Y986482D01*
X947405Y986426D01*
X947430Y986368D01*
X947451Y986309D01*
X947469Y986249D01*
X947482Y986187D01*
X947492Y986125D01*
X947498Y986063D01*
X947500Y986000D01*
X947498Y985937D01*
X947492Y985875D01*
X947482Y985813D01*
X947469Y985751D01*
X947451Y985691D01*
X947430Y985632D01*
X947405Y985574D01*
X947376Y985518D01*
X947344Y985464D01*
X947309Y985412D01*
X947271Y985363D01*
X947229Y985315D01*
X947185Y985271D01*
X947137Y985229D01*
X947088Y985191D01*
X947036Y985156D01*
X946982Y985124D01*
X946926Y985095D01*
X946868Y985070D01*
X946809Y985049D01*
X946749Y985031D01*
X946687Y985018D01*
X946625Y985008D01*
X946563Y985002D01*
X946500Y985000D01*
X946437Y985002D01*
X946375Y985008D01*
X946313Y985018D01*
X946251Y985031D01*
X946191Y985049D01*
X946132Y985070D01*
X946074Y985095D01*
X946018Y985124D01*
X945964Y985156D01*
X945912Y985191D01*
X945863Y985229D01*
X945815Y985271D01*
X945771Y985315D01*
X945729Y985363D01*
X945691Y985412D01*
X945656Y985464D01*
X945624Y985518D01*
X945595Y985574D01*
X945570Y985632D01*
X945549Y985691D01*
X945531Y985751D01*
X945518Y985813D01*
X945508Y985875D01*
X945502Y985937D01*
X945500Y986000D01*
D12*
X932500Y906750D02*
X892500Y906750D01*
X882500Y924500D02*
X882500Y949250D01*
X892500Y949250D01*
X932500Y949250D02*
X942500Y949250D01*
X942500Y924500D01*
D10*
X839100Y952450D02*
X839100Y985050D01*
X860900Y985050D02*
X860900Y952450D01*
D11*
X954000Y959250D02*
X954000Y965750D01*
X983500Y965750D01*
X983500Y959250D01*
X954000Y959250D01*
X952750Y955750D02*
X952750Y944250D01*
D10*
X157200Y836300D02*
X157200Y821900D01*
X67800Y821900D02*
X67800Y836300D01*
X67800Y863700D02*
X67800Y876000D01*
X157200Y876000D01*
X157200Y863700D01*
D11*
X145500Y786000D02*
X145502Y786063D01*
X145508Y786125D01*
X145518Y786187D01*
X145531Y786249D01*
X145549Y786309D01*
X145570Y786368D01*
X145595Y786426D01*
X145624Y786482D01*
X145656Y786536D01*
X145691Y786588D01*
X145729Y786637D01*
X145771Y786685D01*
X145815Y786729D01*
X145863Y786771D01*
X145912Y786809D01*
X145964Y786844D01*
X146018Y786876D01*
X146074Y786905D01*
X146132Y786930D01*
X146191Y786951D01*
X146251Y786969D01*
X146313Y786982D01*
X146375Y786992D01*
X146437Y786998D01*
X146500Y787000D01*
X146563Y786998D01*
X146625Y786992D01*
X146687Y786982D01*
X146749Y786969D01*
X146809Y786951D01*
X146868Y786930D01*
X146926Y786905D01*
X146982Y786876D01*
X147036Y786844D01*
X147088Y786809D01*
X147137Y786771D01*
X147185Y786729D01*
X147229Y786685D01*
X147271Y786637D01*
X147309Y786588D01*
X147344Y786536D01*
X147376Y786482D01*
X147405Y786426D01*
X147430Y786368D01*
X147451Y786309D01*
X147469Y786249D01*
X147482Y786187D01*
X147492Y786125D01*
X147498Y786063D01*
X147500Y786000D01*
X147498Y785937D01*
X147492Y785875D01*
X147482Y785813D01*
X147469Y785751D01*
X147451Y785691D01*
X147430Y785632D01*
X147405Y785574D01*
X147376Y785518D01*
X147344Y785464D01*
X147309Y785412D01*
X147271Y785363D01*
X147229Y785315D01*
X147185Y785271D01*
X147137Y785229D01*
X147088Y785191D01*
X147036Y785156D01*
X146982Y785124D01*
X146926Y785095D01*
X146868Y785070D01*
X146809Y785049D01*
X146749Y785031D01*
X146687Y785018D01*
X146625Y785008D01*
X146563Y785002D01*
X146500Y785000D01*
X146437Y785002D01*
X146375Y785008D01*
X146313Y785018D01*
X146251Y785031D01*
X146191Y785049D01*
X146132Y785070D01*
X146074Y785095D01*
X146018Y785124D01*
X145964Y785156D01*
X145912Y785191D01*
X145863Y785229D01*
X145815Y785271D01*
X145771Y785315D01*
X145729Y785363D01*
X145691Y785412D01*
X145656Y785464D01*
X145624Y785518D01*
X145595Y785574D01*
X145570Y785632D01*
X145549Y785691D01*
X145531Y785751D01*
X145518Y785813D01*
X145508Y785875D01*
X145502Y785937D01*
X145500Y786000D01*
D12*
X132500Y706750D02*
X92500Y706750D01*
X82500Y724500D02*
X82500Y749250D01*
X92500Y749250D01*
X132500Y749250D02*
X142500Y749250D01*
X142500Y724500D01*
D10*
X39100Y752450D02*
X39100Y785050D01*
X60900Y785050D02*
X60900Y752450D01*
D11*
X154000Y759250D02*
X154000Y765750D01*
X183500Y765750D01*
X183500Y759250D01*
X154000Y759250D01*
X152750Y755750D02*
X152750Y744250D01*
D10*
X357200Y821900D02*
X357200Y836300D01*
X267800Y836300D02*
X267800Y821900D01*
X267800Y863700D02*
X267800Y876000D01*
X357200Y876000D01*
X357200Y863700D01*
D11*
X345500Y786000D02*
X345502Y786063D01*
X345508Y786125D01*
X345518Y786187D01*
X345531Y786249D01*
X345549Y786309D01*
X345570Y786368D01*
X345595Y786426D01*
X345624Y786482D01*
X345656Y786536D01*
X345691Y786588D01*
X345729Y786637D01*
X345771Y786685D01*
X345815Y786729D01*
X345863Y786771D01*
X345912Y786809D01*
X345964Y786844D01*
X346018Y786876D01*
X346074Y786905D01*
X346132Y786930D01*
X346191Y786951D01*
X346251Y786969D01*
X346313Y786982D01*
X346375Y786992D01*
X346437Y786998D01*
X346500Y787000D01*
X346563Y786998D01*
X346625Y786992D01*
X346687Y786982D01*
X346749Y786969D01*
X346809Y786951D01*
X346868Y786930D01*
X346926Y786905D01*
X346982Y786876D01*
X347036Y786844D01*
X347088Y786809D01*
X347137Y786771D01*
X347185Y786729D01*
X347229Y786685D01*
X347271Y786637D01*
X347309Y786588D01*
X347344Y786536D01*
X347376Y786482D01*
X347405Y786426D01*
X347430Y786368D01*
X347451Y786309D01*
X347469Y786249D01*
X347482Y786187D01*
X347492Y786125D01*
X347498Y786063D01*
X347500Y786000D01*
X347498Y785937D01*
X347492Y785875D01*
X347482Y785813D01*
X347469Y785751D01*
X347451Y785691D01*
X347430Y785632D01*
X347405Y785574D01*
X347376Y785518D01*
X347344Y785464D01*
X347309Y785412D01*
X347271Y785363D01*
X347229Y785315D01*
X347185Y785271D01*
X347137Y785229D01*
X347088Y785191D01*
X347036Y785156D01*
X346982Y785124D01*
X346926Y785095D01*
X346868Y785070D01*
X346809Y785049D01*
X346749Y785031D01*
X346687Y785018D01*
X346625Y785008D01*
X346563Y785002D01*
X346500Y785000D01*
X346437Y785002D01*
X346375Y785008D01*
X346313Y785018D01*
X346251Y785031D01*
X346191Y785049D01*
X346132Y785070D01*
X346074Y785095D01*
X346018Y785124D01*
X345964Y785156D01*
X345912Y785191D01*
X345863Y785229D01*
X345815Y785271D01*
X345771Y785315D01*
X345729Y785363D01*
X345691Y785412D01*
X345656Y785464D01*
X345624Y785518D01*
X345595Y785574D01*
X345570Y785632D01*
X345549Y785691D01*
X345531Y785751D01*
X345518Y785813D01*
X345508Y785875D01*
X345502Y785937D01*
X345500Y786000D01*
D12*
X332500Y706750D02*
X292500Y706750D01*
X282500Y724500D02*
X282500Y749250D01*
X292500Y749250D01*
X332500Y749250D02*
X342500Y749250D01*
X342500Y724500D01*
D10*
X239100Y752450D02*
X239100Y785050D01*
X260900Y785050D02*
X260900Y752450D01*
D11*
X354000Y759250D02*
X354000Y765750D01*
X383500Y765750D01*
X383500Y759250D01*
X354000Y759250D01*
X352750Y755750D02*
X352750Y744250D01*
D10*
X557200Y821900D02*
X557200Y836300D01*
X467800Y836300D02*
X467800Y821900D01*
X467800Y863700D02*
X467800Y876000D01*
X557200Y876000D01*
X557200Y863700D01*
D11*
X545500Y786000D02*
X545502Y786063D01*
X545508Y786125D01*
X545518Y786187D01*
X545531Y786249D01*
X545549Y786309D01*
X545570Y786368D01*
X545595Y786426D01*
X545624Y786482D01*
X545656Y786536D01*
X545691Y786588D01*
X545729Y786637D01*
X545771Y786685D01*
X545815Y786729D01*
X545863Y786771D01*
X545912Y786809D01*
X545964Y786844D01*
X546018Y786876D01*
X546074Y786905D01*
X546132Y786930D01*
X546191Y786951D01*
X546251Y786969D01*
X546313Y786982D01*
X546375Y786992D01*
X546437Y786998D01*
X546500Y787000D01*
X546563Y786998D01*
X546625Y786992D01*
X546687Y786982D01*
X546749Y786969D01*
X546809Y786951D01*
X546868Y786930D01*
X546926Y786905D01*
X546982Y786876D01*
X547036Y786844D01*
X547088Y786809D01*
X547137Y786771D01*
X547185Y786729D01*
X547229Y786685D01*
X547271Y786637D01*
X547309Y786588D01*
X547344Y786536D01*
X547376Y786482D01*
X547405Y786426D01*
X547430Y786368D01*
X547451Y786309D01*
X547469Y786249D01*
X547482Y786187D01*
X547492Y786125D01*
X547498Y786063D01*
X547500Y786000D01*
X547498Y785937D01*
X547492Y785875D01*
X547482Y785813D01*
X547469Y785751D01*
X547451Y785691D01*
X547430Y785632D01*
X547405Y785574D01*
X547376Y785518D01*
X547344Y785464D01*
X547309Y785412D01*
X547271Y785363D01*
X547229Y785315D01*
X547185Y785271D01*
X547137Y785229D01*
X547088Y785191D01*
X547036Y785156D01*
X546982Y785124D01*
X546926Y785095D01*
X546868Y785070D01*
X546809Y785049D01*
X546749Y785031D01*
X546687Y785018D01*
X546625Y785008D01*
X546563Y785002D01*
X546500Y785000D01*
X546437Y785002D01*
X546375Y785008D01*
X546313Y785018D01*
X546251Y785031D01*
X546191Y785049D01*
X546132Y785070D01*
X546074Y785095D01*
X546018Y785124D01*
X545964Y785156D01*
X545912Y785191D01*
X545863Y785229D01*
X545815Y785271D01*
X545771Y785315D01*
X545729Y785363D01*
X545691Y785412D01*
X545656Y785464D01*
X545624Y785518D01*
X545595Y785574D01*
X545570Y785632D01*
X545549Y785691D01*
X545531Y785751D01*
X545518Y785813D01*
X545508Y785875D01*
X545502Y785937D01*
X545500Y786000D01*
D12*
X532500Y706750D02*
X492500Y706750D01*
X482500Y724500D02*
X482500Y749250D01*
X492500Y749250D01*
X532500Y749250D02*
X542500Y749250D01*
X542500Y724500D01*
D10*
X439100Y752450D02*
X439100Y785050D01*
X460900Y785050D02*
X460900Y752450D01*
D11*
X554000Y759250D02*
X554000Y765750D01*
X583500Y765750D01*
X583500Y759250D01*
X554000Y759250D01*
X552750Y755750D02*
X552750Y744250D01*
D10*
X757200Y821900D02*
X757200Y836300D01*
X667800Y836300D02*
X667800Y821900D01*
X667800Y863700D02*
X667800Y876000D01*
X757200Y876000D01*
X757200Y863700D01*
D11*
X745500Y786000D02*
X745502Y786063D01*
X745508Y786125D01*
X745518Y786187D01*
X745531Y786249D01*
X745549Y786309D01*
X745570Y786368D01*
X745595Y786426D01*
X745624Y786482D01*
X745656Y786536D01*
X745691Y786588D01*
X745729Y786637D01*
X745771Y786685D01*
X745815Y786729D01*
X745863Y786771D01*
X745912Y786809D01*
X745964Y786844D01*
X746018Y786876D01*
X746074Y786905D01*
X746132Y786930D01*
X746191Y786951D01*
X746251Y786969D01*
X746313Y786982D01*
X746375Y786992D01*
X746437Y786998D01*
X746500Y787000D01*
X746563Y786998D01*
X746625Y786992D01*
X746687Y786982D01*
X746749Y786969D01*
X746809Y786951D01*
X746868Y786930D01*
X746926Y786905D01*
X746982Y786876D01*
X747036Y786844D01*
X747088Y786809D01*
X747137Y786771D01*
X747185Y786729D01*
X747229Y786685D01*
X747271Y786637D01*
X747309Y786588D01*
X747344Y786536D01*
X747376Y786482D01*
X747405Y786426D01*
X747430Y786368D01*
X747451Y786309D01*
X747469Y786249D01*
X747482Y786187D01*
X747492Y786125D01*
X747498Y786063D01*
X747500Y786000D01*
X747498Y785937D01*
X747492Y785875D01*
X747482Y785813D01*
X747469Y785751D01*
X747451Y785691D01*
X747430Y785632D01*
X747405Y785574D01*
X747376Y785518D01*
X747344Y785464D01*
X747309Y785412D01*
X747271Y785363D01*
X747229Y785315D01*
X747185Y785271D01*
X747137Y785229D01*
X747088Y785191D01*
X747036Y785156D01*
X746982Y785124D01*
X746926Y785095D01*
X746868Y785070D01*
X746809Y785049D01*
X746749Y785031D01*
X746687Y785018D01*
X746625Y785008D01*
X746563Y785002D01*
X746500Y785000D01*
X746437Y785002D01*
X746375Y785008D01*
X746313Y785018D01*
X746251Y785031D01*
X746191Y785049D01*
X746132Y785070D01*
X746074Y785095D01*
X746018Y785124D01*
X745964Y785156D01*
X745912Y785191D01*
X745863Y785229D01*
X745815Y785271D01*
X745771Y785315D01*
X745729Y785363D01*
X745691Y785412D01*
X745656Y785464D01*
X745624Y785518D01*
X745595Y785574D01*
X745570Y785632D01*
X745549Y785691D01*
X745531Y785751D01*
X745518Y785813D01*
X745508Y785875D01*
X745502Y785937D01*
X745500Y786000D01*
D12*
X732500Y706750D02*
X692500Y706750D01*
X682500Y724500D02*
X682500Y749250D01*
X692500Y749250D01*
X732500Y749250D02*
X742500Y749250D01*
X742500Y724500D01*
D10*
X639100Y752450D02*
X639100Y785050D01*
X660900Y785050D02*
X660900Y752450D01*
D11*
X754000Y759250D02*
X754000Y765750D01*
X783500Y765750D01*
X783500Y759250D01*
X754000Y759250D01*
X752750Y755750D02*
X752750Y744250D01*
D10*
X957200Y821900D02*
X957200Y836300D01*
X867800Y836300D02*
X867800Y821900D01*
X867800Y863700D02*
X867800Y876000D01*
X957200Y876000D01*
X957200Y863700D01*
D11*
X945500Y786000D02*
X945502Y786063D01*
X945508Y786125D01*
X945518Y786187D01*
X945531Y786249D01*
X945549Y786309D01*
X945570Y786368D01*
X945595Y786426D01*
X945624Y786482D01*
X945656Y786536D01*
X945691Y786588D01*
X945729Y786637D01*
X945771Y786685D01*
X945815Y786729D01*
X945863Y786771D01*
X945912Y786809D01*
X945964Y786844D01*
X946018Y786876D01*
X946074Y786905D01*
X946132Y786930D01*
X946191Y786951D01*
X946251Y786969D01*
X946313Y786982D01*
X946375Y786992D01*
X946437Y786998D01*
X946500Y787000D01*
X946563Y786998D01*
X946625Y786992D01*
X946687Y786982D01*
X946749Y786969D01*
X946809Y786951D01*
X946868Y786930D01*
X946926Y786905D01*
X946982Y786876D01*
X947036Y786844D01*
X947088Y786809D01*
X947137Y786771D01*
X947185Y786729D01*
X947229Y786685D01*
X947271Y786637D01*
X947309Y786588D01*
X947344Y786536D01*
X947376Y786482D01*
X947405Y786426D01*
X947430Y786368D01*
X947451Y786309D01*
X947469Y786249D01*
X947482Y786187D01*
X947492Y786125D01*
X947498Y786063D01*
X947500Y786000D01*
X947498Y785937D01*
X947492Y785875D01*
X947482Y785813D01*
X947469Y785751D01*
X947451Y785691D01*
X947430Y785632D01*
X947405Y785574D01*
X947376Y785518D01*
X947344Y785464D01*
X947309Y785412D01*
X947271Y785363D01*
X947229Y785315D01*
X947185Y785271D01*
X947137Y785229D01*
X947088Y785191D01*
X947036Y785156D01*
X946982Y785124D01*
X946926Y785095D01*
X946868Y785070D01*
X946809Y785049D01*
X946749Y785031D01*
X946687Y785018D01*
X946625Y785008D01*
X946563Y785002D01*
X946500Y785000D01*
X946437Y785002D01*
X946375Y785008D01*
X946313Y785018D01*
X946251Y785031D01*
X946191Y785049D01*
X946132Y785070D01*
X946074Y785095D01*
X946018Y785124D01*
X945964Y785156D01*
X945912Y785191D01*
X945863Y785229D01*
X945815Y785271D01*
X945771Y785315D01*
X945729Y785363D01*
X945691Y785412D01*
X945656Y785464D01*
X945624Y785518D01*
X945595Y785574D01*
X945570Y785632D01*
X945549Y785691D01*
X945531Y785751D01*
X945518Y785813D01*
X945508Y785875D01*
X945502Y785937D01*
X945500Y786000D01*
D12*
X932500Y706750D02*
X892500Y706750D01*
X882500Y724500D02*
X882500Y749250D01*
X892500Y749250D01*
X932500Y749250D02*
X942500Y749250D01*
X942500Y724500D01*
D10*
X839100Y752450D02*
X839100Y785050D01*
X860900Y785050D02*
X860900Y752450D01*
D11*
X954000Y759250D02*
X954000Y765750D01*
X983500Y765750D01*
X983500Y759250D01*
X954000Y759250D01*
X952750Y755750D02*
X952750Y744250D01*
D10*
X157200Y636300D02*
X157200Y621900D01*
X67800Y621900D02*
X67800Y636300D01*
X67800Y663700D02*
X67800Y676000D01*
X157200Y676000D01*
X157200Y663700D01*
D11*
X145500Y586000D02*
X145502Y586063D01*
X145508Y586125D01*
X145518Y586187D01*
X145531Y586249D01*
X145549Y586309D01*
X145570Y586368D01*
X145595Y586426D01*
X145624Y586482D01*
X145656Y586536D01*
X145691Y586588D01*
X145729Y586637D01*
X145771Y586685D01*
X145815Y586729D01*
X145863Y586771D01*
X145912Y586809D01*
X145964Y586844D01*
X146018Y586876D01*
X146074Y586905D01*
X146132Y586930D01*
X146191Y586951D01*
X146251Y586969D01*
X146313Y586982D01*
X146375Y586992D01*
X146437Y586998D01*
X146500Y587000D01*
X146563Y586998D01*
X146625Y586992D01*
X146687Y586982D01*
X146749Y586969D01*
X146809Y586951D01*
X146868Y586930D01*
X146926Y586905D01*
X146982Y586876D01*
X147036Y586844D01*
X147088Y586809D01*
X147137Y586771D01*
X147185Y586729D01*
X147229Y586685D01*
X147271Y586637D01*
X147309Y586588D01*
X147344Y586536D01*
X147376Y586482D01*
X147405Y586426D01*
X147430Y586368D01*
X147451Y586309D01*
X147469Y586249D01*
X147482Y586187D01*
X147492Y586125D01*
X147498Y586063D01*
X147500Y586000D01*
X147498Y585937D01*
X147492Y585875D01*
X147482Y585813D01*
X147469Y585751D01*
X147451Y585691D01*
X147430Y585632D01*
X147405Y585574D01*
X147376Y585518D01*
X147344Y585464D01*
X147309Y585412D01*
X147271Y585363D01*
X147229Y585315D01*
X147185Y585271D01*
X147137Y585229D01*
X147088Y585191D01*
X147036Y585156D01*
X146982Y585124D01*
X146926Y585095D01*
X146868Y585070D01*
X146809Y585049D01*
X146749Y585031D01*
X146687Y585018D01*
X146625Y585008D01*
X146563Y585002D01*
X146500Y585000D01*
X146437Y585002D01*
X146375Y585008D01*
X146313Y585018D01*
X146251Y585031D01*
X146191Y585049D01*
X146132Y585070D01*
X146074Y585095D01*
X146018Y585124D01*
X145964Y585156D01*
X145912Y585191D01*
X145863Y585229D01*
X145815Y585271D01*
X145771Y585315D01*
X145729Y585363D01*
X145691Y585412D01*
X145656Y585464D01*
X145624Y585518D01*
X145595Y585574D01*
X145570Y585632D01*
X145549Y585691D01*
X145531Y585751D01*
X145518Y585813D01*
X145508Y585875D01*
X145502Y585937D01*
X145500Y586000D01*
D12*
X132500Y506750D02*
X92500Y506750D01*
X82500Y524500D02*
X82500Y549250D01*
X92500Y549250D01*
X132500Y549250D02*
X142500Y549250D01*
X142500Y524500D01*
D10*
X39100Y552450D02*
X39100Y585050D01*
X60900Y585050D02*
X60900Y552450D01*
D11*
X154000Y559250D02*
X154000Y565750D01*
X183500Y565750D01*
X183500Y559250D01*
X154000Y559250D01*
X152750Y555750D02*
X152750Y544250D01*
D10*
X357200Y621900D02*
X357200Y636300D01*
X267800Y636300D02*
X267800Y621900D01*
X267800Y663700D02*
X267800Y676000D01*
X357200Y676000D01*
X357200Y663700D01*
D11*
X345500Y586000D02*
X345502Y586063D01*
X345508Y586125D01*
X345518Y586187D01*
X345531Y586249D01*
X345549Y586309D01*
X345570Y586368D01*
X345595Y586426D01*
X345624Y586482D01*
X345656Y586536D01*
X345691Y586588D01*
X345729Y586637D01*
X345771Y586685D01*
X345815Y586729D01*
X345863Y586771D01*
X345912Y586809D01*
X345964Y586844D01*
X346018Y586876D01*
X346074Y586905D01*
X346132Y586930D01*
X346191Y586951D01*
X346251Y586969D01*
X346313Y586982D01*
X346375Y586992D01*
X346437Y586998D01*
X346500Y587000D01*
X346563Y586998D01*
X346625Y586992D01*
X346687Y586982D01*
X346749Y586969D01*
X346809Y586951D01*
X346868Y586930D01*
X346926Y586905D01*
X346982Y586876D01*
X347036Y586844D01*
X347088Y586809D01*
X347137Y586771D01*
X347185Y586729D01*
X347229Y586685D01*
X347271Y586637D01*
X347309Y586588D01*
X347344Y586536D01*
X347376Y586482D01*
X347405Y586426D01*
X347430Y586368D01*
X347451Y586309D01*
X347469Y586249D01*
X347482Y586187D01*
X347492Y586125D01*
X347498Y586063D01*
X347500Y586000D01*
X347498Y585937D01*
X347492Y585875D01*
X347482Y585813D01*
X347469Y585751D01*
X347451Y585691D01*
X347430Y585632D01*
X347405Y585574D01*
X347376Y585518D01*
X347344Y585464D01*
X347309Y585412D01*
X347271Y585363D01*
X347229Y585315D01*
X347185Y585271D01*
X347137Y585229D01*
X347088Y585191D01*
X347036Y585156D01*
X346982Y585124D01*
X346926Y585095D01*
X346868Y585070D01*
X346809Y585049D01*
X346749Y585031D01*
X346687Y585018D01*
X346625Y585008D01*
X346563Y585002D01*
X346500Y585000D01*
X346437Y585002D01*
X346375Y585008D01*
X346313Y585018D01*
X346251Y585031D01*
X346191Y585049D01*
X346132Y585070D01*
X346074Y585095D01*
X346018Y585124D01*
X345964Y585156D01*
X345912Y585191D01*
X345863Y585229D01*
X345815Y585271D01*
X345771Y585315D01*
X345729Y585363D01*
X345691Y585412D01*
X345656Y585464D01*
X345624Y585518D01*
X345595Y585574D01*
X345570Y585632D01*
X345549Y585691D01*
X345531Y585751D01*
X345518Y585813D01*
X345508Y585875D01*
X345502Y585937D01*
X345500Y586000D01*
D12*
X332500Y506750D02*
X292500Y506750D01*
X282500Y524500D02*
X282500Y549250D01*
X292500Y549250D01*
X332500Y549250D02*
X342500Y549250D01*
X342500Y524500D01*
D10*
X239100Y552450D02*
X239100Y585050D01*
X260900Y585050D02*
X260900Y552450D01*
D11*
X354000Y559250D02*
X354000Y565750D01*
X383500Y565750D01*
X383500Y559250D01*
X354000Y559250D01*
X352750Y555750D02*
X352750Y544250D01*
D10*
X557200Y621900D02*
X557200Y636300D01*
X467800Y636300D02*
X467800Y621900D01*
X467800Y663700D02*
X467800Y676000D01*
X557200Y676000D01*
X557200Y663700D01*
D11*
X545500Y586000D02*
X545502Y586063D01*
X545508Y586125D01*
X545518Y586187D01*
X545531Y586249D01*
X545549Y586309D01*
X545570Y586368D01*
X545595Y586426D01*
X545624Y586482D01*
X545656Y586536D01*
X545691Y586588D01*
X545729Y586637D01*
X545771Y586685D01*
X545815Y586729D01*
X545863Y586771D01*
X545912Y586809D01*
X545964Y586844D01*
X546018Y586876D01*
X546074Y586905D01*
X546132Y586930D01*
X546191Y586951D01*
X546251Y586969D01*
X546313Y586982D01*
X546375Y586992D01*
X546437Y586998D01*
X546500Y587000D01*
X546563Y586998D01*
X546625Y586992D01*
X546687Y586982D01*
X546749Y586969D01*
X546809Y586951D01*
X546868Y586930D01*
X546926Y586905D01*
X546982Y586876D01*
X547036Y586844D01*
X547088Y586809D01*
X547137Y586771D01*
X547185Y586729D01*
X547229Y586685D01*
X547271Y586637D01*
X547309Y586588D01*
X547344Y586536D01*
X547376Y586482D01*
X547405Y586426D01*
X547430Y586368D01*
X547451Y586309D01*
X547469Y586249D01*
X547482Y586187D01*
X547492Y586125D01*
X547498Y586063D01*
X547500Y586000D01*
X547498Y585937D01*
X547492Y585875D01*
X547482Y585813D01*
X547469Y585751D01*
X547451Y585691D01*
X547430Y585632D01*
X547405Y585574D01*
X547376Y585518D01*
X547344Y585464D01*
X547309Y585412D01*
X547271Y585363D01*
X547229Y585315D01*
X547185Y585271D01*
X547137Y585229D01*
X547088Y585191D01*
X547036Y585156D01*
X546982Y585124D01*
X546926Y585095D01*
X546868Y585070D01*
X546809Y585049D01*
X546749Y585031D01*
X546687Y585018D01*
X546625Y585008D01*
X546563Y585002D01*
X546500Y585000D01*
X546437Y585002D01*
X546375Y585008D01*
X546313Y585018D01*
X546251Y585031D01*
X546191Y585049D01*
X546132Y585070D01*
X546074Y585095D01*
X546018Y585124D01*
X545964Y585156D01*
X545912Y585191D01*
X545863Y585229D01*
X545815Y585271D01*
X545771Y585315D01*
X545729Y585363D01*
X545691Y585412D01*
X545656Y585464D01*
X545624Y585518D01*
X545595Y585574D01*
X545570Y585632D01*
X545549Y585691D01*
X545531Y585751D01*
X545518Y585813D01*
X545508Y585875D01*
X545502Y585937D01*
X545500Y586000D01*
D12*
X532500Y506750D02*
X492500Y506750D01*
X482500Y524500D02*
X482500Y549250D01*
X492500Y549250D01*
X532500Y549250D02*
X542500Y549250D01*
X542500Y524500D01*
D10*
X439100Y552450D02*
X439100Y585050D01*
X460900Y585050D02*
X460900Y552450D01*
D11*
X554000Y559250D02*
X554000Y565750D01*
X583500Y565750D01*
X583500Y559250D01*
X554000Y559250D01*
X552750Y555750D02*
X552750Y544250D01*
D10*
X757200Y621900D02*
X757200Y636300D01*
X667800Y636300D02*
X667800Y621900D01*
X667800Y663700D02*
X667800Y676000D01*
X757200Y676000D01*
X757200Y663700D01*
D11*
X745500Y586000D02*
X745502Y586063D01*
X745508Y586125D01*
X745518Y586187D01*
X745531Y586249D01*
X745549Y586309D01*
X745570Y586368D01*
X745595Y586426D01*
X745624Y586482D01*
X745656Y586536D01*
X745691Y586588D01*
X745729Y586637D01*
X745771Y586685D01*
X745815Y586729D01*
X745863Y586771D01*
X745912Y586809D01*
X745964Y586844D01*
X746018Y586876D01*
X746074Y586905D01*
X746132Y586930D01*
X746191Y586951D01*
X746251Y586969D01*
X746313Y586982D01*
X746375Y586992D01*
X746437Y586998D01*
X746500Y587000D01*
X746563Y586998D01*
X746625Y586992D01*
X746687Y586982D01*
X746749Y586969D01*
X746809Y586951D01*
X746868Y586930D01*
X746926Y586905D01*
X746982Y586876D01*
X747036Y586844D01*
X747088Y586809D01*
X747137Y586771D01*
X747185Y586729D01*
X747229Y586685D01*
X747271Y586637D01*
X747309Y586588D01*
X747344Y586536D01*
X747376Y586482D01*
X747405Y586426D01*
X747430Y586368D01*
X747451Y586309D01*
X747469Y586249D01*
X747482Y586187D01*
X747492Y586125D01*
X747498Y586063D01*
X747500Y586000D01*
X747498Y585937D01*
X747492Y585875D01*
X747482Y585813D01*
X747469Y585751D01*
X747451Y585691D01*
X747430Y585632D01*
X747405Y585574D01*
X747376Y585518D01*
X747344Y585464D01*
X747309Y585412D01*
X747271Y585363D01*
X747229Y585315D01*
X747185Y585271D01*
X747137Y585229D01*
X747088Y585191D01*
X747036Y585156D01*
X746982Y585124D01*
X746926Y585095D01*
X746868Y585070D01*
X746809Y585049D01*
X746749Y585031D01*
X746687Y585018D01*
X746625Y585008D01*
X746563Y585002D01*
X746500Y585000D01*
X746437Y585002D01*
X746375Y585008D01*
X746313Y585018D01*
X746251Y585031D01*
X746191Y585049D01*
X746132Y585070D01*
X746074Y585095D01*
X746018Y585124D01*
X745964Y585156D01*
X745912Y585191D01*
X745863Y585229D01*
X745815Y585271D01*
X745771Y585315D01*
X745729Y585363D01*
X745691Y585412D01*
X745656Y585464D01*
X745624Y585518D01*
X745595Y585574D01*
X745570Y585632D01*
X745549Y585691D01*
X745531Y585751D01*
X745518Y585813D01*
X745508Y585875D01*
X745502Y585937D01*
X745500Y586000D01*
D12*
X732500Y506750D02*
X692500Y506750D01*
X682500Y524500D02*
X682500Y549250D01*
X692500Y549250D01*
X732500Y549250D02*
X742500Y549250D01*
X742500Y524500D01*
D10*
X639100Y552450D02*
X639100Y585050D01*
X660900Y585050D02*
X660900Y552450D01*
D11*
X754000Y559250D02*
X754000Y565750D01*
X783500Y565750D01*
X783500Y559250D01*
X754000Y559250D01*
X752750Y555750D02*
X752750Y544250D01*
D10*
X957200Y621900D02*
X957200Y636300D01*
X867800Y636300D02*
X867800Y621900D01*
X867800Y663700D02*
X867800Y676000D01*
X957200Y676000D01*
X957200Y663700D01*
D11*
X945500Y586000D02*
X945502Y586063D01*
X945508Y586125D01*
X945518Y586187D01*
X945531Y586249D01*
X945549Y586309D01*
X945570Y586368D01*
X945595Y586426D01*
X945624Y586482D01*
X945656Y586536D01*
X945691Y586588D01*
X945729Y586637D01*
X945771Y586685D01*
X945815Y586729D01*
X945863Y586771D01*
X945912Y586809D01*
X945964Y586844D01*
X946018Y586876D01*
X946074Y586905D01*
X946132Y586930D01*
X946191Y586951D01*
X946251Y586969D01*
X946313Y586982D01*
X946375Y586992D01*
X946437Y586998D01*
X946500Y587000D01*
X946563Y586998D01*
X946625Y586992D01*
X946687Y586982D01*
X946749Y586969D01*
X946809Y586951D01*
X946868Y586930D01*
X946926Y586905D01*
X946982Y586876D01*
X947036Y586844D01*
X947088Y586809D01*
X947137Y586771D01*
X947185Y586729D01*
X947229Y586685D01*
X947271Y586637D01*
X947309Y586588D01*
X947344Y586536D01*
X947376Y586482D01*
X947405Y586426D01*
X947430Y586368D01*
X947451Y586309D01*
X947469Y586249D01*
X947482Y586187D01*
X947492Y586125D01*
X947498Y586063D01*
X947500Y586000D01*
X947498Y585937D01*
X947492Y585875D01*
X947482Y585813D01*
X947469Y585751D01*
X947451Y585691D01*
X947430Y585632D01*
X947405Y585574D01*
X947376Y585518D01*
X947344Y585464D01*
X947309Y585412D01*
X947271Y585363D01*
X947229Y585315D01*
X947185Y585271D01*
X947137Y585229D01*
X947088Y585191D01*
X947036Y585156D01*
X946982Y585124D01*
X946926Y585095D01*
X946868Y585070D01*
X946809Y585049D01*
X946749Y585031D01*
X946687Y585018D01*
X946625Y585008D01*
X946563Y585002D01*
X946500Y585000D01*
X946437Y585002D01*
X946375Y585008D01*
X946313Y585018D01*
X946251Y585031D01*
X946191Y585049D01*
X946132Y585070D01*
X946074Y585095D01*
X946018Y585124D01*
X945964Y585156D01*
X945912Y585191D01*
X945863Y585229D01*
X945815Y585271D01*
X945771Y585315D01*
X945729Y585363D01*
X945691Y585412D01*
X945656Y585464D01*
X945624Y585518D01*
X945595Y585574D01*
X945570Y585632D01*
X945549Y585691D01*
X945531Y585751D01*
X945518Y585813D01*
X945508Y585875D01*
X945502Y585937D01*
X945500Y586000D01*
D12*
X932500Y506750D02*
X892500Y506750D01*
X882500Y524500D02*
X882500Y549250D01*
X892500Y549250D01*
X932500Y549250D02*
X942500Y549250D01*
X942500Y524500D01*
D10*
X839100Y552450D02*
X839100Y585050D01*
X860900Y585050D02*
X860900Y552450D01*
D11*
X954000Y559250D02*
X954000Y565750D01*
X983500Y565750D01*
X983500Y559250D01*
X954000Y559250D01*
X952750Y555750D02*
X952750Y544250D01*
M02*
