G04 EAGLE Gerber RS-274X export*
G75*
%MOMM*%
%FSLAX34Y34*%
%LPD*%
%INSilkscreen Top*%
%IPPOS*%
%AMOC8*
5,1,8,0,0,1.08239X$1,22.5*%
G01*
%ADD10C,0.127000*%
%ADD11C,0.200000*%
%ADD12C,0.101600*%
%ADD13C,0.076200*%
%ADD14C,0.152400*%
%ADD15C,0.200000*%
%ADD16R,0.425000X0.325000*%
%ADD17R,0.350000X0.350000*%
%ADD18C,0.050800*%
%ADD19C,0.177800*%


D10*
X282825Y180259D02*
X282825Y194659D01*
X193425Y194659D02*
X193425Y180259D01*
X193425Y222059D02*
X193425Y234359D01*
X282825Y234359D01*
X282825Y222059D01*
D11*
X271125Y144359D02*
X271127Y144422D01*
X271133Y144484D01*
X271143Y144546D01*
X271156Y144608D01*
X271174Y144668D01*
X271195Y144727D01*
X271220Y144785D01*
X271249Y144841D01*
X271281Y144895D01*
X271316Y144947D01*
X271354Y144996D01*
X271396Y145044D01*
X271440Y145088D01*
X271488Y145130D01*
X271537Y145168D01*
X271589Y145203D01*
X271643Y145235D01*
X271699Y145264D01*
X271757Y145289D01*
X271816Y145310D01*
X271876Y145328D01*
X271938Y145341D01*
X272000Y145351D01*
X272062Y145357D01*
X272125Y145359D01*
X272188Y145357D01*
X272250Y145351D01*
X272312Y145341D01*
X272374Y145328D01*
X272434Y145310D01*
X272493Y145289D01*
X272551Y145264D01*
X272607Y145235D01*
X272661Y145203D01*
X272713Y145168D01*
X272762Y145130D01*
X272810Y145088D01*
X272854Y145044D01*
X272896Y144996D01*
X272934Y144947D01*
X272969Y144895D01*
X273001Y144841D01*
X273030Y144785D01*
X273055Y144727D01*
X273076Y144668D01*
X273094Y144608D01*
X273107Y144546D01*
X273117Y144484D01*
X273123Y144422D01*
X273125Y144359D01*
X273123Y144296D01*
X273117Y144234D01*
X273107Y144172D01*
X273094Y144110D01*
X273076Y144050D01*
X273055Y143991D01*
X273030Y143933D01*
X273001Y143877D01*
X272969Y143823D01*
X272934Y143771D01*
X272896Y143722D01*
X272854Y143674D01*
X272810Y143630D01*
X272762Y143588D01*
X272713Y143550D01*
X272661Y143515D01*
X272607Y143483D01*
X272551Y143454D01*
X272493Y143429D01*
X272434Y143408D01*
X272374Y143390D01*
X272312Y143377D01*
X272250Y143367D01*
X272188Y143361D01*
X272125Y143359D01*
X272062Y143361D01*
X272000Y143367D01*
X271938Y143377D01*
X271876Y143390D01*
X271816Y143408D01*
X271757Y143429D01*
X271699Y143454D01*
X271643Y143483D01*
X271589Y143515D01*
X271537Y143550D01*
X271488Y143588D01*
X271440Y143630D01*
X271396Y143674D01*
X271354Y143722D01*
X271316Y143771D01*
X271281Y143823D01*
X271249Y143877D01*
X271220Y143933D01*
X271195Y143991D01*
X271174Y144050D01*
X271156Y144110D01*
X271143Y144172D01*
X271133Y144234D01*
X271127Y144296D01*
X271125Y144359D01*
D12*
X234853Y193764D02*
X234853Y202851D01*
X234852Y193764D02*
X234850Y193665D01*
X234844Y193565D01*
X234835Y193466D01*
X234822Y193368D01*
X234805Y193270D01*
X234784Y193172D01*
X234759Y193076D01*
X234731Y192981D01*
X234699Y192887D01*
X234664Y192794D01*
X234625Y192702D01*
X234582Y192612D01*
X234537Y192524D01*
X234487Y192437D01*
X234435Y192353D01*
X234379Y192270D01*
X234321Y192190D01*
X234259Y192112D01*
X234194Y192037D01*
X234126Y191964D01*
X234056Y191894D01*
X233983Y191826D01*
X233908Y191761D01*
X233830Y191699D01*
X233750Y191641D01*
X233667Y191585D01*
X233583Y191533D01*
X233496Y191483D01*
X233408Y191438D01*
X233318Y191395D01*
X233226Y191356D01*
X233133Y191321D01*
X233039Y191289D01*
X232944Y191261D01*
X232848Y191236D01*
X232750Y191215D01*
X232652Y191198D01*
X232554Y191185D01*
X232455Y191176D01*
X232355Y191170D01*
X232256Y191168D01*
X232256Y191167D02*
X230958Y191167D01*
X240126Y200255D02*
X243371Y202851D01*
X243371Y191167D01*
X240126Y191167D02*
X246617Y191167D01*
D10*
X201400Y129409D02*
X201400Y96809D01*
X179600Y96809D02*
X179600Y129409D01*
D13*
X188943Y139929D02*
X196309Y139929D01*
X188943Y139929D02*
X188943Y143203D01*
X192216Y143203D02*
X192216Y139929D01*
X190579Y146009D02*
X188943Y148055D01*
X196309Y148055D01*
X196309Y146009D02*
X196309Y150101D01*
D12*
X165458Y153555D02*
X165458Y146443D01*
X165458Y153555D02*
X167433Y153555D01*
X167520Y153553D01*
X167608Y153547D01*
X167695Y153538D01*
X167781Y153524D01*
X167867Y153507D01*
X167951Y153486D01*
X168035Y153461D01*
X168118Y153432D01*
X168199Y153400D01*
X168279Y153365D01*
X168357Y153326D01*
X168434Y153283D01*
X168508Y153237D01*
X168580Y153188D01*
X168650Y153136D01*
X168718Y153080D01*
X168783Y153022D01*
X168846Y152961D01*
X168905Y152897D01*
X168962Y152830D01*
X169016Y152762D01*
X169067Y152690D01*
X169114Y152617D01*
X169159Y152542D01*
X169200Y152464D01*
X169237Y152385D01*
X169271Y152305D01*
X169301Y152223D01*
X169328Y152140D01*
X169351Y152055D01*
X169370Y151970D01*
X169385Y151884D01*
X169397Y151797D01*
X169405Y151710D01*
X169409Y151623D01*
X169409Y151535D01*
X169405Y151448D01*
X169397Y151361D01*
X169385Y151274D01*
X169370Y151188D01*
X169351Y151103D01*
X169328Y151018D01*
X169301Y150935D01*
X169271Y150853D01*
X169237Y150773D01*
X169200Y150694D01*
X169159Y150616D01*
X169114Y150541D01*
X169067Y150468D01*
X169016Y150396D01*
X168962Y150328D01*
X168905Y150261D01*
X168846Y150197D01*
X168783Y150136D01*
X168718Y150078D01*
X168650Y150022D01*
X168580Y149970D01*
X168508Y149921D01*
X168434Y149875D01*
X168357Y149832D01*
X168279Y149793D01*
X168199Y149758D01*
X168118Y149726D01*
X168035Y149697D01*
X167951Y149672D01*
X167867Y149651D01*
X167781Y149634D01*
X167695Y149620D01*
X167608Y149611D01*
X167520Y149605D01*
X167433Y149603D01*
X165458Y149603D01*
X167829Y149603D02*
X169409Y146443D01*
X174886Y153555D02*
X174968Y153553D01*
X175050Y153547D01*
X175132Y153538D01*
X175213Y153525D01*
X175293Y153508D01*
X175373Y153487D01*
X175451Y153463D01*
X175528Y153435D01*
X175604Y153404D01*
X175679Y153369D01*
X175751Y153330D01*
X175822Y153289D01*
X175891Y153244D01*
X175957Y153196D01*
X176022Y153145D01*
X176084Y153091D01*
X176143Y153034D01*
X176200Y152975D01*
X176254Y152913D01*
X176305Y152848D01*
X176353Y152782D01*
X176398Y152713D01*
X176439Y152642D01*
X176478Y152570D01*
X176513Y152495D01*
X176544Y152419D01*
X176572Y152342D01*
X176596Y152264D01*
X176617Y152184D01*
X176634Y152104D01*
X176647Y152023D01*
X176656Y151941D01*
X176662Y151859D01*
X176664Y151777D01*
X174886Y153554D02*
X174793Y153552D01*
X174701Y153546D01*
X174609Y153537D01*
X174517Y153524D01*
X174426Y153507D01*
X174336Y153487D01*
X174246Y153463D01*
X174158Y153435D01*
X174070Y153403D01*
X173985Y153369D01*
X173900Y153330D01*
X173818Y153289D01*
X173737Y153244D01*
X173657Y153195D01*
X173580Y153144D01*
X173505Y153090D01*
X173433Y153032D01*
X173363Y152972D01*
X173295Y152908D01*
X173230Y152843D01*
X173167Y152774D01*
X173108Y152703D01*
X173051Y152630D01*
X172997Y152554D01*
X172947Y152477D01*
X172899Y152397D01*
X172855Y152316D01*
X172815Y152232D01*
X172777Y152148D01*
X172743Y152061D01*
X172713Y151974D01*
X176071Y150394D02*
X176132Y150455D01*
X176190Y150518D01*
X176245Y150584D01*
X176298Y150652D01*
X176347Y150723D01*
X176392Y150795D01*
X176435Y150870D01*
X176474Y150946D01*
X176510Y151025D01*
X176542Y151104D01*
X176570Y151185D01*
X176595Y151268D01*
X176616Y151351D01*
X176633Y151435D01*
X176647Y151520D01*
X176656Y151605D01*
X176662Y151691D01*
X176664Y151777D01*
X176071Y150394D02*
X172713Y146443D01*
X176664Y146443D01*
X299458Y194052D02*
X299458Y201164D01*
X301433Y201164D01*
X301520Y201162D01*
X301608Y201156D01*
X301695Y201147D01*
X301781Y201133D01*
X301867Y201116D01*
X301951Y201095D01*
X302035Y201070D01*
X302118Y201041D01*
X302199Y201009D01*
X302279Y200974D01*
X302357Y200935D01*
X302434Y200892D01*
X302508Y200846D01*
X302580Y200797D01*
X302650Y200745D01*
X302718Y200689D01*
X302783Y200631D01*
X302846Y200570D01*
X302905Y200506D01*
X302962Y200439D01*
X303016Y200371D01*
X303067Y200299D01*
X303114Y200226D01*
X303159Y200151D01*
X303200Y200073D01*
X303237Y199994D01*
X303271Y199914D01*
X303301Y199832D01*
X303328Y199749D01*
X303351Y199664D01*
X303370Y199579D01*
X303385Y199493D01*
X303397Y199406D01*
X303405Y199319D01*
X303409Y199232D01*
X303409Y199144D01*
X303405Y199057D01*
X303397Y198970D01*
X303385Y198883D01*
X303370Y198797D01*
X303351Y198712D01*
X303328Y198627D01*
X303301Y198544D01*
X303271Y198462D01*
X303237Y198382D01*
X303200Y198303D01*
X303159Y198225D01*
X303114Y198150D01*
X303067Y198077D01*
X303016Y198005D01*
X302962Y197937D01*
X302905Y197870D01*
X302846Y197806D01*
X302783Y197745D01*
X302718Y197687D01*
X302650Y197631D01*
X302580Y197579D01*
X302508Y197530D01*
X302434Y197484D01*
X302357Y197441D01*
X302279Y197402D01*
X302199Y197367D01*
X302118Y197335D01*
X302035Y197306D01*
X301951Y197281D01*
X301867Y197260D01*
X301781Y197243D01*
X301695Y197229D01*
X301608Y197220D01*
X301520Y197214D01*
X301433Y197212D01*
X301433Y197213D02*
X299458Y197213D01*
X301829Y197213D02*
X303409Y194052D01*
X306713Y199583D02*
X308688Y201164D01*
X308688Y194052D01*
X306713Y194052D02*
X310664Y194052D01*
D14*
X144732Y152458D02*
X129112Y152458D01*
X129112Y180908D02*
X144732Y180908D01*
D15*
X141922Y155188D03*
D13*
X116725Y164224D02*
X116725Y169544D01*
X116725Y164224D02*
X116727Y164135D01*
X116733Y164046D01*
X116743Y163957D01*
X116756Y163869D01*
X116773Y163781D01*
X116795Y163694D01*
X116820Y163609D01*
X116848Y163524D01*
X116881Y163441D01*
X116917Y163359D01*
X116956Y163279D01*
X116999Y163201D01*
X117045Y163125D01*
X117095Y163050D01*
X117148Y162978D01*
X117204Y162909D01*
X117263Y162842D01*
X117324Y162777D01*
X117389Y162716D01*
X117456Y162657D01*
X117525Y162601D01*
X117597Y162548D01*
X117672Y162498D01*
X117748Y162452D01*
X117826Y162409D01*
X117906Y162370D01*
X117988Y162334D01*
X118071Y162301D01*
X118156Y162273D01*
X118241Y162248D01*
X118328Y162226D01*
X118416Y162209D01*
X118504Y162196D01*
X118593Y162186D01*
X118682Y162180D01*
X118771Y162178D01*
X118860Y162180D01*
X118949Y162186D01*
X119038Y162196D01*
X119126Y162209D01*
X119214Y162226D01*
X119301Y162248D01*
X119386Y162273D01*
X119471Y162301D01*
X119554Y162334D01*
X119636Y162370D01*
X119716Y162409D01*
X119794Y162452D01*
X119870Y162498D01*
X119945Y162548D01*
X120017Y162601D01*
X120086Y162657D01*
X120153Y162716D01*
X120218Y162777D01*
X120279Y162842D01*
X120338Y162909D01*
X120394Y162978D01*
X120447Y163050D01*
X120497Y163125D01*
X120543Y163201D01*
X120586Y163279D01*
X120625Y163359D01*
X120661Y163441D01*
X120694Y163524D01*
X120722Y163609D01*
X120747Y163694D01*
X120769Y163781D01*
X120786Y163869D01*
X120799Y163957D01*
X120809Y164046D01*
X120815Y164135D01*
X120817Y164224D01*
X120817Y169544D01*
X124284Y162178D02*
X126330Y162178D01*
X126419Y162180D01*
X126508Y162186D01*
X126597Y162196D01*
X126685Y162209D01*
X126773Y162226D01*
X126860Y162248D01*
X126945Y162273D01*
X127030Y162301D01*
X127113Y162334D01*
X127195Y162370D01*
X127275Y162409D01*
X127353Y162452D01*
X127429Y162498D01*
X127504Y162548D01*
X127576Y162601D01*
X127645Y162657D01*
X127712Y162716D01*
X127777Y162777D01*
X127838Y162842D01*
X127897Y162909D01*
X127953Y162978D01*
X128006Y163050D01*
X128056Y163125D01*
X128102Y163201D01*
X128145Y163279D01*
X128184Y163359D01*
X128220Y163441D01*
X128253Y163524D01*
X128281Y163609D01*
X128306Y163694D01*
X128328Y163781D01*
X128345Y163869D01*
X128358Y163957D01*
X128368Y164046D01*
X128374Y164135D01*
X128376Y164224D01*
X128374Y164313D01*
X128368Y164402D01*
X128358Y164491D01*
X128345Y164579D01*
X128328Y164667D01*
X128306Y164754D01*
X128281Y164839D01*
X128253Y164924D01*
X128220Y165007D01*
X128184Y165089D01*
X128145Y165169D01*
X128102Y165247D01*
X128056Y165323D01*
X128006Y165398D01*
X127953Y165470D01*
X127897Y165539D01*
X127838Y165606D01*
X127777Y165671D01*
X127712Y165732D01*
X127645Y165791D01*
X127576Y165847D01*
X127504Y165900D01*
X127429Y165950D01*
X127353Y165996D01*
X127275Y166039D01*
X127195Y166078D01*
X127113Y166114D01*
X127030Y166147D01*
X126945Y166175D01*
X126860Y166200D01*
X126773Y166222D01*
X126685Y166239D01*
X126597Y166252D01*
X126508Y166262D01*
X126419Y166268D01*
X126330Y166270D01*
X126739Y169544D02*
X124284Y169544D01*
X126739Y169544D02*
X126818Y169542D01*
X126897Y169536D01*
X126976Y169527D01*
X127054Y169514D01*
X127131Y169496D01*
X127207Y169476D01*
X127282Y169451D01*
X127356Y169423D01*
X127429Y169392D01*
X127500Y169356D01*
X127569Y169318D01*
X127636Y169276D01*
X127701Y169231D01*
X127764Y169183D01*
X127825Y169132D01*
X127882Y169078D01*
X127938Y169022D01*
X127990Y168963D01*
X128040Y168901D01*
X128086Y168837D01*
X128130Y168771D01*
X128170Y168703D01*
X128206Y168633D01*
X128240Y168561D01*
X128270Y168487D01*
X128296Y168413D01*
X128319Y168337D01*
X128337Y168260D01*
X128353Y168183D01*
X128364Y168104D01*
X128372Y168026D01*
X128376Y167947D01*
X128376Y167867D01*
X128372Y167788D01*
X128364Y167710D01*
X128353Y167631D01*
X128337Y167554D01*
X128319Y167477D01*
X128296Y167401D01*
X128270Y167327D01*
X128240Y167253D01*
X128206Y167181D01*
X128170Y167111D01*
X128130Y167043D01*
X128086Y166977D01*
X128040Y166913D01*
X127990Y166851D01*
X127938Y166792D01*
X127882Y166736D01*
X127825Y166682D01*
X127764Y166631D01*
X127701Y166583D01*
X127636Y166538D01*
X127569Y166496D01*
X127500Y166458D01*
X127429Y166422D01*
X127356Y166391D01*
X127282Y166363D01*
X127207Y166338D01*
X127131Y166318D01*
X127054Y166300D01*
X126976Y166287D01*
X126897Y166278D01*
X126818Y166272D01*
X126739Y166270D01*
X125102Y166270D01*
D12*
X165552Y140711D02*
X165552Y133599D01*
X165552Y140711D02*
X167527Y140711D01*
X167614Y140709D01*
X167702Y140703D01*
X167789Y140694D01*
X167875Y140680D01*
X167961Y140663D01*
X168045Y140642D01*
X168129Y140617D01*
X168212Y140588D01*
X168293Y140556D01*
X168373Y140521D01*
X168451Y140482D01*
X168528Y140439D01*
X168602Y140393D01*
X168674Y140344D01*
X168744Y140292D01*
X168812Y140236D01*
X168877Y140178D01*
X168940Y140117D01*
X168999Y140053D01*
X169056Y139986D01*
X169110Y139918D01*
X169161Y139846D01*
X169208Y139773D01*
X169253Y139698D01*
X169294Y139620D01*
X169331Y139541D01*
X169365Y139461D01*
X169395Y139379D01*
X169422Y139296D01*
X169445Y139211D01*
X169464Y139126D01*
X169479Y139040D01*
X169491Y138953D01*
X169499Y138866D01*
X169503Y138779D01*
X169503Y138691D01*
X169499Y138604D01*
X169491Y138517D01*
X169479Y138430D01*
X169464Y138344D01*
X169445Y138259D01*
X169422Y138174D01*
X169395Y138091D01*
X169365Y138009D01*
X169331Y137929D01*
X169294Y137850D01*
X169253Y137772D01*
X169208Y137697D01*
X169161Y137624D01*
X169110Y137552D01*
X169056Y137484D01*
X168999Y137417D01*
X168940Y137353D01*
X168877Y137292D01*
X168812Y137234D01*
X168744Y137178D01*
X168674Y137126D01*
X168602Y137077D01*
X168528Y137031D01*
X168451Y136988D01*
X168373Y136949D01*
X168293Y136914D01*
X168212Y136882D01*
X168129Y136853D01*
X168045Y136828D01*
X167961Y136807D01*
X167875Y136790D01*
X167789Y136776D01*
X167702Y136767D01*
X167614Y136761D01*
X167527Y136759D01*
X167527Y136760D02*
X165552Y136760D01*
X167922Y136760D02*
X169503Y133599D01*
X172807Y139921D02*
X172807Y140711D01*
X176758Y140711D01*
X174782Y133599D01*
D13*
X95761Y92475D02*
X93673Y92475D01*
X93584Y92477D01*
X93496Y92483D01*
X93408Y92492D01*
X93320Y92505D01*
X93233Y92522D01*
X93147Y92542D01*
X93062Y92567D01*
X92977Y92594D01*
X92894Y92626D01*
X92813Y92660D01*
X92733Y92699D01*
X92655Y92740D01*
X92578Y92785D01*
X92504Y92833D01*
X92431Y92884D01*
X92361Y92938D01*
X92294Y92996D01*
X92228Y93056D01*
X92166Y93118D01*
X92106Y93184D01*
X92048Y93251D01*
X91994Y93321D01*
X91943Y93394D01*
X91895Y93468D01*
X91850Y93545D01*
X91809Y93623D01*
X91770Y93703D01*
X91736Y93784D01*
X91704Y93867D01*
X91677Y93952D01*
X91652Y94037D01*
X91632Y94123D01*
X91615Y94210D01*
X91602Y94298D01*
X91593Y94386D01*
X91587Y94474D01*
X91585Y94563D01*
X91584Y94563D02*
X91584Y99784D01*
X91585Y99784D02*
X91587Y99875D01*
X91593Y99966D01*
X91603Y100057D01*
X91617Y100147D01*
X91634Y100236D01*
X91656Y100324D01*
X91682Y100412D01*
X91711Y100498D01*
X91744Y100583D01*
X91781Y100666D01*
X91821Y100748D01*
X91865Y100828D01*
X91912Y100906D01*
X91963Y100982D01*
X92016Y101055D01*
X92073Y101126D01*
X92134Y101195D01*
X92197Y101260D01*
X92262Y101323D01*
X92331Y101383D01*
X92402Y101441D01*
X92475Y101494D01*
X92551Y101545D01*
X92629Y101592D01*
X92709Y101636D01*
X92791Y101676D01*
X92874Y101713D01*
X92959Y101746D01*
X93045Y101775D01*
X93133Y101801D01*
X93221Y101823D01*
X93310Y101840D01*
X93400Y101854D01*
X93491Y101864D01*
X93582Y101870D01*
X93673Y101872D01*
X93673Y101873D02*
X95761Y101873D01*
X99230Y99784D02*
X101840Y101873D01*
X101840Y92475D01*
X99230Y92475D02*
X104451Y92475D01*
D16*
X124688Y203328D03*
X124688Y189578D03*
D17*
X120813Y196453D03*
D18*
X152038Y197267D02*
X152038Y202855D01*
X152038Y197267D02*
X154522Y197267D01*
X156793Y197267D02*
X159277Y197267D01*
X156793Y197267D02*
X156793Y202855D01*
X159277Y202855D01*
X158656Y200371D02*
X156793Y200371D01*
X161537Y202855D02*
X161537Y197267D01*
X161537Y202855D02*
X163089Y202855D01*
X163089Y202854D02*
X163165Y202852D01*
X163241Y202847D01*
X163317Y202837D01*
X163392Y202824D01*
X163466Y202807D01*
X163540Y202787D01*
X163612Y202763D01*
X163683Y202736D01*
X163753Y202705D01*
X163821Y202671D01*
X163887Y202633D01*
X163951Y202592D01*
X164014Y202549D01*
X164074Y202502D01*
X164131Y202452D01*
X164186Y202399D01*
X164239Y202344D01*
X164289Y202287D01*
X164336Y202227D01*
X164379Y202164D01*
X164420Y202100D01*
X164458Y202034D01*
X164492Y201966D01*
X164523Y201896D01*
X164550Y201825D01*
X164574Y201752D01*
X164594Y201679D01*
X164611Y201605D01*
X164624Y201530D01*
X164634Y201454D01*
X164639Y201378D01*
X164641Y201302D01*
X164641Y198819D01*
X164639Y198740D01*
X164633Y198662D01*
X164623Y198584D01*
X164609Y198507D01*
X164591Y198430D01*
X164570Y198354D01*
X164544Y198280D01*
X164515Y198207D01*
X164482Y198136D01*
X164446Y198066D01*
X164406Y197998D01*
X164363Y197932D01*
X164316Y197869D01*
X164267Y197808D01*
X164214Y197750D01*
X164158Y197694D01*
X164100Y197641D01*
X164039Y197592D01*
X163976Y197545D01*
X163910Y197502D01*
X163842Y197462D01*
X163773Y197426D01*
X163701Y197393D01*
X163628Y197364D01*
X163554Y197338D01*
X163478Y197317D01*
X163401Y197299D01*
X163324Y197285D01*
X163246Y197275D01*
X163168Y197269D01*
X163089Y197267D01*
X161537Y197267D01*
X167206Y201613D02*
X168758Y202855D01*
X168758Y197267D01*
X167206Y197267D02*
X170311Y197267D01*
D12*
X87823Y163302D02*
X80711Y163302D01*
X80711Y165277D01*
X80713Y165364D01*
X80719Y165452D01*
X80728Y165539D01*
X80742Y165625D01*
X80759Y165711D01*
X80780Y165795D01*
X80805Y165879D01*
X80834Y165962D01*
X80866Y166043D01*
X80901Y166123D01*
X80940Y166201D01*
X80983Y166278D01*
X81029Y166352D01*
X81078Y166424D01*
X81130Y166494D01*
X81186Y166562D01*
X81244Y166627D01*
X81305Y166690D01*
X81369Y166749D01*
X81436Y166806D01*
X81504Y166860D01*
X81576Y166911D01*
X81649Y166958D01*
X81724Y167003D01*
X81802Y167044D01*
X81881Y167081D01*
X81961Y167115D01*
X82043Y167145D01*
X82126Y167172D01*
X82211Y167195D01*
X82296Y167214D01*
X82382Y167229D01*
X82469Y167241D01*
X82556Y167249D01*
X82643Y167253D01*
X82731Y167253D01*
X82818Y167249D01*
X82905Y167241D01*
X82992Y167229D01*
X83078Y167214D01*
X83163Y167195D01*
X83248Y167172D01*
X83331Y167145D01*
X83413Y167115D01*
X83493Y167081D01*
X83572Y167044D01*
X83650Y167003D01*
X83725Y166958D01*
X83798Y166911D01*
X83870Y166860D01*
X83938Y166806D01*
X84005Y166749D01*
X84069Y166690D01*
X84130Y166627D01*
X84188Y166562D01*
X84244Y166494D01*
X84296Y166424D01*
X84345Y166352D01*
X84391Y166278D01*
X84434Y166201D01*
X84473Y166123D01*
X84508Y166043D01*
X84540Y165962D01*
X84569Y165879D01*
X84594Y165795D01*
X84615Y165711D01*
X84632Y165625D01*
X84646Y165539D01*
X84655Y165452D01*
X84661Y165364D01*
X84663Y165277D01*
X84662Y165277D02*
X84662Y163302D01*
X84662Y165672D02*
X87823Y167253D01*
X83872Y170557D02*
X83872Y172927D01*
X83874Y173005D01*
X83880Y173082D01*
X83889Y173159D01*
X83902Y173235D01*
X83919Y173311D01*
X83940Y173386D01*
X83964Y173459D01*
X83992Y173532D01*
X84024Y173603D01*
X84059Y173672D01*
X84097Y173739D01*
X84138Y173805D01*
X84183Y173868D01*
X84231Y173929D01*
X84281Y173988D01*
X84335Y174044D01*
X84391Y174098D01*
X84450Y174148D01*
X84511Y174196D01*
X84574Y174241D01*
X84640Y174282D01*
X84707Y174320D01*
X84776Y174355D01*
X84847Y174387D01*
X84920Y174415D01*
X84993Y174439D01*
X85068Y174460D01*
X85144Y174477D01*
X85220Y174490D01*
X85297Y174499D01*
X85374Y174505D01*
X85452Y174507D01*
X85452Y174508D02*
X85848Y174508D01*
X85935Y174506D01*
X86023Y174500D01*
X86110Y174491D01*
X86196Y174477D01*
X86282Y174460D01*
X86366Y174439D01*
X86450Y174414D01*
X86533Y174385D01*
X86614Y174353D01*
X86694Y174318D01*
X86772Y174279D01*
X86849Y174236D01*
X86923Y174190D01*
X86995Y174141D01*
X87065Y174089D01*
X87133Y174033D01*
X87198Y173975D01*
X87261Y173914D01*
X87320Y173850D01*
X87377Y173783D01*
X87431Y173715D01*
X87482Y173643D01*
X87529Y173570D01*
X87574Y173495D01*
X87615Y173417D01*
X87652Y173338D01*
X87686Y173258D01*
X87716Y173176D01*
X87743Y173093D01*
X87766Y173008D01*
X87785Y172923D01*
X87800Y172837D01*
X87812Y172750D01*
X87820Y172663D01*
X87824Y172576D01*
X87824Y172488D01*
X87820Y172401D01*
X87812Y172314D01*
X87800Y172227D01*
X87785Y172141D01*
X87766Y172056D01*
X87743Y171971D01*
X87716Y171888D01*
X87686Y171806D01*
X87652Y171726D01*
X87615Y171647D01*
X87574Y171569D01*
X87529Y171494D01*
X87482Y171421D01*
X87431Y171349D01*
X87377Y171281D01*
X87320Y171214D01*
X87261Y171150D01*
X87198Y171089D01*
X87133Y171031D01*
X87065Y170975D01*
X86995Y170923D01*
X86923Y170874D01*
X86849Y170828D01*
X86772Y170785D01*
X86694Y170746D01*
X86614Y170711D01*
X86533Y170679D01*
X86450Y170650D01*
X86366Y170625D01*
X86282Y170604D01*
X86196Y170587D01*
X86110Y170573D01*
X86023Y170564D01*
X85935Y170558D01*
X85848Y170556D01*
X85848Y170557D02*
X83872Y170557D01*
X83872Y170556D02*
X83762Y170558D01*
X83652Y170564D01*
X83542Y170573D01*
X83432Y170587D01*
X83323Y170604D01*
X83215Y170625D01*
X83107Y170650D01*
X83001Y170678D01*
X82895Y170711D01*
X82791Y170747D01*
X82688Y170786D01*
X82586Y170829D01*
X82486Y170876D01*
X82388Y170926D01*
X82292Y170979D01*
X82197Y171036D01*
X82104Y171096D01*
X82014Y171160D01*
X81926Y171226D01*
X81840Y171296D01*
X81757Y171368D01*
X81676Y171443D01*
X81598Y171521D01*
X81523Y171602D01*
X81451Y171685D01*
X81381Y171771D01*
X81315Y171859D01*
X81251Y171949D01*
X81191Y172042D01*
X81135Y172136D01*
X81081Y172233D01*
X81031Y172331D01*
X80984Y172431D01*
X80941Y172533D01*
X80902Y172636D01*
X80866Y172740D01*
X80833Y172846D01*
X80805Y172952D01*
X80780Y173060D01*
X80759Y173168D01*
X80742Y173277D01*
X80728Y173387D01*
X80719Y173496D01*
X80713Y173607D01*
X80711Y173717D01*
D10*
X85438Y97063D02*
X74438Y97063D01*
X74438Y140063D01*
X85438Y140063D01*
X85438Y141063D01*
X37438Y116063D02*
X8438Y116063D01*
X37438Y116063D02*
X37438Y122063D01*
X8438Y122063D01*
D19*
X86668Y124812D02*
X86668Y133109D01*
X82520Y128960D02*
X90817Y128960D01*
X84668Y113959D02*
X84668Y105662D01*
D13*
X12542Y135595D02*
X10496Y135595D01*
X12542Y135595D02*
X12631Y135593D01*
X12720Y135587D01*
X12809Y135577D01*
X12897Y135564D01*
X12985Y135547D01*
X13072Y135525D01*
X13157Y135500D01*
X13242Y135472D01*
X13325Y135439D01*
X13407Y135403D01*
X13487Y135364D01*
X13565Y135321D01*
X13641Y135275D01*
X13716Y135225D01*
X13788Y135172D01*
X13857Y135116D01*
X13924Y135057D01*
X13989Y134996D01*
X14050Y134931D01*
X14109Y134864D01*
X14165Y134795D01*
X14218Y134723D01*
X14268Y134648D01*
X14314Y134572D01*
X14357Y134494D01*
X14396Y134414D01*
X14432Y134332D01*
X14465Y134249D01*
X14493Y134164D01*
X14518Y134079D01*
X14540Y133992D01*
X14557Y133904D01*
X14570Y133816D01*
X14580Y133727D01*
X14586Y133638D01*
X14588Y133549D01*
X14586Y133460D01*
X14580Y133371D01*
X14570Y133282D01*
X14557Y133194D01*
X14540Y133106D01*
X14518Y133019D01*
X14493Y132934D01*
X14465Y132849D01*
X14432Y132766D01*
X14396Y132684D01*
X14357Y132604D01*
X14314Y132526D01*
X14268Y132450D01*
X14218Y132375D01*
X14165Y132303D01*
X14109Y132234D01*
X14050Y132167D01*
X13989Y132102D01*
X13924Y132041D01*
X13857Y131982D01*
X13788Y131926D01*
X13716Y131873D01*
X13641Y131823D01*
X13565Y131777D01*
X13487Y131734D01*
X13407Y131695D01*
X13325Y131659D01*
X13242Y131626D01*
X13157Y131598D01*
X13072Y131573D01*
X12985Y131551D01*
X12897Y131534D01*
X12809Y131521D01*
X12720Y131511D01*
X12631Y131505D01*
X12542Y131503D01*
X10496Y131503D01*
X10496Y138869D01*
X12542Y138869D01*
X12621Y138867D01*
X12700Y138861D01*
X12779Y138852D01*
X12857Y138839D01*
X12934Y138821D01*
X13010Y138801D01*
X13085Y138776D01*
X13159Y138748D01*
X13232Y138717D01*
X13303Y138681D01*
X13372Y138643D01*
X13439Y138601D01*
X13504Y138556D01*
X13567Y138508D01*
X13628Y138457D01*
X13685Y138403D01*
X13741Y138347D01*
X13793Y138288D01*
X13843Y138226D01*
X13889Y138162D01*
X13933Y138096D01*
X13973Y138028D01*
X14009Y137958D01*
X14043Y137886D01*
X14073Y137812D01*
X14099Y137738D01*
X14122Y137662D01*
X14140Y137585D01*
X14156Y137508D01*
X14167Y137429D01*
X14175Y137351D01*
X14179Y137272D01*
X14179Y137192D01*
X14175Y137113D01*
X14167Y137035D01*
X14156Y136956D01*
X14140Y136879D01*
X14122Y136802D01*
X14099Y136726D01*
X14073Y136652D01*
X14043Y136578D01*
X14009Y136506D01*
X13973Y136436D01*
X13933Y136368D01*
X13889Y136302D01*
X13843Y136238D01*
X13793Y136176D01*
X13741Y136117D01*
X13685Y136061D01*
X13628Y136007D01*
X13567Y135956D01*
X13504Y135908D01*
X13439Y135863D01*
X13372Y135821D01*
X13303Y135783D01*
X13232Y135747D01*
X13159Y135716D01*
X13085Y135688D01*
X13010Y135663D01*
X12934Y135643D01*
X12857Y135625D01*
X12779Y135612D01*
X12700Y135603D01*
X12621Y135597D01*
X12542Y135595D01*
X17040Y131503D02*
X19495Y138869D01*
X21951Y131503D01*
X21337Y133345D02*
X17654Y133345D01*
X26323Y131503D02*
X26323Y138869D01*
X24277Y138869D02*
X28369Y138869D01*
D10*
X396641Y183500D02*
X396641Y196500D01*
X393141Y204000D02*
X362641Y204000D01*
X349641Y204000D01*
X333141Y204000D01*
X329641Y196500D02*
X329641Y183500D01*
X360141Y177000D02*
X377141Y177000D01*
X362641Y219000D02*
X349641Y219000D01*
X362641Y219000D02*
X362641Y204000D01*
X349641Y204000D02*
X349641Y219000D01*
D11*
X241375Y92406D02*
X234875Y92406D01*
X234875Y121906D01*
X241375Y121906D01*
X241375Y92406D01*
X244875Y91156D02*
X256375Y91156D01*
D10*
X163016Y96266D02*
X163016Y107266D01*
X163016Y96266D02*
X120016Y96266D01*
X120016Y107266D01*
X119016Y107266D01*
X144016Y59266D02*
X144016Y30266D01*
X144016Y59266D02*
X138016Y59266D01*
X138016Y30266D01*
D19*
X135267Y105731D02*
X126969Y105731D01*
X131118Y109879D02*
X131118Y101582D01*
X146119Y103731D02*
X154417Y103731D01*
D13*
X116838Y37706D02*
X115201Y37706D01*
X115123Y37708D01*
X115045Y37713D01*
X114968Y37723D01*
X114891Y37736D01*
X114815Y37752D01*
X114740Y37772D01*
X114666Y37796D01*
X114593Y37823D01*
X114521Y37854D01*
X114451Y37888D01*
X114383Y37925D01*
X114316Y37966D01*
X114251Y38010D01*
X114189Y38056D01*
X114129Y38106D01*
X114071Y38158D01*
X114016Y38213D01*
X113964Y38271D01*
X113914Y38331D01*
X113868Y38393D01*
X113824Y38458D01*
X113783Y38525D01*
X113746Y38593D01*
X113712Y38663D01*
X113681Y38735D01*
X113654Y38808D01*
X113630Y38882D01*
X113610Y38957D01*
X113594Y39033D01*
X113581Y39110D01*
X113571Y39187D01*
X113566Y39265D01*
X113564Y39343D01*
X113564Y43435D01*
X113566Y43515D01*
X113572Y43595D01*
X113582Y43675D01*
X113595Y43754D01*
X113613Y43833D01*
X113634Y43910D01*
X113660Y43986D01*
X113689Y44061D01*
X113721Y44135D01*
X113757Y44207D01*
X113797Y44277D01*
X113840Y44344D01*
X113886Y44410D01*
X113936Y44473D01*
X113988Y44534D01*
X114043Y44593D01*
X114102Y44648D01*
X114162Y44700D01*
X114226Y44750D01*
X114292Y44796D01*
X114359Y44839D01*
X114429Y44879D01*
X114501Y44915D01*
X114575Y44947D01*
X114649Y44976D01*
X114726Y45002D01*
X114803Y45023D01*
X114882Y45041D01*
X114961Y45054D01*
X115041Y45064D01*
X115121Y45070D01*
X115201Y45072D01*
X116838Y45072D01*
X119927Y45072D02*
X119927Y37706D01*
X119927Y41798D02*
X124019Y41798D01*
X124019Y45072D02*
X124019Y37706D01*
X130594Y41798D02*
X131822Y41798D01*
X131822Y37706D01*
X129367Y37706D01*
X129289Y37708D01*
X129211Y37713D01*
X129134Y37723D01*
X129057Y37736D01*
X128981Y37752D01*
X128906Y37772D01*
X128832Y37796D01*
X128759Y37823D01*
X128687Y37854D01*
X128617Y37888D01*
X128549Y37925D01*
X128482Y37966D01*
X128417Y38010D01*
X128355Y38056D01*
X128295Y38106D01*
X128237Y38158D01*
X128182Y38213D01*
X128130Y38271D01*
X128080Y38331D01*
X128034Y38393D01*
X127990Y38458D01*
X127949Y38525D01*
X127912Y38593D01*
X127878Y38663D01*
X127847Y38735D01*
X127820Y38808D01*
X127796Y38882D01*
X127776Y38957D01*
X127760Y39033D01*
X127747Y39110D01*
X127737Y39187D01*
X127732Y39265D01*
X127730Y39343D01*
X127730Y43435D01*
X127732Y43515D01*
X127738Y43595D01*
X127748Y43675D01*
X127761Y43754D01*
X127779Y43833D01*
X127800Y43910D01*
X127826Y43986D01*
X127855Y44061D01*
X127887Y44135D01*
X127923Y44207D01*
X127963Y44277D01*
X128006Y44344D01*
X128052Y44410D01*
X128102Y44473D01*
X128154Y44534D01*
X128209Y44593D01*
X128268Y44648D01*
X128328Y44700D01*
X128392Y44750D01*
X128458Y44796D01*
X128525Y44839D01*
X128595Y44879D01*
X128667Y44915D01*
X128741Y44947D01*
X128815Y44976D01*
X128892Y45002D01*
X128969Y45023D01*
X129048Y45041D01*
X129127Y45054D01*
X129207Y45064D01*
X129287Y45070D01*
X129367Y45072D01*
X131822Y45072D01*
D14*
X198125Y68188D02*
X208125Y68188D01*
X268125Y68188D02*
X278125Y68188D01*
X278125Y56938D01*
X268125Y39188D02*
X208125Y39188D01*
X198125Y56938D02*
X198125Y68188D01*
D13*
X270981Y70719D02*
X277247Y80117D01*
X270981Y80117D02*
X277247Y70719D01*
X285869Y77767D02*
X285867Y77862D01*
X285861Y77956D01*
X285852Y78050D01*
X285839Y78144D01*
X285822Y78237D01*
X285801Y78329D01*
X285776Y78421D01*
X285748Y78511D01*
X285716Y78600D01*
X285681Y78688D01*
X285642Y78774D01*
X285600Y78859D01*
X285554Y78942D01*
X285505Y79023D01*
X285453Y79102D01*
X285398Y79179D01*
X285339Y79253D01*
X285278Y79325D01*
X285214Y79395D01*
X285147Y79462D01*
X285077Y79526D01*
X285005Y79587D01*
X284931Y79646D01*
X284854Y79701D01*
X284775Y79753D01*
X284694Y79802D01*
X284611Y79848D01*
X284526Y79890D01*
X284440Y79929D01*
X284352Y79964D01*
X284263Y79996D01*
X284173Y80024D01*
X284081Y80049D01*
X283989Y80070D01*
X283896Y80087D01*
X283802Y80100D01*
X283708Y80109D01*
X283614Y80115D01*
X283519Y80117D01*
X283519Y80116D02*
X283411Y80114D01*
X283302Y80108D01*
X283194Y80098D01*
X283087Y80085D01*
X282980Y80067D01*
X282873Y80046D01*
X282768Y80021D01*
X282663Y79992D01*
X282560Y79960D01*
X282458Y79923D01*
X282357Y79883D01*
X282258Y79840D01*
X282160Y79793D01*
X282064Y79742D01*
X281970Y79688D01*
X281878Y79631D01*
X281788Y79570D01*
X281700Y79506D01*
X281615Y79440D01*
X281532Y79370D01*
X281452Y79297D01*
X281374Y79221D01*
X281299Y79143D01*
X281227Y79062D01*
X281158Y78978D01*
X281092Y78892D01*
X281029Y78804D01*
X280970Y78713D01*
X280913Y78621D01*
X280860Y78526D01*
X280811Y78430D01*
X280765Y78331D01*
X280722Y78232D01*
X280683Y78130D01*
X280648Y78028D01*
X285086Y75939D02*
X285155Y76008D01*
X285221Y76079D01*
X285285Y76152D01*
X285346Y76228D01*
X285404Y76307D01*
X285458Y76387D01*
X285510Y76470D01*
X285558Y76554D01*
X285604Y76640D01*
X285645Y76728D01*
X285684Y76818D01*
X285719Y76909D01*
X285750Y77001D01*
X285778Y77094D01*
X285802Y77188D01*
X285822Y77283D01*
X285839Y77379D01*
X285852Y77476D01*
X285861Y77573D01*
X285867Y77670D01*
X285869Y77767D01*
X285085Y75940D02*
X280648Y70719D01*
X285869Y70719D01*
D10*
X390813Y141063D02*
X401813Y141063D01*
X401813Y98063D01*
X390813Y98063D01*
X390813Y97063D01*
X438813Y122063D02*
X467813Y122063D01*
X438813Y122063D02*
X438813Y116063D01*
X467813Y116063D01*
D19*
X392347Y113314D02*
X392347Y105016D01*
X388199Y109165D02*
X396496Y109165D01*
X394347Y124166D02*
X394347Y132464D01*
D13*
X442131Y147145D02*
X444177Y147145D01*
X444266Y147143D01*
X444355Y147137D01*
X444444Y147127D01*
X444532Y147114D01*
X444620Y147097D01*
X444707Y147075D01*
X444792Y147050D01*
X444877Y147022D01*
X444960Y146989D01*
X445042Y146953D01*
X445122Y146914D01*
X445200Y146871D01*
X445276Y146825D01*
X445351Y146775D01*
X445423Y146722D01*
X445492Y146666D01*
X445559Y146607D01*
X445624Y146546D01*
X445685Y146481D01*
X445744Y146414D01*
X445800Y146345D01*
X445853Y146273D01*
X445903Y146198D01*
X445949Y146122D01*
X445992Y146044D01*
X446031Y145964D01*
X446067Y145882D01*
X446100Y145799D01*
X446128Y145714D01*
X446153Y145629D01*
X446175Y145542D01*
X446192Y145454D01*
X446205Y145366D01*
X446215Y145277D01*
X446221Y145188D01*
X446223Y145099D01*
X446221Y145010D01*
X446215Y144921D01*
X446205Y144832D01*
X446192Y144744D01*
X446175Y144656D01*
X446153Y144569D01*
X446128Y144484D01*
X446100Y144399D01*
X446067Y144316D01*
X446031Y144234D01*
X445992Y144154D01*
X445949Y144076D01*
X445903Y144000D01*
X445853Y143925D01*
X445800Y143853D01*
X445744Y143784D01*
X445685Y143717D01*
X445624Y143652D01*
X445559Y143591D01*
X445492Y143532D01*
X445423Y143476D01*
X445351Y143423D01*
X445276Y143373D01*
X445200Y143327D01*
X445122Y143284D01*
X445042Y143245D01*
X444960Y143209D01*
X444877Y143176D01*
X444792Y143148D01*
X444707Y143123D01*
X444620Y143101D01*
X444532Y143084D01*
X444444Y143071D01*
X444355Y143061D01*
X444266Y143055D01*
X444177Y143053D01*
X442131Y143053D01*
X442131Y150419D01*
X444177Y150419D01*
X444256Y150417D01*
X444335Y150411D01*
X444414Y150402D01*
X444492Y150389D01*
X444569Y150371D01*
X444645Y150351D01*
X444720Y150326D01*
X444794Y150298D01*
X444867Y150267D01*
X444938Y150231D01*
X445007Y150193D01*
X445074Y150151D01*
X445139Y150106D01*
X445202Y150058D01*
X445263Y150007D01*
X445320Y149953D01*
X445376Y149897D01*
X445428Y149838D01*
X445478Y149776D01*
X445524Y149712D01*
X445568Y149646D01*
X445608Y149578D01*
X445644Y149508D01*
X445678Y149436D01*
X445708Y149362D01*
X445734Y149288D01*
X445757Y149212D01*
X445775Y149135D01*
X445791Y149058D01*
X445802Y148979D01*
X445810Y148901D01*
X445814Y148822D01*
X445814Y148742D01*
X445810Y148663D01*
X445802Y148585D01*
X445791Y148506D01*
X445775Y148429D01*
X445757Y148352D01*
X445734Y148276D01*
X445708Y148202D01*
X445678Y148128D01*
X445644Y148056D01*
X445608Y147986D01*
X445568Y147918D01*
X445524Y147852D01*
X445478Y147788D01*
X445428Y147726D01*
X445376Y147667D01*
X445320Y147611D01*
X445263Y147557D01*
X445202Y147506D01*
X445139Y147458D01*
X445074Y147413D01*
X445007Y147371D01*
X444938Y147333D01*
X444867Y147297D01*
X444794Y147266D01*
X444720Y147238D01*
X444645Y147213D01*
X444569Y147193D01*
X444492Y147175D01*
X444414Y147162D01*
X444335Y147153D01*
X444256Y147147D01*
X444177Y147145D01*
X448675Y143053D02*
X451131Y150419D01*
X453586Y143053D01*
X452972Y144894D02*
X449289Y144894D01*
X457958Y143053D02*
X457958Y150419D01*
X455912Y150419D02*
X460004Y150419D01*
X462740Y148782D02*
X464786Y150419D01*
X464786Y143053D01*
X462740Y143053D02*
X466832Y143053D01*
D14*
X359501Y139069D02*
X359501Y122869D01*
X331061Y122869D02*
X331061Y139069D01*
X340061Y139069D02*
X350501Y139069D01*
X341001Y122869D02*
X340061Y122869D01*
X349561Y122869D02*
X350501Y122869D01*
X332001Y122869D02*
X331061Y122869D01*
X358561Y122869D02*
X359501Y122869D01*
X359501Y139069D02*
X358561Y139069D01*
X332001Y139069D02*
X331061Y139069D01*
D10*
X334281Y127969D02*
X334283Y128032D01*
X334289Y128094D01*
X334299Y128156D01*
X334312Y128218D01*
X334330Y128278D01*
X334351Y128337D01*
X334376Y128395D01*
X334405Y128451D01*
X334437Y128505D01*
X334472Y128557D01*
X334510Y128606D01*
X334552Y128654D01*
X334596Y128698D01*
X334644Y128740D01*
X334693Y128778D01*
X334745Y128813D01*
X334799Y128845D01*
X334855Y128874D01*
X334913Y128899D01*
X334972Y128920D01*
X335032Y128938D01*
X335094Y128951D01*
X335156Y128961D01*
X335218Y128967D01*
X335281Y128969D01*
X335344Y128967D01*
X335406Y128961D01*
X335468Y128951D01*
X335530Y128938D01*
X335590Y128920D01*
X335649Y128899D01*
X335707Y128874D01*
X335763Y128845D01*
X335817Y128813D01*
X335869Y128778D01*
X335918Y128740D01*
X335966Y128698D01*
X336010Y128654D01*
X336052Y128606D01*
X336090Y128557D01*
X336125Y128505D01*
X336157Y128451D01*
X336186Y128395D01*
X336211Y128337D01*
X336232Y128278D01*
X336250Y128218D01*
X336263Y128156D01*
X336273Y128094D01*
X336279Y128032D01*
X336281Y127969D01*
X336279Y127906D01*
X336273Y127844D01*
X336263Y127782D01*
X336250Y127720D01*
X336232Y127660D01*
X336211Y127601D01*
X336186Y127543D01*
X336157Y127487D01*
X336125Y127433D01*
X336090Y127381D01*
X336052Y127332D01*
X336010Y127284D01*
X335966Y127240D01*
X335918Y127198D01*
X335869Y127160D01*
X335817Y127125D01*
X335763Y127093D01*
X335707Y127064D01*
X335649Y127039D01*
X335590Y127018D01*
X335530Y127000D01*
X335468Y126987D01*
X335406Y126977D01*
X335344Y126971D01*
X335281Y126969D01*
X335218Y126971D01*
X335156Y126977D01*
X335094Y126987D01*
X335032Y127000D01*
X334972Y127018D01*
X334913Y127039D01*
X334855Y127064D01*
X334799Y127093D01*
X334745Y127125D01*
X334693Y127160D01*
X334644Y127198D01*
X334596Y127240D01*
X334552Y127284D01*
X334510Y127332D01*
X334472Y127381D01*
X334437Y127433D01*
X334405Y127487D01*
X334376Y127543D01*
X334351Y127601D01*
X334330Y127660D01*
X334312Y127720D01*
X334299Y127782D01*
X334289Y127844D01*
X334283Y127906D01*
X334281Y127969D01*
D13*
X362612Y145446D02*
X362612Y150766D01*
X362612Y145446D02*
X362614Y145357D01*
X362620Y145268D01*
X362630Y145179D01*
X362643Y145091D01*
X362660Y145003D01*
X362682Y144916D01*
X362707Y144831D01*
X362735Y144746D01*
X362768Y144663D01*
X362804Y144581D01*
X362843Y144501D01*
X362886Y144423D01*
X362932Y144347D01*
X362982Y144272D01*
X363035Y144200D01*
X363091Y144131D01*
X363150Y144064D01*
X363211Y143999D01*
X363276Y143938D01*
X363343Y143879D01*
X363412Y143823D01*
X363484Y143770D01*
X363559Y143720D01*
X363635Y143674D01*
X363713Y143631D01*
X363793Y143592D01*
X363875Y143556D01*
X363958Y143523D01*
X364043Y143495D01*
X364128Y143470D01*
X364215Y143448D01*
X364303Y143431D01*
X364391Y143418D01*
X364480Y143408D01*
X364569Y143402D01*
X364658Y143400D01*
X364747Y143402D01*
X364836Y143408D01*
X364925Y143418D01*
X365013Y143431D01*
X365101Y143448D01*
X365188Y143470D01*
X365273Y143495D01*
X365358Y143523D01*
X365441Y143556D01*
X365523Y143592D01*
X365603Y143631D01*
X365681Y143674D01*
X365757Y143720D01*
X365832Y143770D01*
X365904Y143823D01*
X365973Y143879D01*
X366040Y143938D01*
X366105Y143999D01*
X366166Y144064D01*
X366225Y144131D01*
X366281Y144200D01*
X366334Y144272D01*
X366384Y144347D01*
X366430Y144423D01*
X366473Y144501D01*
X366512Y144581D01*
X366548Y144663D01*
X366581Y144746D01*
X366609Y144831D01*
X366634Y144916D01*
X366656Y145003D01*
X366673Y145091D01*
X366686Y145179D01*
X366696Y145268D01*
X366702Y145357D01*
X366704Y145446D01*
X366704Y150766D01*
X370171Y147492D02*
X372627Y147492D01*
X372705Y147490D01*
X372783Y147485D01*
X372860Y147475D01*
X372937Y147462D01*
X373013Y147446D01*
X373088Y147426D01*
X373162Y147402D01*
X373235Y147375D01*
X373307Y147344D01*
X373377Y147310D01*
X373446Y147273D01*
X373512Y147232D01*
X373577Y147188D01*
X373639Y147142D01*
X373699Y147092D01*
X373757Y147040D01*
X373812Y146985D01*
X373864Y146927D01*
X373914Y146867D01*
X373960Y146805D01*
X374004Y146740D01*
X374045Y146674D01*
X374082Y146605D01*
X374116Y146535D01*
X374147Y146463D01*
X374174Y146390D01*
X374198Y146316D01*
X374218Y146241D01*
X374234Y146165D01*
X374247Y146088D01*
X374257Y146011D01*
X374262Y145933D01*
X374264Y145855D01*
X374264Y145446D01*
X374263Y145446D02*
X374261Y145357D01*
X374255Y145268D01*
X374245Y145179D01*
X374232Y145091D01*
X374215Y145003D01*
X374193Y144916D01*
X374168Y144831D01*
X374140Y144746D01*
X374107Y144663D01*
X374071Y144581D01*
X374032Y144501D01*
X373989Y144423D01*
X373943Y144347D01*
X373893Y144272D01*
X373840Y144200D01*
X373784Y144131D01*
X373725Y144064D01*
X373664Y143999D01*
X373599Y143938D01*
X373532Y143879D01*
X373463Y143823D01*
X373391Y143770D01*
X373316Y143720D01*
X373240Y143674D01*
X373162Y143631D01*
X373082Y143592D01*
X373000Y143556D01*
X372917Y143523D01*
X372832Y143495D01*
X372747Y143470D01*
X372660Y143448D01*
X372572Y143431D01*
X372484Y143418D01*
X372395Y143408D01*
X372306Y143402D01*
X372217Y143400D01*
X372128Y143402D01*
X372039Y143408D01*
X371950Y143418D01*
X371862Y143431D01*
X371774Y143448D01*
X371687Y143470D01*
X371602Y143495D01*
X371517Y143523D01*
X371434Y143556D01*
X371352Y143592D01*
X371272Y143631D01*
X371194Y143674D01*
X371118Y143720D01*
X371043Y143770D01*
X370971Y143823D01*
X370902Y143879D01*
X370835Y143938D01*
X370770Y143999D01*
X370709Y144064D01*
X370650Y144131D01*
X370594Y144200D01*
X370541Y144272D01*
X370491Y144347D01*
X370445Y144423D01*
X370402Y144501D01*
X370363Y144581D01*
X370327Y144663D01*
X370294Y144746D01*
X370266Y144831D01*
X370241Y144916D01*
X370219Y145003D01*
X370202Y145091D01*
X370189Y145179D01*
X370179Y145268D01*
X370173Y145357D01*
X370171Y145446D01*
X370171Y147492D01*
X370173Y147606D01*
X370179Y147720D01*
X370189Y147834D01*
X370203Y147948D01*
X370221Y148061D01*
X370243Y148173D01*
X370268Y148284D01*
X370298Y148394D01*
X370331Y148504D01*
X370368Y148612D01*
X370409Y148718D01*
X370454Y148824D01*
X370502Y148927D01*
X370554Y149029D01*
X370610Y149129D01*
X370668Y149227D01*
X370731Y149323D01*
X370796Y149416D01*
X370865Y149508D01*
X370937Y149596D01*
X371012Y149683D01*
X371090Y149766D01*
X371171Y149847D01*
X371254Y149925D01*
X371341Y150000D01*
X371429Y150072D01*
X371521Y150141D01*
X371614Y150206D01*
X371710Y150268D01*
X371808Y150327D01*
X371908Y150383D01*
X372010Y150435D01*
X372113Y150483D01*
X372219Y150528D01*
X372325Y150569D01*
X372433Y150606D01*
X372543Y150639D01*
X372653Y150669D01*
X372764Y150694D01*
X372876Y150716D01*
X372989Y150734D01*
X373103Y150748D01*
X373217Y150758D01*
X373331Y150764D01*
X373445Y150766D01*
D11*
X334831Y59064D02*
X334833Y59127D01*
X334839Y59189D01*
X334849Y59251D01*
X334862Y59313D01*
X334880Y59373D01*
X334901Y59432D01*
X334926Y59490D01*
X334955Y59546D01*
X334987Y59600D01*
X335022Y59652D01*
X335060Y59701D01*
X335102Y59749D01*
X335146Y59793D01*
X335194Y59835D01*
X335243Y59873D01*
X335295Y59908D01*
X335349Y59940D01*
X335405Y59969D01*
X335463Y59994D01*
X335522Y60015D01*
X335582Y60033D01*
X335644Y60046D01*
X335706Y60056D01*
X335768Y60062D01*
X335831Y60064D01*
X335894Y60062D01*
X335956Y60056D01*
X336018Y60046D01*
X336080Y60033D01*
X336140Y60015D01*
X336199Y59994D01*
X336257Y59969D01*
X336313Y59940D01*
X336367Y59908D01*
X336419Y59873D01*
X336468Y59835D01*
X336516Y59793D01*
X336560Y59749D01*
X336602Y59701D01*
X336640Y59652D01*
X336675Y59600D01*
X336707Y59546D01*
X336736Y59490D01*
X336761Y59432D01*
X336782Y59373D01*
X336800Y59313D01*
X336813Y59251D01*
X336823Y59189D01*
X336829Y59127D01*
X336831Y59064D01*
X336829Y59001D01*
X336823Y58939D01*
X336813Y58877D01*
X336800Y58815D01*
X336782Y58755D01*
X336761Y58696D01*
X336736Y58638D01*
X336707Y58582D01*
X336675Y58528D01*
X336640Y58476D01*
X336602Y58427D01*
X336560Y58379D01*
X336516Y58335D01*
X336468Y58293D01*
X336419Y58255D01*
X336367Y58220D01*
X336313Y58188D01*
X336257Y58159D01*
X336199Y58134D01*
X336140Y58113D01*
X336080Y58095D01*
X336018Y58082D01*
X335956Y58072D01*
X335894Y58066D01*
X335831Y58064D01*
X335768Y58066D01*
X335706Y58072D01*
X335644Y58082D01*
X335582Y58095D01*
X335522Y58113D01*
X335463Y58134D01*
X335405Y58159D01*
X335349Y58188D01*
X335295Y58220D01*
X335243Y58255D01*
X335194Y58293D01*
X335146Y58335D01*
X335102Y58379D01*
X335060Y58427D01*
X335022Y58476D01*
X334987Y58528D01*
X334955Y58582D01*
X334926Y58638D01*
X334901Y58696D01*
X334880Y58755D01*
X334862Y58815D01*
X334849Y58877D01*
X334839Y58939D01*
X334833Y59001D01*
X334831Y59064D01*
D10*
X329281Y75344D02*
X329281Y91344D01*
X361281Y91344D02*
X361281Y75344D01*
D13*
X344237Y59063D02*
X344237Y53743D01*
X344239Y53654D01*
X344245Y53565D01*
X344255Y53476D01*
X344268Y53388D01*
X344285Y53300D01*
X344307Y53213D01*
X344332Y53128D01*
X344360Y53043D01*
X344393Y52960D01*
X344429Y52878D01*
X344468Y52798D01*
X344511Y52720D01*
X344557Y52644D01*
X344607Y52569D01*
X344660Y52497D01*
X344716Y52428D01*
X344775Y52361D01*
X344836Y52296D01*
X344901Y52235D01*
X344968Y52176D01*
X345037Y52120D01*
X345109Y52067D01*
X345184Y52017D01*
X345260Y51971D01*
X345338Y51928D01*
X345418Y51889D01*
X345500Y51853D01*
X345583Y51820D01*
X345668Y51792D01*
X345753Y51767D01*
X345840Y51745D01*
X345928Y51728D01*
X346016Y51715D01*
X346105Y51705D01*
X346194Y51699D01*
X346283Y51697D01*
X346372Y51699D01*
X346461Y51705D01*
X346550Y51715D01*
X346638Y51728D01*
X346726Y51745D01*
X346813Y51767D01*
X346898Y51792D01*
X346983Y51820D01*
X347066Y51853D01*
X347148Y51889D01*
X347228Y51928D01*
X347306Y51971D01*
X347382Y52017D01*
X347457Y52067D01*
X347529Y52120D01*
X347598Y52176D01*
X347665Y52235D01*
X347730Y52296D01*
X347791Y52361D01*
X347850Y52428D01*
X347906Y52497D01*
X347959Y52569D01*
X348009Y52644D01*
X348055Y52720D01*
X348098Y52798D01*
X348137Y52878D01*
X348173Y52960D01*
X348206Y53043D01*
X348234Y53128D01*
X348259Y53213D01*
X348281Y53300D01*
X348298Y53388D01*
X348311Y53476D01*
X348321Y53565D01*
X348327Y53654D01*
X348329Y53743D01*
X348329Y59063D01*
X351796Y59063D02*
X351796Y58244D01*
X351796Y59063D02*
X355888Y59063D01*
X353842Y51697D01*
D12*
X302886Y122940D02*
X295774Y122940D01*
X295774Y124915D01*
X295773Y124915D02*
X295775Y125002D01*
X295781Y125090D01*
X295790Y125177D01*
X295804Y125263D01*
X295821Y125349D01*
X295842Y125433D01*
X295867Y125517D01*
X295896Y125600D01*
X295928Y125681D01*
X295963Y125761D01*
X296002Y125839D01*
X296045Y125916D01*
X296091Y125990D01*
X296140Y126062D01*
X296192Y126132D01*
X296248Y126200D01*
X296306Y126265D01*
X296367Y126328D01*
X296431Y126387D01*
X296498Y126444D01*
X296566Y126498D01*
X296638Y126549D01*
X296711Y126596D01*
X296786Y126641D01*
X296864Y126682D01*
X296943Y126719D01*
X297023Y126753D01*
X297105Y126783D01*
X297188Y126810D01*
X297273Y126833D01*
X297358Y126852D01*
X297444Y126867D01*
X297531Y126879D01*
X297618Y126887D01*
X297705Y126891D01*
X297793Y126891D01*
X297880Y126887D01*
X297967Y126879D01*
X298054Y126867D01*
X298140Y126852D01*
X298225Y126833D01*
X298310Y126810D01*
X298393Y126783D01*
X298475Y126753D01*
X298555Y126719D01*
X298634Y126682D01*
X298712Y126641D01*
X298787Y126596D01*
X298860Y126549D01*
X298932Y126498D01*
X299000Y126444D01*
X299067Y126387D01*
X299131Y126328D01*
X299192Y126265D01*
X299250Y126200D01*
X299306Y126132D01*
X299358Y126062D01*
X299407Y125990D01*
X299453Y125916D01*
X299496Y125839D01*
X299535Y125761D01*
X299570Y125681D01*
X299602Y125600D01*
X299631Y125517D01*
X299656Y125433D01*
X299677Y125349D01*
X299694Y125263D01*
X299708Y125177D01*
X299717Y125090D01*
X299723Y125002D01*
X299725Y124915D01*
X299725Y122940D01*
X299725Y125310D02*
X302886Y126891D01*
X297354Y130194D02*
X295774Y132170D01*
X302886Y132170D01*
X302886Y130194D02*
X302886Y134146D01*
X295774Y139683D02*
X295776Y139765D01*
X295782Y139847D01*
X295791Y139929D01*
X295804Y140010D01*
X295821Y140090D01*
X295842Y140170D01*
X295866Y140248D01*
X295894Y140325D01*
X295925Y140401D01*
X295960Y140476D01*
X295999Y140548D01*
X296040Y140619D01*
X296085Y140688D01*
X296133Y140754D01*
X296184Y140819D01*
X296238Y140881D01*
X296295Y140940D01*
X296354Y140997D01*
X296416Y141051D01*
X296481Y141102D01*
X296547Y141150D01*
X296616Y141195D01*
X296687Y141236D01*
X296759Y141275D01*
X296834Y141310D01*
X296910Y141341D01*
X296987Y141369D01*
X297065Y141393D01*
X297145Y141414D01*
X297225Y141431D01*
X297306Y141444D01*
X297388Y141453D01*
X297470Y141459D01*
X297552Y141461D01*
X295774Y139683D02*
X295776Y139590D01*
X295782Y139498D01*
X295791Y139406D01*
X295804Y139314D01*
X295821Y139223D01*
X295841Y139133D01*
X295865Y139043D01*
X295893Y138955D01*
X295925Y138867D01*
X295959Y138782D01*
X295998Y138697D01*
X296039Y138615D01*
X296084Y138534D01*
X296133Y138454D01*
X296184Y138377D01*
X296238Y138302D01*
X296296Y138230D01*
X296356Y138159D01*
X296420Y138092D01*
X296485Y138027D01*
X296554Y137964D01*
X296625Y137905D01*
X296698Y137848D01*
X296774Y137794D01*
X296851Y137744D01*
X296931Y137696D01*
X297013Y137652D01*
X297096Y137612D01*
X297181Y137574D01*
X297267Y137540D01*
X297354Y137510D01*
X298935Y140868D02*
X298874Y140929D01*
X298811Y140987D01*
X298745Y141042D01*
X298677Y141095D01*
X298606Y141144D01*
X298534Y141189D01*
X298459Y141232D01*
X298383Y141271D01*
X298304Y141307D01*
X298225Y141339D01*
X298144Y141367D01*
X298061Y141392D01*
X297978Y141413D01*
X297894Y141430D01*
X297809Y141444D01*
X297724Y141453D01*
X297638Y141459D01*
X297552Y141461D01*
X298935Y140868D02*
X302886Y137510D01*
X302886Y141461D01*
D13*
X320385Y51952D02*
X320385Y50315D01*
X320383Y50237D01*
X320378Y50159D01*
X320368Y50082D01*
X320355Y50005D01*
X320339Y49929D01*
X320319Y49854D01*
X320295Y49780D01*
X320268Y49707D01*
X320237Y49635D01*
X320203Y49565D01*
X320166Y49497D01*
X320125Y49430D01*
X320081Y49365D01*
X320035Y49303D01*
X319985Y49243D01*
X319933Y49185D01*
X319878Y49130D01*
X319820Y49078D01*
X319760Y49028D01*
X319698Y48982D01*
X319633Y48938D01*
X319567Y48897D01*
X319498Y48860D01*
X319428Y48826D01*
X319356Y48795D01*
X319283Y48768D01*
X319209Y48744D01*
X319134Y48724D01*
X319058Y48708D01*
X318981Y48695D01*
X318904Y48685D01*
X318826Y48680D01*
X318748Y48678D01*
X314656Y48678D01*
X314576Y48680D01*
X314496Y48686D01*
X314416Y48696D01*
X314337Y48709D01*
X314258Y48727D01*
X314181Y48748D01*
X314105Y48774D01*
X314030Y48803D01*
X313956Y48835D01*
X313884Y48871D01*
X313814Y48911D01*
X313747Y48954D01*
X313681Y49000D01*
X313618Y49050D01*
X313557Y49102D01*
X313498Y49157D01*
X313443Y49216D01*
X313391Y49276D01*
X313341Y49340D01*
X313295Y49405D01*
X313252Y49473D01*
X313212Y49543D01*
X313176Y49615D01*
X313144Y49689D01*
X313115Y49763D01*
X313090Y49840D01*
X313068Y49917D01*
X313050Y49996D01*
X313037Y50075D01*
X313027Y50154D01*
X313021Y50235D01*
X313019Y50315D01*
X313019Y51952D01*
X314656Y54797D02*
X313019Y56843D01*
X320385Y56843D01*
X320385Y54797D02*
X320385Y58889D01*
X320385Y62112D02*
X320385Y64567D01*
X320383Y64645D01*
X320378Y64723D01*
X320368Y64800D01*
X320355Y64877D01*
X320339Y64953D01*
X320319Y65028D01*
X320295Y65102D01*
X320268Y65175D01*
X320237Y65247D01*
X320203Y65317D01*
X320166Y65386D01*
X320125Y65452D01*
X320081Y65517D01*
X320035Y65579D01*
X319985Y65639D01*
X319933Y65697D01*
X319878Y65752D01*
X319820Y65804D01*
X319760Y65854D01*
X319698Y65900D01*
X319633Y65944D01*
X319567Y65985D01*
X319498Y66022D01*
X319428Y66056D01*
X319356Y66087D01*
X319283Y66114D01*
X319209Y66138D01*
X319134Y66158D01*
X319058Y66174D01*
X318981Y66187D01*
X318904Y66197D01*
X318826Y66202D01*
X318748Y66204D01*
X317929Y66204D01*
X317849Y66202D01*
X317769Y66196D01*
X317689Y66186D01*
X317610Y66173D01*
X317531Y66155D01*
X317454Y66134D01*
X317378Y66108D01*
X317303Y66079D01*
X317229Y66047D01*
X317157Y66011D01*
X317087Y65971D01*
X317020Y65928D01*
X316954Y65882D01*
X316891Y65832D01*
X316830Y65780D01*
X316771Y65725D01*
X316716Y65666D01*
X316664Y65606D01*
X316614Y65542D01*
X316568Y65476D01*
X316525Y65409D01*
X316485Y65339D01*
X316449Y65267D01*
X316417Y65193D01*
X316388Y65119D01*
X316362Y65042D01*
X316341Y64965D01*
X316323Y64886D01*
X316310Y64807D01*
X316300Y64727D01*
X316294Y64647D01*
X316292Y64567D01*
X316292Y62112D01*
X313019Y62112D01*
X313019Y66204D01*
D12*
X372305Y49268D02*
X379417Y49268D01*
X372305Y49268D02*
X372305Y51243D01*
X372304Y51243D02*
X372306Y51330D01*
X372312Y51418D01*
X372321Y51505D01*
X372335Y51591D01*
X372352Y51677D01*
X372373Y51761D01*
X372398Y51845D01*
X372427Y51928D01*
X372459Y52009D01*
X372494Y52089D01*
X372533Y52167D01*
X372576Y52244D01*
X372622Y52318D01*
X372671Y52390D01*
X372723Y52460D01*
X372779Y52528D01*
X372837Y52593D01*
X372898Y52656D01*
X372962Y52715D01*
X373029Y52772D01*
X373097Y52826D01*
X373169Y52877D01*
X373242Y52924D01*
X373317Y52969D01*
X373395Y53010D01*
X373474Y53047D01*
X373554Y53081D01*
X373636Y53111D01*
X373719Y53138D01*
X373804Y53161D01*
X373889Y53180D01*
X373975Y53195D01*
X374062Y53207D01*
X374149Y53215D01*
X374236Y53219D01*
X374324Y53219D01*
X374411Y53215D01*
X374498Y53207D01*
X374585Y53195D01*
X374671Y53180D01*
X374756Y53161D01*
X374841Y53138D01*
X374924Y53111D01*
X375006Y53081D01*
X375086Y53047D01*
X375165Y53010D01*
X375243Y52969D01*
X375318Y52924D01*
X375391Y52877D01*
X375463Y52826D01*
X375531Y52772D01*
X375598Y52715D01*
X375662Y52656D01*
X375723Y52593D01*
X375781Y52528D01*
X375837Y52460D01*
X375889Y52390D01*
X375938Y52318D01*
X375984Y52244D01*
X376027Y52167D01*
X376066Y52089D01*
X376101Y52009D01*
X376133Y51928D01*
X376162Y51845D01*
X376187Y51761D01*
X376208Y51677D01*
X376225Y51591D01*
X376239Y51505D01*
X376248Y51418D01*
X376254Y51330D01*
X376256Y51243D01*
X376256Y49268D01*
X376256Y51638D02*
X379417Y53219D01*
X373885Y56523D02*
X372305Y58498D01*
X379417Y58498D01*
X379417Y56523D02*
X379417Y60474D01*
X379417Y63838D02*
X379417Y65813D01*
X379415Y65900D01*
X379409Y65988D01*
X379400Y66075D01*
X379386Y66161D01*
X379369Y66247D01*
X379348Y66331D01*
X379323Y66415D01*
X379294Y66498D01*
X379262Y66579D01*
X379227Y66659D01*
X379188Y66737D01*
X379145Y66814D01*
X379099Y66888D01*
X379050Y66960D01*
X378998Y67030D01*
X378942Y67098D01*
X378884Y67163D01*
X378823Y67226D01*
X378759Y67285D01*
X378692Y67342D01*
X378624Y67396D01*
X378552Y67447D01*
X378479Y67494D01*
X378404Y67539D01*
X378326Y67580D01*
X378247Y67617D01*
X378167Y67651D01*
X378085Y67681D01*
X378002Y67708D01*
X377917Y67731D01*
X377832Y67750D01*
X377746Y67765D01*
X377659Y67777D01*
X377572Y67785D01*
X377485Y67789D01*
X377397Y67789D01*
X377310Y67785D01*
X377223Y67777D01*
X377136Y67765D01*
X377050Y67750D01*
X376965Y67731D01*
X376880Y67708D01*
X376797Y67681D01*
X376715Y67651D01*
X376635Y67617D01*
X376556Y67580D01*
X376478Y67539D01*
X376403Y67494D01*
X376330Y67447D01*
X376258Y67396D01*
X376190Y67342D01*
X376123Y67285D01*
X376059Y67226D01*
X375998Y67163D01*
X375940Y67098D01*
X375884Y67030D01*
X375832Y66960D01*
X375783Y66888D01*
X375737Y66814D01*
X375694Y66737D01*
X375655Y66659D01*
X375620Y66579D01*
X375588Y66498D01*
X375559Y66415D01*
X375534Y66331D01*
X375513Y66247D01*
X375496Y66161D01*
X375482Y66075D01*
X375473Y65988D01*
X375467Y65900D01*
X375465Y65813D01*
X372305Y66208D02*
X372305Y63838D01*
X372305Y66208D02*
X372307Y66287D01*
X372313Y66365D01*
X372323Y66443D01*
X372336Y66521D01*
X372354Y66598D01*
X372375Y66674D01*
X372400Y66748D01*
X372429Y66822D01*
X372461Y66894D01*
X372497Y66964D01*
X372537Y67032D01*
X372580Y67098D01*
X372626Y67162D01*
X372675Y67224D01*
X372727Y67283D01*
X372782Y67339D01*
X372840Y67393D01*
X372900Y67443D01*
X372963Y67491D01*
X373028Y67535D01*
X373095Y67576D01*
X373164Y67614D01*
X373235Y67648D01*
X373308Y67679D01*
X373382Y67706D01*
X373457Y67729D01*
X373533Y67748D01*
X373611Y67764D01*
X373689Y67776D01*
X373767Y67784D01*
X373846Y67788D01*
X373924Y67788D01*
X374003Y67784D01*
X374081Y67776D01*
X374159Y67764D01*
X374237Y67748D01*
X374313Y67729D01*
X374388Y67706D01*
X374462Y67679D01*
X374535Y67648D01*
X374606Y67614D01*
X374675Y67576D01*
X374742Y67535D01*
X374807Y67491D01*
X374870Y67443D01*
X374930Y67393D01*
X374988Y67339D01*
X375043Y67283D01*
X375095Y67224D01*
X375144Y67162D01*
X375190Y67098D01*
X375233Y67032D01*
X375273Y66964D01*
X375309Y66894D01*
X375341Y66822D01*
X375370Y66748D01*
X375395Y66674D01*
X375416Y66598D01*
X375434Y66521D01*
X375447Y66443D01*
X375457Y66365D01*
X375463Y66287D01*
X375465Y66208D01*
X375466Y66208D02*
X375466Y64628D01*
M02*
