G04 EAGLE Gerber RS-274X export*
G75*
%MOMM*%
%FSLAX34Y34*%
%LPD*%
%INSolderpaste Top*%
%IPPOS*%
%AMOC8*
5,1,8,0,0,1.08239X$1,22.5*%
G01*
%ADD10R,0.600000X1.450000*%
%ADD11R,0.300000X1.450000*%
%ADD12C,0.300000*%
%ADD13R,1.600000X1.300000*%
%ADD14R,1.220000X0.620000*%
%ADD15R,1.300000X1.600000*%
%ADD16R,1.500000X1.500000*%
%ADD17R,2.500000X1.000000*%
%ADD18R,0.800000X2.000000*%
%ADD19R,0.900000X0.800000*%
%ADD20R,1.000000X0.800000*%
%ADD21R,1.150000X0.600000*%
%ADD22R,1.000000X2.500000*%
%ADD23R,0.600000X1.550000*%
%ADD24R,1.200000X1.800000*%
%ADD25R,0.550000X1.200000*%
%ADD26C,0.295000*%


D10*
X270625Y157409D03*
X262625Y157409D03*
D11*
X240625Y157409D03*
X245625Y157409D03*
X250625Y157409D03*
X255625Y157409D03*
X235625Y157409D03*
X230625Y157409D03*
X225625Y157409D03*
X220625Y157409D03*
D10*
X213625Y157409D03*
X205625Y157409D03*
D12*
X182900Y132659D02*
X182900Y123659D01*
X182900Y132659D02*
X198100Y132659D01*
X198100Y123659D01*
X182900Y123659D01*
X182900Y126509D02*
X198100Y126509D01*
X198100Y129359D02*
X182900Y129359D01*
X182900Y132209D02*
X198100Y132209D01*
X182900Y102559D02*
X182900Y93559D01*
X182900Y102559D02*
X198100Y102559D01*
X198100Y93559D01*
X182900Y93559D01*
X182900Y96409D02*
X198100Y96409D01*
X198100Y99259D02*
X182900Y99259D01*
X182900Y102109D02*
X198100Y102109D01*
D13*
X170000Y162641D03*
X170000Y182641D03*
X303609Y162641D03*
X303609Y182641D03*
D14*
X149922Y157188D03*
X149922Y166688D03*
X149922Y176188D03*
X123922Y176188D03*
X123922Y157188D03*
D15*
X146922Y136922D03*
X126922Y136922D03*
D13*
X101203Y115016D03*
X101203Y135016D03*
D16*
X136563Y196453D03*
X101563Y196453D03*
D13*
X101203Y176688D03*
X101203Y156688D03*
D17*
X46038Y103063D03*
X46038Y135063D03*
D18*
X354911Y169500D03*
D19*
X401141Y179250D03*
D20*
X400641Y201750D03*
D19*
X325141Y179250D03*
D20*
X325641Y201750D03*
D18*
X384911Y169500D03*
X339911Y169500D03*
D21*
X250625Y97656D03*
X250625Y107156D03*
X250625Y116656D03*
X225625Y116656D03*
X225625Y107156D03*
X225625Y97656D03*
D22*
X157016Y67866D03*
X125016Y67866D03*
D23*
X263125Y71438D03*
X253125Y71438D03*
X243125Y71438D03*
X233125Y71438D03*
X223125Y71438D03*
X213125Y71438D03*
D24*
X276125Y46188D03*
X200125Y46188D03*
D17*
X430213Y135063D03*
X430213Y103063D03*
D25*
X335781Y117969D03*
X345281Y117969D03*
X354781Y117969D03*
X354781Y143969D03*
X335781Y143969D03*
X345281Y143969D03*
D26*
X337256Y75369D02*
X337256Y66219D01*
X334306Y66219D01*
X334306Y75369D01*
X337256Y75369D01*
X337256Y69021D02*
X334306Y69021D01*
X334306Y71823D02*
X337256Y71823D01*
X337256Y74625D02*
X334306Y74625D01*
X346756Y75369D02*
X346756Y66219D01*
X343806Y66219D01*
X343806Y75369D01*
X346756Y75369D01*
X346756Y69021D02*
X343806Y69021D01*
X343806Y71823D02*
X346756Y71823D01*
X346756Y74625D02*
X343806Y74625D01*
X356256Y75369D02*
X356256Y66219D01*
X353306Y66219D01*
X353306Y75369D01*
X356256Y75369D01*
X356256Y69021D02*
X353306Y69021D01*
X353306Y71823D02*
X356256Y71823D01*
X356256Y74625D02*
X353306Y74625D01*
X337256Y91319D02*
X337256Y100469D01*
X337256Y91319D02*
X334306Y91319D01*
X334306Y100469D01*
X337256Y100469D01*
X337256Y94121D02*
X334306Y94121D01*
X334306Y96923D02*
X337256Y96923D01*
X337256Y99725D02*
X334306Y99725D01*
X346756Y100469D02*
X346756Y91319D01*
X343806Y91319D01*
X343806Y100469D01*
X346756Y100469D01*
X346756Y94121D02*
X343806Y94121D01*
X343806Y96923D02*
X346756Y96923D01*
X346756Y99725D02*
X343806Y99725D01*
X356256Y100469D02*
X356256Y91319D01*
X353306Y91319D01*
X353306Y100469D01*
X356256Y100469D01*
X356256Y94121D02*
X353306Y94121D01*
X353306Y96923D02*
X356256Y96923D01*
X356256Y99725D02*
X353306Y99725D01*
D13*
X315516Y140969D03*
X315516Y120969D03*
X315516Y79297D03*
X315516Y99297D03*
X375047Y99297D03*
X375047Y79297D03*
M02*
