0
SECTION
2
HEADER
9
$ANGDIR
70
1
9
$AUNITS
70
0
9
$PROJECTNAME
1
DBS
9
$TDCREATE
40
2459858.80801601
9
$INSUNITS
70
4
0
ENDSEC
0
SECTION
2
ENTITIES
0
POLYLINE
66
1
8
outline
10
0.0
20
0.0
30
0.0
70
1
0
VERTEX
8
0
10
1.0001
20
3.7500906250000003
30
0
0
VERTEX
8
0
10
1.0409000000000002
20
3.348290625
30
0
0
VERTEX
8
0
10
1.1579000000000002
20
2.973490625
30
0
0
VERTEX
8
0
10
1.3429
20
2.6338906250000003
30
0
0
VERTEX
8
0
10
1.5876000000000001
20
2.3376
30
0
0
VERTEX
8
0
10
1.8839000000000001
20
2.0929
30
0
0
VERTEX
8
0
10
2.2235
20
1.9079000000000002
30
0
0
VERTEX
8
0
10
2.598290625
20
1.7909000000000002
30
0
0
VERTEX
8
0
10
3.0000906250000003
20
1.7501
30
0
0
VERTEX
8
0
10
16.99996875
20
1.7501
30
0
0
VERTEX
8
0
10
17.401668750000002
20
1.7909000000000002
30
0
0
VERTEX
8
0
10
17.776459375
20
1.9079000000000002
30
0
0
VERTEX
8
0
10
18.116159375000002
20
2.0929
30
0
0
VERTEX
8
0
10
18.412459375
20
2.3377000000000003
30
0
0
VERTEX
8
0
10
18.657159375000003
20
2.633990625
30
0
0
VERTEX
8
0
10
18.842159375
20
2.973590625
30
0
0
VERTEX
8
0
10
18.959259375000002
20
3.348390625
30
0
0
VERTEX
8
0
10
19.000059375
20
3.7500906250000003
30
0
0
VERTEX
8
0
10
19.000059375
20
7.50008125
30
0
0
VERTEX
8
0
10
21.000059375
20
7.50008125
30
0
0
VERTEX
8
0
10
21.000059375
20
3.7500906250000003
30
0
0
VERTEX
8
0
10
21.040859375
20
3.348290625
30
0
0
VERTEX
8
0
10
21.157859375
20
2.973490625
30
0
0
VERTEX
8
0
10
21.342859375
20
2.6338906250000003
30
0
0
VERTEX
8
0
10
21.587559375
20
2.3376
30
0
0
VERTEX
8
0
10
21.883859375
20
2.0929
30
0
0
VERTEX
8
0
10
22.223559375
20
1.9079000000000002
30
0
0
VERTEX
8
0
10
22.59835
20
1.7909000000000002
30
0
0
VERTEX
8
0
10
23.00005
20
1.7501
30
0
0
VERTEX
8
0
10
36.99993125
20
1.7501
30
0
0
VERTEX
8
0
10
37.40163125
20
1.7909000000000002
30
0
0
VERTEX
8
0
10
37.776418750000005
20
1.9079000000000002
30
0
0
VERTEX
8
0
10
38.116118750000005
20
2.0929
30
0
0
VERTEX
8
0
10
38.41241875
20
2.3376
30
0
0
VERTEX
8
0
10
38.65721875
20
2.6338906250000003
30
0
0
VERTEX
8
0
10
38.84221875
20
2.973590625
30
0
0
VERTEX
8
0
10
38.959218750000005
20
3.348390625
30
0
0
VERTEX
8
0
10
39.00001875
20
3.7500906250000003
30
0
0
VERTEX
8
0
10
39.00001875
20
7.50008125
30
0
0
VERTEX
8
0
10
41.00001875
20
7.50008125
30
0
0
VERTEX
8
0
10
41.00001875
20
3.7500906250000003
30
0
0
VERTEX
8
0
10
41.04081875
20
3.348290625
30
0
0
VERTEX
8
0
10
41.157818750000004
20
2.973490625
30
0
0
VERTEX
8
0
10
41.34281875
20
2.6338906250000003
30
0
0
VERTEX
8
0
10
41.58751875
20
2.3376
30
0
0
VERTEX
8
0
10
41.88381875
20
2.0929
30
0
0
VERTEX
8
0
10
42.22341875
20
1.9079000000000002
30
0
0
VERTEX
8
0
10
42.598209375
20
1.7909000000000002
30
0
0
VERTEX
8
0
10
43.000009375000005
20
1.7501
30
0
0
VERTEX
8
0
10
56.999890625000006
20
1.7501
30
0
0
VERTEX
8
0
10
57.401590625000004
20
1.7909000000000002
30
0
0
VERTEX
8
0
10
57.77638125
20
1.9079000000000002
30
0
0
VERTEX
8
0
10
58.11608125
20
2.0929
30
0
0
VERTEX
8
0
10
58.41238125
20
2.3376
30
0
0
VERTEX
8
0
10
58.65718125
20
2.6338906250000003
30
0
0
VERTEX
8
0
10
58.84218125
20
2.973590625
30
0
0
VERTEX
8
0
10
58.95918125
20
3.348390625
30
0
0
VERTEX
8
0
10
58.999981250000005
20
3.7500906250000003
30
0
0
VERTEX
8
0
10
58.999981250000005
20
7.50008125
30
0
0
VERTEX
8
0
10
60.999981250000005
20
7.50008125
30
0
0
VERTEX
8
0
10
60.999981250000005
20
3.7500906250000003
30
0
0
VERTEX
8
0
10
61.04078125
20
3.348290625
30
0
0
VERTEX
8
0
10
61.157781250000006
20
2.973490625
30
0
0
VERTEX
8
0
10
61.34278125
20
2.6338906250000003
30
0
0
VERTEX
8
0
10
61.58748125
20
2.3376
30
0
0
VERTEX
8
0
10
61.883781250000006
20
2.0929
30
0
0
VERTEX
8
0
10
62.22338125
20
1.9079000000000002
30
0
0
VERTEX
8
0
10
62.598168750000006
20
1.7909000000000002
30
0
0
VERTEX
8
0
10
62.99996875
20
1.7501
30
0
0
VERTEX
8
0
10
76.99985000000001
20
1.7501
30
0
0
VERTEX
8
0
10
77.40155
20
1.7909000000000002
30
0
0
VERTEX
8
0
10
77.776340625
20
1.9079000000000002
30
0
0
VERTEX
8
0
10
78.11604062500001
20
2.0929
30
0
0
VERTEX
8
0
10
78.412340625
20
2.3376
30
0
0
VERTEX
8
0
10
78.657140625
20
2.6338906250000003
30
0
0
VERTEX
8
0
10
78.842140625
20
2.973590625
30
0
0
VERTEX
8
0
10
78.959140625
20
3.348390625
30
0
0
VERTEX
8
0
10
78.99994062500001
20
3.7500906250000003
30
0
0
VERTEX
8
0
10
78.99994062500001
20
7.50008125
30
0
0
VERTEX
8
0
10
80.99994062500001
20
7.50008125
30
0
0
VERTEX
8
0
10
80.99994062500001
20
3.7500906250000003
30
0
0
VERTEX
8
0
10
81.040740625
20
3.348290625
30
0
0
VERTEX
8
0
10
81.157740625
20
2.973490625
30
0
0
VERTEX
8
0
10
81.342740625
20
2.6338906250000003
30
0
0
VERTEX
8
0
10
81.587440625
20
2.3376
30
0
0
VERTEX
8
0
10
81.883740625
20
2.0929
30
0
0
VERTEX
8
0
10
82.223340625
20
1.9079000000000002
30
0
0
VERTEX
8
0
10
82.59813125000001
20
1.7909000000000002
30
0
0
VERTEX
8
0
10
82.99993125
20
1.7501
30
0
0
VERTEX
8
0
10
96.999809375
20
1.7501
30
0
0
VERTEX
8
0
10
97.401609375
20
1.7909000000000002
30
0
0
VERTEX
8
0
10
97.77640000000001
20
1.9079000000000002
30
0
0
VERTEX
8
0
10
98.116
20
2.0929
30
0
0
VERTEX
8
0
10
98.4124
20
2.3376
30
0
0
VERTEX
8
0
10
98.6571
20
2.6338906250000003
30
0
0
VERTEX
8
0
10
98.8421
20
2.973490625
30
0
0
VERTEX
8
0
10
98.9591
20
3.348290625
30
0
0
VERTEX
8
0
10
98.99990000000001
20
3.7500906250000003
30
0
0
VERTEX
8
0
10
98.99990000000001
20
16.25006875
30
0
0
VERTEX
8
0
10
98.9591
20
16.651868750000002
30
0
0
VERTEX
8
0
10
98.8421
20
17.026668750000002
30
0
0
VERTEX
8
0
10
98.6571
20
17.36626875
30
0
0
VERTEX
8
0
10
98.4124
20
17.662559375
30
0
0
VERTEX
8
0
10
98.116
20
17.907259375000002
30
0
0
VERTEX
8
0
10
97.77640000000001
20
18.092259375
30
0
0
VERTEX
8
0
10
97.401609375
20
18.209259375000002
30
0
0
VERTEX
8
0
10
96.999809375
20
18.250059375
30
0
0
VERTEX
8
0
10
92.49991875
20
18.250059375
30
0
0
VERTEX
8
0
10
92.49991875
20
21.750059375
30
0
0
VERTEX
8
0
10
96.999809375
20
21.750059375
30
0
0
VERTEX
8
0
10
97.401609375
20
21.790859375
30
0
0
VERTEX
8
0
10
97.77640000000001
20
21.907859375
30
0
0
VERTEX
8
0
10
98.116
20
22.092859375
30
0
0
VERTEX
8
0
10
98.4124
20
22.337559375
30
0
0
VERTEX
8
0
10
98.6571
20
22.633850000000002
30
0
0
VERTEX
8
0
10
98.8421
20
22.97345
30
0
0
VERTEX
8
0
10
98.9591
20
23.34825
30
0
0
VERTEX
8
0
10
98.99990000000001
20
23.75005
30
0
0
VERTEX
8
0
10
98.99990000000001
20
36.25003125
30
0
0
VERTEX
8
0
10
98.9591
20
36.65183125
30
0
0
VERTEX
8
0
10
98.8421
20
37.02663125
30
0
0
VERTEX
8
0
10
98.6571
20
37.36623125
30
0
0
VERTEX
8
0
10
98.4124
20
37.662518750000004
30
0
0
VERTEX
8
0
10
98.116
20
37.90721875
30
0
0
VERTEX
8
0
10
97.77640000000001
20
38.09221875
30
0
0
VERTEX
8
0
10
97.401609375
20
38.209218750000005
30
0
0
VERTEX
8
0
10
96.999809375
20
38.25001875
30
0
0
VERTEX
8
0
10
92.49991875
20
38.25001875
30
0
0
VERTEX
8
0
10
92.49991875
20
41.75001875
30
0
0
VERTEX
8
0
10
96.999809375
20
41.75001875
30
0
0
VERTEX
8
0
10
97.401609375
20
41.79081875
30
0
0
VERTEX
8
0
10
97.77640000000001
20
41.907818750000004
30
0
0
VERTEX
8
0
10
98.116
20
42.09281875
30
0
0
VERTEX
8
0
10
98.4124
20
42.33751875
30
0
0
VERTEX
8
0
10
98.6571
20
42.633809375000006
30
0
0
VERTEX
8
0
10
98.8421
20
42.973409375
30
0
0
VERTEX
8
0
10
98.9591
20
43.348209375
30
0
0
VERTEX
8
0
10
98.99990000000001
20
43.750009375000005
30
0
0
VERTEX
8
0
10
98.99990000000001
20
56.249990625
30
0
0
VERTEX
8
0
10
98.9591
20
56.651790625000004
30
0
0
VERTEX
8
0
10
98.8421
20
57.026590625000004
30
0
0
VERTEX
8
0
10
98.6571
20
57.366190625
30
0
0
VERTEX
8
0
10
98.4124
20
57.662481250000006
30
0
0
VERTEX
8
0
10
98.116
20
57.90718125
30
0
0
VERTEX
8
0
10
97.77640000000001
20
58.09218125
30
0
0
VERTEX
8
0
10
97.401609375
20
58.20918125
30
0
0
VERTEX
8
0
10
96.999809375
20
58.249981250000005
30
0
0
VERTEX
8
0
10
92.49991875
20
58.249981250000005
30
0
0
VERTEX
8
0
10
92.49991875
20
61.749981250000005
30
0
0
VERTEX
8
0
10
96.999809375
20
61.749981250000005
30
0
0
VERTEX
8
0
10
97.401609375
20
61.79078125
30
0
0
VERTEX
8
0
10
97.77640000000001
20
61.907781250000006
30
0
0
VERTEX
8
0
10
98.116
20
62.09278125
30
0
0
VERTEX
8
0
10
98.4124
20
62.33748125
30
0
0
VERTEX
8
0
10
98.6571
20
62.63376875
30
0
0
VERTEX
8
0
10
98.8421
20
62.973368750000006
30
0
0
VERTEX
8
0
10
98.9591
20
63.348168750000006
30
0
0
VERTEX
8
0
10
98.99990000000001
20
63.74996875
30
0
0
VERTEX
8
0
10
98.99990000000001
20
76.24995
30
0
0
VERTEX
8
0
10
98.9591
20
76.65175
30
0
0
VERTEX
8
0
10
98.8421
20
77.02655
30
0
0
VERTEX
8
0
10
98.6571
20
77.36615
30
0
0
VERTEX
8
0
10
98.4124
20
77.662440625
30
0
0
VERTEX
8
0
10
98.116
20
77.907140625
30
0
0
VERTEX
8
0
10
97.77640000000001
20
78.092140625
30
0
0
VERTEX
8
0
10
97.401609375
20
78.209140625
30
0
0
VERTEX
8
0
10
96.999809375
20
78.24994062500001
30
0
0
VERTEX
8
0
10
92.49991875
20
78.24994062500001
30
0
0
VERTEX
8
0
10
92.49991875
20
81.74994062500001
30
0
0
VERTEX
8
0
10
96.999809375
20
81.74994062500001
30
0
0
VERTEX
8
0
10
97.401609375
20
81.790740625
30
0
0
VERTEX
8
0
10
97.77640000000001
20
81.907740625
30
0
0
VERTEX
8
0
10
98.116
20
82.092740625
30
0
0
VERTEX
8
0
10
98.4124
20
82.337440625
30
0
0
VERTEX
8
0
10
98.6571
20
82.63373125000001
30
0
0
VERTEX
8
0
10
98.8421
20
82.97333125
30
0
0
VERTEX
8
0
10
98.9591
20
83.34813125000001
30
0
0
VERTEX
8
0
10
98.99990000000001
20
83.74993125
30
0
0
VERTEX
8
0
10
98.99990000000001
20
96.249909375
30
0
0
VERTEX
8
0
10
98.9591
20
96.65170937500001
30
0
0
VERTEX
8
0
10
98.8421
20
97.026509375
30
0
0
VERTEX
8
0
10
98.6571
20
97.36610937500001
30
0
0
VERTEX
8
0
10
98.4124
20
97.6624
30
0
0
VERTEX
8
0
10
98.116
20
97.9071
30
0
0
VERTEX
8
0
10
97.77640000000001
20
98.0921
30
0
0
VERTEX
8
0
10
97.401609375
20
98.2091
30
0
0
VERTEX
8
0
10
96.999809375
20
98.24990000000001
30
0
0
VERTEX
8
0
10
82.99993125
20
98.24990000000001
30
0
0
VERTEX
8
0
10
82.59813125000001
20
98.2091
30
0
0
VERTEX
8
0
10
82.223340625
20
98.0921
30
0
0
VERTEX
8
0
10
81.883740625
20
97.9071
30
0
0
VERTEX
8
0
10
81.587440625
20
97.6624
30
0
0
VERTEX
8
0
10
81.342740625
20
97.36610937500001
30
0
0
VERTEX
8
0
10
81.157740625
20
97.026509375
30
0
0
VERTEX
8
0
10
81.040740625
20
96.65170937500001
30
0
0
VERTEX
8
0
10
80.99994062500001
20
96.249909375
30
0
0
VERTEX
8
0
10
80.99994062500001
20
92.49991875
30
0
0
VERTEX
8
0
10
78.99994062500001
20
92.49991875
30
0
0
VERTEX
8
0
10
78.99994062500001
20
96.249909375
30
0
0
VERTEX
8
0
10
78.959140625
20
96.651609375
30
0
0
VERTEX
8
0
10
78.842140625
20
97.026409375
30
0
0
VERTEX
8
0
10
78.657140625
20
97.36610937500001
30
0
0
VERTEX
8
0
10
78.412440625
20
97.6624
30
0
0
VERTEX
8
0
10
78.11604062500001
20
97.9071
30
0
0
VERTEX
8
0
10
77.776440625
20
98.0921
30
0
0
VERTEX
8
0
10
77.40165
20
98.2091
30
0
0
VERTEX
8
0
10
76.99985000000001
20
98.24990000000001
30
0
0
VERTEX
8
0
10
62.99996875
20
98.24990000000001
30
0
0
VERTEX
8
0
10
62.598168750000006
20
98.2091
30
0
0
VERTEX
8
0
10
62.22338125
20
98.0921
30
0
0
VERTEX
8
0
10
61.883781250000006
20
97.9071
30
0
0
VERTEX
8
0
10
61.58748125
20
97.6624
30
0
0
VERTEX
8
0
10
61.34278125
20
97.36610937500001
30
0
0
VERTEX
8
0
10
61.157781250000006
20
97.026509375
30
0
0
VERTEX
8
0
10
61.04078125
20
96.65170937500001
30
0
0
VERTEX
8
0
10
60.999981250000005
20
96.249909375
30
0
0
VERTEX
8
0
10
60.999981250000005
20
92.49991875
30
0
0
VERTEX
8
0
10
58.999981250000005
20
92.49991875
30
0
0
VERTEX
8
0
10
58.999981250000005
20
96.249909375
30
0
0
VERTEX
8
0
10
58.95918125
20
96.651609375
30
0
0
VERTEX
8
0
10
58.84218125
20
97.026409375
30
0
0
VERTEX
8
0
10
58.65718125
20
97.36610937500001
30
0
0
VERTEX
8
0
10
58.412481250000006
20
97.6624
30
0
0
VERTEX
8
0
10
58.11608125
20
97.9071
30
0
0
VERTEX
8
0
10
57.77648125
20
98.0921
30
0
0
VERTEX
8
0
10
57.401690625
20
98.2091
30
0
0
VERTEX
8
0
10
56.999890625000006
20
98.24990000000001
30
0
0
VERTEX
8
0
10
43.000009375000005
20
98.24990000000001
30
0
0
VERTEX
8
0
10
42.598209375
20
98.2091
30
0
0
VERTEX
8
0
10
42.22341875
20
98.0921
30
0
0
VERTEX
8
0
10
41.88381875
20
97.9071
30
0
0
VERTEX
8
0
10
41.58751875
20
97.6624
30
0
0
VERTEX
8
0
10
41.34281875
20
97.36610937500001
30
0
0
VERTEX
8
0
10
41.157818750000004
20
97.026509375
30
0
0
VERTEX
8
0
10
41.04081875
20
96.65170937500001
30
0
0
VERTEX
8
0
10
41.00001875
20
96.249909375
30
0
0
VERTEX
8
0
10
41.00001875
20
92.49991875
30
0
0
VERTEX
8
0
10
39.00001875
20
92.49991875
30
0
0
VERTEX
8
0
10
39.00001875
20
96.249909375
30
0
0
VERTEX
8
0
10
38.959218750000005
20
96.651609375
30
0
0
VERTEX
8
0
10
38.84221875
20
97.026409375
30
0
0
VERTEX
8
0
10
38.65721875
20
97.36610937500001
30
0
0
VERTEX
8
0
10
38.41241875
20
97.6624
30
0
0
VERTEX
8
0
10
38.116118750000005
20
97.9071
30
0
0
VERTEX
8
0
10
37.77651875
20
98.0921
30
0
0
VERTEX
8
0
10
37.401731250000005
20
98.2091
30
0
0
VERTEX
8
0
10
36.99993125
20
98.24990000000001
30
0
0
VERTEX
8
0
10
23.00005
20
98.24990000000001
30
0
0
VERTEX
8
0
10
22.59825
20
98.2091
30
0
0
VERTEX
8
0
10
22.223459375
20
98.0921
30
0
0
VERTEX
8
0
10
21.883859375
20
97.9071
30
0
0
VERTEX
8
0
10
21.587559375
20
97.6624
30
0
0
VERTEX
8
0
10
21.342859375
20
97.36610937500001
30
0
0
VERTEX
8
0
10
21.157859375
20
97.026509375
30
0
0
VERTEX
8
0
10
21.040859375
20
96.65170937500001
30
0
0
VERTEX
8
0
10
21.000059375
20
96.249909375
30
0
0
VERTEX
8
0
10
21.000059375
20
92.49991875
30
0
0
VERTEX
8
0
10
19.000059375
20
92.49991875
30
0
0
VERTEX
8
0
10
19.000059375
20
96.249909375
30
0
0
VERTEX
8
0
10
18.959259375000002
20
96.651609375
30
0
0
VERTEX
8
0
10
18.842259375
20
97.026409375
30
0
0
VERTEX
8
0
10
18.657259375000002
20
97.36610937500001
30
0
0
VERTEX
8
0
10
18.412459375
20
97.6624
30
0
0
VERTEX
8
0
10
18.116159375000002
20
97.9071
30
0
0
VERTEX
8
0
10
17.776559375
20
98.0921
30
0
0
VERTEX
8
0
10
17.401768750000002
20
98.2091
30
0
0
VERTEX
8
0
10
16.99996875
20
98.24990000000001
30
0
0
VERTEX
8
0
10
3.0000906250000003
20
98.24990000000001
30
0
0
VERTEX
8
0
10
2.598290625
20
98.2091
30
0
0
VERTEX
8
0
10
2.2235
20
98.0921
30
0
0
VERTEX
8
0
10
1.8839000000000001
20
97.9071
30
0
0
VERTEX
8
0
10
1.5876000000000001
20
97.6624
30
0
0
VERTEX
8
0
10
1.3429
20
97.36610937500001
30
0
0
VERTEX
8
0
10
1.1579000000000002
20
97.026509375
30
0
0
VERTEX
8
0
10
1.0409000000000002
20
96.65170937500001
30
0
0
VERTEX
8
0
10
1.0001
20
96.249909375
30
0
0
VERTEX
8
0
10
1.0001
20
83.74993125
30
0
0
VERTEX
8
0
10
1.0409000000000002
20
83.34813125000001
30
0
0
VERTEX
8
0
10
1.1579000000000002
20
82.97333125
30
0
0
VERTEX
8
0
10
1.3429
20
82.63373125000001
30
0
0
VERTEX
8
0
10
1.5876000000000001
20
82.337440625
30
0
0
VERTEX
8
0
10
1.8839000000000001
20
82.092740625
30
0
0
VERTEX
8
0
10
2.2236000000000002
20
81.907740625
30
0
0
VERTEX
8
0
10
2.598390625
20
81.790740625
30
0
0
VERTEX
8
0
10
3.0000906250000003
20
81.74994062500001
30
0
0
VERTEX
8
0
10
7.50008125
20
81.74994062500001
30
0
0
VERTEX
8
0
10
7.50008125
20
78.24994062500001
30
0
0
VERTEX
8
0
10
3.0000906250000003
20
78.24994062500001
30
0
0
VERTEX
8
0
10
2.598290625
20
78.209140625
30
0
0
VERTEX
8
0
10
2.2235
20
78.092140625
30
0
0
VERTEX
8
0
10
1.8839000000000001
20
77.907140625
30
0
0
VERTEX
8
0
10
1.5876000000000001
20
77.662440625
30
0
0
VERTEX
8
0
10
1.3429
20
77.36615
30
0
0
VERTEX
8
0
10
1.1579000000000002
20
77.02655
30
0
0
VERTEX
8
0
10
1.0409000000000002
20
76.65175
30
0
0
VERTEX
8
0
10
1.0001
20
76.24995
30
0
0
VERTEX
8
0
10
1.0001
20
63.74996875
30
0
0
VERTEX
8
0
10
1.0409000000000002
20
63.348168750000006
30
0
0
VERTEX
8
0
10
1.1579000000000002
20
62.973368750000006
30
0
0
VERTEX
8
0
10
1.3429
20
62.63376875
30
0
0
VERTEX
8
0
10
1.5876000000000001
20
62.33748125
30
0
0
VERTEX
8
0
10
1.8839000000000001
20
62.09278125
30
0
0
VERTEX
8
0
10
2.2236000000000002
20
61.907781250000006
30
0
0
VERTEX
8
0
10
2.598390625
20
61.79078125
30
0
0
VERTEX
8
0
10
3.0000906250000003
20
61.749981250000005
30
0
0
VERTEX
8
0
10
7.50008125
20
61.749981250000005
30
0
0
VERTEX
8
0
10
7.50008125
20
58.249981250000005
30
0
0
VERTEX
8
0
10
3.0000906250000003
20
58.249981250000005
30
0
0
VERTEX
8
0
10
2.598290625
20
58.20918125
30
0
0
VERTEX
8
0
10
2.2235
20
58.09218125
30
0
0
VERTEX
8
0
10
1.8839000000000001
20
57.90718125
30
0
0
VERTEX
8
0
10
1.5876000000000001
20
57.662481250000006
30
0
0
VERTEX
8
0
10
1.3429
20
57.366190625
30
0
0
VERTEX
8
0
10
1.1579000000000002
20
57.026590625000004
30
0
0
VERTEX
8
0
10
1.0409000000000002
20
56.651790625000004
30
0
0
VERTEX
8
0
10
1.0001
20
56.249990625
30
0
0
VERTEX
8
0
10
1.0001
20
43.750009375000005
30
0
0
VERTEX
8
0
10
1.0409000000000002
20
43.348209375
30
0
0
VERTEX
8
0
10
1.1579000000000002
20
42.973409375
30
0
0
VERTEX
8
0
10
1.3429
20
42.633809375000006
30
0
0
VERTEX
8
0
10
1.5876000000000001
20
42.33751875
30
0
0
VERTEX
8
0
10
1.8839000000000001
20
42.09281875
30
0
0
VERTEX
8
0
10
2.2236000000000002
20
41.907818750000004
30
0
0
VERTEX
8
0
10
2.598390625
20
41.79081875
30
0
0
VERTEX
8
0
10
3.0000906250000003
20
41.75001875
30
0
0
VERTEX
8
0
10
7.50008125
20
41.75001875
30
0
0
VERTEX
8
0
10
7.50008125
20
38.25001875
30
0
0
VERTEX
8
0
10
3.0000906250000003
20
38.25001875
30
0
0
VERTEX
8
0
10
2.598290625
20
38.209218750000005
30
0
0
VERTEX
8
0
10
2.2235
20
38.09221875
30
0
0
VERTEX
8
0
10
1.8839000000000001
20
37.90721875
30
0
0
VERTEX
8
0
10
1.5876000000000001
20
37.662518750000004
30
0
0
VERTEX
8
0
10
1.3429
20
37.36623125
30
0
0
VERTEX
8
0
10
1.1579000000000002
20
37.02663125
30
0
0
VERTEX
8
0
10
1.0409000000000002
20
36.65183125
30
0
0
VERTEX
8
0
10
1.0001
20
36.25003125
30
0
0
VERTEX
8
0
10
1.0001
20
23.75005
30
0
0
VERTEX
8
0
10
1.0409000000000002
20
23.34825
30
0
0
VERTEX
8
0
10
1.1579000000000002
20
22.97345
30
0
0
VERTEX
8
0
10
1.3429
20
22.633850000000002
30
0
0
VERTEX
8
0
10
1.5876000000000001
20
22.337559375
30
0
0
VERTEX
8
0
10
1.8839000000000001
20
22.092859375
30
0
0
VERTEX
8
0
10
2.2236000000000002
20
21.907859375
30
0
0
VERTEX
8
0
10
2.598390625
20
21.790859375
30
0
0
VERTEX
8
0
10
3.0000906250000003
20
21.750059375
30
0
0
VERTEX
8
0
10
7.50008125
20
21.750059375
30
0
0
VERTEX
8
0
10
7.50008125
20
18.250059375
30
0
0
VERTEX
8
0
10
3.0000906250000003
20
18.250059375
30
0
0
VERTEX
8
0
10
2.598290625
20
18.209259375000002
30
0
0
VERTEX
8
0
10
2.2235
20
18.092259375
30
0
0
VERTEX
8
0
10
1.8839000000000001
20
17.907259375000002
30
0
0
VERTEX
8
0
10
1.5876000000000001
20
17.662559375
30
0
0
VERTEX
8
0
10
1.3429
20
17.36626875
30
0
0
VERTEX
8
0
10
1.1579000000000002
20
17.026668750000002
30
0
0
VERTEX
8
0
10
1.0409000000000002
20
16.651868750000002
30
0
0
VERTEX
8
0
10
1.0001
20
16.25006875
30
0
0
VERTEX
8
0
10
1.0001
20
3.7500906250000003
30
0
0
SEQEND
0
POLYLINE
66
1
8
holes
10
0.0
20
0.0
30
0.0
70
1
0
VERTEX
8
0
10
5.355
20
95.95
30
0
0
VERTEX
8
0
10
5.356237500000001
20
95.92167500000001
30
0
0
VERTEX
8
0
10
5.3599375
20
95.89356562500001
30
0
0
VERTEX
8
0
10
5.366075
20
95.86588437500001
30
0
0
VERTEX
8
0
10
5.3746
20
95.83884375000001
30
0
0
VERTEX
8
0
10
5.3854500000000005
20
95.81265
30
0
0
VERTEX
8
0
10
5.398540625
20
95.78750000000001
30
0
0
VERTEX
8
0
10
5.413775
20
95.7635875
30
0
0
VERTEX
8
0
10
5.431034375
20
95.74109375
30
0
0
VERTEX
8
0
10
5.450190625
20
95.720190625
30
0
0
VERTEX
8
0
10
5.4710937500000005
20
95.701034375
30
0
0
VERTEX
8
0
10
5.4935875
20
95.68377500000001
30
0
0
VERTEX
8
0
10
5.5175
20
95.668540625
30
0
0
VERTEX
8
0
10
5.54265
20
95.65545
30
0
0
VERTEX
8
0
10
5.56884375
20
95.64460000000001
30
0
0
VERTEX
8
0
10
5.595884375000001
20
95.636075
30
0
0
VERTEX
8
0
10
5.623565625
20
95.62993750000001
30
0
0
VERTEX
8
0
10
5.651675
20
95.6262375
30
0
0
VERTEX
8
0
10
5.680000000000001
20
95.625
30
0
0
VERTEX
8
0
10
5.708325
20
95.6262375
30
0
0
VERTEX
8
0
10
5.736434375
20
95.62993750000001
30
0
0
VERTEX
8
0
10
5.7641156250000005
20
95.636075
30
0
0
VERTEX
8
0
10
5.79115625
20
95.64460000000001
30
0
0
VERTEX
8
0
10
5.81735
20
95.65545
30
0
0
VERTEX
8
0
10
5.8425
20
95.668540625
30
0
0
VERTEX
8
0
10
5.8664125
20
95.68377500000001
30
0
0
VERTEX
8
0
10
5.888906250000001
20
95.701034375
30
0
0
VERTEX
8
0
10
5.909809375
20
95.720190625
30
0
0
VERTEX
8
0
10
5.928965625
20
95.74109375
30
0
0
VERTEX
8
0
10
5.946225
20
95.7635875
30
0
0
VERTEX
8
0
10
5.9614593750000004
20
95.78750000000001
30
0
0
VERTEX
8
0
10
5.974550000000001
20
95.81265
30
0
0
VERTEX
8
0
10
5.9854
20
95.83884375000001
30
0
0
VERTEX
8
0
10
5.993925
20
95.86588437500001
30
0
0
VERTEX
8
0
10
6.0000625
20
95.89356562500001
30
0
0
VERTEX
8
0
10
6.003762500000001
20
95.92167500000001
30
0
0
VERTEX
8
0
10
6.005
20
95.95
30
0
0
VERTEX
8
0
10
6.005
20
96.55000000000001
30
0
0
VERTEX
8
0
10
6.003762500000001
20
96.578325
30
0
0
VERTEX
8
0
10
6.0000625
20
96.606434375
30
0
0
VERTEX
8
0
10
5.993925
20
96.634115625
30
0
0
VERTEX
8
0
10
5.9854
20
96.66115625
30
0
0
VERTEX
8
0
10
5.974550000000001
20
96.68735000000001
30
0
0
VERTEX
8
0
10
5.9614593750000004
20
96.7125
30
0
0
VERTEX
8
0
10
5.946225
20
96.7364125
30
0
0
VERTEX
8
0
10
5.928965625
20
96.75890625000001
30
0
0
VERTEX
8
0
10
5.909809375
20
96.779809375
30
0
0
VERTEX
8
0
10
5.888906250000001
20
96.79896562500001
30
0
0
VERTEX
8
0
10
5.8664125
20
96.816225
30
0
0
VERTEX
8
0
10
5.8425
20
96.83145937500001
30
0
0
VERTEX
8
0
10
5.81735
20
96.84455
30
0
0
VERTEX
8
0
10
5.79115625
20
96.8554
30
0
0
VERTEX
8
0
10
5.7641156250000005
20
96.86392500000001
30
0
0
VERTEX
8
0
10
5.736434375
20
96.8700625
30
0
0
VERTEX
8
0
10
5.708325
20
96.8737625
30
0
0
VERTEX
8
0
10
5.680000000000001
20
96.875
30
0
0
VERTEX
8
0
10
5.651675
20
96.8737625
30
0
0
VERTEX
8
0
10
5.623565625
20
96.8700625
30
0
0
VERTEX
8
0
10
5.595884375000001
20
96.86392500000001
30
0
0
VERTEX
8
0
10
5.56884375
20
96.8554
30
0
0
VERTEX
8
0
10
5.54265
20
96.84455
30
0
0
VERTEX
8
0
10
5.5175
20
96.83145937500001
30
0
0
VERTEX
8
0
10
5.4935875
20
96.816225
30
0
0
VERTEX
8
0
10
5.4710937500000005
20
96.79896562500001
30
0
0
VERTEX
8
0
10
5.450190625
20
96.779809375
30
0
0
VERTEX
8
0
10
5.431034375
20
96.75890625000001
30
0
0
VERTEX
8
0
10
5.413775
20
96.7364125
30
0
0
VERTEX
8
0
10
5.398540625
20
96.7125
30
0
0
VERTEX
8
0
10
5.3854500000000005
20
96.68735000000001
30
0
0
VERTEX
8
0
10
5.3746
20
96.66115625
30
0
0
VERTEX
8
0
10
5.366075
20
96.634115625
30
0
0
VERTEX
8
0
10
5.3599375
20
96.606434375
30
0
0
VERTEX
8
0
10
5.356237500000001
20
96.578325
30
0
0
VERTEX
8
0
10
5.355
20
96.55000000000001
30
0
0
VERTEX
8
0
10
5.355
20
95.95
30
0
0
SEQEND
0
POLYLINE
66
1
8
holes
10
0.0
20
0.0
30
0.0
70
1
0
VERTEX
8
0
10
13.995000000000001
20
95.95
30
0
0
VERTEX
8
0
10
13.996237500000001
20
95.92167500000001
30
0
0
VERTEX
8
0
10
13.999937500000001
20
95.89356562500001
30
0
0
VERTEX
8
0
10
14.006075000000001
20
95.86588437500001
30
0
0
VERTEX
8
0
10
14.014600000000002
20
95.83884375000001
30
0
0
VERTEX
8
0
10
14.025450000000001
20
95.81265
30
0
0
VERTEX
8
0
10
14.038540625000001
20
95.78750000000001
30
0
0
VERTEX
8
0
10
14.053775
20
95.7635875
30
0
0
VERTEX
8
0
10
14.071034375
20
95.74109375
30
0
0
VERTEX
8
0
10
14.090190625
20
95.720190625
30
0
0
VERTEX
8
0
10
14.11109375
20
95.701034375
30
0
0
VERTEX
8
0
10
14.1335875
20
95.68377500000001
30
0
0
VERTEX
8
0
10
14.1575
20
95.668540625
30
0
0
VERTEX
8
0
10
14.18265
20
95.65545
30
0
0
VERTEX
8
0
10
14.208843750000002
20
95.64460000000001
30
0
0
VERTEX
8
0
10
14.235884375000001
20
95.636075
30
0
0
VERTEX
8
0
10
14.263565625
20
95.62993750000001
30
0
0
VERTEX
8
0
10
14.291675000000001
20
95.6262375
30
0
0
VERTEX
8
0
10
14.32
20
95.625
30
0
0
VERTEX
8
0
10
14.348325
20
95.6262375
30
0
0
VERTEX
8
0
10
14.376434375
20
95.62993750000001
30
0
0
VERTEX
8
0
10
14.404115625000001
20
95.636075
30
0
0
VERTEX
8
0
10
14.43115625
20
95.64460000000001
30
0
0
VERTEX
8
0
10
14.45735
20
95.65545
30
0
0
VERTEX
8
0
10
14.4825
20
95.668540625
30
0
0
VERTEX
8
0
10
14.506412500000001
20
95.68377500000001
30
0
0
VERTEX
8
0
10
14.52890625
20
95.701034375
30
0
0
VERTEX
8
0
10
14.549809375
20
95.720190625
30
0
0
VERTEX
8
0
10
14.568965625
20
95.74109375
30
0
0
VERTEX
8
0
10
14.586225
20
95.7635875
30
0
0
VERTEX
8
0
10
14.601459375000001
20
95.78750000000001
30
0
0
VERTEX
8
0
10
14.614550000000001
20
95.81265
30
0
0
VERTEX
8
0
10
14.6254
20
95.83884375000001
30
0
0
VERTEX
8
0
10
14.633925000000001
20
95.86588437500001
30
0
0
VERTEX
8
0
10
14.6400625
20
95.89356562500001
30
0
0
VERTEX
8
0
10
14.643762500000001
20
95.92167500000001
30
0
0
VERTEX
8
0
10
14.645000000000001
20
95.95
30
0
0
VERTEX
8
0
10
14.645000000000001
20
96.55000000000001
30
0
0
VERTEX
8
0
10
14.643762500000001
20
96.578325
30
0
0
VERTEX
8
0
10
14.6400625
20
96.606434375
30
0
0
VERTEX
8
0
10
14.633925000000001
20
96.634115625
30
0
0
VERTEX
8
0
10
14.6254
20
96.66115625
30
0
0
VERTEX
8
0
10
14.614550000000001
20
96.68735000000001
30
0
0
VERTEX
8
0
10
14.601459375000001
20
96.7125
30
0
0
VERTEX
8
0
10
14.586225
20
96.7364125
30
0
0
VERTEX
8
0
10
14.568965625
20
96.75890625000001
30
0
0
VERTEX
8
0
10
14.549809375
20
96.779809375
30
0
0
VERTEX
8
0
10
14.52890625
20
96.79896562500001
30
0
0
VERTEX
8
0
10
14.506412500000001
20
96.816225
30
0
0
VERTEX
8
0
10
14.4825
20
96.83145937500001
30
0
0
VERTEX
8
0
10
14.45735
20
96.84455
30
0
0
VERTEX
8
0
10
14.43115625
20
96.8554
30
0
0
VERTEX
8
0
10
14.404115625000001
20
96.86392500000001
30
0
0
VERTEX
8
0
10
14.376434375
20
96.8700625
30
0
0
VERTEX
8
0
10
14.348325
20
96.8737625
30
0
0
VERTEX
8
0
10
14.32
20
96.875
30
0
0
VERTEX
8
0
10
14.291675000000001
20
96.8737625
30
0
0
VERTEX
8
0
10
14.263565625
20
96.8700625
30
0
0
VERTEX
8
0
10
14.235884375000001
20
96.86392500000001
30
0
0
VERTEX
8
0
10
14.208843750000002
20
96.8554
30
0
0
VERTEX
8
0
10
14.18265
20
96.84455
30
0
0
VERTEX
8
0
10
14.1575
20
96.83145937500001
30
0
0
VERTEX
8
0
10
14.1335875
20
96.816225
30
0
0
VERTEX
8
0
10
14.11109375
20
96.79896562500001
30
0
0
VERTEX
8
0
10
14.090190625
20
96.779809375
30
0
0
VERTEX
8
0
10
14.071034375
20
96.75890625000001
30
0
0
VERTEX
8
0
10
14.053775
20
96.7364125
30
0
0
VERTEX
8
0
10
14.038540625000001
20
96.7125
30
0
0
VERTEX
8
0
10
14.025450000000001
20
96.68735000000001
30
0
0
VERTEX
8
0
10
14.014600000000002
20
96.66115625
30
0
0
VERTEX
8
0
10
14.006075000000001
20
96.634115625
30
0
0
VERTEX
8
0
10
13.999937500000001
20
96.606434375
30
0
0
VERTEX
8
0
10
13.996237500000001
20
96.578325
30
0
0
VERTEX
8
0
10
13.995000000000001
20
96.55000000000001
30
0
0
VERTEX
8
0
10
13.995000000000001
20
95.95
30
0
0
SEQEND
0
POLYLINE
66
1
8
holes
10
0.0
20
0.0
30
0.0
70
1
0
VERTEX
8
0
10
5.355
20
91.52000000000001
30
0
0
VERTEX
8
0
10
5.356237500000001
20
91.491675
30
0
0
VERTEX
8
0
10
5.3599375
20
91.463565625
30
0
0
VERTEX
8
0
10
5.366075
20
91.435884375
30
0
0
VERTEX
8
0
10
5.3746
20
91.40884375
30
0
0
VERTEX
8
0
10
5.3854500000000005
20
91.38265
30
0
0
VERTEX
8
0
10
5.398540625
20
91.3575
30
0
0
VERTEX
8
0
10
5.413775
20
91.33358750000001
30
0
0
VERTEX
8
0
10
5.431034375
20
91.31109375
30
0
0
VERTEX
8
0
10
5.450190625
20
91.29019062500001
30
0
0
VERTEX
8
0
10
5.4710937500000005
20
91.271034375
30
0
0
VERTEX
8
0
10
5.4935875
20
91.253775
30
0
0
VERTEX
8
0
10
5.5175
20
91.238540625
30
0
0
VERTEX
8
0
10
5.54265
20
91.22545000000001
30
0
0
VERTEX
8
0
10
5.56884375
20
91.2146
30
0
0
VERTEX
8
0
10
5.595884375000001
20
91.206075
30
0
0
VERTEX
8
0
10
5.623565625
20
91.1999375
30
0
0
VERTEX
8
0
10
5.651675
20
91.19623750000001
30
0
0
VERTEX
8
0
10
5.680000000000001
20
91.19500000000001
30
0
0
VERTEX
8
0
10
5.708325
20
91.19623750000001
30
0
0
VERTEX
8
0
10
5.736434375
20
91.1999375
30
0
0
VERTEX
8
0
10
5.7641156250000005
20
91.206075
30
0
0
VERTEX
8
0
10
5.79115625
20
91.2146
30
0
0
VERTEX
8
0
10
5.81735
20
91.22545000000001
30
0
0
VERTEX
8
0
10
5.8425
20
91.238540625
30
0
0
VERTEX
8
0
10
5.8664125
20
91.253775
30
0
0
VERTEX
8
0
10
5.888906250000001
20
91.271034375
30
0
0
VERTEX
8
0
10
5.909809375
20
91.29019062500001
30
0
0
VERTEX
8
0
10
5.928965625
20
91.31109375
30
0
0
VERTEX
8
0
10
5.946225
20
91.33358750000001
30
0
0
VERTEX
8
0
10
5.9614593750000004
20
91.3575
30
0
0
VERTEX
8
0
10
5.974550000000001
20
91.38265
30
0
0
VERTEX
8
0
10
5.9854
20
91.40884375
30
0
0
VERTEX
8
0
10
5.993925
20
91.435884375
30
0
0
VERTEX
8
0
10
6.0000625
20
91.463565625
30
0
0
VERTEX
8
0
10
6.003762500000001
20
91.491675
30
0
0
VERTEX
8
0
10
6.005
20
91.52000000000001
30
0
0
VERTEX
8
0
10
6.005
20
92.62
30
0
0
VERTEX
8
0
10
6.003762500000001
20
92.648325
30
0
0
VERTEX
8
0
10
6.0000625
20
92.676434375
30
0
0
VERTEX
8
0
10
5.993925
20
92.704115625
30
0
0
VERTEX
8
0
10
5.9854
20
92.73115625
30
0
0
VERTEX
8
0
10
5.974550000000001
20
92.75735
30
0
0
VERTEX
8
0
10
5.9614593750000004
20
92.7825
30
0
0
VERTEX
8
0
10
5.946225
20
92.80641250000001
30
0
0
VERTEX
8
0
10
5.928965625
20
92.82890625
30
0
0
VERTEX
8
0
10
5.909809375
20
92.849809375
30
0
0
VERTEX
8
0
10
5.888906250000001
20
92.868965625
30
0
0
VERTEX
8
0
10
5.8664125
20
92.88622500000001
30
0
0
VERTEX
8
0
10
5.8425
20
92.901459375
30
0
0
VERTEX
8
0
10
5.81735
20
92.91455
30
0
0
VERTEX
8
0
10
5.79115625
20
92.92540000000001
30
0
0
VERTEX
8
0
10
5.7641156250000005
20
92.933925
30
0
0
VERTEX
8
0
10
5.736434375
20
92.94006250000001
30
0
0
VERTEX
8
0
10
5.708325
20
92.9437625
30
0
0
VERTEX
8
0
10
5.680000000000001
20
92.94500000000001
30
0
0
VERTEX
8
0
10
5.651675
20
92.9437625
30
0
0
VERTEX
8
0
10
5.623565625
20
92.94006250000001
30
0
0
VERTEX
8
0
10
5.595884375000001
20
92.933925
30
0
0
VERTEX
8
0
10
5.56884375
20
92.92540000000001
30
0
0
VERTEX
8
0
10
5.54265
20
92.91455
30
0
0
VERTEX
8
0
10
5.5175
20
92.901459375
30
0
0
VERTEX
8
0
10
5.4935875
20
92.88622500000001
30
0
0
VERTEX
8
0
10
5.4710937500000005
20
92.868965625
30
0
0
VERTEX
8
0
10
5.450190625
20
92.849809375
30
0
0
VERTEX
8
0
10
5.431034375
20
92.82890625
30
0
0
VERTEX
8
0
10
5.413775
20
92.80641250000001
30
0
0
VERTEX
8
0
10
5.398540625
20
92.7825
30
0
0
VERTEX
8
0
10
5.3854500000000005
20
92.75735
30
0
0
VERTEX
8
0
10
5.3746
20
92.73115625
30
0
0
VERTEX
8
0
10
5.366075
20
92.704115625
30
0
0
VERTEX
8
0
10
5.3599375
20
92.676434375
30
0
0
VERTEX
8
0
10
5.356237500000001
20
92.648325
30
0
0
VERTEX
8
0
10
5.355
20
92.62
30
0
0
VERTEX
8
0
10
5.355
20
91.52000000000001
30
0
0
SEQEND
0
POLYLINE
66
1
8
holes
10
0.0
20
0.0
30
0.0
70
1
0
VERTEX
8
0
10
13.995000000000001
20
91.52000000000001
30
0
0
VERTEX
8
0
10
13.996237500000001
20
91.491675
30
0
0
VERTEX
8
0
10
13.999937500000001
20
91.463565625
30
0
0
VERTEX
8
0
10
14.006075000000001
20
91.435884375
30
0
0
VERTEX
8
0
10
14.014600000000002
20
91.40884375
30
0
0
VERTEX
8
0
10
14.025450000000001
20
91.38265
30
0
0
VERTEX
8
0
10
14.038540625000001
20
91.3575
30
0
0
VERTEX
8
0
10
14.053775
20
91.33358750000001
30
0
0
VERTEX
8
0
10
14.071034375
20
91.31109375
30
0
0
VERTEX
8
0
10
14.090190625
20
91.29019062500001
30
0
0
VERTEX
8
0
10
14.11109375
20
91.271034375
30
0
0
VERTEX
8
0
10
14.1335875
20
91.253775
30
0
0
VERTEX
8
0
10
14.1575
20
91.238540625
30
0
0
VERTEX
8
0
10
14.18265
20
91.22545000000001
30
0
0
VERTEX
8
0
10
14.208843750000002
20
91.2146
30
0
0
VERTEX
8
0
10
14.235884375000001
20
91.206075
30
0
0
VERTEX
8
0
10
14.263565625
20
91.1999375
30
0
0
VERTEX
8
0
10
14.291675000000001
20
91.19623750000001
30
0
0
VERTEX
8
0
10
14.32
20
91.19500000000001
30
0
0
VERTEX
8
0
10
14.348325
20
91.19623750000001
30
0
0
VERTEX
8
0
10
14.376434375
20
91.1999375
30
0
0
VERTEX
8
0
10
14.404115625000001
20
91.206075
30
0
0
VERTEX
8
0
10
14.43115625
20
91.2146
30
0
0
VERTEX
8
0
10
14.45735
20
91.22545000000001
30
0
0
VERTEX
8
0
10
14.4825
20
91.238540625
30
0
0
VERTEX
8
0
10
14.506412500000001
20
91.253775
30
0
0
VERTEX
8
0
10
14.52890625
20
91.271034375
30
0
0
VERTEX
8
0
10
14.549809375
20
91.29019062500001
30
0
0
VERTEX
8
0
10
14.568965625
20
91.31109375
30
0
0
VERTEX
8
0
10
14.586225
20
91.33358750000001
30
0
0
VERTEX
8
0
10
14.601459375000001
20
91.3575
30
0
0
VERTEX
8
0
10
14.614550000000001
20
91.38265
30
0
0
VERTEX
8
0
10
14.6254
20
91.40884375
30
0
0
VERTEX
8
0
10
14.633925000000001
20
91.435884375
30
0
0
VERTEX
8
0
10
14.6400625
20
91.463565625
30
0
0
VERTEX
8
0
10
14.643762500000001
20
91.491675
30
0
0
VERTEX
8
0
10
14.645000000000001
20
91.52000000000001
30
0
0
VERTEX
8
0
10
14.645000000000001
20
92.62
30
0
0
VERTEX
8
0
10
14.643762500000001
20
92.648325
30
0
0
VERTEX
8
0
10
14.6400625
20
92.676434375
30
0
0
VERTEX
8
0
10
14.633925000000001
20
92.704115625
30
0
0
VERTEX
8
0
10
14.6254
20
92.73115625
30
0
0
VERTEX
8
0
10
14.614550000000001
20
92.75735
30
0
0
VERTEX
8
0
10
14.601459375000001
20
92.7825
30
0
0
VERTEX
8
0
10
14.586225
20
92.80641250000001
30
0
0
VERTEX
8
0
10
14.568965625
20
92.82890625
30
0
0
VERTEX
8
0
10
14.549809375
20
92.849809375
30
0
0
VERTEX
8
0
10
14.52890625
20
92.868965625
30
0
0
VERTEX
8
0
10
14.506412500000001
20
92.88622500000001
30
0
0
VERTEX
8
0
10
14.4825
20
92.901459375
30
0
0
VERTEX
8
0
10
14.45735
20
92.91455
30
0
0
VERTEX
8
0
10
14.43115625
20
92.92540000000001
30
0
0
VERTEX
8
0
10
14.404115625000001
20
92.933925
30
0
0
VERTEX
8
0
10
14.376434375
20
92.94006250000001
30
0
0
VERTEX
8
0
10
14.348325
20
92.9437625
30
0
0
VERTEX
8
0
10
14.32
20
92.94500000000001
30
0
0
VERTEX
8
0
10
14.291675000000001
20
92.9437625
30
0
0
VERTEX
8
0
10
14.263565625
20
92.94006250000001
30
0
0
VERTEX
8
0
10
14.235884375000001
20
92.933925
30
0
0
VERTEX
8
0
10
14.208843750000002
20
92.92540000000001
30
0
0
VERTEX
8
0
10
14.18265
20
92.91455
30
0
0
VERTEX
8
0
10
14.1575
20
92.901459375
30
0
0
VERTEX
8
0
10
14.1335875
20
92.88622500000001
30
0
0
VERTEX
8
0
10
14.11109375
20
92.868965625
30
0
0
VERTEX
8
0
10
14.090190625
20
92.849809375
30
0
0
VERTEX
8
0
10
14.071034375
20
92.82890625
30
0
0
VERTEX
8
0
10
14.053775
20
92.80641250000001
30
0
0
VERTEX
8
0
10
14.038540625000001
20
92.7825
30
0
0
VERTEX
8
0
10
14.025450000000001
20
92.75735
30
0
0
VERTEX
8
0
10
14.014600000000002
20
92.73115625
30
0
0
VERTEX
8
0
10
14.006075000000001
20
92.704115625
30
0
0
VERTEX
8
0
10
13.999937500000001
20
92.676434375
30
0
0
VERTEX
8
0
10
13.996237500000001
20
92.648325
30
0
0
VERTEX
8
0
10
13.995000000000001
20
92.62
30
0
0
VERTEX
8
0
10
13.995000000000001
20
91.52000000000001
30
0
0
SEQEND
0
POLYLINE
66
1
8
holes
10
0.0
20
0.0
30
0.0
70
1
0
VERTEX
8
0
10
52.499990625
20
78.24994062500001
30
0
0
VERTEX
8
0
10
56.999890625000006
20
78.24994062500001
30
0
0
VERTEX
8
0
10
57.401690625
20
78.209140625
30
0
0
VERTEX
8
0
10
57.77648125
20
78.092140625
30
0
0
VERTEX
8
0
10
58.11608125
20
77.907140625
30
0
0
VERTEX
8
0
10
58.412481250000006
20
77.662440625
30
0
0
VERTEX
8
0
10
58.65718125
20
77.36615
30
0
0
VERTEX
8
0
10
58.84218125
20
77.02645
30
0
0
VERTEX
8
0
10
58.95918125
20
76.65165
30
0
0
VERTEX
8
0
10
58.999981250000005
20
76.24995
30
0
0
VERTEX
8
0
10
58.999981250000005
20
72.499959375
30
0
0
VERTEX
8
0
10
60.999981250000005
20
72.499959375
30
0
0
VERTEX
8
0
10
60.999981250000005
20
76.24995
30
0
0
VERTEX
8
0
10
61.04078125
20
76.65175
30
0
0
VERTEX
8
0
10
61.157781250000006
20
77.02655
30
0
0
VERTEX
8
0
10
61.34278125
20
77.36615
30
0
0
VERTEX
8
0
10
61.58748125
20
77.662440625
30
0
0
VERTEX
8
0
10
61.883781250000006
20
77.907140625
30
0
0
VERTEX
8
0
10
62.22338125
20
78.092140625
30
0
0
VERTEX
8
0
10
62.598168750000006
20
78.209140625
30
0
0
VERTEX
8
0
10
62.99996875
20
78.24994062500001
30
0
0
VERTEX
8
0
10
67.49996875000001
20
78.24994062500001
30
0
0
VERTEX
8
0
10
67.49996875000001
20
81.74994062500001
30
0
0
VERTEX
8
0
10
62.99996875
20
81.74994062500001
30
0
0
VERTEX
8
0
10
62.59826875
20
81.790740625
30
0
0
VERTEX
8
0
10
62.223481250000006
20
81.907740625
30
0
0
VERTEX
8
0
10
61.883781250000006
20
82.092740625
30
0
0
VERTEX
8
0
10
61.58748125
20
82.337440625
30
0
0
VERTEX
8
0
10
61.34278125
20
82.63373125000001
30
0
0
VERTEX
8
0
10
61.157781250000006
20
82.97333125
30
0
0
VERTEX
8
0
10
61.04078125
20
83.34813125000001
30
0
0
VERTEX
8
0
10
60.999981250000005
20
83.74993125
30
0
0
VERTEX
8
0
10
60.999981250000005
20
87.49993125
30
0
0
VERTEX
8
0
10
58.999981250000005
20
87.49993125
30
0
0
VERTEX
8
0
10
58.999981250000005
20
83.74993125
30
0
0
VERTEX
8
0
10
58.95918125
20
83.34813125000001
30
0
0
VERTEX
8
0
10
58.84218125
20
82.97333125
30
0
0
VERTEX
8
0
10
58.65718125
20
82.63373125000001
30
0
0
VERTEX
8
0
10
58.412481250000006
20
82.337440625
30
0
0
VERTEX
8
0
10
58.11608125
20
82.092740625
30
0
0
VERTEX
8
0
10
57.77648125
20
81.907740625
30
0
0
VERTEX
8
0
10
57.401690625
20
81.790740625
30
0
0
VERTEX
8
0
10
56.999890625000006
20
81.74994062500001
30
0
0
VERTEX
8
0
10
52.499990625
20
81.74994062500001
30
0
0
VERTEX
8
0
10
52.499990625
20
78.24994062500001
30
0
0
SEQEND
0
POLYLINE
66
1
8
holes
10
0.0
20
0.0
30
0.0
70
1
0
VERTEX
8
0
10
52.499990625
20
58.249981250000005
30
0
0
VERTEX
8
0
10
56.999890625000006
20
58.249981250000005
30
0
0
VERTEX
8
0
10
57.401690625
20
58.20918125
30
0
0
VERTEX
8
0
10
57.77648125
20
58.09218125
30
0
0
VERTEX
8
0
10
58.11608125
20
57.90718125
30
0
0
VERTEX
8
0
10
58.412481250000006
20
57.662481250000006
30
0
0
VERTEX
8
0
10
58.65718125
20
57.366190625
30
0
0
VERTEX
8
0
10
58.84218125
20
57.026490625
30
0
0
VERTEX
8
0
10
58.95918125
20
56.651690625
30
0
0
VERTEX
8
0
10
58.999981250000005
20
56.249990625
30
0
0
VERTEX
8
0
10
58.999981250000005
20
52.499990625
30
0
0
VERTEX
8
0
10
60.999981250000005
20
52.499990625
30
0
0
VERTEX
8
0
10
60.999981250000005
20
56.249990625
30
0
0
VERTEX
8
0
10
61.04078125
20
56.651790625000004
30
0
0
VERTEX
8
0
10
61.157781250000006
20
57.026590625000004
30
0
0
VERTEX
8
0
10
61.34278125
20
57.366190625
30
0
0
VERTEX
8
0
10
61.58748125
20
57.662481250000006
30
0
0
VERTEX
8
0
10
61.883781250000006
20
57.90718125
30
0
0
VERTEX
8
0
10
62.22338125
20
58.09218125
30
0
0
VERTEX
8
0
10
62.598168750000006
20
58.20918125
30
0
0
VERTEX
8
0
10
62.99996875
20
58.249981250000005
30
0
0
VERTEX
8
0
10
67.49996875000001
20
58.249981250000005
30
0
0
VERTEX
8
0
10
67.49996875000001
20
61.749981250000005
30
0
0
VERTEX
8
0
10
62.99996875
20
61.749981250000005
30
0
0
VERTEX
8
0
10
62.59826875
20
61.79078125
30
0
0
VERTEX
8
0
10
62.223481250000006
20
61.907781250000006
30
0
0
VERTEX
8
0
10
61.883781250000006
20
62.09278125
30
0
0
VERTEX
8
0
10
61.58748125
20
62.33748125
30
0
0
VERTEX
8
0
10
61.34278125
20
62.63376875
30
0
0
VERTEX
8
0
10
61.157781250000006
20
62.973368750000006
30
0
0
VERTEX
8
0
10
61.04078125
20
63.348168750000006
30
0
0
VERTEX
8
0
10
60.999981250000005
20
63.74996875
30
0
0
VERTEX
8
0
10
60.999981250000005
20
67.49996875000001
30
0
0
VERTEX
8
0
10
58.999981250000005
20
67.49996875000001
30
0
0
VERTEX
8
0
10
58.999981250000005
20
63.74996875
30
0
0
VERTEX
8
0
10
58.95918125
20
63.348168750000006
30
0
0
VERTEX
8
0
10
58.84218125
20
62.973368750000006
30
0
0
VERTEX
8
0
10
58.65718125
20
62.63376875
30
0
0
VERTEX
8
0
10
58.412481250000006
20
62.33748125
30
0
0
VERTEX
8
0
10
58.11608125
20
62.09278125
30
0
0
VERTEX
8
0
10
57.77648125
20
61.907781250000006
30
0
0
VERTEX
8
0
10
57.401690625
20
61.79078125
30
0
0
VERTEX
8
0
10
56.999890625000006
20
61.749981250000005
30
0
0
VERTEX
8
0
10
52.499990625
20
61.749981250000005
30
0
0
VERTEX
8
0
10
52.499990625
20
58.249981250000005
30
0
0
SEQEND
0
POLYLINE
66
1
8
holes
10
0.0
20
0.0
30
0.0
70
1
0
VERTEX
8
0
10
32.50003125
20
38.25001875
30
0
0
VERTEX
8
0
10
36.99993125
20
38.25001875
30
0
0
VERTEX
8
0
10
37.401731250000005
20
38.209218750000005
30
0
0
VERTEX
8
0
10
37.77651875
20
38.09221875
30
0
0
VERTEX
8
0
10
38.116118750000005
20
37.90721875
30
0
0
VERTEX
8
0
10
38.41241875
20
37.662518750000004
30
0
0
VERTEX
8
0
10
38.65721875
20
37.36623125
30
0
0
VERTEX
8
0
10
38.84221875
20
37.02663125
30
0
0
VERTEX
8
0
10
38.959218750000005
20
36.65183125
30
0
0
VERTEX
8
0
10
39.00001875
20
36.25003125
30
0
0
VERTEX
8
0
10
39.00001875
20
32.50003125
30
0
0
VERTEX
8
0
10
41.00001875
20
32.50003125
30
0
0
VERTEX
8
0
10
41.00001875
20
36.25003125
30
0
0
VERTEX
8
0
10
41.04081875
20
36.65183125
30
0
0
VERTEX
8
0
10
41.157818750000004
20
37.02663125
30
0
0
VERTEX
8
0
10
41.34281875
20
37.36623125
30
0
0
VERTEX
8
0
10
41.58751875
20
37.662518750000004
30
0
0
VERTEX
8
0
10
41.88381875
20
37.90721875
30
0
0
VERTEX
8
0
10
42.22341875
20
38.09221875
30
0
0
VERTEX
8
0
10
42.598209375
20
38.209218750000005
30
0
0
VERTEX
8
0
10
43.000009375000005
20
38.25001875
30
0
0
VERTEX
8
0
10
47.500009375000005
20
38.25001875
30
0
0
VERTEX
8
0
10
47.500009375000005
20
41.75001875
30
0
0
VERTEX
8
0
10
43.000009375000005
20
41.75001875
30
0
0
VERTEX
8
0
10
42.598309375
20
41.79081875
30
0
0
VERTEX
8
0
10
42.223518750000004
20
41.907818750000004
30
0
0
VERTEX
8
0
10
41.88391875
20
42.09281875
30
0
0
VERTEX
8
0
10
41.587618750000004
20
42.33751875
30
0
0
VERTEX
8
0
10
41.34281875
20
42.633809375000006
30
0
0
VERTEX
8
0
10
41.157818750000004
20
42.973409375
30
0
0
VERTEX
8
0
10
41.04081875
20
43.348209375
30
0
0
VERTEX
8
0
10
41.00001875
20
43.750009375000005
30
0
0
VERTEX
8
0
10
41.00001875
20
47.500009375000005
30
0
0
VERTEX
8
0
10
39.00001875
20
47.500009375000005
30
0
0
VERTEX
8
0
10
39.00001875
20
43.750009375000005
30
0
0
VERTEX
8
0
10
38.959218750000005
20
43.348209375
30
0
0
VERTEX
8
0
10
38.84221875
20
42.973409375
30
0
0
VERTEX
8
0
10
38.65721875
20
42.633809375000006
30
0
0
VERTEX
8
0
10
38.41241875
20
42.33751875
30
0
0
VERTEX
8
0
10
38.116118750000005
20
42.09281875
30
0
0
VERTEX
8
0
10
37.77651875
20
41.907818750000004
30
0
0
VERTEX
8
0
10
37.401731250000005
20
41.79081875
30
0
0
VERTEX
8
0
10
36.99993125
20
41.75001875
30
0
0
VERTEX
8
0
10
32.50003125
20
41.75001875
30
0
0
VERTEX
8
0
10
32.50003125
20
38.25001875
30
0
0
SEQEND
0
POLYLINE
66
1
8
holes
10
0.0
20
0.0
30
0.0
70
1
0
VERTEX
8
0
10
32.50003125
20
18.250059375
30
0
0
VERTEX
8
0
10
36.99993125
20
18.250059375
30
0
0
VERTEX
8
0
10
37.401731250000005
20
18.209259375000002
30
0
0
VERTEX
8
0
10
37.77651875
20
18.092259375
30
0
0
VERTEX
8
0
10
38.116118750000005
20
17.907259375000002
30
0
0
VERTEX
8
0
10
38.41241875
20
17.662559375
30
0
0
VERTEX
8
0
10
38.65721875
20
17.36626875
30
0
0
VERTEX
8
0
10
38.84221875
20
17.02656875
30
0
0
VERTEX
8
0
10
38.959218750000005
20
16.651768750000002
30
0
0
VERTEX
8
0
10
39.00001875
20
16.25006875
30
0
0
VERTEX
8
0
10
39.00001875
20
12.50006875
30
0
0
VERTEX
8
0
10
41.00001875
20
12.50006875
30
0
0
VERTEX
8
0
10
41.00001875
20
16.25006875
30
0
0
VERTEX
8
0
10
41.04081875
20
16.651868750000002
30
0
0
VERTEX
8
0
10
41.157818750000004
20
17.026668750000002
30
0
0
VERTEX
8
0
10
41.34281875
20
17.36626875
30
0
0
VERTEX
8
0
10
41.58751875
20
17.662559375
30
0
0
VERTEX
8
0
10
41.88381875
20
17.907259375000002
30
0
0
VERTEX
8
0
10
42.22341875
20
18.092259375
30
0
0
VERTEX
8
0
10
42.598209375
20
18.209259375000002
30
0
0
VERTEX
8
0
10
43.000009375000005
20
18.250059375
30
0
0
VERTEX
8
0
10
47.500009375000005
20
18.250059375
30
0
0
VERTEX
8
0
10
47.500009375000005
20
21.750059375
30
0
0
VERTEX
8
0
10
43.000009375000005
20
21.750059375
30
0
0
VERTEX
8
0
10
42.598309375
20
21.790859375
30
0
0
VERTEX
8
0
10
42.223518750000004
20
21.907859375
30
0
0
VERTEX
8
0
10
41.88381875
20
22.092859375
30
0
0
VERTEX
8
0
10
41.58751875
20
22.337559375
30
0
0
VERTEX
8
0
10
41.34281875
20
22.633850000000002
30
0
0
VERTEX
8
0
10
41.157818750000004
20
22.97345
30
0
0
VERTEX
8
0
10
41.04081875
20
23.34825
30
0
0
VERTEX
8
0
10
41.00001875
20
23.75005
30
0
0
VERTEX
8
0
10
41.00001875
20
27.500040625
30
0
0
VERTEX
8
0
10
39.00001875
20
27.500040625
30
0
0
VERTEX
8
0
10
39.00001875
20
23.75005
30
0
0
VERTEX
8
0
10
38.959218750000005
20
23.34835
30
0
0
VERTEX
8
0
10
38.84221875
20
22.97355
30
0
0
VERTEX
8
0
10
38.65721875
20
22.633850000000002
30
0
0
VERTEX
8
0
10
38.41241875
20
22.337559375
30
0
0
VERTEX
8
0
10
38.116118750000005
20
22.092859375
30
0
0
VERTEX
8
0
10
37.776418750000005
20
21.907859375
30
0
0
VERTEX
8
0
10
37.40163125
20
21.790859375
30
0
0
VERTEX
8
0
10
36.99993125
20
21.750059375
30
0
0
VERTEX
8
0
10
32.50003125
20
21.750059375
30
0
0
VERTEX
8
0
10
32.50003125
20
18.250059375
30
0
0
SEQEND
0
POLYLINE
66
1
8
holes
10
0.0
20
0.0
30
0.0
70
1
0
VERTEX
8
0
10
32.50003125
20
78.24994062500001
30
0
0
VERTEX
8
0
10
36.99993125
20
78.24994062500001
30
0
0
VERTEX
8
0
10
37.401731250000005
20
78.209140625
30
0
0
VERTEX
8
0
10
37.77651875
20
78.092140625
30
0
0
VERTEX
8
0
10
38.116118750000005
20
77.907140625
30
0
0
VERTEX
8
0
10
38.41241875
20
77.662440625
30
0
0
VERTEX
8
0
10
38.65721875
20
77.36615
30
0
0
VERTEX
8
0
10
38.84221875
20
77.02645
30
0
0
VERTEX
8
0
10
38.959218750000005
20
76.65165
30
0
0
VERTEX
8
0
10
39.00001875
20
76.24995
30
0
0
VERTEX
8
0
10
39.00001875
20
72.499959375
30
0
0
VERTEX
8
0
10
41.00001875
20
72.499959375
30
0
0
VERTEX
8
0
10
41.00001875
20
76.24995
30
0
0
VERTEX
8
0
10
41.04081875
20
76.65175
30
0
0
VERTEX
8
0
10
41.157818750000004
20
77.02655
30
0
0
VERTEX
8
0
10
41.34281875
20
77.36615
30
0
0
VERTEX
8
0
10
41.58751875
20
77.662440625
30
0
0
VERTEX
8
0
10
41.88381875
20
77.907140625
30
0
0
VERTEX
8
0
10
42.22341875
20
78.092140625
30
0
0
VERTEX
8
0
10
42.598209375
20
78.209140625
30
0
0
VERTEX
8
0
10
43.000009375000005
20
78.24994062500001
30
0
0
VERTEX
8
0
10
47.500009375000005
20
78.24994062500001
30
0
0
VERTEX
8
0
10
47.500009375000005
20
81.74994062500001
30
0
0
VERTEX
8
0
10
43.000009375000005
20
81.74994062500001
30
0
0
VERTEX
8
0
10
42.598309375
20
81.790740625
30
0
0
VERTEX
8
0
10
42.223518750000004
20
81.907740625
30
0
0
VERTEX
8
0
10
41.88381875
20
82.092740625
30
0
0
VERTEX
8
0
10
41.58751875
20
82.337440625
30
0
0
VERTEX
8
0
10
41.34281875
20
82.63373125000001
30
0
0
VERTEX
8
0
10
41.157818750000004
20
82.97333125
30
0
0
VERTEX
8
0
10
41.04081875
20
83.34813125000001
30
0
0
VERTEX
8
0
10
41.00001875
20
83.74993125
30
0
0
VERTEX
8
0
10
41.00001875
20
87.49993125
30
0
0
VERTEX
8
0
10
39.00001875
20
87.49993125
30
0
0
VERTEX
8
0
10
39.00001875
20
83.74993125
30
0
0
VERTEX
8
0
10
38.959218750000005
20
83.34823125
30
0
0
VERTEX
8
0
10
38.84221875
20
82.97343125
30
0
0
VERTEX
8
0
10
38.65721875
20
82.63373125000001
30
0
0
VERTEX
8
0
10
38.41241875
20
82.337440625
30
0
0
VERTEX
8
0
10
38.116118750000005
20
82.092740625
30
0
0
VERTEX
8
0
10
37.776418750000005
20
81.907740625
30
0
0
VERTEX
8
0
10
37.40163125
20
81.790740625
30
0
0
VERTEX
8
0
10
36.99993125
20
81.74994062500001
30
0
0
VERTEX
8
0
10
32.50003125
20
81.74994062500001
30
0
0
VERTEX
8
0
10
32.50003125
20
78.24994062500001
30
0
0
SEQEND
0
POLYLINE
66
1
8
holes
10
0.0
20
0.0
30
0.0
70
1
0
VERTEX
8
0
10
72.499959375
20
38.25001875
30
0
0
VERTEX
8
0
10
76.99985000000001
20
38.25001875
30
0
0
VERTEX
8
0
10
77.40165
20
38.209218750000005
30
0
0
VERTEX
8
0
10
77.776440625
20
38.09221875
30
0
0
VERTEX
8
0
10
78.11604062500001
20
37.90721875
30
0
0
VERTEX
8
0
10
78.412440625
20
37.662518750000004
30
0
0
VERTEX
8
0
10
78.657140625
20
37.36623125
30
0
0
VERTEX
8
0
10
78.842140625
20
37.026531250000005
30
0
0
VERTEX
8
0
10
78.959140625
20
36.651731250000005
30
0
0
VERTEX
8
0
10
78.99994062500001
20
36.25003125
30
0
0
VERTEX
8
0
10
78.99994062500001
20
32.50003125
30
0
0
VERTEX
8
0
10
80.99994062500001
20
32.50003125
30
0
0
VERTEX
8
0
10
80.99994062500001
20
36.25003125
30
0
0
VERTEX
8
0
10
81.040740625
20
36.65183125
30
0
0
VERTEX
8
0
10
81.157740625
20
37.02663125
30
0
0
VERTEX
8
0
10
81.342740625
20
37.36623125
30
0
0
VERTEX
8
0
10
81.587440625
20
37.662518750000004
30
0
0
VERTEX
8
0
10
81.883740625
20
37.90721875
30
0
0
VERTEX
8
0
10
82.223340625
20
38.09221875
30
0
0
VERTEX
8
0
10
82.59813125000001
20
38.209218750000005
30
0
0
VERTEX
8
0
10
82.99993125
20
38.25001875
30
0
0
VERTEX
8
0
10
87.49993125
20
38.25001875
30
0
0
VERTEX
8
0
10
87.49993125
20
41.75001875
30
0
0
VERTEX
8
0
10
82.99993125
20
41.75001875
30
0
0
VERTEX
8
0
10
82.59823125
20
41.79081875
30
0
0
VERTEX
8
0
10
82.22344062500001
20
41.907818750000004
30
0
0
VERTEX
8
0
10
81.883740625
20
42.09281875
30
0
0
VERTEX
8
0
10
81.587440625
20
42.33751875
30
0
0
VERTEX
8
0
10
81.342740625
20
42.633809375000006
30
0
0
VERTEX
8
0
10
81.157740625
20
42.973409375
30
0
0
VERTEX
8
0
10
81.040740625
20
43.348209375
30
0
0
VERTEX
8
0
10
80.99994062500001
20
43.750009375000005
30
0
0
VERTEX
8
0
10
80.99994062500001
20
47.500009375000005
30
0
0
VERTEX
8
0
10
78.99994062500001
20
47.500009375000005
30
0
0
VERTEX
8
0
10
78.99994062500001
20
43.750009375000005
30
0
0
VERTEX
8
0
10
78.959140625
20
43.348309375
30
0
0
VERTEX
8
0
10
78.84204062500001
20
42.973509375
30
0
0
VERTEX
8
0
10
78.65704062500001
20
42.633909375
30
0
0
VERTEX
8
0
10
78.412340625
20
42.337618750000004
30
0
0
VERTEX
8
0
10
78.11604062500001
20
42.09281875
30
0
0
VERTEX
8
0
10
77.776340625
20
41.907818750000004
30
0
0
VERTEX
8
0
10
77.40155
20
41.79081875
30
0
0
VERTEX
8
0
10
76.99985000000001
20
41.75001875
30
0
0
VERTEX
8
0
10
72.499959375
20
41.75001875
30
0
0
VERTEX
8
0
10
72.499959375
20
38.25001875
30
0
0
SEQEND
0
POLYLINE
66
1
8
holes
10
0.0
20
0.0
30
0.0
70
1
0
VERTEX
8
0
10
12.50006875
20
78.24994062500001
30
0
0
VERTEX
8
0
10
16.99996875
20
78.24994062500001
30
0
0
VERTEX
8
0
10
17.401768750000002
20
78.209140625
30
0
0
VERTEX
8
0
10
17.776559375
20
78.092140625
30
0
0
VERTEX
8
0
10
18.116159375000002
20
77.907140625
30
0
0
VERTEX
8
0
10
18.412459375
20
77.662440625
30
0
0
VERTEX
8
0
10
18.657259375000002
20
77.36615
30
0
0
VERTEX
8
0
10
18.842259375
20
77.02645
30
0
0
VERTEX
8
0
10
18.959259375000002
20
76.65165
30
0
0
VERTEX
8
0
10
19.000059375
20
76.24995
30
0
0
VERTEX
8
0
10
19.000059375
20
72.499959375
30
0
0
VERTEX
8
0
10
21.000059375
20
72.499959375
30
0
0
VERTEX
8
0
10
21.000059375
20
76.24995
30
0
0
VERTEX
8
0
10
21.040859375
20
76.65175
30
0
0
VERTEX
8
0
10
21.157859375
20
77.02655
30
0
0
VERTEX
8
0
10
21.342859375
20
77.36615
30
0
0
VERTEX
8
0
10
21.587559375
20
77.662440625
30
0
0
VERTEX
8
0
10
21.883859375
20
77.907140625
30
0
0
VERTEX
8
0
10
22.223459375
20
78.092140625
30
0
0
VERTEX
8
0
10
22.59825
20
78.209140625
30
0
0
VERTEX
8
0
10
23.00005
20
78.24994062500001
30
0
0
VERTEX
8
0
10
27.500040625
20
78.24994062500001
30
0
0
VERTEX
8
0
10
27.500040625
20
81.74994062500001
30
0
0
VERTEX
8
0
10
23.00005
20
81.74994062500001
30
0
0
VERTEX
8
0
10
22.59835
20
81.790740625
30
0
0
VERTEX
8
0
10
22.223559375
20
81.907740625
30
0
0
VERTEX
8
0
10
21.883859375
20
82.092740625
30
0
0
VERTEX
8
0
10
21.587559375
20
82.337440625
30
0
0
VERTEX
8
0
10
21.342859375
20
82.63373125000001
30
0
0
VERTEX
8
0
10
21.157859375
20
82.97333125
30
0
0
VERTEX
8
0
10
21.040859375
20
83.34813125000001
30
0
0
VERTEX
8
0
10
21.000059375
20
83.74993125
30
0
0
VERTEX
8
0
10
21.000059375
20
87.49993125
30
0
0
VERTEX
8
0
10
19.000059375
20
87.49993125
30
0
0
VERTEX
8
0
10
19.000059375
20
83.74993125
30
0
0
VERTEX
8
0
10
18.959259375000002
20
83.34823125
30
0
0
VERTEX
8
0
10
18.842159375
20
82.97343125
30
0
0
VERTEX
8
0
10
18.657159375000003
20
82.63383125
30
0
0
VERTEX
8
0
10
18.412459375
20
82.337540625
30
0
0
VERTEX
8
0
10
18.116159375000002
20
82.092740625
30
0
0
VERTEX
8
0
10
17.776459375
20
81.907740625
30
0
0
VERTEX
8
0
10
17.401668750000002
20
81.790740625
30
0
0
VERTEX
8
0
10
16.99996875
20
81.74994062500001
30
0
0
VERTEX
8
0
10
12.50006875
20
81.74994062500001
30
0
0
VERTEX
8
0
10
12.50006875
20
78.24994062500001
30
0
0
SEQEND
0
POLYLINE
66
1
8
holes
10
0.0
20
0.0
30
0.0
70
1
0
VERTEX
8
0
10
72.499959375
20
18.250059375
30
0
0
VERTEX
8
0
10
76.99985000000001
20
18.250059375
30
0
0
VERTEX
8
0
10
77.40165
20
18.209259375000002
30
0
0
VERTEX
8
0
10
77.776440625
20
18.092259375
30
0
0
VERTEX
8
0
10
78.11604062500001
20
17.907259375000002
30
0
0
VERTEX
8
0
10
78.412440625
20
17.662559375
30
0
0
VERTEX
8
0
10
78.657140625
20
17.36626875
30
0
0
VERTEX
8
0
10
78.842140625
20
17.02656875
30
0
0
VERTEX
8
0
10
78.959140625
20
16.651768750000002
30
0
0
VERTEX
8
0
10
78.99994062500001
20
16.25006875
30
0
0
VERTEX
8
0
10
78.99994062500001
20
12.50006875
30
0
0
VERTEX
8
0
10
80.99994062500001
20
12.50006875
30
0
0
VERTEX
8
0
10
80.99994062500001
20
16.25006875
30
0
0
VERTEX
8
0
10
81.040740625
20
16.651868750000002
30
0
0
VERTEX
8
0
10
81.157740625
20
17.026668750000002
30
0
0
VERTEX
8
0
10
81.342740625
20
17.36626875
30
0
0
VERTEX
8
0
10
81.587440625
20
17.662559375
30
0
0
VERTEX
8
0
10
81.883740625
20
17.907259375000002
30
0
0
VERTEX
8
0
10
82.223340625
20
18.092259375
30
0
0
VERTEX
8
0
10
82.59813125000001
20
18.209259375000002
30
0
0
VERTEX
8
0
10
82.99993125
20
18.250059375
30
0
0
VERTEX
8
0
10
87.49993125
20
18.250059375
30
0
0
VERTEX
8
0
10
87.49993125
20
21.750059375
30
0
0
VERTEX
8
0
10
82.99993125
20
21.750059375
30
0
0
VERTEX
8
0
10
82.59823125
20
21.790859375
30
0
0
VERTEX
8
0
10
82.22344062500001
20
21.907859375
30
0
0
VERTEX
8
0
10
81.883740625
20
22.092859375
30
0
0
VERTEX
8
0
10
81.587440625
20
22.337559375
30
0
0
VERTEX
8
0
10
81.342740625
20
22.633850000000002
30
0
0
VERTEX
8
0
10
81.157740625
20
22.97345
30
0
0
VERTEX
8
0
10
81.040740625
20
23.34825
30
0
0
VERTEX
8
0
10
80.99994062500001
20
23.75005
30
0
0
VERTEX
8
0
10
80.99994062500001
20
27.500040625
30
0
0
VERTEX
8
0
10
78.99994062500001
20
27.500040625
30
0
0
VERTEX
8
0
10
78.99994062500001
20
23.75005
30
0
0
VERTEX
8
0
10
78.959140625
20
23.34835
30
0
0
VERTEX
8
0
10
78.84204062500001
20
22.97355
30
0
0
VERTEX
8
0
10
78.65704062500001
20
22.633950000000002
30
0
0
VERTEX
8
0
10
78.412340625
20
22.337659375
30
0
0
VERTEX
8
0
10
78.11604062500001
20
22.092859375
30
0
0
VERTEX
8
0
10
77.776340625
20
21.907859375
30
0
0
VERTEX
8
0
10
77.40155
20
21.790859375
30
0
0
VERTEX
8
0
10
76.99985000000001
20
21.750059375
30
0
0
VERTEX
8
0
10
72.499959375
20
21.750059375
30
0
0
VERTEX
8
0
10
72.499959375
20
18.250059375
30
0
0
SEQEND
0
POLYLINE
66
1
8
holes
10
0.0
20
0.0
30
0.0
70
1
0
VERTEX
8
0
10
52.499990625
20
18.250059375
30
0
0
VERTEX
8
0
10
56.999890625000006
20
18.250059375
30
0
0
VERTEX
8
0
10
57.401690625
20
18.209259375000002
30
0
0
VERTEX
8
0
10
57.77648125
20
18.092259375
30
0
0
VERTEX
8
0
10
58.11608125
20
17.907259375000002
30
0
0
VERTEX
8
0
10
58.412481250000006
20
17.662559375
30
0
0
VERTEX
8
0
10
58.65718125
20
17.36626875
30
0
0
VERTEX
8
0
10
58.84218125
20
17.02656875
30
0
0
VERTEX
8
0
10
58.95918125
20
16.651768750000002
30
0
0
VERTEX
8
0
10
58.999981250000005
20
16.25006875
30
0
0
VERTEX
8
0
10
58.999981250000005
20
12.50006875
30
0
0
VERTEX
8
0
10
60.999981250000005
20
12.50006875
30
0
0
VERTEX
8
0
10
60.999981250000005
20
16.25006875
30
0
0
VERTEX
8
0
10
61.04078125
20
16.651868750000002
30
0
0
VERTEX
8
0
10
61.157781250000006
20
17.026668750000002
30
0
0
VERTEX
8
0
10
61.34278125
20
17.36626875
30
0
0
VERTEX
8
0
10
61.58748125
20
17.662559375
30
0
0
VERTEX
8
0
10
61.883781250000006
20
17.907259375000002
30
0
0
VERTEX
8
0
10
62.22338125
20
18.092259375
30
0
0
VERTEX
8
0
10
62.598168750000006
20
18.209259375000002
30
0
0
VERTEX
8
0
10
62.99996875
20
18.250059375
30
0
0
VERTEX
8
0
10
67.49996875000001
20
18.250059375
30
0
0
VERTEX
8
0
10
67.49996875000001
20
21.750059375
30
0
0
VERTEX
8
0
10
62.99996875
20
21.750059375
30
0
0
VERTEX
8
0
10
62.59826875
20
21.790859375
30
0
0
VERTEX
8
0
10
62.223481250000006
20
21.907859375
30
0
0
VERTEX
8
0
10
61.883781250000006
20
22.092859375
30
0
0
VERTEX
8
0
10
61.58748125
20
22.337559375
30
0
0
VERTEX
8
0
10
61.34278125
20
22.633850000000002
30
0
0
VERTEX
8
0
10
61.157781250000006
20
22.97345
30
0
0
VERTEX
8
0
10
61.04078125
20
23.34825
30
0
0
VERTEX
8
0
10
60.999981250000005
20
23.75005
30
0
0
VERTEX
8
0
10
60.999981250000005
20
27.500040625
30
0
0
VERTEX
8
0
10
58.999981250000005
20
27.500040625
30
0
0
VERTEX
8
0
10
58.999981250000005
20
23.75005
30
0
0
VERTEX
8
0
10
58.95918125
20
23.34825
30
0
0
VERTEX
8
0
10
58.84218125
20
22.97345
30
0
0
VERTEX
8
0
10
58.65718125
20
22.633850000000002
30
0
0
VERTEX
8
0
10
58.412481250000006
20
22.337559375
30
0
0
VERTEX
8
0
10
58.11608125
20
22.092859375
30
0
0
VERTEX
8
0
10
57.77648125
20
21.907859375
30
0
0
VERTEX
8
0
10
57.401690625
20
21.790859375
30
0
0
VERTEX
8
0
10
56.999890625000006
20
21.750059375
30
0
0
VERTEX
8
0
10
52.499990625
20
21.750059375
30
0
0
VERTEX
8
0
10
52.499990625
20
18.250059375
30
0
0
SEQEND
0
POLYLINE
66
1
8
holes
10
0.0
20
0.0
30
0.0
70
1
0
VERTEX
8
0
10
12.50006875
20
38.25001875
30
0
0
VERTEX
8
0
10
16.99996875
20
38.25001875
30
0
0
VERTEX
8
0
10
17.401768750000002
20
38.209218750000005
30
0
0
VERTEX
8
0
10
17.776559375
20
38.09221875
30
0
0
VERTEX
8
0
10
18.116159375000002
20
37.90721875
30
0
0
VERTEX
8
0
10
18.412459375
20
37.66241875
30
0
0
VERTEX
8
0
10
18.657259375000002
20
37.36613125
30
0
0
VERTEX
8
0
10
18.842259375
20
37.026531250000005
30
0
0
VERTEX
8
0
10
18.959259375000002
20
36.651731250000005
30
0
0
VERTEX
8
0
10
19.000059375
20
36.25003125
30
0
0
VERTEX
8
0
10
19.000059375
20
32.50003125
30
0
0
VERTEX
8
0
10
21.000059375
20
32.50003125
30
0
0
VERTEX
8
0
10
21.000059375
20
36.25003125
30
0
0
VERTEX
8
0
10
21.040859375
20
36.65183125
30
0
0
VERTEX
8
0
10
21.157859375
20
37.02663125
30
0
0
VERTEX
8
0
10
21.342859375
20
37.36623125
30
0
0
VERTEX
8
0
10
21.587559375
20
37.662518750000004
30
0
0
VERTEX
8
0
10
21.883859375
20
37.90721875
30
0
0
VERTEX
8
0
10
22.223459375
20
38.09221875
30
0
0
VERTEX
8
0
10
22.59825
20
38.209218750000005
30
0
0
VERTEX
8
0
10
23.00005
20
38.25001875
30
0
0
VERTEX
8
0
10
27.500040625
20
38.25001875
30
0
0
VERTEX
8
0
10
27.500040625
20
41.75001875
30
0
0
VERTEX
8
0
10
23.00005
20
41.75001875
30
0
0
VERTEX
8
0
10
22.59835
20
41.79081875
30
0
0
VERTEX
8
0
10
22.223559375
20
41.907818750000004
30
0
0
VERTEX
8
0
10
21.883859375
20
42.09281875
30
0
0
VERTEX
8
0
10
21.587559375
20
42.33751875
30
0
0
VERTEX
8
0
10
21.342859375
20
42.633809375000006
30
0
0
VERTEX
8
0
10
21.157859375
20
42.973409375
30
0
0
VERTEX
8
0
10
21.040859375
20
43.348209375
30
0
0
VERTEX
8
0
10
21.000059375
20
43.750009375000005
30
0
0
VERTEX
8
0
10
21.000059375
20
47.500009375000005
30
0
0
VERTEX
8
0
10
19.000059375
20
47.500009375000005
30
0
0
VERTEX
8
0
10
19.000059375
20
43.750009375000005
30
0
0
VERTEX
8
0
10
18.959259375000002
20
43.348309375
30
0
0
VERTEX
8
0
10
18.842259375
20
42.973509375
30
0
0
VERTEX
8
0
10
18.657259375000002
20
42.633809375000006
30
0
0
VERTEX
8
0
10
18.412459375
20
42.33751875
30
0
0
VERTEX
8
0
10
18.116159375000002
20
42.09281875
30
0
0
VERTEX
8
0
10
17.776459375
20
41.907818750000004
30
0
0
VERTEX
8
0
10
17.401668750000002
20
41.79081875
30
0
0
VERTEX
8
0
10
16.99996875
20
41.75001875
30
0
0
VERTEX
8
0
10
12.50006875
20
41.75001875
30
0
0
VERTEX
8
0
10
12.50006875
20
38.25001875
30
0
0
SEQEND
0
POLYLINE
66
1
8
holes
10
0.0
20
0.0
30
0.0
70
1
0
VERTEX
8
0
10
52.499990625
20
38.25001875
30
0
0
VERTEX
8
0
10
56.999890625000006
20
38.25001875
30
0
0
VERTEX
8
0
10
57.401690625
20
38.209218750000005
30
0
0
VERTEX
8
0
10
57.77648125
20
38.09221875
30
0
0
VERTEX
8
0
10
58.11608125
20
37.90721875
30
0
0
VERTEX
8
0
10
58.412481250000006
20
37.662518750000004
30
0
0
VERTEX
8
0
10
58.65718125
20
37.36623125
30
0
0
VERTEX
8
0
10
58.84218125
20
37.026531250000005
30
0
0
VERTEX
8
0
10
58.95918125
20
36.651731250000005
30
0
0
VERTEX
8
0
10
58.999981250000005
20
36.25003125
30
0
0
VERTEX
8
0
10
58.999981250000005
20
32.50003125
30
0
0
VERTEX
8
0
10
60.999981250000005
20
32.50003125
30
0
0
VERTEX
8
0
10
60.999981250000005
20
36.25003125
30
0
0
VERTEX
8
0
10
61.04078125
20
36.65183125
30
0
0
VERTEX
8
0
10
61.157781250000006
20
37.02663125
30
0
0
VERTEX
8
0
10
61.34278125
20
37.36623125
30
0
0
VERTEX
8
0
10
61.58748125
20
37.662518750000004
30
0
0
VERTEX
8
0
10
61.883781250000006
20
37.90721875
30
0
0
VERTEX
8
0
10
62.22338125
20
38.09221875
30
0
0
VERTEX
8
0
10
62.598168750000006
20
38.209218750000005
30
0
0
VERTEX
8
0
10
62.99996875
20
38.25001875
30
0
0
VERTEX
8
0
10
67.49996875000001
20
38.25001875
30
0
0
VERTEX
8
0
10
67.49996875000001
20
41.75001875
30
0
0
VERTEX
8
0
10
62.99996875
20
41.75001875
30
0
0
VERTEX
8
0
10
62.59826875
20
41.79081875
30
0
0
VERTEX
8
0
10
62.223481250000006
20
41.907818750000004
30
0
0
VERTEX
8
0
10
61.883781250000006
20
42.09281875
30
0
0
VERTEX
8
0
10
61.58748125
20
42.33751875
30
0
0
VERTEX
8
0
10
61.34278125
20
42.633809375000006
30
0
0
VERTEX
8
0
10
61.157781250000006
20
42.973409375
30
0
0
VERTEX
8
0
10
61.04078125
20
43.348209375
30
0
0
VERTEX
8
0
10
60.999981250000005
20
43.750009375000005
30
0
0
VERTEX
8
0
10
60.999981250000005
20
47.500009375000005
30
0
0
VERTEX
8
0
10
58.999981250000005
20
47.500009375000005
30
0
0
VERTEX
8
0
10
58.999981250000005
20
43.750009375000005
30
0
0
VERTEX
8
0
10
58.95918125
20
43.348209375
30
0
0
VERTEX
8
0
10
58.84218125
20
42.973409375
30
0
0
VERTEX
8
0
10
58.65718125
20
42.633809375000006
30
0
0
VERTEX
8
0
10
58.412481250000006
20
42.33751875
30
0
0
VERTEX
8
0
10
58.11608125
20
42.09281875
30
0
0
VERTEX
8
0
10
57.77648125
20
41.907818750000004
30
0
0
VERTEX
8
0
10
57.401690625
20
41.79081875
30
0
0
VERTEX
8
0
10
56.999890625000006
20
41.75001875
30
0
0
VERTEX
8
0
10
52.499990625
20
41.75001875
30
0
0
VERTEX
8
0
10
52.499990625
20
38.25001875
30
0
0
SEQEND
0
POLYLINE
66
1
8
holes
10
0.0
20
0.0
30
0.0
70
1
0
VERTEX
8
0
10
32.50003125
20
58.249981250000005
30
0
0
VERTEX
8
0
10
36.99993125
20
58.249981250000005
30
0
0
VERTEX
8
0
10
37.401731250000005
20
58.20918125
30
0
0
VERTEX
8
0
10
37.77651875
20
58.09218125
30
0
0
VERTEX
8
0
10
38.116118750000005
20
57.90718125
30
0
0
VERTEX
8
0
10
38.41241875
20
57.66238125
30
0
0
VERTEX
8
0
10
38.65721875
20
57.366090625000005
30
0
0
VERTEX
8
0
10
38.84221875
20
57.026490625
30
0
0
VERTEX
8
0
10
38.959218750000005
20
56.651690625
30
0
0
VERTEX
8
0
10
39.00001875
20
56.249990625
30
0
0
VERTEX
8
0
10
39.00001875
20
52.499990625
30
0
0
VERTEX
8
0
10
41.00001875
20
52.499990625
30
0
0
VERTEX
8
0
10
41.00001875
20
56.249990625
30
0
0
VERTEX
8
0
10
41.04081875
20
56.651790625000004
30
0
0
VERTEX
8
0
10
41.157818750000004
20
57.026590625000004
30
0
0
VERTEX
8
0
10
41.34281875
20
57.366190625
30
0
0
VERTEX
8
0
10
41.58751875
20
57.662481250000006
30
0
0
VERTEX
8
0
10
41.88381875
20
57.90718125
30
0
0
VERTEX
8
0
10
42.22341875
20
58.09218125
30
0
0
VERTEX
8
0
10
42.598209375
20
58.20918125
30
0
0
VERTEX
8
0
10
43.000009375000005
20
58.249981250000005
30
0
0
VERTEX
8
0
10
47.500009375000005
20
58.249981250000005
30
0
0
VERTEX
8
0
10
47.500009375000005
20
61.749981250000005
30
0
0
VERTEX
8
0
10
43.000009375000005
20
61.749981250000005
30
0
0
VERTEX
8
0
10
42.598309375
20
61.79078125
30
0
0
VERTEX
8
0
10
42.223518750000004
20
61.907781250000006
30
0
0
VERTEX
8
0
10
41.88381875
20
62.09278125
30
0
0
VERTEX
8
0
10
41.58751875
20
62.33748125
30
0
0
VERTEX
8
0
10
41.34281875
20
62.63376875
30
0
0
VERTEX
8
0
10
41.157818750000004
20
62.973368750000006
30
0
0
VERTEX
8
0
10
41.04081875
20
63.348168750000006
30
0
0
VERTEX
8
0
10
41.00001875
20
63.74996875
30
0
0
VERTEX
8
0
10
41.00001875
20
67.49996875000001
30
0
0
VERTEX
8
0
10
39.00001875
20
67.49996875000001
30
0
0
VERTEX
8
0
10
39.00001875
20
63.74996875
30
0
0
VERTEX
8
0
10
38.959218750000005
20
63.348168750000006
30
0
0
VERTEX
8
0
10
38.84221875
20
62.973368750000006
30
0
0
VERTEX
8
0
10
38.65721875
20
62.63376875
30
0
0
VERTEX
8
0
10
38.41241875
20
62.33748125
30
0
0
VERTEX
8
0
10
38.116118750000005
20
62.09278125
30
0
0
VERTEX
8
0
10
37.77651875
20
61.907781250000006
30
0
0
VERTEX
8
0
10
37.401731250000005
20
61.79078125
30
0
0
VERTEX
8
0
10
36.99993125
20
61.749981250000005
30
0
0
VERTEX
8
0
10
32.50003125
20
61.749981250000005
30
0
0
VERTEX
8
0
10
32.50003125
20
58.249981250000005
30
0
0
SEQEND
0
POLYLINE
66
1
8
holes
10
0.0
20
0.0
30
0.0
70
1
0
VERTEX
8
0
10
72.499959375
20
78.24994062500001
30
0
0
VERTEX
8
0
10
76.99985000000001
20
78.24994062500001
30
0
0
VERTEX
8
0
10
77.40165
20
78.209140625
30
0
0
VERTEX
8
0
10
77.776440625
20
78.092140625
30
0
0
VERTEX
8
0
10
78.11604062500001
20
77.907140625
30
0
0
VERTEX
8
0
10
78.412440625
20
77.662440625
30
0
0
VERTEX
8
0
10
78.657140625
20
77.36615
30
0
0
VERTEX
8
0
10
78.842140625
20
77.02645
30
0
0
VERTEX
8
0
10
78.959140625
20
76.65165
30
0
0
VERTEX
8
0
10
78.99994062500001
20
76.24995
30
0
0
VERTEX
8
0
10
78.99994062500001
20
72.499959375
30
0
0
VERTEX
8
0
10
80.99994062500001
20
72.499959375
30
0
0
VERTEX
8
0
10
80.99994062500001
20
76.24995
30
0
0
VERTEX
8
0
10
81.040740625
20
76.65175
30
0
0
VERTEX
8
0
10
81.157740625
20
77.02655
30
0
0
VERTEX
8
0
10
81.342740625
20
77.36615
30
0
0
VERTEX
8
0
10
81.587440625
20
77.662440625
30
0
0
VERTEX
8
0
10
81.883740625
20
77.907140625
30
0
0
VERTEX
8
0
10
82.223340625
20
78.092140625
30
0
0
VERTEX
8
0
10
82.59813125000001
20
78.209140625
30
0
0
VERTEX
8
0
10
82.99993125
20
78.24994062500001
30
0
0
VERTEX
8
0
10
87.49993125
20
78.24994062500001
30
0
0
VERTEX
8
0
10
87.49993125
20
81.74994062500001
30
0
0
VERTEX
8
0
10
82.99993125
20
81.74994062500001
30
0
0
VERTEX
8
0
10
82.59823125
20
81.790740625
30
0
0
VERTEX
8
0
10
82.22344062500001
20
81.907740625
30
0
0
VERTEX
8
0
10
81.883740625
20
82.092740625
30
0
0
VERTEX
8
0
10
81.587440625
20
82.337440625
30
0
0
VERTEX
8
0
10
81.342740625
20
82.63373125000001
30
0
0
VERTEX
8
0
10
81.157740625
20
82.97333125
30
0
0
VERTEX
8
0
10
81.040740625
20
83.34813125000001
30
0
0
VERTEX
8
0
10
80.99994062500001
20
83.74993125
30
0
0
VERTEX
8
0
10
80.99994062500001
20
87.49993125
30
0
0
VERTEX
8
0
10
78.99994062500001
20
87.49993125
30
0
0
VERTEX
8
0
10
78.99994062500001
20
83.74993125
30
0
0
VERTEX
8
0
10
78.959140625
20
83.34813125000001
30
0
0
VERTEX
8
0
10
78.842140625
20
82.97333125
30
0
0
VERTEX
8
0
10
78.657140625
20
82.63373125000001
30
0
0
VERTEX
8
0
10
78.412440625
20
82.337440625
30
0
0
VERTEX
8
0
10
78.11604062500001
20
82.092740625
30
0
0
VERTEX
8
0
10
77.776440625
20
81.907740625
30
0
0
VERTEX
8
0
10
77.40165
20
81.790740625
30
0
0
VERTEX
8
0
10
76.99985000000001
20
81.74994062500001
30
0
0
VERTEX
8
0
10
72.499959375
20
81.74994062500001
30
0
0
VERTEX
8
0
10
72.499959375
20
78.24994062500001
30
0
0
SEQEND
0
POLYLINE
66
1
8
holes
10
0.0
20
0.0
30
0.0
70
1
0
VERTEX
8
0
10
72.499959375
20
58.249981250000005
30
0
0
VERTEX
8
0
10
76.99985000000001
20
58.249981250000005
30
0
0
VERTEX
8
0
10
77.40165
20
58.20918125
30
0
0
VERTEX
8
0
10
77.776440625
20
58.09218125
30
0
0
VERTEX
8
0
10
78.11604062500001
20
57.90718125
30
0
0
VERTEX
8
0
10
78.412440625
20
57.662481250000006
30
0
0
VERTEX
8
0
10
78.657140625
20
57.366190625
30
0
0
VERTEX
8
0
10
78.842140625
20
57.026490625
30
0
0
VERTEX
8
0
10
78.959140625
20
56.651690625
30
0
0
VERTEX
8
0
10
78.99994062500001
20
56.249990625
30
0
0
VERTEX
8
0
10
78.99994062500001
20
52.499990625
30
0
0
VERTEX
8
0
10
80.99994062500001
20
52.499990625
30
0
0
VERTEX
8
0
10
80.99994062500001
20
56.249990625
30
0
0
VERTEX
8
0
10
81.040740625
20
56.651790625000004
30
0
0
VERTEX
8
0
10
81.157740625
20
57.026590625000004
30
0
0
VERTEX
8
0
10
81.342740625
20
57.366190625
30
0
0
VERTEX
8
0
10
81.587440625
20
57.662481250000006
30
0
0
VERTEX
8
0
10
81.883740625
20
57.90718125
30
0
0
VERTEX
8
0
10
82.223340625
20
58.09218125
30
0
0
VERTEX
8
0
10
82.59813125000001
20
58.20918125
30
0
0
VERTEX
8
0
10
82.99993125
20
58.249981250000005
30
0
0
VERTEX
8
0
10
87.49993125
20
58.249981250000005
30
0
0
VERTEX
8
0
10
87.49993125
20
61.749981250000005
30
0
0
VERTEX
8
0
10
82.99993125
20
61.749981250000005
30
0
0
VERTEX
8
0
10
82.59823125
20
61.79078125
30
0
0
VERTEX
8
0
10
82.22344062500001
20
61.907781250000006
30
0
0
VERTEX
8
0
10
81.883740625
20
62.09278125
30
0
0
VERTEX
8
0
10
81.587440625
20
62.33748125
30
0
0
VERTEX
8
0
10
81.342740625
20
62.63376875
30
0
0
VERTEX
8
0
10
81.157740625
20
62.973368750000006
30
0
0
VERTEX
8
0
10
81.040740625
20
63.348168750000006
30
0
0
VERTEX
8
0
10
80.99994062500001
20
63.74996875
30
0
0
VERTEX
8
0
10
80.99994062500001
20
67.49996875000001
30
0
0
VERTEX
8
0
10
78.99994062500001
20
67.49996875000001
30
0
0
VERTEX
8
0
10
78.99994062500001
20
63.74996875
30
0
0
VERTEX
8
0
10
78.959140625
20
63.348168750000006
30
0
0
VERTEX
8
0
10
78.842140625
20
62.973368750000006
30
0
0
VERTEX
8
0
10
78.657140625
20
62.63376875
30
0
0
VERTEX
8
0
10
78.412440625
20
62.33748125
30
0
0
VERTEX
8
0
10
78.11604062500001
20
62.09278125
30
0
0
VERTEX
8
0
10
77.776440625
20
61.907781250000006
30
0
0
VERTEX
8
0
10
77.40165
20
61.79078125
30
0
0
VERTEX
8
0
10
76.99985000000001
20
61.749981250000005
30
0
0
VERTEX
8
0
10
72.499959375
20
61.749981250000005
30
0
0
VERTEX
8
0
10
72.499959375
20
58.249981250000005
30
0
0
SEQEND
0
POLYLINE
66
1
8
holes
10
0.0
20
0.0
30
0.0
70
1
0
VERTEX
8
0
10
12.50006875
20
58.249981250000005
30
0
0
VERTEX
8
0
10
16.99996875
20
58.249981250000005
30
0
0
VERTEX
8
0
10
17.401768750000002
20
58.20918125
30
0
0
VERTEX
8
0
10
17.776559375
20
58.09218125
30
0
0
VERTEX
8
0
10
18.116159375000002
20
57.90718125
30
0
0
VERTEX
8
0
10
18.412459375
20
57.662481250000006
30
0
0
VERTEX
8
0
10
18.657259375000002
20
57.366190625
30
0
0
VERTEX
8
0
10
18.842259375
20
57.026490625
30
0
0
VERTEX
8
0
10
18.959259375000002
20
56.651690625
30
0
0
VERTEX
8
0
10
19.000059375
20
56.249990625
30
0
0
VERTEX
8
0
10
19.000059375
20
52.499990625
30
0
0
VERTEX
8
0
10
21.000059375
20
52.499990625
30
0
0
VERTEX
8
0
10
21.000059375
20
56.249990625
30
0
0
VERTEX
8
0
10
21.040859375
20
56.651790625000004
30
0
0
VERTEX
8
0
10
21.157859375
20
57.026590625000004
30
0
0
VERTEX
8
0
10
21.342859375
20
57.366190625
30
0
0
VERTEX
8
0
10
21.587559375
20
57.662481250000006
30
0
0
VERTEX
8
0
10
21.883859375
20
57.90718125
30
0
0
VERTEX
8
0
10
22.223459375
20
58.09218125
30
0
0
VERTEX
8
0
10
22.59825
20
58.20918125
30
0
0
VERTEX
8
0
10
23.00005
20
58.249981250000005
30
0
0
VERTEX
8
0
10
27.500040625
20
58.249981250000005
30
0
0
VERTEX
8
0
10
27.500040625
20
61.749981250000005
30
0
0
VERTEX
8
0
10
23.00005
20
61.749981250000005
30
0
0
VERTEX
8
0
10
22.59835
20
61.79078125
30
0
0
VERTEX
8
0
10
22.223559375
20
61.907781250000006
30
0
0
VERTEX
8
0
10
21.883859375
20
62.09278125
30
0
0
VERTEX
8
0
10
21.587559375
20
62.33748125
30
0
0
VERTEX
8
0
10
21.342859375
20
62.63376875
30
0
0
VERTEX
8
0
10
21.157859375
20
62.973368750000006
30
0
0
VERTEX
8
0
10
21.040859375
20
63.348168750000006
30
0
0
VERTEX
8
0
10
21.000059375
20
63.74996875
30
0
0
VERTEX
8
0
10
21.000059375
20
67.49996875000001
30
0
0
VERTEX
8
0
10
19.000059375
20
67.49996875000001
30
0
0
VERTEX
8
0
10
19.000059375
20
63.74996875
30
0
0
VERTEX
8
0
10
18.959259375000002
20
63.34826875
30
0
0
VERTEX
8
0
10
18.842259375
20
62.97346875
30
0
0
VERTEX
8
0
10
18.657259375000002
20
62.63376875
30
0
0
VERTEX
8
0
10
18.412459375
20
62.33748125
30
0
0
VERTEX
8
0
10
18.116159375000002
20
62.09278125
30
0
0
VERTEX
8
0
10
17.776459375
20
61.907781250000006
30
0
0
VERTEX
8
0
10
17.401668750000002
20
61.79078125
30
0
0
VERTEX
8
0
10
16.99996875
20
61.749981250000005
30
0
0
VERTEX
8
0
10
12.50006875
20
61.749981250000005
30
0
0
VERTEX
8
0
10
12.50006875
20
58.249981250000005
30
0
0
SEQEND
0
POLYLINE
66
1
8
holes
10
0.0
20
0.0
30
0.0
70
1
0
VERTEX
8
0
10
12.50006875
20
18.250059375
30
0
0
VERTEX
8
0
10
16.99996875
20
18.250059375
30
0
0
VERTEX
8
0
10
17.401768750000002
20
18.209259375000002
30
0
0
VERTEX
8
0
10
17.776559375
20
18.092259375
30
0
0
VERTEX
8
0
10
18.116159375000002
20
17.907259375000002
30
0
0
VERTEX
8
0
10
18.412459375
20
17.662559375
30
0
0
VERTEX
8
0
10
18.657259375000002
20
17.36626875
30
0
0
VERTEX
8
0
10
18.842259375
20
17.02656875
30
0
0
VERTEX
8
0
10
18.959259375000002
20
16.651768750000002
30
0
0
VERTEX
8
0
10
19.000059375
20
16.25006875
30
0
0
VERTEX
8
0
10
19.000059375
20
12.50006875
30
0
0
VERTEX
8
0
10
21.000059375
20
12.50006875
30
0
0
VERTEX
8
0
10
21.000059375
20
16.25006875
30
0
0
VERTEX
8
0
10
21.040859375
20
16.651868750000002
30
0
0
VERTEX
8
0
10
21.157859375
20
17.026668750000002
30
0
0
VERTEX
8
0
10
21.342859375
20
17.36626875
30
0
0
VERTEX
8
0
10
21.587559375
20
17.662559375
30
0
0
VERTEX
8
0
10
21.883859375
20
17.907259375000002
30
0
0
VERTEX
8
0
10
22.223459375
20
18.092259375
30
0
0
VERTEX
8
0
10
22.59825
20
18.209259375000002
30
0
0
VERTEX
8
0
10
23.00005
20
18.250059375
30
0
0
VERTEX
8
0
10
27.500040625
20
18.250059375
30
0
0
VERTEX
8
0
10
27.500040625
20
21.750059375
30
0
0
VERTEX
8
0
10
23.00005
20
21.750059375
30
0
0
VERTEX
8
0
10
22.59835
20
21.790859375
30
0
0
VERTEX
8
0
10
22.223559375
20
21.907859375
30
0
0
VERTEX
8
0
10
21.883859375
20
22.092859375
30
0
0
VERTEX
8
0
10
21.587559375
20
22.337559375
30
0
0
VERTEX
8
0
10
21.342859375
20
22.633850000000002
30
0
0
VERTEX
8
0
10
21.157859375
20
22.97345
30
0
0
VERTEX
8
0
10
21.040859375
20
23.34825
30
0
0
VERTEX
8
0
10
21.000059375
20
23.75005
30
0
0
VERTEX
8
0
10
21.000059375
20
27.500040625
30
0
0
VERTEX
8
0
10
19.000059375
20
27.500040625
30
0
0
VERTEX
8
0
10
19.000059375
20
23.75005
30
0
0
VERTEX
8
0
10
18.959259375000002
20
23.34825
30
0
0
VERTEX
8
0
10
18.842259375
20
22.97345
30
0
0
VERTEX
8
0
10
18.657259375000002
20
22.633850000000002
30
0
0
VERTEX
8
0
10
18.412459375
20
22.337559375
30
0
0
VERTEX
8
0
10
18.116159375000002
20
22.092859375
30
0
0
VERTEX
8
0
10
17.776559375
20
21.907859375
30
0
0
VERTEX
8
0
10
17.401768750000002
20
21.790859375
30
0
0
VERTEX
8
0
10
16.99996875
20
21.750059375
30
0
0
VERTEX
8
0
10
12.50006875
20
21.750059375
30
0
0
VERTEX
8
0
10
12.50006875
20
18.250059375
30
0
0
SEQEND
0
POLYLINE
66
1
8
holes
10
0.0
20
0.0
30
0.0
70
1
0
VERTEX
8
0
10
12.540000000000001
20
92.622940625
30
0
0
VERTEX
8
0
10
12.5459875
20
92.668428125
30
0
0
VERTEX
8
0
10
12.5578625
20
92.71274375
30
0
0
VERTEX
8
0
10
12.575421875
20
92.75513437500001
30
0
0
VERTEX
8
0
10
12.5983625
20
92.794865625
30
0
0
VERTEX
8
0
10
12.626290625000001
20
92.831265625
30
0
0
VERTEX
8
0
10
12.658734375
20
92.863709375
30
0
0
VERTEX
8
0
10
12.695134375
20
92.8916375
30
0
0
VERTEX
8
0
10
12.734865625000001
20
92.914578125
30
0
0
VERTEX
8
0
10
12.77725625
20
92.93213750000001
30
0
0
VERTEX
8
0
10
12.821571875
20
92.9440125
30
0
0
VERTEX
8
0
10
12.867059375
20
92.95
30
0
0
VERTEX
8
0
10
12.912940625000001
20
92.95
30
0
0
VERTEX
8
0
10
12.958428125000001
20
92.9440125
30
0
0
VERTEX
8
0
10
13.00274375
20
92.93213750000001
30
0
0
VERTEX
8
0
10
13.045134375
20
92.914578125
30
0
0
VERTEX
8
0
10
13.084865625
20
92.8916375
30
0
0
VERTEX
8
0
10
13.121265625000001
20
92.863709375
30
0
0
VERTEX
8
0
10
13.153709375
20
92.831265625
30
0
0
VERTEX
8
0
10
13.1816375
20
92.794865625
30
0
0
VERTEX
8
0
10
13.204578125000001
20
92.75513437500001
30
0
0
VERTEX
8
0
10
13.2221375
20
92.71274375
30
0
0
VERTEX
8
0
10
13.2340125
20
92.668428125
30
0
0
VERTEX
8
0
10
13.24
20
92.622940625
30
0
0
VERTEX
8
0
10
13.24
20
92.577059375
30
0
0
VERTEX
8
0
10
13.2340125
20
92.531571875
30
0
0
VERTEX
8
0
10
13.2221375
20
92.48725625
30
0
0
VERTEX
8
0
10
13.204578125000001
20
92.444865625
30
0
0
VERTEX
8
0
10
13.1816375
20
92.405134375
30
0
0
VERTEX
8
0
10
13.153709375
20
92.368734375
30
0
0
VERTEX
8
0
10
13.121265625000001
20
92.336290625
30
0
0
VERTEX
8
0
10
13.084865625
20
92.3083625
30
0
0
VERTEX
8
0
10
13.045134375
20
92.28542187500001
30
0
0
VERTEX
8
0
10
13.00274375
20
92.2678625
30
0
0
VERTEX
8
0
10
12.958428125000001
20
92.2559875
30
0
0
VERTEX
8
0
10
12.912940625000001
20
92.25
30
0
0
VERTEX
8
0
10
12.867059375
20
92.25
30
0
0
VERTEX
8
0
10
12.821571875
20
92.2559875
30
0
0
VERTEX
8
0
10
12.77725625
20
92.2678625
30
0
0
VERTEX
8
0
10
12.734865625000001
20
92.28542187500001
30
0
0
VERTEX
8
0
10
12.695134375
20
92.3083625
30
0
0
VERTEX
8
0
10
12.658734375
20
92.336290625
30
0
0
VERTEX
8
0
10
12.626290625000001
20
92.368734375
30
0
0
VERTEX
8
0
10
12.5983625
20
92.405134375
30
0
0
VERTEX
8
0
10
12.575421875
20
92.444865625
30
0
0
VERTEX
8
0
10
12.5578625
20
92.48725625
30
0
0
VERTEX
8
0
10
12.5459875
20
92.531571875
30
0
0
VERTEX
8
0
10
12.540000000000001
20
92.577059375
30
0
0
VERTEX
8
0
10
12.540000000000001
20
92.622940625
30
0
0
SEQEND
0
POLYLINE
66
1
8
holes
10
0.0
20
0.0
30
0.0
70
1
0
VERTEX
8
0
10
6.760000000000001
20
92.622940625
30
0
0
VERTEX
8
0
10
6.7659875000000005
20
92.668428125
30
0
0
VERTEX
8
0
10
6.7778625
20
92.71274375
30
0
0
VERTEX
8
0
10
6.795421875000001
20
92.75513437500001
30
0
0
VERTEX
8
0
10
6.8183625
20
92.794865625
30
0
0
VERTEX
8
0
10
6.846290625
20
92.831265625
30
0
0
VERTEX
8
0
10
6.8787343750000005
20
92.863709375
30
0
0
VERTEX
8
0
10
6.915134375
20
92.8916375
30
0
0
VERTEX
8
0
10
6.954865625
20
92.914578125
30
0
0
VERTEX
8
0
10
6.99725625
20
92.93213750000001
30
0
0
VERTEX
8
0
10
7.041571875000001
20
92.9440125
30
0
0
VERTEX
8
0
10
7.087059375
20
92.95
30
0
0
VERTEX
8
0
10
7.132940625000001
20
92.95
30
0
0
VERTEX
8
0
10
7.178428125
20
92.9440125
30
0
0
VERTEX
8
0
10
7.22274375
20
92.93213750000001
30
0
0
VERTEX
8
0
10
7.265134375000001
20
92.914578125
30
0
0
VERTEX
8
0
10
7.304865625000001
20
92.8916375
30
0
0
VERTEX
8
0
10
7.341265625
20
92.863709375
30
0
0
VERTEX
8
0
10
7.373709375000001
20
92.831265625
30
0
0
VERTEX
8
0
10
7.4016375000000005
20
92.794865625
30
0
0
VERTEX
8
0
10
7.424578125
20
92.75513437500001
30
0
0
VERTEX
8
0
10
7.4421375
20
92.71274375
30
0
0
VERTEX
8
0
10
7.4540125
20
92.668428125
30
0
0
VERTEX
8
0
10
7.46
20
92.622940625
30
0
0
VERTEX
8
0
10
7.46
20
92.577059375
30
0
0
VERTEX
8
0
10
7.4540125
20
92.531571875
30
0
0
VERTEX
8
0
10
7.4421375
20
92.48725625
30
0
0
VERTEX
8
0
10
7.424578125
20
92.444865625
30
0
0
VERTEX
8
0
10
7.4016375000000005
20
92.405134375
30
0
0
VERTEX
8
0
10
7.373709375000001
20
92.368734375
30
0
0
VERTEX
8
0
10
7.341265625
20
92.336290625
30
0
0
VERTEX
8
0
10
7.304865625000001
20
92.3083625
30
0
0
VERTEX
8
0
10
7.265134375000001
20
92.28542187500001
30
0
0
VERTEX
8
0
10
7.22274375
20
92.2678625
30
0
0
VERTEX
8
0
10
7.178428125
20
92.2559875
30
0
0
VERTEX
8
0
10
7.132940625000001
20
92.25
30
0
0
VERTEX
8
0
10
7.087059375
20
92.25
30
0
0
VERTEX
8
0
10
7.041571875000001
20
92.2559875
30
0
0
VERTEX
8
0
10
6.99725625
20
92.2678625
30
0
0
VERTEX
8
0
10
6.954865625
20
92.28542187500001
30
0
0
VERTEX
8
0
10
6.915134375
20
92.3083625
30
0
0
VERTEX
8
0
10
6.8787343750000005
20
92.336290625
30
0
0
VERTEX
8
0
10
6.846290625
20
92.368734375
30
0
0
VERTEX
8
0
10
6.8183625
20
92.405134375
30
0
0
VERTEX
8
0
10
6.795421875000001
20
92.444865625
30
0
0
VERTEX
8
0
10
6.7778625
20
92.48725625
30
0
0
VERTEX
8
0
10
6.7659875000000005
20
92.531571875
30
0
0
VERTEX
8
0
10
6.760000000000001
20
92.577059375
30
0
0
VERTEX
8
0
10
6.760000000000001
20
92.622940625
30
0
0
SEQEND
0
POLYLINE
66
1
8
1_copper
10
0.0
20
0.0
30
0.0
70
1
0
VERTEX
8
0
10
14.4171375
20
95.09928125
30
0
42
0.3499159660276675
0
VERTEX
8
0
10
14.899000000000001
20
95.638484375
30
0
0
VERTEX
8
0
10
14.899000000000001
20
96.86151562500001
30
0
0
VERTEX
8
0
10
14.89171875
20
96.92613750000001
30
0
42
0.8936559700213809
0
VERTEX
8
0
10
13.741000000000001
20
96.86151562500001
30
0
0
VERTEX
8
0
10
13.741000000000001
20
95.638484375
30
0
0
VERTEX
8
0
10
13.74828125
20
95.5738625
30
0
42
0.3817205652310537
0
VERTEX
8
0
10
14.352515625
20
95.092
30
0
0
SEQEND
0
POLYLINE
66
1
8
1_copper
10
0.0
20
0.0
30
0.0
70
1
0
VERTEX
8
0
10
5.7771375
20
95.09928125
30
0
42
0.3499159660276675
0
VERTEX
8
0
10
6.259
20
95.638484375
30
0
0
VERTEX
8
0
10
6.259
20
96.86151562500001
30
0
0
VERTEX
8
0
10
6.25171875
20
96.92613750000001
30
0
42
0.8936559700213809
0
VERTEX
8
0
10
5.101
20
96.86151562500001
30
0
0
VERTEX
8
0
10
5.101
20
95.638484375
30
0
0
VERTEX
8
0
10
5.10828125
20
95.5738625
30
0
42
0.3817205652310537
0
VERTEX
8
0
10
5.712515625
20
95.092
30
0
0
SEQEND
0
POLYLINE
66
1
8
1_copper
10
0.0
20
0.0
30
0.0
70
1
0
VERTEX
8
0
10
14.4171375
20
90.91928125
30
0
42
0.3499159660276675
0
VERTEX
8
0
10
14.899000000000001
20
91.458484375
30
0
0
VERTEX
8
0
10
14.899000000000001
20
92.681515625
30
0
0
VERTEX
8
0
10
14.89171875
20
92.7461375
30
0
42
0.8936559700213809
0
VERTEX
8
0
10
13.741000000000001
20
92.681515625
30
0
0
VERTEX
8
0
10
13.741000000000001
20
91.458484375
30
0
0
VERTEX
8
0
10
13.74828125
20
91.3938625
30
0
42
0.3817205652310537
0
VERTEX
8
0
10
14.352515625
20
90.912
30
0
0
SEQEND
0
POLYLINE
66
1
8
1_copper
10
0.0
20
0.0
30
0.0
70
1
0
VERTEX
8
0
10
5.7771375
20
90.91928125
30
0
42
0.3499159660276675
0
VERTEX
8
0
10
6.259
20
91.458484375
30
0
0
VERTEX
8
0
10
6.259
20
92.681515625
30
0
0
VERTEX
8
0
10
6.25171875
20
92.7461375
30
0
42
0.8936559700213809
0
VERTEX
8
0
10
5.101
20
92.681515625
30
0
0
VERTEX
8
0
10
5.101
20
91.458484375
30
0
0
VERTEX
8
0
10
5.10828125
20
91.3938625
30
0
42
0.3817205652310537
0
VERTEX
8
0
10
5.712515625
20
90.912
30
0
0
SEQEND
0
POLYLINE
66
1
8
1_copper
10
0.0
20
0.0
30
0.0
70
1
0
VERTEX
8
0
10
10.4
20
91.88000000000001
30
0
0
VERTEX
8
0
10
10.1
20
91.88000000000001
30
0
0
VERTEX
8
0
10
10.1
20
90.43
30
0
0
VERTEX
8
0
10
10.4
20
90.43
30
0
0
SEQEND
0
POLYLINE
66
1
8
1_copper
10
0.0
20
0.0
30
0.0
70
1
0
VERTEX
8
0
10
10.9
20
91.88000000000001
30
0
0
VERTEX
8
0
10
10.6
20
91.88000000000001
30
0
0
VERTEX
8
0
10
10.6
20
90.43
30
0
0
VERTEX
8
0
10
10.9
20
90.43
30
0
0
SEQEND
0
POLYLINE
66
1
8
1_copper
10
0.0
20
0.0
30
0.0
70
1
0
VERTEX
8
0
10
11.4
20
91.88000000000001
30
0
0
VERTEX
8
0
10
11.1
20
91.88000000000001
30
0
0
VERTEX
8
0
10
11.1
20
90.43
30
0
0
VERTEX
8
0
10
11.4
20
90.43
30
0
0
SEQEND
0
POLYLINE
66
1
8
1_copper
10
0.0
20
0.0
30
0.0
70
1
0
VERTEX
8
0
10
11.9
20
91.88000000000001
30
0
0
VERTEX
8
0
10
11.600000000000001
20
91.88000000000001
30
0
0
VERTEX
8
0
10
11.600000000000001
20
90.43
30
0
0
VERTEX
8
0
10
11.9
20
90.43
30
0
0
SEQEND
0
POLYLINE
66
1
8
1_copper
10
0.0
20
0.0
30
0.0
70
1
0
VERTEX
8
0
10
9.9
20
91.88000000000001
30
0
0
VERTEX
8
0
10
9.6
20
91.88000000000001
30
0
0
VERTEX
8
0
10
9.6
20
90.43
30
0
0
VERTEX
8
0
10
9.9
20
90.43
30
0
0
SEQEND
0
POLYLINE
66
1
8
1_copper
10
0.0
20
0.0
30
0.0
70
1
0
VERTEX
8
0
10
9.4
20
91.88000000000001
30
0
0
VERTEX
8
0
10
9.1
20
91.88000000000001
30
0
0
VERTEX
8
0
10
9.1
20
90.43
30
0
0
VERTEX
8
0
10
9.4
20
90.43
30
0
0
SEQEND
0
POLYLINE
66
1
8
1_copper
10
0.0
20
0.0
30
0.0
70
1
0
VERTEX
8
0
10
8.9
20
91.88000000000001
30
0
0
VERTEX
8
0
10
8.6
20
91.88000000000001
30
0
0
VERTEX
8
0
10
8.6
20
90.43
30
0
0
VERTEX
8
0
10
8.9
20
90.43
30
0
0
SEQEND
0
POLYLINE
66
1
8
1_copper
10
0.0
20
0.0
30
0.0
70
1
0
VERTEX
8
0
10
8.4
20
91.88000000000001
30
0
0
VERTEX
8
0
10
8.1
20
91.88000000000001
30
0
0
VERTEX
8
0
10
8.1
20
90.43
30
0
0
VERTEX
8
0
10
8.4
20
90.43
30
0
0
SEQEND
0
POLYLINE
66
1
8
16_copper
10
0.0
20
0.0
30
0.0
70
1
0
VERTEX
8
0
10
14.4171375
20
95.09928125
30
0
42
0.3499159660276675
0
VERTEX
8
0
10
14.899000000000001
20
95.638484375
30
0
0
VERTEX
8
0
10
14.899000000000001
20
96.86151562500001
30
0
0
VERTEX
8
0
10
14.89171875
20
96.92613750000001
30
0
42
0.8936559700213809
0
VERTEX
8
0
10
13.741000000000001
20
96.86151562500001
30
0
0
VERTEX
8
0
10
13.741000000000001
20
95.638484375
30
0
0
VERTEX
8
0
10
13.74828125
20
95.5738625
30
0
42
0.3817205652310537
0
VERTEX
8
0
10
14.352515625
20
95.092
30
0
0
SEQEND
0
POLYLINE
66
1
8
16_copper
10
0.0
20
0.0
30
0.0
70
1
0
VERTEX
8
0
10
5.7771375
20
95.09928125
30
0
42
0.3499159660276675
0
VERTEX
8
0
10
6.259
20
95.638484375
30
0
0
VERTEX
8
0
10
6.259
20
96.86151562500001
30
0
0
VERTEX
8
0
10
6.25171875
20
96.92613750000001
30
0
42
0.8936559700213809
0
VERTEX
8
0
10
5.101
20
96.86151562500001
30
0
0
VERTEX
8
0
10
5.101
20
95.638484375
30
0
0
VERTEX
8
0
10
5.10828125
20
95.5738625
30
0
42
0.3817205652310537
0
VERTEX
8
0
10
5.712515625
20
95.092
30
0
0
SEQEND
0
POLYLINE
66
1
8
16_copper
10
0.0
20
0.0
30
0.0
70
1
0
VERTEX
8
0
10
14.4171375
20
90.91928125
30
0
42
0.3499159660276675
0
VERTEX
8
0
10
14.899000000000001
20
91.458484375
30
0
0
VERTEX
8
0
10
14.899000000000001
20
92.681515625
30
0
0
VERTEX
8
0
10
14.89171875
20
92.7461375
30
0
42
0.8936559700213809
0
VERTEX
8
0
10
13.741000000000001
20
92.681515625
30
0
0
VERTEX
8
0
10
13.741000000000001
20
91.458484375
30
0
0
VERTEX
8
0
10
13.74828125
20
91.3938625
30
0
42
0.3817205652310537
0
VERTEX
8
0
10
14.352515625
20
90.912
30
0
0
SEQEND
0
POLYLINE
66
1
8
16_copper
10
0.0
20
0.0
30
0.0
70
1
0
VERTEX
8
0
10
5.7771375
20
90.91928125
30
0
42
0.3499159660276675
0
VERTEX
8
0
10
6.259
20
91.458484375
30
0
0
VERTEX
8
0
10
6.259
20
92.681515625
30
0
0
VERTEX
8
0
10
6.25171875
20
92.7461375
30
0
42
0.8936559700213809
0
VERTEX
8
0
10
5.101
20
92.681515625
30
0
0
VERTEX
8
0
10
5.101
20
91.458484375
30
0
0
VERTEX
8
0
10
5.10828125
20
91.3938625
30
0
42
0.3817205652310537
0
VERTEX
8
0
10
5.712515625
20
90.912
30
0
0
SEQEND
0
POLYLINE
66
1
8
1_copper
10
0.0
20
0.0
30
0.0
70
1
0
VERTEX
8
0
10
3.157696875
20
94.64888437500001
30
0
42
0.9999999999999999
0
VERTEX
8
0
10
2.842303125
20
97.851115625
30
0
0
VERTEX
8
0
10
2.737925
20
97.837371875
30
0
42
0.9366025863711805
0
VERTEX
8
0
10
3.052640625
20
94.64200000000001
30
0
0
SEQEND
0
POLYLINE
66
1
8
16_copper
10
0.0
20
0.0
30
0.0
70
1
0
VERTEX
8
0
10
3.157696875
20
94.64888437500001
30
0
42
0.9999999999999999
0
VERTEX
8
0
10
2.842303125
20
97.851115625
30
0
0
VERTEX
8
0
10
2.737925
20
97.837371875
30
0
42
0.9366025863711805
0
VERTEX
8
0
10
3.052640625
20
94.64200000000001
30
0
0
SEQEND
0
POLYLINE
66
1
8
1_copper
10
0.0
20
0.0
30
0.0
70
1
0
VERTEX
8
0
10
13.55
20
91.88000000000001
30
0
0
VERTEX
8
0
10
12.950000000000001
20
91.88000000000001
30
0
0
VERTEX
8
0
10
12.950000000000001
20
90.43
30
0
0
VERTEX
8
0
10
13.55
20
90.43
30
0
0
SEQEND
0
POLYLINE
66
1
8
1_copper
10
0.0
20
0.0
30
0.0
70
1
0
VERTEX
8
0
10
7.050000000000001
20
91.88000000000001
30
0
0
VERTEX
8
0
10
6.45
20
91.88000000000001
30
0
0
VERTEX
8
0
10
6.45
20
90.43
30
0
0
VERTEX
8
0
10
7.050000000000001
20
90.43
30
0
0
SEQEND
0
POLYLINE
66
1
8
1_copper
10
0.0
20
0.0
30
0.0
70
1
0
VERTEX
8
0
10
12.75
20
91.88000000000001
30
0
0
VERTEX
8
0
10
12.15
20
91.88000000000001
30
0
0
VERTEX
8
0
10
12.15
20
90.43
30
0
0
VERTEX
8
0
10
12.75
20
90.43
30
0
0
SEQEND
0
POLYLINE
66
1
8
1_copper
10
0.0
20
0.0
30
0.0
70
1
0
VERTEX
8
0
10
7.8500000000000005
20
91.88000000000001
30
0
0
VERTEX
8
0
10
7.25
20
91.88000000000001
30
0
0
VERTEX
8
0
10
7.25
20
90.43
30
0
0
VERTEX
8
0
10
7.8500000000000005
20
90.43
30
0
0
SEQEND
0
POLYLINE
66
1
8
1_copper
10
0.0
20
0.0
30
0.0
70
1
0
VERTEX
8
0
10
17.157696875
20
94.64888437500001
30
0
42
0.9999999999999999
0
VERTEX
8
0
10
16.842303125
20
97.851115625
30
0
0
VERTEX
8
0
10
16.737925
20
97.837371875
30
0
42
0.9366025863711805
0
VERTEX
8
0
10
17.052640625000002
20
94.64200000000001
30
0
0
SEQEND
0
POLYLINE
66
1
8
16_copper
10
0.0
20
0.0
30
0.0
70
1
0
VERTEX
8
0
10
17.157696875
20
94.64888437500001
30
0
42
0.9999999999999999
0
VERTEX
8
0
10
16.842303125
20
97.851115625
30
0
0
VERTEX
8
0
10
16.737925
20
97.837371875
30
0
42
0.9366025863711805
0
VERTEX
8
0
10
17.052640625000002
20
94.64200000000001
30
0
0
SEQEND
0
POLYLINE
66
1
8
1_copper
10
0.0
20
0.0
30
0.0
70
1
0
VERTEX
8
0
10
3.157696875
20
82.14888437500001
30
0
42
0.9999999999999999
0
VERTEX
8
0
10
2.842303125
20
85.351115625
30
0
0
VERTEX
8
0
10
2.737925
20
85.337371875
30
0
42
0.9366025863711805
0
VERTEX
8
0
10
3.052640625
20
82.14200000000001
30
0
0
SEQEND
0
POLYLINE
66
1
8
16_copper
10
0.0
20
0.0
30
0.0
70
1
0
VERTEX
8
0
10
3.157696875
20
82.14888437500001
30
0
42
0.9999999999999999
0
VERTEX
8
0
10
2.842303125
20
85.351115625
30
0
0
VERTEX
8
0
10
2.737925
20
85.337371875
30
0
42
0.9366025863711805
0
VERTEX
8
0
10
3.052640625
20
82.14200000000001
30
0
0
SEQEND
0
POLYLINE
66
1
8
1_copper
10
0.0
20
0.0
30
0.0
70
1
0
VERTEX
8
0
10
17.157696875
20
82.14888437500001
30
0
42
0.9999999999999999
0
VERTEX
8
0
10
16.842303125
20
85.351115625
30
0
0
VERTEX
8
0
10
16.737925
20
85.337371875
30
0
42
0.9366025863711805
0
VERTEX
8
0
10
17.052640625000002
20
82.14200000000001
30
0
0
SEQEND
0
POLYLINE
66
1
8
16_copper
10
0.0
20
0.0
30
0.0
70
1
0
VERTEX
8
0
10
17.157696875
20
82.14888437500001
30
0
42
0.9999999999999999
0
VERTEX
8
0
10
16.842303125
20
85.351115625
30
0
0
VERTEX
8
0
10
16.737925
20
85.337371875
30
0
42
0.9366025863711805
0
VERTEX
8
0
10
17.052640625000002
20
82.14200000000001
30
0
0
SEQEND
0
CIRCLE
8
drills_via_1_16
10
3
20
96.25
30
0
40
1.1
0
CIRCLE
8
drills_via_1_16
10
17
20
96.25
30
0
40
1.1
0
CIRCLE
8
drills_via_1_16
10
3
20
83.75
30
0
40
1.1
0
CIRCLE
8
drills_via_1_16
10
17
20
83.75
30
0
40
1.1
0
CIRCLE
8
drills_NPTH
10
12.89
20
92.60000000000001
30
0
40
0.35000000000000003
0
CIRCLE
8
drills_NPTH
10
7.11
20
92.60000000000001
30
0
40
0.35000000000000003
0
CIRCLE
8
drills_PTH
10
14.32
20
92.07000000000001
30
0
40
0.325
0
CIRCLE
8
drills_PTH
10
5.680000000000001
20
92.07000000000001
30
0
40
0.325
0
CIRCLE
8
drills_PTH
10
14.32
20
96.25
30
0
40
0.325
0
CIRCLE
8
drills_PTH
10
5.680000000000001
20
96.25
30
0
40
0.325
0
ENDSEC
0
EOF