M48
;GenerationSoftware,Autodesk,EAGLE,9.6.1*%
;CreationDate,2022-11-08T13:19:47Z*%
FMAT,2
ICI,OFF
METRIC,TZ,000.000
T4C0.350
T3C0.650
T2C0.700
T1C2.200
%
G90
M71
T1
X4250Y145000
X18250Y145000
X18250Y132500
X4250Y132500
X64250Y85000
X78250Y85000
X64250Y72500
X78250Y72500
X64250Y105000
X78250Y105000
X64250Y92500
X78250Y92500
X64250Y125000
X78250Y125000
X64250Y112500
X78250Y112500
X64250Y145000
X78250Y145000
X4250Y105000
X64250Y132500
X78250Y132500
X84250Y145000
X98250Y145000
X84250Y132500
X98250Y132500
X84250Y125000
X98250Y125000
X84250Y112500
X98250Y112500
X84250Y105000
X98250Y105000
X84250Y92500
X4250Y125000
X18250Y125000
X4250Y112500
X18250Y112500
X98250Y92500
X18250Y105000
X4250Y92500
X18250Y92500
X4250Y85000
X18250Y85000
X4250Y72500
X18250Y72500
X4250Y65000
X18250Y65000
X4250Y52500
X18250Y52500
X24250Y65000
X38250Y65000
X24250Y52500
X38250Y52500
X24250Y85000
X38250Y85000
X24250Y72500
X38250Y72500
X24250Y105000
X38250Y105000
X24250Y92500
X38250Y92500
X24250Y125000
X38250Y125000
X24250Y112500
X38250Y112500
X24250Y145000
X38250Y145000
X24250Y132500
X38250Y132500
X44250Y145000
X58250Y145000
X44250Y132500
X58250Y132500
X44250Y125000
X58250Y125000
X44250Y112500
X58250Y112500
X44250Y105000
X58250Y105000
X44250Y92500
X58250Y92500
X44250Y85000
X58250Y85000
X44250Y72500
X58250Y72500
X44250Y65000
X58250Y65000
X44250Y52500
X58250Y52500
X64250Y65000
X78250Y65000
X64250Y52500
X78250Y52500
X84250Y65000
X98250Y65000
X84250Y52500
X98250Y52500
X84250Y85000
X98250Y85000
X84250Y72500
X98250Y72500
T2
X68360Y101350
X74140Y101350
X48360Y101350
X54140Y101350
X28360Y101350
X34140Y101350
X8360Y101350
X14140Y101350
X88360Y121350
X94140Y121350
X68360Y121350
X48360Y121350
X54140Y121350
X28360Y121350
X8360Y121350
X14140Y121350
X88360Y141350
X94140Y141350
X68360Y141350
X74140Y141350
X48360Y141350
X54140Y141350
X28360Y141350
X34140Y141350
X8360Y141350
X14140Y141350
X88360Y61350
X34140Y121350
X94140Y61350
X68360Y61350
X74140Y61350
X48360Y61350
X54140Y61350
X74140Y121350
X28360Y61350
X34140Y61350
X8360Y61350
X14140Y61350
X88360Y81350
X94140Y81350
X68360Y81350
X74140Y81350
X48360Y81350
X54140Y81350
X28360Y81350
X34140Y81350
X8360Y81350
X14140Y81350
X88360Y101350
X94140Y101350
T3
X66930Y80820
X75570Y85000
X66930Y85000
X95570Y80820
X86930Y80820
X95570Y85000
X86930Y85000
X15570Y60820
X6930Y60820
X15570Y65000
X6930Y65000
X35570Y60820
X26930Y60820
X35570Y65000
X26930Y65000
X55570Y60820
X46930Y60820
X55570Y65000
X46930Y65000
X75570Y60820
X66930Y60820
X75570Y65000
X66930Y65000
X95570Y60820
X86930Y60820
X95570Y65000
X86930Y65000
X66930Y105000
X15570Y140820
X6930Y140820
X15570Y145000
X6930Y145000
X35570Y140820
X26930Y140820
X35570Y145000
X26930Y145000
X55570Y140820
X46930Y140820
X55570Y145000
X46930Y145000
X75570Y140820
X66930Y140820
X75570Y145000
X66930Y145000
X95570Y140820
X86930Y140820
X95570Y145000
X86930Y145000
X15570Y120820
X6930Y120820
X15570Y125000
X6930Y125000
X35570Y120820
X26930Y120820
X35570Y125000
X26930Y125000
X55570Y120820
X46930Y120820
X55570Y125000
X46930Y125000
X75570Y120820
X66930Y120820
X75570Y125000
X66930Y125000
X95570Y120820
X86930Y120820
X95570Y125000
X86930Y125000
X15570Y100820
X6930Y100820
X15570Y105000
X6930Y105000
X35570Y100820
X26930Y100820
X35570Y105000
X26930Y105000
X55570Y100820
X46930Y100820
X55570Y105000
X46930Y105000
X75570Y100820
X66930Y100820
X75570Y105000
X95570Y100820
X86930Y100820
X95570Y105000
X86930Y105000
X15570Y80820
X6930Y80820
X15570Y85000
X6930Y85000
X35570Y80820
X26930Y80820
X35570Y85000
X26930Y85000
X55570Y80820
X46930Y80820
X55570Y85000
X46930Y85000
X75570Y80820
T4
X16875Y137500
X14050Y135350
X34050Y135250
X14050Y55350
X33950Y55150
X54150Y55250
X74150Y55250
X94250Y55250
X93850Y75250
X73950Y75250
X53750Y75150
X33950Y75250
X14050Y75250
X14250Y95350
X34050Y95350
X53750Y95450
X74050Y95350
X93950Y95450
X94050Y115450
X74150Y115450
X54050Y115450
X34050Y115450
X13950Y115350
X53950Y135250
X73750Y135350
X94050Y135250
X35750Y93250
X68850Y58750
X76875Y57500
X93650Y58750
X88850Y58750
X96875Y57500
X8850Y78750
X13650Y78750
X96875Y97500
X88850Y98750
X93650Y98750
X76875Y97500
X68850Y98750
X73650Y98750
X56875Y97500
X48850Y98750
X53650Y98750
X37500Y97500
X28850Y98750
X33650Y98750
X16875Y97500
X8850Y98750
X16875Y77500
X13650Y98750
X96875Y117500
X88850Y118750
X93650Y118750
X76875Y117500
X68850Y118850
X73650Y118750
X56875Y117500
X48850Y118750
X53650Y118750
X36875Y117500
X33650Y138750
X28850Y118750
X33650Y118750
X16875Y117500
X8850Y118750
X13650Y118750
X96875Y137500
X88850Y138750
X93650Y138750
X76875Y137500
X68850Y138750
X73650Y138750
X56875Y137500
X48850Y138750
X53750Y138750
X36875Y137500
X28850Y138750
X16150Y133650
X8550Y138350
X13650Y138550
X12550Y143050
X10850Y142550
X36750Y99750
X33650Y78750
X28850Y78750
X36875Y77500
X53650Y78750
X48850Y78750
X56875Y77500
X73650Y78750
X68850Y78750
X76875Y77500
X93650Y78750
X96875Y77500
X88850Y78750
X13650Y58750
X8850Y58750
X16875Y57500
X33650Y58750
X28850Y58750
X36875Y57500
X53650Y58750
X48850Y58750
X56875Y57500
X73650Y58750
M30