M48
;GenerationSoftware,Autodesk,EAGLE,9.6.1*%
;CreationDate,2022-09-26T02:18:07Z*%
FMAT,2
ICI,OFF
METRIC,TZ,000.000
T6C0.350
T5C0.550
T4C0.650
T3C0.700
T2C0.800
T1C2.250
%
G90
M71
T1
X3572Y17859
X3572Y5953
X44053Y5953
X44053Y17859
T2
X37814Y19050
X34814Y19050
T3
X26702Y17186
X20923Y17186
T4
X28132Y16656
X19493Y16656
X28132Y20836
X19493Y20836
T5
X7144Y11156
X7144Y12656
X14852Y9327
X13352Y9327
X40481Y12656
X40481Y11156
T6
X17200Y10881
X8600Y11781
X24300Y17781
X22905Y17781
X26800Y13981
X21100Y13981
X38400Y15281
X11300Y13540
X15100Y18381
M30